<svg width="20" height="20" viewBox="0 0 20 20" fill="none" xmlns="http://www.w3.org/2000/svg">
<path d="M12.5559 13.2978L12.1009 13.7778C12.1009 13.7778 11.0179 14.9168 8.06286 11.8058C5.10786 8.69478 6.19086 7.55578 6.19086 7.55578L6.47786 7.25278C7.18386 6.50878 7.25086 5.31478 6.63386 4.44278L5.37386 2.65978C4.60986 1.57978 3.13486 1.43778 2.25986 2.35878L0.690856 4.00978C0.257856 4.46678 -0.032144 5.05778 0.002856 5.71478C0.092856 7.39478 0.810856 11.0078 4.81486 15.2248C9.06186 19.6948 13.0469 19.8728 14.6759 19.7118C15.1919 19.6618 15.6399 19.3828 16.0009 19.0028L17.4209 17.5068C18.3809 16.4968 18.1109 14.7668 16.8829 14.0608L14.9729 12.9608C14.1669 12.4978 13.1859 12.6338 12.5559 13.2968M10.2599 0.629776C10.2757 0.532518 10.3105 0.439326 10.3623 0.355524C10.4141 0.271722 10.4819 0.198954 10.5619 0.141376C10.6419 0.0837986 10.7324 0.0425408 10.8283 0.0199602C10.9242 -0.00262032 11.0236 -0.00608106 11.1209 0.00977581C11.1459 0.0147758 11.2279 0.0297758 11.2709 0.0397758C11.3569 0.0577758 11.4742 0.0877758 11.6229 0.129776C11.9199 0.216776 12.3349 0.359776 12.8329 0.587776C13.8289 1.04478 15.1539 1.84378 16.5299 3.21878C17.9059 4.59478 18.7049 5.92078 19.1619 6.91678C19.3899 7.41478 19.5319 7.82878 19.6189 8.12678C19.6624 8.27658 19.7001 8.42803 19.7319 8.58078L19.7369 8.61178C19.7698 8.80981 19.7235 9.01285 19.6081 9.17711C19.4927 9.34136 19.3173 9.45366 19.1199 9.48978C18.9241 9.52157 18.7236 9.4745 18.5624 9.35886C18.4013 9.24323 18.2925 9.06845 18.2599 8.87278C18.239 8.76235 18.212 8.65317 18.1789 8.54578C18.0767 8.20235 17.9497 7.8668 17.7989 7.54178C17.4089 6.69178 16.7069 5.51778 15.4689 4.27978C14.2309 3.04178 13.0579 2.34078 12.2069 1.95078C11.8822 1.80001 11.5469 1.67301 11.2039 1.57078C11.0986 1.54122 10.9926 1.51454 10.8859 1.49078C10.6895 1.45783 10.514 1.34918 10.3969 1.18818C10.2799 1.02718 10.2307 0.82668 10.2599 0.629776Z" fill="#B7B4B7"/>
<path fill-rule="evenodd" clip-rule="evenodd" d="M10.4859 4.07977C10.5128 3.98501 10.5582 3.89649 10.6194 3.81927C10.6806 3.74205 10.7564 3.67763 10.8424 3.62972C10.9285 3.5818 11.0232 3.55131 11.1211 3.54C11.219 3.52868 11.3181 3.53676 11.4129 3.56378L11.4159 3.56478L11.4189 3.56577L11.4269 3.56777L11.4469 3.57377L11.5029 3.59377C11.5475 3.60911 11.6065 3.63244 11.6799 3.66378C11.8259 3.72578 12.0249 3.82177 12.2699 3.96677C12.7589 4.25677 13.4269 4.73677 14.2119 5.52277C14.9969 6.30777 15.4779 6.97578 15.7679 7.46478C15.9129 7.70977 16.0089 7.90878 16.0708 8.05478C16.1041 8.13116 16.1341 8.20889 16.1609 8.28778L16.1659 8.30777L16.1689 8.31577V8.31878L16.1699 8.31977C16.1699 8.31977 16.1699 8.32177 15.4499 8.52777L16.1699 8.32177C16.2206 8.511 16.1954 8.71258 16.0994 8.88341C16.0035 9.05424 15.8445 9.18075 15.6565 9.23588C15.4685 9.29101 15.2664 9.27039 15.0934 9.17843C14.9204 9.08646 14.7903 8.93046 14.7309 8.74378L14.7279 8.73378L14.6929 8.64577C14.6291 8.50266 14.557 8.36342 14.4769 8.22878C14.2538 7.85278 13.8509 7.28278 13.1509 6.58278C12.4509 5.88278 11.8819 5.48077 11.5049 5.25777C11.3429 5.16272 11.1745 5.07918 11.0009 5.00777L10.9909 5.00378C10.8019 4.94698 10.643 4.81806 10.5485 4.64492C10.454 4.47179 10.4315 4.26939 10.4859 4.07977Z" fill="#B7B4B7"/>
</svg>
