<svg width="25" height="25" viewBox="0 0 25 25" fill="none" xmlns="http://www.w3.org/2000/svg">
<path fill-rule="evenodd" clip-rule="evenodd" d="M11.802 19.136C11.9218 19.2092 12.0596 19.2473 12.2 19.246C12.3403 19.2473 12.4782 19.2092 12.598 19.136L13.733 18.455C14.8311 17.7954 16.0669 17.3989 17.3438 17.2965C18.6206 17.1941 19.9039 17.3887 21.093 17.865C21.983 18.221 22.95 17.565 22.95 16.608V4.94998C22.95 4.37198 22.598 3.85298 22.061 3.63798C20.5292 3.02524 18.8764 2.77501 17.2319 2.90685C15.5874 3.03869 13.9956 3.54903 12.581 4.39798L12.2 4.62398L11.818 4.39498C10.4034 3.54603 8.8116 3.03569 7.16707 2.90385C5.52254 2.77201 3.86979 3.02224 2.33799 3.63498C2.07511 3.73975 1.84983 3.92119 1.69146 4.15572C1.53309 4.39024 1.44895 4.667 1.44999 4.94998V16.61C1.44999 17.567 2.41699 18.222 3.30699 17.866C4.49612 17.3897 5.77935 17.1951 7.05621 17.2975C8.33307 17.3999 9.56892 17.7964 10.667 18.456L11.802 19.136ZM2.94999 5.00798V16.395C4.33191 15.8764 5.81313 15.6766 7.28305 15.8107C8.75298 15.9447 10.1736 16.409 11.439 17.169L11.45 17.175V5.92498L11.047 5.68298C9.83911 4.95807 8.48089 4.52022 7.07704 4.40319C5.6732 4.28616 4.26123 4.49308 2.94999 5.00798ZM12.961 17.168L12.95 17.175V5.92498L13.353 5.68298C14.5609 4.95807 15.9191 4.52022 17.3229 4.40319C18.7268 4.28616 20.1388 4.49308 21.45 5.00798V16.395C20.0681 15.8764 18.5869 15.6766 17.1169 15.8107C15.647 15.9447 14.2263 16.409 12.961 17.169" fill="currentColor"/>
<path d="M9.47499 19.542C8.48094 18.9621 7.35078 18.6566 6.19999 18.6566C5.0492 18.6566 3.91904 18.9621 2.92499 19.542L2.82199 19.602C2.73689 19.6516 2.66241 19.7175 2.60279 19.7959C2.54316 19.8744 2.49957 19.9638 2.4745 20.059C2.44943 20.1543 2.44337 20.2536 2.45666 20.3512C2.46996 20.4488 2.50235 20.5429 2.55199 20.628C2.60163 20.7131 2.66754 20.7875 2.74597 20.8472C2.8244 20.9068 2.9138 20.9504 3.00907 20.9755C3.10434 21.0005 3.20362 21.0066 3.30124 20.9933C3.39885 20.98 3.49289 20.9476 3.57799 20.898L3.68099 20.838C4.44559 20.392 5.31486 20.1571 6.19999 20.1571C7.08512 20.1571 7.95439 20.392 8.71899 20.838L9.80699 21.472C10.5333 21.8956 11.3591 22.1188 12.2 22.1188C13.0408 22.1188 13.8666 21.8956 14.593 21.472L15.681 20.838C16.4456 20.392 17.3149 20.1571 18.2 20.1571C19.0851 20.1571 19.9544 20.392 20.719 20.838L20.822 20.898C20.9939 20.9982 21.1985 21.0261 21.3909 20.9755C21.5833 20.9248 21.7477 20.7998 21.848 20.628C21.9482 20.4561 21.9761 20.2515 21.9255 20.059C21.8748 19.8666 21.7499 19.7022 21.578 19.602L21.475 19.542C20.4809 18.9621 19.3508 18.6566 18.2 18.6566C17.0492 18.6566 15.919 18.9621 14.925 19.542L13.838 20.176C13.3408 20.4661 12.7756 20.6189 12.2 20.6189C11.6244 20.6189 11.0591 20.4661 10.562 20.176L9.47499 19.542Z" fill="currentColor"/>
</svg>
