<svg width="11" height="15" viewBox="0 0 11 15" fill="none" xmlns="http://www.w3.org/2000/svg">
<path d="M4.57916 13.8778C3.03504 13.7234 1.46887 12.9955 0.718866 11.6499C-0.0531932 10.2822 0.145336 8.5837 0.674748 7.12782C0.82916 7.54694 0.983572 7.98811 1.13798 8.40723C1.1821 8.53958 1.22622 8.67194 1.35857 8.73811C1.53504 8.84841 1.77769 8.76017 1.88798 8.5837C1.99828 8.40723 2.02034 8.2087 1.99828 8.01017C1.9321 7.14988 1.44681 6.35576 1.42475 5.51752C1.40269 4.52488 2.02034 3.64252 2.7924 3.02488C2.81445 3.37782 2.90269 3.7087 3.01298 4.03958C3.0571 4.17194 3.12328 4.30429 3.25563 4.32635C3.34387 4.32635 3.4321 4.28223 3.49828 4.21605C4.13798 3.68664 4.53504 2.91458 4.66739 2.09841C4.73357 1.67929 4.73357 1.26017 4.64534 0.863112C4.62328 0.774877 4.44681 0.3337 4.49092 0.267524C4.5571 0.157229 4.91004 0.421935 4.99828 0.466053C6.41004 1.34841 7.33651 2.98076 7.38063 4.63517C7.38063 4.89988 7.42475 5.23076 7.6674 5.27488C7.82181 5.29694 7.97622 5.2087 8.04239 5.07635C8.10857 4.94399 8.13063 4.78958 8.15269 4.63517C9.16739 5.51752 9.89534 6.64252 10.3806 7.87782C10.6674 8.60576 10.8659 9.39988 10.7115 10.1719C10.5792 10.8778 10.2262 11.5175 9.76298 12.0469C8.94681 12.9734 7.86592 13.7013 6.63063 13.8116C5.96887 13.8999 5.28504 13.9219 4.57916 13.8778Z" fill="#F95353"/>
<path d="M8.32916 12.8852C8.28504 13.0396 8.21886 13.194 8.15269 13.3484C7.68945 13.5911 7.1821 13.7675 6.63063 13.8337C6.23357 13.8778 5.81445 13.8999 5.37328 13.8999C5.10857 13.8999 4.84386 13.8999 4.5571 13.8778C4.0718 13.8337 3.58651 13.7234 3.10122 13.5469C2.85857 13.1719 2.6821 12.7528 2.61592 12.3337C2.46151 11.4072 2.74828 10.4146 3.27769 9.64253C3.36592 9.51018 3.54239 9.55429 3.58651 9.7087C3.74092 10.194 4.04975 10.6572 4.42475 11.0322C4.53504 11.1425 4.71151 11.0764 4.73357 10.9219C4.77769 10.3925 4.88798 9.444 5.06445 8.93665C5.3071 8.29694 5.66004 7.65723 6.21151 7.23812C6.3218 7.14988 6.47622 7.194 6.49827 7.34841C6.60857 7.98812 6.91739 8.5837 7.24827 9.15723C7.62327 9.79694 8.04239 10.4366 8.26298 11.1646C8.46151 11.694 8.48357 12.3116 8.32916 12.8852Z" fill="white"/>
<path d="M8.32916 12.8852C8.28504 13.0396 8.21886 13.194 8.15269 13.3484C7.68945 13.5911 7.1821 13.7675 6.63063 13.8337C6.23357 13.8778 5.81445 13.8999 5.37328 13.8999C5.10857 13.8999 4.84386 13.8999 4.5571 13.8778C4.0718 13.8337 3.58651 13.7234 3.10122 13.5469C2.85857 13.1719 2.6821 12.7528 2.61592 12.3337C2.46151 11.4072 2.74828 10.4146 3.27769 9.64253C3.36592 9.51018 3.54239 9.55429 3.58651 9.7087C3.74092 10.194 4.04975 10.6572 4.42475 11.0322C4.53504 11.1425 4.71151 11.0764 4.73357 10.9219C4.77769 10.3925 4.88798 9.444 5.06445 8.93665C5.3071 8.29694 5.66004 7.65723 6.21151 7.23812C6.3218 7.14988 6.47622 7.194 6.49827 7.34841C6.60857 7.98812 6.91739 8.5837 7.24827 9.15723C7.62327 9.79694 8.04239 10.4366 8.26298 11.1646C8.46151 11.694 8.48357 12.3116 8.32916 12.8852Z" fill="#FFD550"/>
<path d="M1.46887 8.53958C1.40269 8.49546 1.38063 8.38516 1.33651 8.31899L0.873277 7.03958C0.851218 6.95134 0.762983 6.88516 0.674748 6.88516C0.586512 6.88516 0.498277 6.95134 0.476218 7.03958C0.101218 8.07634 -0.406135 10.0837 0.542395 11.7602C1.27034 13.0616 2.88063 14.1425 5.39534 14.1425C7.38063 14.1425 8.59387 13.7455 9.93945 12.2234C10.4689 11.6278 10.7997 10.944 10.9542 10.2381C11.0865 9.53222 10.9762 8.7381 10.6233 7.83369C10.0939 6.4881 9.32181 5.38516 8.32916 4.50281C8.26298 4.45869 8.17475 4.43663 8.10857 4.45869C8.0424 4.48075 7.97622 4.56899 7.97622 4.63516C7.95416 4.76752 7.95416 4.89987 7.88798 4.9881C7.84387 5.05428 7.77769 5.0984 7.75563 5.07634C7.68945 5.05428 7.64534 4.94399 7.62328 4.63516C7.5571 2.91458 6.58651 1.19399 5.10857 0.267517L5.06445 0.245458C4.84386 0.0910459 4.64534 -0.0192482 4.46887 0.00281067C4.38063 0.0248695 4.33651 0.0689871 4.29239 0.135164C4.20416 0.267517 4.27034 0.421928 4.38063 0.730752C4.40269 0.796928 4.42475 0.841046 4.42475 0.885164C4.64534 2.05428 4.20416 3.31163 3.34387 4.03958C3.29975 4.08369 3.27769 4.08369 3.27769 4.10575C3.27769 4.10575 3.23357 4.06163 3.21151 3.9734C3.10122 3.66458 3.03504 3.33369 3.01298 3.00281C3.01298 2.91458 2.94681 2.8484 2.88063 2.82634C2.81445 2.80428 2.72622 2.80428 2.66004 2.8484C1.71151 3.5984 1.1821 4.56899 1.20416 5.51752C1.22622 6.00281 1.35857 6.44399 1.51298 6.88516C1.64534 7.28222 1.75563 7.65722 1.79975 8.03222C1.82181 8.23075 1.79975 8.38516 1.73357 8.4734C1.62328 8.53958 1.51298 8.58369 1.46887 8.53958ZM4.29239 11.1646C4.40269 11.2749 4.5571 11.319 4.71151 11.2528C4.86592 11.2087 4.95416 11.0763 4.97622 10.9219C5.02034 10.4146 5.10857 9.4881 5.3071 8.98075C5.54975 8.31899 5.88063 7.78958 6.32181 7.41458C6.45416 8.07634 6.76298 8.67193 7.09387 9.2234C7.16004 9.31163 7.20416 9.42193 7.27034 9.51016C7.57916 10.0396 7.91004 10.591 8.08651 11.1866C8.24092 11.7381 8.26298 12.3116 8.13063 12.819C8.10857 12.9293 8.06445 13.0616 7.99828 13.1719C7.1821 13.591 6.45416 13.6572 5.39534 13.6572C5.3071 13.6572 5.21887 13.6572 5.13063 13.6572C4.53504 13.6352 3.98357 13.591 3.27769 13.3484C3.0571 13.0175 2.92475 12.6425 2.85857 12.2675C2.72622 11.4513 2.94681 10.569 3.4321 9.81899C3.58651 10.2822 3.87328 10.7455 4.29239 11.1646ZM2.19681 7.9881C2.17475 7.54693 2.02034 7.12781 1.91004 6.73075C1.77769 6.31163 1.64534 5.91458 1.62328 5.49546C1.60122 4.78958 1.97622 4.03958 2.59387 3.44399C2.63798 3.66458 2.70416 3.88516 2.77034 4.10575C2.88063 4.43663 3.07916 4.52487 3.21151 4.52487C3.41004 4.54693 3.54239 4.41458 3.60857 4.37046C4.64534 3.51016 5.08651 2.07634 4.84387 0.796928C4.84387 0.752811 4.82181 0.686634 4.77769 0.598399C4.82181 0.620458 4.84387 0.642517 4.86592 0.664575C6.21151 1.52487 7.11592 3.09105 7.13798 4.65722C7.13798 5.16458 7.31445 5.45134 7.60122 5.51752C7.82181 5.56163 8.08651 5.45134 8.21887 5.20869C8.24092 5.16458 8.26298 5.12046 8.28504 5.0984C9.07916 5.89252 9.71887 6.8631 10.1821 8.01016C10.513 8.8484 10.6233 9.55428 10.4909 10.1719C10.3806 10.8116 10.0497 11.4072 9.58651 11.9366C9.25563 12.2896 8.92475 12.5984 8.54975 12.8631C8.6821 12.3116 8.66004 11.694 8.48357 11.0984C8.3071 10.4587 7.95416 9.88516 7.62328 9.31163C7.5571 9.2234 7.51298 9.1131 7.44681 9.02487C7.13798 8.49546 6.82916 7.89987 6.71886 7.28222C6.69681 7.14987 6.60857 7.03958 6.47622 6.9734C6.34387 6.92928 6.18945 6.95134 6.07916 7.03958C5.57181 7.45869 5.15269 8.07634 4.86592 8.8484C4.6674 9.35575 4.57916 10.2602 4.53504 10.8116C4.1821 10.4366 3.93945 10.0396 3.82916 9.66458C3.78504 9.51016 3.65269 9.39987 3.49828 9.37781C3.34387 9.35575 3.21151 9.42193 3.12328 9.53222C2.52769 10.3925 2.26298 11.4293 2.41739 12.3778C2.46151 12.6425 2.52769 12.8852 2.63798 13.1278C1.88798 12.7528 1.27034 12.2013 0.895336 11.5396C0.211512 10.3043 0.387983 8.82634 0.674748 7.81163L0.917395 8.4734C0.961512 8.60575 1.02769 8.80428 1.22622 8.93663C1.51298 9.1131 1.88798 8.98075 2.04239 8.71605C2.21887 8.4734 2.21887 8.18663 2.19681 7.9881Z" fill="black"/>
</svg>
