<svg width="25" height="25" viewBox="0 0 25 25" fill="none" xmlns="http://www.w3.org/2000/svg">
<path d="M9.07002 10.5105C9.12018 10.6613 9.10842 10.8259 9.03733 10.9681C8.96623 11.1103 8.8416 11.2185 8.69082 11.2689C8.50659 11.3271 8.33571 11.4212 8.18804 11.5458C8.04037 11.6705 7.91883 11.8231 7.83042 11.9949C7.60722 12.4137 7.45602 13.1025 7.59642 14.2269C7.61599 14.3849 7.57199 14.5442 7.4741 14.6698C7.3762 14.7953 7.23243 14.8769 7.07442 14.8965C6.9164 14.916 6.75708 14.872 6.63151 14.7741C6.50593 14.6762 6.42439 14.5325 6.40482 14.3745C6.24642 13.0989 6.39402 12.1377 6.77202 11.4309C7.15602 10.7109 7.74042 10.3209 8.31042 10.1313C8.38519 10.1062 8.46416 10.0962 8.54282 10.1017C8.62147 10.1072 8.69827 10.1282 8.76881 10.1634C8.83936 10.1986 8.90227 10.2474 8.95395 10.307C9.00564 10.3665 9.04508 10.4357 9.07002 10.5105ZM14.9908 4.06886C15.0676 4.04559 15.1389 4.00716 15.2006 3.95583C15.2623 3.90451 15.313 3.84135 15.3498 3.77007C15.3867 3.6988 15.4088 3.62086 15.415 3.54087C15.4212 3.46088 15.4113 3.38046 15.3858 3.30438C15.3604 3.22829 15.3199 3.15808 15.2669 3.0979C15.2138 3.03771 15.1492 2.98878 15.0769 2.95399C15.0047 2.91921 14.9261 2.89927 14.846 2.89536C14.7659 2.89146 14.6858 2.90367 14.6104 2.93126C13.486 3.30566 12.784 4.22966 12.3712 5.21966C12.3155 5.35337 12.2647 5.48906 12.2188 5.62646C11.994 5.20064 11.7064 4.81108 11.3656 4.47086C10.904 4.0092 10.353 3.64658 9.74635 3.40517C9.13973 3.16376 8.49025 3.04864 7.83762 3.06686C7.14162 3.08606 6.58602 3.64286 6.56682 4.33766C6.54847 4.99897 6.66702 5.65693 6.91503 6.27024C7.16304 6.88356 7.53516 7.43899 8.00802 7.90166C6.99984 8.11965 6.0887 8.65661 5.40959 9.43298C4.73048 10.2094 4.31953 11.1838 4.23762 12.2121L4.23042 12.3009C4.07199 14.2775 4.49317 16.2574 5.44242 17.9985L5.87442 18.7881C5.88562 18.8089 5.89842 18.8289 5.91282 18.8481L7.11282 20.5305C7.38479 20.9113 7.73648 21.2284 8.14342 21.4596C8.55036 21.6908 9.00278 21.8305 9.46921 21.8691C9.93564 21.9077 10.4049 21.8443 10.8443 21.6831C11.2837 21.522 11.6827 21.2671 12.0136 20.9361C12.0644 20.8852 12.1248 20.8449 12.1912 20.8174C12.2576 20.7899 12.3287 20.7757 12.4006 20.7757C12.4725 20.7757 12.5437 20.7899 12.6101 20.8174C12.6765 20.8449 12.7368 20.8852 12.7876 20.9361C13.1185 21.2671 13.5175 21.522 13.9569 21.6831C14.3964 21.8443 14.8656 21.9077 15.332 21.8691C15.7985 21.8305 16.2509 21.6908 16.6578 21.4596C17.0648 21.2284 17.4164 20.9113 17.6884 20.5305L18.8884 18.8493L18.9268 18.7881L19.3576 17.9985C20.3069 16.2574 20.728 14.2775 20.5696 12.3009L20.5636 12.2121C20.5105 11.5494 20.3203 10.905 20.0051 10.3197C19.6899 9.73437 19.2566 9.22091 18.7326 8.81185C18.2086 8.40278 17.6053 8.10702 16.961 7.94332C16.3166 7.77962 15.6454 7.75154 14.9896 7.86086L13.0012 8.19206C13.0132 7.37486 13.1572 6.45566 13.48 5.68046C13.816 4.87046 14.3152 4.29446 14.9896 4.06886M10.8628 8.03606L10.678 8.00486C9.97372 7.86786 9.32644 7.52353 8.81922 7.01606C8.47308 6.66976 8.20123 6.2565 8.02027 5.80154C7.83932 5.34658 7.75308 4.85949 7.76682 4.37006C7.76772 4.34266 7.779 4.31662 7.79839 4.29723C7.81778 4.27785 7.84381 4.26656 7.87122 4.26566C8.36073 4.25208 8.84787 4.33851 9.30284 4.51967C9.7578 4.70083 10.171 4.97291 10.5172 5.31926C11.2456 6.04766 11.5972 7.00886 11.5696 7.96526C11.5687 7.99266 11.5574 8.0187 11.538 8.03808C11.5187 8.05747 11.4926 8.06876 11.4652 8.06966C11.2638 8.07533 11.0623 8.0641 10.8628 8.03606ZM10.4692 9.18686L10.6768 9.22166L11.6116 9.37766C12.134 9.46471 12.6672 9.46471 13.1896 9.37766L15.1864 9.04406C15.6783 8.96202 16.1818 8.98307 16.6651 9.10586C17.1485 9.22865 17.601 9.45051 17.994 9.75738C18.3871 10.0642 18.7121 10.4494 18.9485 10.8885C19.1849 11.3276 19.3275 11.811 19.3672 12.3081L19.3744 12.3969C19.514 14.1413 19.1421 15.8886 18.304 17.4249L17.8912 18.1809L16.7116 19.8321C16.541 20.0712 16.3204 20.2702 16.065 20.4154C15.8097 20.5606 15.5258 20.6484 15.2331 20.6728C14.9403 20.6971 14.6458 20.6573 14.37 20.5563C14.0942 20.4552 13.8437 20.2953 13.636 20.0877C13.4738 19.9253 13.2811 19.7964 13.069 19.7085C12.8569 19.6206 12.6296 19.5754 12.4 19.5754C12.1704 19.5754 11.9431 19.6206 11.731 19.7085C11.519 19.7964 11.3263 19.9253 11.164 20.0877C10.9563 20.2951 10.7059 20.4549 10.4302 20.5558C10.1545 20.6567 9.86017 20.6964 9.56761 20.6721C9.27504 20.6477 8.99128 20.56 8.73604 20.4149C8.48081 20.2699 8.26022 20.071 8.08962 19.8321L6.91002 18.1809L6.49722 17.4249C5.65917 15.8886 5.28719 14.1413 5.42682 12.3969L5.43402 12.3081C5.47378 11.8111 5.61633 11.3278 5.85264 10.8888C6.08895 10.4499 6.41386 10.0647 6.80678 9.75788C7.19971 9.45103 7.65208 9.22914 8.13525 9.10626C8.61842 8.98339 9.12184 8.9622 9.61362 9.04406L10.4692 9.18686Z" fill="currentColor"/>
</svg>
