<svg width="70" height="80" viewBox="0 0 70 80" fill="none" xmlns="http://www.w3.org/2000/svg">
<circle cx="5" cy="3" r="2.5" fill="#2C486F"/>
<path d="M5 3L30 44" stroke="#2C486E"/>
<g clip-path="url(#clip0_0_1)">
<path d="M16.2057 76.8235L16.1792 55.5583C16.1777 54.2759 14.9636 53.2375 13.4676 53.2389L6.35744 53.2455C4.86106 53.2468 3.64959 54.2874 3.65137 55.5698L3.67789 76.8349L16.2057 76.8235Z" fill="#396194"/>
<path d="M6.10615 55.5699C6.10438 54.2875 7.31584 53.2468 8.81223 53.2455L13.5196 53.2412C13.5021 53.2409 13.4851 53.2389 13.4676 53.2389L6.35744 53.2455C4.86106 53.2468 3.64959 54.2874 3.65137 55.5699L3.67789 76.835L6.13268 76.8328L6.10615 55.5699Z" fill="#2C4970"/>
<path d="M33.2061 76.8118L33.1861 45.5174C33.1844 42.9286 31.9265 40.8319 30.3765 40.835L23.0098 40.8482C21.4597 40.8511 20.2042 42.9516 20.2061 45.5404L20.2259 76.835L33.2061 76.8118Z" fill="#396194"/>
<path d="M22.6935 45.5404C22.692 42.9516 23.9196 40.8508 25.4357 40.8482L30.2061 40.8395C30.1885 40.839 30.1711 40.835 30.1534 40.835L22.9483 40.8482C21.4322 40.851 20.2043 42.9516 20.2061 45.5404L20.2255 76.835L22.713 76.8305L22.6935 45.5404Z" fill="#2C4970"/>
<path d="M50.2061 76.8161L50.1697 30.5959C50.1679 28.5165 48.9116 26.8327 47.3637 26.835L40.006 26.8454C38.4578 26.8477 37.2044 28.5351 37.2061 30.6147L37.2426 76.835L50.2061 76.8161Z" fill="#396194"/>
<path d="M39.6939 30.6147C39.6921 28.5353 40.9199 26.8477 42.4362 26.8454L47.2061 26.8386C47.1887 26.8382 47.172 26.835 47.1545 26.835L39.9483 26.8454C38.4321 26.8477 37.2044 28.5351 37.2061 30.6147L37.2418 76.835L39.7297 76.8314L39.6939 30.6147Z" fill="#2C4970"/>
<path d="M67.2061 76.8221L67.1766 51.4004C67.1749 49.9821 65.9178 48.8333 64.3689 48.835L57.0075 48.8422C55.4586 48.8438 54.2044 49.9946 54.2061 51.4131L54.2354 76.835L67.2061 76.8221Z" fill="#396194"/>
<path d="M56.6936 51.4131C56.6918 49.9948 57.9195 48.8438 59.4356 48.8422L64.2061 48.8374C64.1883 48.8372 64.1711 48.835 64.1534 48.835L56.9481 48.8422C55.432 48.8438 54.2044 49.9946 54.2061 51.4131L54.2347 76.835L56.722 76.8324L56.6936 51.4131Z" fill="#2C4970"/>
<path opacity="0.1" d="M4.40508 76.5487L4.61125 76.5485V76.5463L1.95043 76.5486C0.87213 76.5495 -0.00122917 77.2997 1.2986e-06 78.2242C0.00109505 79.1484 0.876095 79.897 1.95467 79.8961L4.3575 79.8938C3.30313 79.8709 2.45574 79.1333 2.45451 78.224C2.45342 77.2997 3.32651 76.5495 4.40508 76.5487Z" fill="#231F20"/>
</g>
<defs>
<clipPath id="clip0_0_1">
<rect width="70" height="60" fill="white" transform="translate(0 20)"/>
</clipPath>
</defs>
</svg>
