<svg width="40" height="67" viewBox="0 0 40 67" fill="none" xmlns="http://www.w3.org/2000/svg">
<path d="M23.4532 47.289C23.3712 47.113 23.1947 47 23.0002 47H17.0752L22.9227 37.7675C23.0202 37.6135 23.0262 37.4185 22.9382 37.259C22.8502 37.099 22.6822 37 22.5002 37H14.5002C14.3107 37 14.1377 37.107 14.0527 37.2765L6.55272 52.2765C6.4752 52.431 6.4837 52.615 6.5747 52.7625C6.66622 52.91 6.82671 53 7.0002 53H12.1417L6.53919 66.306C6.44368 66.5335 6.5287 66.7974 6.73917 66.9265C6.82015 66.976 6.91014 66.9999 6.99968 66.9999C7.14317 66.9999 7.28468 66.9384 7.3827 66.8225L23.3827 47.8224C23.5082 47.6735 23.5352 47.4655 23.4532 47.289Z" fill="transparent"/>
<path d="M7 52.499L14.5 37.5H22.5L16.6523 46.7324L16.167 47.5H23L7 66.5L12.6025 53.1943L12.8945 52.5H7.00098L7 52.499Z" stroke="#FF7675" stroke-opacity="0.8"/>
<path opacity="0.8" d="M37 4L18 38" stroke="#0E7F85"/>
<circle opacity="0.8" cx="37.5" cy="2.5" r="2.5" fill="#1F2937"/>
</svg>
