<svg width="270" height="262" viewBox="0 0 270 262" fill="none" xmlns="http://www.w3.org/2000/svg">
<g filter="url(#filter0_d_0_1)">
<circle cx="135.5" cy="134.5" r="100.5" fill="white"/>
</g>
<path d="M225.686 225.686C228.322 228.322 232.61 228.333 235.111 225.569C251.456 207.503 262.637 185.314 267.406 161.337C272.615 135.15 269.942 108.006 259.724 83.3377C249.506 58.6697 232.203 37.5856 210.002 22.7516C187.801 7.91761 161.7 1.22009e-06 135 0C108.3 -1.22009e-06 82.1987 7.91761 59.998 22.7516C37.7974 37.5856 20.4941 58.6697 10.2763 83.3377C0.0584343 108.006 -2.61502 135.15 2.59399 161.337C7.36323 185.314 18.5441 207.503 34.8886 225.569C37.3896 228.333 41.6775 228.322 44.3135 225.686C46.9496 223.05 46.9341 218.789 44.4485 216.01C29.9838 199.842 20.0829 180.061 15.8346 158.703C11.1465 135.135 13.5526 110.705 22.7486 88.504C31.9447 66.3027 47.5177 47.327 67.4982 33.9764C87.4788 20.6258 110.97 13.5 135 13.5C159.03 13.5 182.521 20.6259 202.502 33.9764C222.482 47.327 238.055 66.3027 247.251 88.504C256.447 110.705 258.854 135.135 254.165 158.703C249.917 180.061 240.016 199.842 225.552 216.01C223.066 218.789 223.05 223.05 225.686 225.686Z" fill="#F1F3F5"/>
<path d="M44.3135 44.3136C41.6775 41.6775 37.3897 41.6665 34.8886 44.4309C12.4876 69.1902 -1.06639e-06 101.451 0 135C1.06639e-06 168.549 12.4876 200.81 34.8886 225.569C37.3897 228.333 41.6775 228.322 44.3136 225.686C46.9496 223.05 46.9336 218.788 44.4479 216.01C24.571 193.793 13.5 164.967 13.5 135C13.5 105.033 24.571 76.2065 44.4479 53.99C46.9336 51.2118 46.9496 46.9496 44.3135 44.3136Z" fill="#4ECDC4"/>
<defs>
<filter id="filter0_d_0_1" x="8" y="7" width="255" height="255" filterUnits="userSpaceOnUse" color-interpolation-filters="sRGB">
<feFlood flood-opacity="0" result="BackgroundImageFix"/>
<feColorMatrix in="SourceAlpha" type="matrix" values="0 0 0 0 0 0 0 0 0 0 0 0 0 0 0 0 0 0 127 0" result="hardAlpha"/>
<feMorphology radius="1" operator="dilate" in="SourceAlpha" result="effect1_dropShadow_0_1"/>
<feOffset/>
<feGaussianBlur stdDeviation="13"/>
<feComposite in2="hardAlpha" operator="out"/>
<feColorMatrix in="blur" type="matrix" values="
        0 0 0 0 0.3058823529
        0 0 0 0 0.8039215686
        0 0 0 0 0.7686274510
        0 0 0 0.25 0" result="shadow"/>
<feBlend mode="normal" in2="BackgroundImageFix" result="effect1_dropShadow_0_1"/>
<feBlend mode="normal" in="SourceGraphic" in2="effect1_dropShadow_0_1" result="shape"/>
</filter>
</defs>
</svg>
