<svg width="70" height="80" viewBox="0 0 70 80" fill="none" xmlns="http://www.w3.org/2000/svg">
<path opacity="0.8" d="M5 3L30 44" stroke="#0E7F85"/>
<path d="M16.2057 76.8236L16.1792 55.5584C16.1777 54.276 14.9636 53.2376 13.4676 53.239L6.35744 53.2456C4.86106 53.2469 3.64959 54.2875 3.65137 55.5699L3.67789 76.835L16.2057 76.8236Z" fill="white"/>
<path d="M13.4678 53.739C14.7627 53.7378 15.6776 54.6225 15.6787 55.5593L15.7051 76.324L4.17676 76.3337L4.15137 55.5691C4.15013 54.6327 5.06237 53.7472 6.35742 53.7458L13.4678 53.739Z" stroke="#FF7675" stroke-opacity="0.8"/>
<path d="M6.10615 55.57C6.10438 54.2876 7.31584 53.2469 8.81223 53.2456L13.5196 53.2412C13.5021 53.241 13.4851 53.239 13.4676 53.239L6.35744 53.2456C4.86106 53.2469 3.64959 54.2875 3.65137 55.57L3.67789 76.8351L6.13268 76.8328L6.10615 55.57Z" fill="white"/>
<path d="M6.36035 53.7449C5.8931 54.2278 5.60546 54.8585 5.60645 55.571L5.63184 76.3328L4.17676 76.3337L4.15137 55.5691C4.1502 54.6326 5.06244 53.7472 6.35742 53.7458L6.36035 53.7449Z" stroke="#FF7675" stroke-opacity="0.8"/>
<path d="M33.2061 76.8118L33.1861 45.5174C33.1844 42.9286 31.9265 40.8319 30.3765 40.835L23.0098 40.8482C21.4597 40.8511 20.2042 42.9516 20.2061 45.5404L20.2259 76.835L33.2061 76.8118Z" fill="white"/>
<path d="M30.3779 41.335C30.9074 41.3341 31.4733 41.6947 31.9336 42.4619C32.3878 43.2192 32.6857 44.2984 32.6865 45.5176L32.7051 76.3115L20.7246 76.334L20.7061 45.54C20.7052 44.3207 21.0016 43.2405 21.4551 42.4814C21.9148 41.7122 22.4806 41.3496 23.0107 41.3486L30.3779 41.335Z" stroke="#FF7675" stroke-opacity="0.8"/>
<path d="M22.6935 45.5404C22.692 42.9516 23.9196 40.8508 25.4357 40.8482L30.2061 40.8395C30.1885 40.839 30.1711 40.835 30.1534 40.835L22.9483 40.8482C21.4322 40.851 20.2043 42.9516 20.2061 45.5404L20.2255 76.835L22.713 76.8305L22.6935 45.5404Z" fill="white"/>
<path d="M23.5039 41.3467C23.3416 41.5372 23.1944 41.7486 23.0635 41.9727C22.5153 42.911 22.1926 44.1739 22.1934 45.541L22.2119 76.3311L20.7246 76.333L20.7061 45.54C20.7052 44.3186 20.9953 43.2364 21.4395 42.4766C21.8906 41.7048 22.4417 41.3496 22.9492 41.3486L23.5039 41.3467Z" stroke="#FF7675" stroke-opacity="0.8"/>
<path d="M50.2061 76.8161L50.1697 30.5959C50.1679 28.5165 48.9116 26.8327 47.3637 26.835L40.006 26.8454C38.4578 26.8477 37.2044 28.5351 37.2061 30.6147L37.2426 76.835L50.2061 76.8161Z" fill="white"/>
<path d="M47.3643 27.335C47.9437 27.3341 48.5081 27.6476 48.9453 28.2334C49.3826 28.8195 49.6691 29.6538 49.6699 30.5967L49.7051 76.3164L37.7412 76.334L37.7061 30.6143C37.7053 29.6714 37.9894 28.8366 38.4258 28.249C38.8622 27.6615 39.427 27.3466 40.0068 27.3457L47.3643 27.335Z" stroke="#FF7675" stroke-opacity="0.8"/>
<path d="M39.6939 30.6147C39.6921 28.5353 40.9199 26.8477 42.4362 26.8454L47.2061 26.8386C47.1887 26.8382 47.172 26.835 47.1545 26.835L39.9483 26.8454C38.4321 26.8477 37.2044 28.5351 37.2061 30.6147L37.2418 76.835L39.7297 76.8314L39.6939 30.6147Z" fill="white"/>
<path d="M40.3457 27.3447C40.2563 27.4436 40.1713 27.5479 40.0918 27.6572C39.5269 28.4337 39.1934 29.481 39.1943 30.6152L39.2285 76.3311L37.7412 76.334L37.7061 30.6143C37.7053 29.669 37.9845 28.8329 38.4121 28.2451C38.84 27.6569 39.3898 27.3465 39.9492 27.3457L40.3457 27.3447Z" stroke="#FF7675" stroke-opacity="0.8"/>
<path d="M67.2061 76.8221L67.1766 51.4004C67.1749 49.9821 65.9178 48.8333 64.3689 48.835L57.0075 48.8422C55.4586 48.8438 54.2044 49.9946 54.2061 51.4131L54.2354 76.835L67.2061 76.8221Z" fill="white"/>
<path d="M64.3691 49.335C65.6842 49.3335 66.6754 50.2996 66.6768 51.4014L66.7051 76.3223L54.7344 76.334L54.7061 51.4121C54.705 50.3106 55.6929 49.3432 57.0078 49.3418L64.3691 49.335Z" stroke="#FF7675" stroke-opacity="0.8"/>
<path d="M56.6936 51.4131C56.6918 49.9948 57.9195 48.8438 59.4356 48.8422L64.2061 48.8374C64.1883 48.8372 64.1711 48.835 64.1534 48.835L56.9481 48.8422C55.432 48.8438 54.2044 49.9946 54.2061 51.4131L54.2347 76.835L56.722 76.8324L56.6936 51.4131Z" fill="white"/>
<path d="M57.0459 49.3408C56.5194 49.883 56.1923 50.6059 56.1934 51.4141L56.2207 76.332L54.7334 76.334L54.7061 51.4121C54.705 50.301 55.6767 49.3433 56.9482 49.3418L57.0459 49.3408Z" stroke="#FF7675" stroke-opacity="0.8"/>
<path opacity="0.1" d="M4.40508 76.5486L4.61125 76.5484V76.5461L1.95043 76.5485C0.87213 76.5494 -0.00122917 77.2995 1.2986e-06 78.224C0.00109505 79.1483 0.876095 79.8969 1.95467 79.8959L4.3575 79.8937C3.30313 79.8707 2.45574 79.1332 2.45451 78.2239C2.45342 77.2995 3.32651 76.5494 4.40508 76.5486Z" fill="#231F20"/>
<circle opacity="0.8" cx="5" cy="3" r="2.5" fill="#1F2937"/>
</svg>
