<svg width="72" height="75" viewBox="0 0 72 75" fill="none" xmlns="http://www.w3.org/2000/svg">
<path opacity="0.8" d="M4 71L30 38" stroke="#0E7F85"/>
<path d="M44.936 14.3647C48.9592 9.74373 55.5134 9.74373 59.5366 14.3647C63.5952 19.0265 63.5952 26.6825 59.5366 31.3442L56.9897 34.2681L42.187 49.0386C42.0838 49.1415 41.9162 49.1415 41.813 49.0386L27.0093 34.2681L24.4634 31.3442C20.4048 26.6825 20.4048 19.0265 24.4634 14.3647C28.4866 9.74373 35.0408 9.74373 39.064 14.3647L41.6226 17.3042L42.0005 17.7368L42.3774 17.3042L44.936 14.3647Z" fill="transparent" stroke="#FE7675"/>
<path d="M39.3161 39.3441C38.982 39.3441 38.6729 39.1535 38.525 38.8475L33.3321 28.1004L30.7724 31.9022C30.609 32.1448 30.3357 32.2903 30.0434 32.2903H12.8789C12.3935 32.2903 12 31.8969 12 31.4114C12 30.9259 12.3935 30.5325 12.8789 30.5325H29.5755L32.7286 25.8493C32.9044 25.5882 33.2068 25.4412 33.5202 25.4634C33.8341 25.4858 34.1121 25.6745 34.249 25.9579L39.0149 35.8212L42.2729 21.4583C42.3585 21.0812 42.6805 20.8043 43.0661 20.7762C43.4529 20.7504 43.8105 20.9752 43.9499 21.3359L47.9114 31.5846L50.0174 27.2804C50.1547 26.9997 50.4311 26.8129 50.7428 26.79C51.055 26.7684 51.355 26.9119 51.5318 27.1697L53.8365 30.5324H71.1211C71.6065 30.5324 72 30.9258 72 31.4113C72 31.8968 71.6065 32.2902 71.1211 32.2902H53.3735C53.0836 32.2902 52.8124 32.1472 52.6485 31.9082L50.9339 29.4066L48.6063 34.1638C48.4528 34.4776 48.1294 34.672 47.779 34.6556C47.43 34.6405 47.123 34.4202 46.9971 34.0944L43.3495 24.658L40.1734 38.6596C40.0908 39.0238 39.787 39.2961 39.4159 39.3384C39.3825 39.3422 39.3491 39.3441 39.3161 39.3441Z" fill="#FF7675"/>
<circle opacity="0.8" cx="3" cy="72" r="2.5" fill="#1F2937"/>
</svg>
