<svg width="50" height="50" viewBox="0 0 50 50" fill="none" xmlns="http://www.w3.org/2000/svg">
<path d="M50 25C50 38.8071 38.8071 50 25 50C11.1929 50 0 38.8071 0 25C0 11.1929 11.1929 0 25 0C38.8071 0 50 11.1929 50 25ZM7.5 25C7.5 34.665 15.335 42.5 25 42.5C34.665 42.5 42.5 34.665 42.5 25C42.5 15.335 34.665 7.5 25 7.5C15.335 7.5 7.5 15.335 7.5 25Z" fill="#E9ECEF"/>
<path d="M45.5265 19.5022C47.527 18.9663 48.7398 16.8938 47.9111 14.9958C46.9075 12.6976 45.561 10.5569 43.9116 8.6491C41.4419 5.79261 38.3572 3.5327 34.889 2.03902C31.4209 0.545331 27.6595 -0.143312 23.8871 0.0247824C21.3677 0.137048 18.8871 0.629513 16.5277 1.47936C14.5792 2.18122 13.9066 4.48639 14.8918 6.30813C15.8769 8.12988 18.1498 8.76381 20.1394 8.18857C21.4644 7.80547 22.8343 7.57914 24.221 7.51735C26.8616 7.39968 29.4946 7.88173 31.9223 8.92731C34.35 9.97289 36.5093 11.5548 38.2381 13.5544C39.146 14.6044 39.9227 15.7553 40.5547 16.9812C41.5037 18.8221 43.5259 20.038 45.5265 19.5022Z" fill="#FFB703"/>
</svg>
