<svg width="72" height="65" viewBox="0 0 72 65" fill="none" xmlns="http://www.w3.org/2000/svg">
<circle cx="3" cy="62" r="2.5" fill="#2C486F"/>
<path d="M4 61L30 28" stroke="#2C486E"/>
<path opacity="0.6" d="M42.0001 6.97566L39.4409 4.03637C35.2184 -0.813555 28.3088 -0.813555 24.0863 4.03637C19.8638 8.88629 19.8638 16.8223 24.0863 21.6723L26.6454 24.6116L41.4601 39.3923C41.7584 39.6901 42.2416 39.6901 42.5399 39.3923L57.3545 24.6116L59.9137 21.6723C64.1362 16.8223 64.1362 8.88629 59.9137 4.03637C55.6912 -0.813555 48.7816 -0.813555 44.5591 4.03637L42.0001 6.97566Z" fill="white"/>
<g opacity="0.6">
<path d="M32.4097 4.03637L34.9971 6.95035C36.8571 9.04496 40.1251 9.0568 42.0001 6.97566C41.9953 7.00789 38.8159 3.36008 38.4845 3.05984C35.5871 0.43496 31.6604 -0.28422 28.248 1.05359C29.7686 1.64961 31.197 2.64336 32.4097 4.03637Z" fill="white"/>
<path d="M59.9137 4.03637C56.8864 0.559301 52.5164 -0.434566 48.7208 1.0536C50.2413 1.64973 51.6697 2.64348 52.8825 4.03637C57.1226 8.90633 57.1226 16.8022 52.8825 21.6723L50.3234 24.6116L38.4844 36.4235L41.46 39.3923C41.7584 39.6901 42.2415 39.6901 42.5399 39.3923L57.3545 24.6116L59.9136 21.6723C64.1537 16.8022 64.1537 8.90633 59.9137 4.03637Z" fill="white"/>
</g>
<path d="M39.3161 29.3442C38.982 29.3442 38.6729 29.1536 38.525 28.8477L33.3321 18.1005L30.7724 21.9023C30.609 22.1449 30.3357 22.2904 30.0434 22.2904H12.8789C12.3935 22.2904 12 21.897 12 21.4115C12 20.926 12.3935 20.5326 12.8789 20.5326H29.5755L32.7286 15.8494C32.9044 15.5884 33.2068 15.4413 33.5202 15.4635C33.8341 15.4859 34.1121 15.6746 34.249 15.958L39.0149 25.8213L42.2729 11.4584C42.3585 11.0813 42.6805 10.8044 43.0661 10.7763C43.4529 10.7505 43.8105 10.9753 43.9499 11.336L47.9114 21.5847L50.0174 17.2805C50.1547 16.9998 50.4311 16.813 50.7428 16.7901C51.055 16.7685 51.355 16.912 51.5318 17.1698L53.8365 20.5325H71.1211C71.6065 20.5325 72 20.9259 72 21.4114C72 21.8969 71.6065 22.2903 71.1211 22.2903H53.3735C53.0836 22.2903 52.8124 22.1473 52.6485 21.9083L50.9339 19.4067L48.6063 24.1639C48.4528 24.4777 48.1294 24.6721 47.779 24.6557C47.43 24.6406 47.123 24.4203 46.9971 24.0945L43.3495 14.6581L40.1734 28.6597C40.0908 29.0239 39.787 29.2962 39.4159 29.3385C39.3825 29.3423 39.3491 29.3442 39.3161 29.3442Z" fill="#3A6295"/>
</svg>
