<svg width="50" height="50" viewBox="0 0 50 50" fill="none" xmlns="http://www.w3.org/2000/svg">
<path d="M50 25C50 38.8071 38.8071 50 25 50C11.1929 50 0 38.8071 0 25C0 11.1929 11.1929 0 25 0C38.8071 0 50 11.1929 50 25ZM7.5 25C7.5 34.665 15.335 42.5 25 42.5C34.665 42.5 42.5 34.665 42.5 25C42.5 15.335 34.665 7.5 25 7.5C15.335 7.5 7.5 15.335 7.5 25Z" fill="#E9ECEF"/>
<path d="M3.77824 26.0952C1.70992 26.2019 0.0914878 27.9758 0.506117 30.005C1.00314 32.4374 1.86114 34.7891 3.05752 36.9803C4.8549 40.2723 7.36995 43.1176 10.4164 45.3056C13.4627 47.4935 16.9624 48.968 20.656 49.6197C24.3497 50.2714 28.1426 50.0837 31.7538 49.0704C35.3651 48.0572 38.702 46.2443 41.5175 43.7663C44.3329 41.2882 46.5547 38.2084 48.0182 34.755C49.4818 31.3016 50.1495 27.5632 49.972 23.8167C49.8538 21.323 49.3632 18.8682 48.5223 16.5323C47.8208 14.5836 45.5158 13.9106 43.6938 14.8954C41.8719 15.8802 41.2375 18.1529 41.8124 20.1426C42.1904 21.4509 42.4155 22.8029 42.4804 24.1717C42.6047 26.7943 42.1372 29.4111 41.1128 31.8285C40.0883 34.2459 38.5331 36.4017 36.5622 38.1364C34.5914 39.871 32.2555 41.14 29.7277 41.8493C27.1998 42.5586 24.5448 42.69 21.9592 42.2338C19.3737 41.7776 16.9239 40.7455 14.7914 39.2139C12.659 37.6824 10.8984 35.6906 9.64027 33.3862C8.98359 32.1835 8.47255 30.9117 8.11477 29.5977C7.57064 27.5994 5.84655 25.9884 3.77824 26.0952Z" fill="#4ECDC4"/>
</svg>
