<svg width="50" height="50" viewBox="0 0 50 50" fill="none" xmlns="http://www.w3.org/2000/svg">
<path d="M50 25C50 38.8071 38.8071 50 25 50C11.1929 50 0 38.8071 0 25C0 11.1929 11.1929 0 25 0C38.8071 0 50 11.1929 50 25ZM7.5 25C7.5 34.665 15.335 42.5 25 42.5C34.665 42.5 42.5 34.665 42.5 25C42.5 15.335 34.665 7.5 25 7.5C15.335 7.5 7.5 15.335 7.5 25Z" fill="#E9ECEF"/>
<path d="M28.468 4.0349C28.806 1.9916 27.4191 0.0312293 25.3482 0.00238349C20.9809 -0.0584502 16.6502 1.02626 12.7999 3.17898C7.85245 5.94509 3.99187 10.3103 1.85128 15.5588C-0.2893 20.8072 -0.582811 26.6273 1.01889 32.0644C2.26542 36.2959 4.60225 40.1 7.76638 43.1109C9.26673 44.5386 11.6291 44.1073 12.8165 42.4105C14.0039 40.7136 13.5525 38.3976 12.1469 36.8764C10.3313 34.9114 8.97863 32.5434 8.21322 29.9451C7.09203 26.1391 7.29749 22.065 8.7959 18.3911C10.2943 14.7172 12.9967 11.6616 16.4599 9.72529C18.8241 8.40345 21.4471 7.65687 24.1191 7.52216C26.1876 7.41789 28.13 6.0782 28.468 4.0349Z" fill="#6C5CE7"/>
</svg>
