<svg width="196" height="196" viewBox="0 0 196 196" fill="none" xmlns="http://www.w3.org/2000/svg">
<path d="M104 113H88.7202V180.04H104V113Z" fill="#FF7675"/>
<path d="M104 113H96.3599V180.04H104V113Z" fill="#FF7675"/>
<path d="M113.58 113H104V180.04H113.58V113Z" fill="#FF7675"/>
<path d="M104 180.68H88.7201C88.3701 180.68 88.0801 180.39 88.0801 180.04V113C88.0801 112.65 88.3701 112.36 88.7201 112.36H104C104.35 112.36 104.64 112.65 104.64 113V180.04C104.64 180.39 104.36 180.68 104 180.68ZM89.3701 179.4H103.37V113.64H89.3701V179.4Z" fill="black"/>
<path d="M113.58 180.68H104C103.65 180.68 103.36 180.39 103.36 180.04V113C103.36 112.65 103.65 112.36 104 112.36H113.58C113.93 112.36 114.22 112.65 114.22 113V180.04C114.22 180.39 113.93 180.68 113.58 180.68ZM104.64 179.4H112.94V113.64H104.64V179.4Z" fill="black"/>
<path d="M133.45 180.68H68.85C68.5 180.68 68.21 180.39 68.21 180.04C68.21 179.69 68.5 179.4 68.85 179.4H133.45C133.8 179.4 134.09 179.69 134.09 180.04C134.09 180.39 133.81 180.68 133.45 180.68Z" fill="black"/>
<path d="M104.01 114.9V117.78H32.6201C29.7101 117.78 27.3901 115.42 27.3901 112.55C27.3901 112.05 27.4501 111.56 27.6001 111.1C28.2201 113.28 30.2201 114.89 32.6201 114.89H104.01V114.9Z" fill="#FFA8A6"/>
<path d="M139.91 21.26V42.58C139.91 44.25 138.57 45.62 136.9 45.62H123.85V18.25H136.9C138.57 18.25 139.91 19.59 139.91 21.26Z" fill="#FFB703"/>
<path d="M139.92 21.26V42.58C139.92 44.26 138.57 45.62 136.91 45.62H132.91C134.59 45.62 135.92 44.26 135.92 42.58V21.26C135.92 19.59 134.59 18.26 132.91 18.26H136.91C138.57 18.26 139.92 19.59 139.92 21.26Z" fill="#FFB703"/>
<path d="M136.9 46.2601H123.85C123.5 46.2601 123.21 45.9701 123.21 45.6201V18.2501C123.21 17.9001 123.5 17.6101 123.85 17.6101H136.9C138.91 17.6101 140.55 19.2501 140.55 21.2601V42.5801C140.55 44.6101 138.92 46.2601 136.9 46.2601ZM124.49 44.9701H136.9C138.21 44.9701 139.27 43.9001 139.27 42.5701V21.2601C139.27 19.9501 138.21 18.8901 136.9 18.8901H124.49V44.9701Z" fill="black"/>
<path d="M126.92 19.4901V64.7801C126.92 66.7201 125.33 68.3101 123.39 68.3101C121.45 68.3101 119.86 66.7201 119.86 64.7801V19.4901C119.86 17.5501 121.45 15.9601 123.39 15.9601C125.33 15.9601 126.92 17.5501 126.92 19.4901Z" fill="white"/>
<path d="M126.92 19.4901V64.7801C126.92 66.7301 125.33 68.3201 123.39 68.3201C122.84 68.3201 122.31 68.1901 121.85 67.9601C123.03 67.3801 123.85 66.1801 123.85 64.7801V19.4901C123.85 18.1101 123.03 16.9001 121.85 16.3201C122.31 16.0901 122.84 15.9601 123.39 15.9601C125.33 15.9601 126.92 17.5501 126.92 19.4901Z" fill="#FEE4CE"/>
<path d="M123.39 68.9501C121.09 68.9501 119.22 67.0801 119.22 64.7801V19.4901C119.22 17.1901 121.09 15.3201 123.39 15.3201C125.69 15.3201 127.56 17.1901 127.56 19.4901V64.7801C127.56 67.0801 125.69 68.9501 123.39 68.9501ZM123.39 16.6001C121.8 16.6001 120.5 17.9001 120.5 19.4901V64.7801C120.5 66.3701 121.8 67.6701 123.39 67.6701C124.98 67.6701 126.28 66.3701 126.28 64.7801V19.4901C126.28 17.9001 124.98 16.6001 123.39 16.6001Z" fill="black"/>
<path d="M77.31 6.38011C77.28 6.74011 77.18 7.11011 77 7.46011C75.37 10.5501 73.61 12.1601 71.77 12.2501C69.7 12.3401 68.42 10.7801 67.48 9.50011C66.75 10.6401 65.74 11.9101 63.99 12.0801C63.44 12.1301 61.79 12.2901 58.65 9.32011C57.56 8.29011 57.51 6.57011 58.55 5.48011C59.58 4.39011 61.3 4.34011 62.39 5.37011C62.64 5.61011 62.93 5.86011 63.21 6.08011C63.96 4.86011 65.09 3.04011 67.26 3.00011C69.39 2.95011 70.67 4.64011 71.61 5.93011C71.82 5.60011 72.04 5.25011 72.21 4.92011C72.91 3.60011 74.55 3.09011 75.88 3.79011C76.84 4.31011 77.37 5.34011 77.31 6.38011Z" fill="white"/>
<path d="M18.43 156.43C18.63 156.12 18.89 155.84 19.22 155.63C22.14 153.7 24.45 153.13 26.11 153.95C27.97 154.87 28.34 156.85 28.55 158.42C29.74 157.77 31.24 157.14 32.85 157.83C33.35 158.05 34.89 158.7 36.21 162.81C36.67 164.24 35.88 165.77 34.46 166.23C33.03 166.69 31.51 165.91 31.05 164.48C30.94 164.15 30.81 163.79 30.67 163.46C29.42 164.17 27.56 165.22 25.64 164.22C23.75 163.24 23.44 161.14 23.24 159.56C22.9 159.74 22.54 159.95 22.23 160.15C20.98 160.97 19.3 160.63 18.47 159.38C17.85 158.46 17.88 157.3 18.43 156.43Z" fill="#4ECDC4"/>
<path d="M185.32 132.27C185.68 132.36 186.03 132.52 186.34 132.76C189.11 134.89 190.4 136.9 190.16 138.73C189.9 140.79 188.14 141.78 186.72 142.49C187.72 143.4 188.8 144.62 188.67 146.37C188.63 146.92 188.5 148.58 185.04 151.16C183.84 152.06 182.14 151.81 181.24 150.61C180.34 149.41 180.59 147.71 181.79 146.81C182.06 146.6 182.36 146.36 182.63 146.12C181.55 145.17 179.96 143.74 180.28 141.61C180.6 139.5 182.48 138.53 183.91 137.83C183.63 137.56 183.31 137.29 183.02 137.07C181.84 136.15 181.62 134.45 182.53 133.26C183.21 132.38 184.31 132.03 185.32 132.27Z" fill="#FFA8A6"/>
<path d="M159.34 22.7001C159.52 22.1601 159.86 21.6801 160.36 21.3301C161.58 20.4801 163.25 20.7901 164.1 22.0101C166.18 25.0101 168.53 23.9401 168.79 23.8101C170.11 23.1401 171.73 23.6701 172.4 24.9901C173.07 26.3101 172.54 27.9301 171.22 28.6001C168.9 29.7801 163.49 30.5601 159.69 25.0701C159.19 24.3501 159.09 23.4701 159.34 22.7001Z" fill="#5FA7D8"/>
<path d="M108.82 186.91C108.99 187.45 109 188.04 108.79 188.62C108.3 190.02 106.76 190.76 105.36 190.26C101.91 189.05 100.64 191.29 100.51 191.55C99.83 192.87 98.21 193.39 96.89 192.71C95.57 192.03 95.05 190.41 95.73 189.09C96.92 186.77 100.84 182.98 107.14 185.19C107.98 185.48 108.57 186.13 108.82 186.91Z" fill="#FF7675"/>
<path d="M58.55 5.48C58.64 5.39 58.72 5.32 58.81 5.25C58.91 5.73 59.17 6.19 59.56 6.56C62.69 9.53 64.34 9.37 64.89 9.32C66.64 9.15 67.65 7.88 68.38 6.74C69.33 8.02 70.6 9.59 72.68 9.5C74.29 9.43 75.83 8.2 77.29 5.83C77.31 6 77.32 6.19 77.3 6.37C77.28 6.75 77.18 7.11 77 7.46C75.36 10.55 73.61 12.16 71.76 12.25C69.7 12.33 68.41 10.77 67.48 9.5C66.76 10.63 65.74 11.91 63.99 12.08C63.45 12.13 61.78 12.29 58.65 9.32C57.56 8.29 57.51 6.57 58.55 5.48Z" fill="#FEE4CE"/>
<path d="M35.13 165.91C35.13 165.66 35.08 165.43 35.01 165.2C33.69 161.1 32.16 160.44 31.65 160.23C30.03 159.53 28.54 160.17 27.34 160.81C27.14 159.23 26.76 157.25 24.9 156.34C23.24 155.52 20.93 156.09 18.01 158.02C17.97 157.47 18.12 156.92 18.43 156.44C18.62 156.13 18.9 155.85 19.21 155.63C22.13 153.7 24.45 153.13 26.1 153.95C27.96 154.86 28.34 156.85 28.54 158.42C29.73 157.78 31.22 157.14 32.85 157.84C33.35 158.05 34.88 158.71 36.21 162.81C36.6 163.99 36.12 165.24 35.13 165.91Z" fill="#4ECDC4"/>
<path d="M190.16 138.73C189.89 140.79 188.13 141.79 186.72 142.49C187.7 143.4 188.8 144.62 188.66 146.37C188.62 146.91 188.5 148.57 185.04 151.16C184.13 151.85 182.92 151.86 181.99 151.29C185.31 148.77 185.44 147.16 185.49 146.61C185.61 144.86 184.53 143.64 183.54 142.73C184.96 142.02 186.72 141.03 186.98 138.97C187.21 137.13 185.93 135.12 183.16 133C183.09 132.94 183.01 132.89 182.92 132.83C183.59 132.26 184.49 132.06 185.31 132.26C185.67 132.34 186.02 132.51 186.33 132.75C189.11 134.9 190.4 136.91 190.16 138.73Z" fill="#FFA8A6"/>
<path d="M172.67 25.85C172.81 26.95 172.26 28.06 171.22 28.59C168.89 29.78 163.49 30.55 159.69 25.07C159.18 24.35 159.08 23.47 159.35 22.7C159.45 22.38 159.61 22.09 159.83 21.84C159.88 22.25 160.04 22.65 160.28 23.01C164.09 28.5 169.49 27.71 171.82 26.54C172.15 26.38 172.45 26.13 172.67 25.85Z" fill="#3585C5"/>
<path d="M108.82 186.91C108.96 187.35 108.99 187.83 108.87 188.3C108.56 187.93 108.15 187.63 107.67 187.45C101.37 185.23 97.45 189.03 96.25 191.35C96.14 191.56 96.07 191.76 96.02 191.97C95.37 191.17 95.24 190.05 95.73 189.07C96.93 186.76 100.85 182.95 107.15 185.17C107.97 185.48 108.57 186.13 108.82 186.91Z" fill="#FF7675"/>
<path d="M71.5901 12.8901C69.6401 12.8901 68.3401 11.6301 67.5001 10.5801C66.7301 11.5901 65.6601 12.5501 64.0501 12.7101C63.4301 12.7701 61.5601 12.9501 58.2101 9.78006C57.5601 9.16006 57.1901 8.33006 57.1601 7.44006C57.1401 6.54006 57.4601 5.69006 58.0801 5.04006C59.3501 3.70006 61.4801 3.64006 62.8201 4.91006C62.8901 4.98006 62.9701 5.05006 63.0501 5.12006C63.8501 3.90006 65.0901 2.41006 67.2401 2.36006C69.2701 2.28006 70.6401 3.64006 71.5501 4.79006C71.5801 4.73006 71.6101 4.68006 71.6401 4.62006C72.5101 2.99006 74.5401 2.36006 76.1701 3.22006C77.3401 3.84006 78.0401 5.09006 77.9501 6.41006C77.9201 6.88006 77.7901 7.33006 77.5701 7.75006C75.8301 11.0601 73.8801 12.7801 71.8001 12.8801C71.7201 12.8901 71.6601 12.8901 71.5901 12.8901ZM67.4701 8.85006C67.6701 8.85006 67.8701 8.95006 67.9901 9.11006C68.9001 10.3501 70.0201 11.6601 71.7401 11.6001C73.3401 11.5301 74.9201 10.0301 76.4401 7.16006C76.5801 6.90006 76.6601 6.62006 76.6701 6.33006C76.7201 5.52006 76.2901 4.74006 75.5701 4.36006C74.5601 3.83006 73.3001 4.21006 72.7701 5.22006C72.5901 5.56006 72.3601 5.94006 72.1401 6.28006C72.0201 6.46006 71.8301 6.56006 71.6201 6.57006C71.4101 6.60006 71.2101 6.48006 71.0901 6.31006C70.0501 4.88006 68.9701 3.58006 67.2801 3.64006C65.5801 3.68006 64.6501 4.98006 63.7601 6.42006C63.6601 6.58006 63.5101 6.68006 63.3201 6.72006C63.1401 6.75006 62.9501 6.70006 62.8101 6.59006C62.5201 6.36006 62.2101 6.09006 61.9401 5.85006C61.1101 5.07006 59.8001 5.10006 59.0101 5.93006C58.6301 6.33006 58.4301 6.86006 58.4401 7.41006C58.4501 7.96006 58.6801 8.48006 59.0901 8.86006C61.0301 10.7001 62.6501 11.5701 63.9301 11.4401C65.3701 11.3001 66.2301 10.2601 66.9401 9.15006C67.0501 8.97006 67.2501 8.86006 67.4601 8.86006C67.4601 8.85006 67.4701 8.85006 67.4701 8.85006Z" fill="black"/>
<path d="M33.6301 167C32.2101 167 30.8901 166.09 30.4401 164.68C30.4101 164.58 30.3701 164.48 30.3401 164.38C29.0601 165.06 27.2401 165.78 25.3401 164.79C23.5301 163.85 22.9801 162.04 22.7301 160.59C22.6801 160.62 22.6201 160.66 22.5701 160.69C21.0301 161.71 18.9401 161.28 17.9201 159.74C17.1901 158.64 17.1801 157.2 17.8901 156.09C18.1401 155.69 18.4701 155.36 18.8701 155.1C21.9901 153.04 24.5201 152.46 26.3901 153.38C28.2401 154.29 28.8101 156.09 29.0501 157.46C30.2101 156.94 31.6101 156.61 33.1001 157.25C33.6701 157.49 35.4001 158.24 36.8201 162.62C37.0901 163.47 37.0201 164.38 36.6101 165.18C36.2001 165.98 35.5101 166.57 34.6501 166.84C34.3201 166.94 33.9701 167 33.6301 167ZM30.6601 162.82C30.7301 162.82 30.8001 162.83 30.8701 162.85C31.0401 162.91 31.1801 163.04 31.2601 163.21C31.4101 163.56 31.5501 163.94 31.6601 164.28C32.0101 165.37 33.1801 165.96 34.2701 165.62C34.8001 165.45 35.2301 165.09 35.4801 164.59C35.7301 164.09 35.7801 163.54 35.6101 163.01C34.7901 160.47 33.7801 158.92 32.6101 158.42C31.2701 157.85 30.0201 158.35 28.8701 158.98C28.6801 159.08 28.4601 159.08 28.2701 158.99C28.0801 158.89 27.9501 158.71 27.9301 158.5C27.7301 156.97 27.3801 155.27 25.8401 154.52C24.4001 153.81 22.3001 154.37 19.5901 156.16C19.3501 156.32 19.1401 156.53 18.9901 156.77C18.5501 157.46 18.5601 158.34 19.0101 159.03C19.6401 159.98 20.9301 160.25 21.8801 159.62C22.2101 159.41 22.5801 159.19 22.9401 159C23.1301 158.9 23.3501 158.9 23.5401 159C23.7301 159.1 23.8501 159.28 23.8801 159.49C24.1001 161.24 24.4301 162.88 25.9401 163.66C27.4401 164.44 28.8901 163.75 30.3601 162.91C30.4401 162.85 30.5501 162.82 30.6601 162.82Z" fill="black"/>
<path d="M183.42 152.34C183.26 152.34 183.09 152.33 182.93 152.3C182.04 152.17 181.26 151.7 180.72 150.99C179.62 149.51 179.92 147.4 181.4 146.3C181.48 146.24 181.56 146.17 181.65 146.11C180.59 145.12 179.32 143.63 179.64 141.51C179.94 139.49 181.48 138.38 182.77 137.68C182.72 137.64 182.67 137.6 182.62 137.56C181.16 136.43 180.89 134.32 182.02 132.85C182.83 131.8 184.18 131.33 185.46 131.64C185.92 131.75 186.34 131.95 186.72 132.24C189.68 134.52 191.05 136.73 190.79 138.8C190.53 140.84 189 141.97 187.79 142.64C188.66 143.57 189.42 144.79 189.3 146.4C189.25 147.02 189.11 148.9 185.42 151.66C184.84 152.11 184.14 152.34 183.42 152.34ZM184.68 132.84C184.05 132.84 183.44 133.13 183.04 133.65C182.34 134.55 182.51 135.86 183.41 136.56C183.72 136.8 184.05 137.08 184.35 137.36C184.5 137.5 184.58 137.71 184.55 137.92C184.52 138.13 184.39 138.31 184.2 138.4C182.62 139.18 181.17 140.02 180.92 141.7C180.67 143.38 181.79 144.52 183.06 145.64C183.2 145.76 183.28 145.93 183.28 146.12C183.28 146.3 183.2 146.48 183.07 146.6C182.79 146.85 182.48 147.11 182.19 147.33C181.28 148.01 181.09 149.32 181.77 150.23C182.1 150.67 182.59 150.96 183.13 151.04C183.68 151.12 184.22 150.98 184.67 150.65C186.81 149.05 187.95 147.6 188.04 146.33C188.15 144.88 187.27 143.86 186.3 142.97C186.14 142.83 186.07 142.62 186.1 142.41C186.13 142.2 186.26 142.02 186.45 141.93C187.83 141.24 189.33 140.37 189.54 138.66C189.74 137.07 188.54 135.26 185.96 133.28C185.73 133.1 185.47 132.97 185.19 132.91C185.01 132.86 184.85 132.84 184.68 132.84Z" fill="black"/>
<path d="M167.42 30.0901C164.79 30.0901 161.65 29.0201 159.16 25.4401C158.56 24.5701 158.41 23.5001 158.73 22.5001C158.96 21.8101 159.39 21.2201 159.99 20.8101C160.72 20.3001 161.61 20.1101 162.48 20.2701C163.36 20.4301 164.12 20.9201 164.62 21.6501C166.39 24.2101 168.28 23.3501 168.49 23.2401C169.28 22.8401 170.19 22.7701 171.03 23.0501C171.88 23.3301 172.56 23.9201 172.96 24.7101C173.36 25.5001 173.43 26.4001 173.16 27.2501C172.88 28.1001 172.29 28.7801 171.5 29.1801C170.54 29.6601 169.08 30.0901 167.42 30.0901ZM161.89 21.4901C161.48 21.4901 161.07 21.6201 160.73 21.8601C160.36 22.1201 160.09 22.4801 159.95 22.9001C159.75 23.5201 159.84 24.1701 160.21 24.7101C163.76 29.8301 168.77 29.1201 170.93 28.0301C171.42 27.7801 171.78 27.3601 171.95 26.8401C172.12 26.3201 172.08 25.7701 171.83 25.2801C171.58 24.7901 171.16 24.4301 170.64 24.2601C170.12 24.0901 169.57 24.1301 169.08 24.3801C168.77 24.5401 165.97 25.8201 163.58 22.3701C163.27 21.9201 162.8 21.6201 162.26 21.5201C162.14 21.5001 162.01 21.4901 161.89 21.4901Z" fill="black"/>
<path d="M98.1203 193.64C97.6003 193.64 97.0803 193.52 96.6003 193.27C95.8103 192.86 95.2303 192.17 94.9503 191.33C94.6703 190.49 94.7503 189.58 95.1603 188.79C96.4403 186.3 100.64 182.22 107.36 184.58C108.35 184.93 109.11 185.71 109.43 186.71C109.65 187.4 109.64 188.13 109.4 188.82C108.79 190.55 106.88 191.47 105.15 190.85C102.28 189.84 101.26 191.49 101.08 191.83C100.67 192.62 99.9803 193.2 99.1403 193.48C98.8103 193.59 98.4703 193.64 98.1203 193.64ZM103.47 185.16C99.6103 185.16 97.1703 187.69 96.3003 189.38C96.0503 189.87 96.0003 190.42 96.1703 190.94C96.3403 191.46 96.7003 191.88 97.1803 192.13C97.6703 192.38 98.2203 192.43 98.7403 192.26C99.2603 192.09 99.6903 191.73 99.9403 191.25C100.1 190.94 101.62 188.26 105.57 189.65C106.63 190.03 107.81 189.46 108.18 188.4C108.33 187.98 108.34 187.53 108.2 187.1C108 186.48 107.54 186 106.93 185.79C105.68 185.35 104.53 185.16 103.47 185.16Z" fill="black"/>
<path d="M11.0402 57.1801C11.6002 57.2501 12.1402 57.4901 12.5802 57.9201C13.6502 58.9501 13.6702 60.6501 12.6402 61.7201C10.1002 64.3401 11.6002 66.4301 11.7802 66.6601C12.6902 67.8301 12.4902 69.5201 11.3202 70.4301C10.1502 71.3401 8.4602 71.1401 7.5502 69.9701C5.9402 67.9201 4.1402 62.7701 8.7802 57.9701C9.3902 57.3501 10.2402 57.0801 11.0402 57.1801Z" fill="#FFB703"/>
<path d="M10.5201 70.8701C9.47012 71.2201 8.27012 70.9001 7.55012 69.9801C5.93012 67.9201 4.13011 62.7701 8.78011 57.9901C9.39011 57.3501 10.2301 57.0901 11.0301 57.1901C11.3701 57.2401 11.6801 57.3301 11.9701 57.5001C11.5801 57.6301 11.2101 57.8501 10.9101 58.1701C6.26011 62.9701 8.07011 68.1201 9.67011 70.1701C9.91011 70.4601 10.2101 70.7101 10.5201 70.8701Z" fill="#FFB703"/>
<path d="M9.67008 71.6501C9.53008 71.6501 9.40008 71.6401 9.26008 71.6301C8.38008 71.5201 7.59008 71.0801 7.04008 70.3801C5.32008 68.1701 3.36008 62.6501 8.32008 57.5401C9.05008 56.7801 10.0801 56.4301 11.1201 56.5501C11.8401 56.6401 12.5001 56.9501 13.0301 57.4601C14.3501 58.7401 14.3801 60.8501 13.1001 62.1701C10.9801 64.3501 12.0501 65.9701 12.2901 66.2701C12.8401 66.9701 13.0801 67.8401 12.9701 68.7201C12.8601 69.6001 12.4201 70.3901 11.7201 70.9401C11.1301 71.4101 10.4101 71.6501 9.67008 71.6501ZM10.7101 57.8001C10.1601 57.8001 9.64008 58.0201 9.25008 58.4201C4.90008 62.9001 6.57008 67.6801 8.05008 69.5801C8.39008 70.0101 8.87008 70.2801 9.41008 70.3501C9.95008 70.4201 10.4901 70.2701 10.9201 69.9301C11.3501 69.5901 11.6301 69.1101 11.6901 68.5701C11.7601 68.0301 11.6101 67.4901 11.2701 67.0601C11.0501 66.7801 9.26008 64.2801 12.1701 61.2701C12.9601 60.4601 12.9401 59.1601 12.1301 58.3801C11.8101 58.0701 11.4001 57.8701 10.9601 57.8201C10.8801 57.8101 10.7901 57.8001 10.7101 57.8001Z" fill="black"/>
<path d="M142.32 76.7301V112.55C142.32 115.42 139.97 117.78 137.07 117.78H73.9099V46.6301H112.22C128.86 46.6301 142.32 60.0901 142.32 76.7301Z" fill="#FFA8A6"/>
<path d="M142.32 76.7301V112.55C142.32 115.42 139.96 117.78 137.06 117.78H73.9099V95.3601C74.6399 93.6901 75.6399 92.1701 77.0099 90.9501C81.2299 87.1901 87.5299 87.4001 93.1599 87.8301C100.95 88.4201 108.76 89.0101 116.55 89.6001C118.06 89.7201 119.7 89.8001 120.97 88.9601C123.28 87.4501 122.98 84.0801 122.64 81.3501C121.72 74.1701 122.4 66.5701 125.99 60.2901C127.4 57.8201 129.36 55.5501 131.67 53.7701C138.2 59.2801 142.32 67.5201 142.32 76.7301Z" fill="#FFA8A6"/>
<path d="M137.07 118.42H73.91C73.56 118.42 73.27 118.13 73.27 117.78V46.6301C73.27 46.2801 73.56 45.9901 73.91 45.9901H112.22C129.17 45.9901 142.96 59.7801 142.96 76.7301V112.55C142.96 115.78 140.32 118.42 137.07 118.42ZM74.55 117.13H137.07C139.61 117.13 141.68 115.07 141.68 112.54V76.7301C141.68 60.4901 128.46 47.2701 112.22 47.2701H74.55V117.13Z" fill="black"/>
<path d="M104.01 76.7301V117.78H43.8101V76.7301C43.8101 68.4401 47.1801 60.8901 52.6201 55.4401C58.0701 50.0001 65.5901 46.6301 73.9101 46.6301C90.5201 46.6301 104.01 60.1201 104.01 76.7301Z" fill="#FFA8A6"/>
<path d="M104.01 76.7301V117.78H43.8101V114.37C45.2501 113.88 46.7301 113.52 48.1801 113.13C53.2301 111.75 58.1001 109.7 62.6101 107.03C65.6001 105.26 68.5201 103.15 70.2901 100.16C72.3001 96.8001 72.6401 92.6701 72.1901 88.7801C71.7301 84.8801 70.5501 81.1301 69.7001 77.2901C68.7901 73.2101 68.4201 68.5101 71.0601 65.2701C72.4701 63.5401 74.5501 62.5101 76.5801 61.5701C80.8601 59.5801 85.2101 57.7401 89.6301 56.0501C91.1001 55.4901 92.6201 54.9401 94.1501 54.4901C100.22 59.9801 104.01 67.9201 104.01 76.7301Z" fill="#FFA8A6"/>
<path d="M104.01 118.42H43.8099C43.4599 118.42 43.1699 118.13 43.1699 117.78V76.7301C43.1699 68.5101 46.3699 60.7901 52.1699 54.9901C57.9699 49.1901 65.6899 45.9901 73.9099 45.9901C90.8599 45.9901 104.65 59.7801 104.65 76.7301V117.78C104.65 118.13 104.36 118.42 104.01 118.42ZM44.4499 117.13H103.37V76.7301C103.37 60.4901 90.1499 47.2701 73.9099 47.2701C66.0299 47.2701 58.6299 50.3301 53.0699 55.8901C47.5099 61.4501 44.4499 68.8501 44.4499 76.7301V117.13Z" fill="black"/>
<path d="M97.7301 77.9301V117.78H50.1001V77.9301C50.1001 71.3701 52.7501 65.3901 57.0701 61.0901C61.3801 56.7701 67.3201 54.1201 73.9101 54.1201C78.3301 54.1201 82.4901 55.3401 86.0501 57.4501C93.0401 61.5801 97.7301 69.2101 97.7301 77.9301Z" fill="#3A3A3A"/>
<path d="M97.7301 77.9301V117.78H50.1001V112.56C54.4701 111.21 58.6901 109.36 62.6201 107.02C65.6101 105.25 68.5301 103.14 70.3001 100.15C72.3101 96.7901 72.6501 92.6601 72.2001 88.7701C71.7401 84.8701 70.5601 81.1201 69.7101 77.2801C68.8001 73.2001 68.4301 68.5001 71.0701 65.2601C72.4801 63.5301 74.5601 62.5001 76.5901 61.5601C79.7001 60.1101 82.8601 58.7401 86.0501 57.4501C93.0401 61.5801 97.7301 69.2101 97.7301 77.9301Z" fill="#2B2D2C"/>
<path d="M97.73 118.42H50.09C49.74 118.42 49.45 118.13 49.45 117.78V77.9201C49.45 71.3801 51.99 65.2401 56.61 60.6201C61.23 56.0001 67.37 53.4601 73.91 53.4601C87.4 53.4601 98.37 64.4301 98.37 77.9201V117.77C98.37 118.13 98.08 118.42 97.73 118.42ZM50.7299 117.13H97.0899V77.9201C97.0899 65.1401 86.69 54.7401 73.91 54.7401C67.71 54.7401 61.89 57.1501 57.52 61.5201C53.14 65.9001 50.74 71.7201 50.74 77.9101V117.13H50.7299Z" fill="black"/>
<path d="M104.01 107.3V117.78H32.6199C29.7199 117.78 27.3899 115.43 27.3899 112.55C27.3899 111.1 27.9599 109.79 28.9199 108.83C29.8499 107.9 31.1599 107.3 32.6099 107.3H104.01Z" fill="#FFA8A6"/>
<path d="M104.01 118.42H32.62C29.38 118.42 26.75 115.79 26.75 112.55C26.75 110.97 27.36 109.49 28.47 108.38C29.56 107.29 31.07 106.66 32.62 106.66H104.01C104.36 106.66 104.65 106.95 104.65 107.3V117.78C104.65 118.13 104.36 118.42 104.01 118.42ZM32.62 107.94C31.41 107.94 30.23 108.43 29.38 109.28C28.51 110.15 28.03 111.31 28.03 112.55C28.03 115.08 30.09 117.14 32.62 117.14H103.37V107.94H32.62Z" fill="black"/>
<path d="M82.7698 77.1101V101.8C82.7698 104.84 80.3098 107.3 77.2698 107.3H43.8198C40.7798 107.3 38.3198 104.84 38.3198 101.8V77.1101C38.3198 74.0701 40.7798 71.6101 43.8198 71.6101H77.2698C80.3098 71.6101 82.7698 74.0701 82.7698 77.1101Z" fill="#FFB703"/>
<path d="M82.7698 77.1101V101.8C82.7698 104.84 80.3098 107.3 77.2698 107.3H43.8198C40.7798 107.3 38.3198 104.84 38.3198 101.8V97.8001C41.9298 97.4601 45.5898 98.0801 49.2198 98.0401C53.0698 97.9801 57.2298 96.9601 59.5998 93.9201C63.9098 88.4001 60.0898 79.5201 64.0298 73.7201C64.5798 72.9101 65.2598 72.2101 65.9998 71.6201H77.2598C80.3098 71.6101 82.7698 74.0701 82.7698 77.1101Z" fill="#FFB703"/>
<path d="M77.2699 107.93H43.8199C40.4399 107.93 37.6799 105.18 37.6799 101.79V77.1101C37.6799 73.7301 40.4299 70.9701 43.8199 70.9701H77.2699C80.6499 70.9701 83.4099 73.7201 83.4099 77.1101V101.8C83.4099 105.18 80.6499 107.93 77.2699 107.93ZM43.8199 72.2501C41.1399 72.2501 38.9699 74.4301 38.9699 77.1001V101.79C38.9699 104.47 41.1499 106.64 43.8199 106.64H77.2699C79.9499 106.64 82.1199 104.46 82.1199 101.79V77.1101C82.1199 74.4301 79.9399 72.2601 77.2699 72.2601H43.8199V72.2501Z" fill="black"/>
<path d="M60.5499 96.3301C59.7799 96.3301 59.0099 96.0601 58.3799 95.5101L37.9099 77.5901C37.7699 77.4701 37.6899 77.2901 37.6899 77.1101C37.6899 73.7301 40.4399 70.9701 43.8299 70.9701H77.2799C80.6599 70.9701 83.4199 73.7201 83.4199 77.1101C83.4199 77.2901 83.3399 77.4701 83.1999 77.5901L62.7199 95.5101C62.0899 96.0601 61.3199 96.3301 60.5499 96.3301ZM38.9799 76.8201L59.2199 94.5401C59.9899 95.2101 61.0999 95.2101 61.8699 94.5401L82.1099 76.8201C81.9599 74.2801 79.8399 72.2501 77.2599 72.2501H43.8199C41.2399 72.2501 39.1199 74.2801 38.9799 76.8201Z" fill="black"/>
<path d="M118.33 89.1702C118.09 89.1702 117.9 88.9802 117.9 88.7402C117.9 87.3002 116.73 86.1301 115.29 86.1301C113.85 86.1301 112.68 87.3002 112.68 88.7402C112.68 88.9802 112.49 89.1702 112.25 89.1702C112.01 89.1702 111.82 88.9802 111.82 88.7402C111.82 86.8302 113.37 85.2802 115.28 85.2802C117.19 85.2802 118.74 86.8302 118.74 88.7402C118.76 88.9802 118.57 89.1702 118.33 89.1702Z" fill="black"/>
<path d="M132.62 89.1702C132.38 89.1702 132.19 88.9802 132.19 88.7402C132.19 87.3002 131.02 86.1301 129.58 86.1301C128.14 86.1301 126.97 87.3002 126.97 88.7402C126.97 88.9802 126.78 89.1702 126.54 89.1702C126.3 89.1702 126.11 88.9802 126.11 88.7402C126.11 86.8302 127.66 85.2802 129.57 85.2802C131.48 85.2802 133.03 86.8302 133.03 88.7402C133.05 88.9802 132.86 89.1702 132.62 89.1702Z" fill="black"/>
<path d="M128.8 98.0601C128.8 99.8001 128.11 101.36 127.02 102.44C126.06 103.39 124.78 103.96 123.38 103.96C121.98 103.96 120.71 103.38 119.75 102.44C118.66 101.36 117.97 99.8001 117.97 98.0601C117.97 94.8001 120.39 97.6602 123.38 97.6602C126.38 97.6602 128.8 94.8001 128.8 98.0601Z" fill="white"/>
<path d="M111.34 97.4301C113.113 97.4301 114.55 96.5168 114.55 95.3901C114.55 94.2634 113.113 93.3501 111.34 93.3501C109.567 93.3501 108.13 94.2634 108.13 95.3901C108.13 96.5168 109.567 97.4301 111.34 97.4301Z" fill="#FDADC3"/>
<path d="M135.43 97.4301C137.203 97.4301 138.64 96.5168 138.64 95.3901C138.64 94.2634 137.203 93.3501 135.43 93.3501C133.657 93.3501 132.22 94.2634 132.22 95.3901C132.22 96.5168 133.657 97.4301 135.43 97.4301Z" fill="#FDADC3"/>
</svg>
