<svg enable-background="new 0 0 64 64" viewBox="0 0 64 64" xmlns="http://www.w3.org/2000/svg"><g id="Appointment"><g><g><ellipse id="XMLID_90_" cx="56.056" cy="57.66" fill="#fff" rx="1.944" ry="2.006"/><path d="m56.056 60.666c-1.623 0-2.944-1.349-2.944-3.006 0-1.658 1.321-3.007 2.944-3.007s2.944 1.349 2.944 3.007c0 1.657-1.321 3.006-2.944 3.006zm0-4.013c-.521 0-.944.452-.944 1.007s.424 1.006.944 1.006.944-.451.944-1.006-.424-1.007-.944-1.007z" fill="#448af9"/></g><path d="m8.486 11.668c-.553 0-1-.447-1-1v-5.13c0-.553.447-1 1-1s1 .447 1 1v5.13c0 .553-.447 1-1 1z" fill="#448af9"/><path d="m10.972 9.104h-4.972c-.553 0-1-.447-1-1s.447-1 1-1h4.972c.553 0 1 .447 1 1s-.448 1-1 1z" fill="#448af9"/><g><g><g><path id="XMLID_89_" d="m14.527 15.018h31.737c1.351 0 2.447 1.27 2.447 2.836v41.31c0 1.566-1.096 2.836-2.447 2.836h-31.737c-1.351 0-2.447-1.27-2.447-2.836v-41.31c0-1.566 1.096-2.836 2.447-2.836z" fill="#fff"/><path d="m46.264 63h-31.737c-1.9 0-3.447-1.721-3.447-3.836v-41.31c0-2.115 1.547-3.837 3.447-3.837h31.736c1.9 0 3.447 1.722 3.447 3.837v41.31c.001 2.115-1.546 3.836-3.446 3.836zm-31.737-46.982c-.798 0-1.447.824-1.447 1.837v41.31c0 1.013.649 1.836 1.447 1.836h31.736c.798 0 1.447-.823 1.447-1.836v-41.31c0-1.013-.649-1.837-1.447-1.837z" fill="#1b2a37"/></g><g><g fill="#1b2a37"><path d="m17.994 32.326c-.237 0-.469-.085-.65-.24l-1.216-1.041c-.42-.359-.469-.99-.109-1.41.361-.42.992-.467 1.41-.109l.42.36 2.113-2.713c.34-.436.967-.514 1.403-.175.436.34.514.968.175 1.403l-2.757 3.539c-.168.216-.417.354-.688.381-.034.003-.068.005-.101.005z"/><path d="m17.994 42.718c-.237 0-.469-.085-.65-.24l-1.216-1.041c-.42-.359-.469-.99-.109-1.41.361-.421.992-.467 1.41-.109l.42.36 2.113-2.713c.34-.436.967-.513 1.403-.175.436.34.514.968.175 1.403l-2.757 3.539c-.168.216-.417.354-.688.381-.034.003-.068.005-.101.005z"/><path d="m17.994 53.109c-.237 0-.469-.085-.65-.24l-1.216-1.041c-.42-.359-.469-.99-.109-1.41.361-.421.992-.467 1.41-.109l.42.36 2.113-2.713c.34-.436.967-.513 1.403-.175.436.34.514.968.175 1.403l-2.757 3.539c-.168.216-.417.354-.688.381-.034.003-.068.005-.101.005z"/></g><g><path d="m44.014 30.557h-18.473c-.553 0-1-.447-1-1s.447-1 1-1h18.473c.553 0 1 .447 1 1s-.448 1-1 1z" fill="#1b2a37"/></g><g><path d="m44.014 40.948h-18.473c-.553 0-1-.447-1-1s.447-1 1-1h18.473c.553 0 1 .447 1 1s-.448 1-1 1z" fill="#1b2a37"/></g><g><path d="m44.014 51.34h-18.473c-.553 0-1-.447-1-1s.447-1 1-1h18.473c.553 0 1 .447 1 1s-.448 1-1 1z" fill="#1b2a37"/></g></g></g><g id="XMLID_97_"><g><ellipse id="XMLID_81_" cx="30.396" cy="12.714" fill="#d2e2fe" rx="10.328" ry="10.714"/><path d="m30.396 24.428c-6.246 0-11.327-5.255-11.327-11.714s5.08-11.714 11.327-11.714 11.328 5.255 11.328 11.714-5.082 11.714-11.328 11.714zm0-21.428c-5.143 0-9.327 4.357-9.327 9.714s4.185 9.714 9.327 9.714c5.144 0 9.328-4.357 9.328-9.714s-4.185-9.714-9.328-9.714z" fill="#448af9"/></g><path d="m33.588 16.044c-.204 0-.41-.063-.589-.192l-3.193-2.33c-.258-.188-.41-.488-.41-.808v-6.236c0-.553.447-1 1-1s1 .447 1 1v5.729l2.783 2.03c.445.325.544.951.218 1.397-.196.267-.501.41-.809.41z" fill="#1b2a37"/></g></g></g></g><g id="E-transaction"/><g id="Calendar"/><g id="Credit_lock"/><g id="Career_growth"/><g id="Notice_pin"/><g id="Speak_or_communication"/><g id="Megaphone"/><g id="Clipboard"/><g id="Accounting"/><g id="Bank_notes"/><g id="Paper_sheets"/><g id="Cash_bank"/><g id="Portfolio"/><g id="Economist"/><g id="Clock"/><g id="Notebook_with_pen"/><g id="Journal"/><g id="Organization"/><g id="Foreign_investment"/><g id="Deadline"/><g id="Cloud_computing"/><g id="Hot_tea"/><g id="Online_banking"/><g id="Geometry"/><g id="Suitcase_and_trophy"/><g id="Award"/><g id="Interview"/><g id="Notepad"/><g id="Currency_value"/><g id="Workplace"/><g id="Dollar_x2C_marketing"/><g id="Accountant"/><g id="Article"/><g id="Aim"/><g id="Analytics_1_"/><g id="Business_report"/><g id="Success"/><g id="Analytics"/><g id="Business_growth"/><g id="File_processing"/><g id="Checklist"/><g id="Puzzle"/><g id="Monitoring"/><g id="Presentation"/></svg>