<svg id="Layer_1" enable-background="new 0 0 512 512" viewBox="0 0 512 512" xmlns="http://www.w3.org/2000/svg"><g><g><path d="m145.7 367.5c-25.2 0-45.7 20.5-45.7 45.7 2.3 60.4 89.1 60.4 91.3 0 0-25.2-20.5-45.7-45.6-45.7zm0 80.5c-19.2 0-34.9-15.6-34.9-34.8 1.7-46.2 68.1-46.2 69.8 0-.1 19.2-15.8 34.8-34.9 34.8z" fill="#2D3436"/></g><g><path d="m231.3 395.5c-.1 0-16-2.4-16.1-2.4-1.5-5-3.4-9.9-5.9-14.4l9.8-13c2.4-3.2 2.1-7.8-.8-10.6l-14-14c-2.9-2.9-7.4-3.2-10.6-.8l-13 9.6c-4.8-2.7-9.8-4.7-15-6.3l-2.4-16.1c-.6-4-4-6.8-8-6.8h-19.9c-4 0-7.5 3-8 7l-2.3 16.2c-5 1.5-9.8 3.5-14.4 6l-13-9.6c-3.3-2.4-7.7-2-10.6.8l-14.2 13.9c-2.9 2.9-3.2 7.4-.8 10.6l9.8 13c-2.5 4.6-4.4 9.4-5.9 14.4l-16 2.5c-4 .6-6.8 4-6.8 8.1v19.8c0 4 3 7.4 7 8l16.2 2.3c1.5 5 3.5 9.8 6 14.4l-9.6 13c-2.4 3.3-2 7.7.8 10.6l14.1 14.1c2.9 2.9 7.3 3.2 10.6.8l13-9.8c4.4 2.4 9 4.3 13.8 5.7l2.3 16.2c.5 4 4 7 8 7h19.9c4 0 7.4-2.9 8-6.9l2.4-16c5-1.5 9.9-3.4 14.4-5.9l13 9.8c3.2 2.4 7.8 2.2 10.6-.7l14.1-14.1c2.9-2.9 3.2-7.3.8-10.6l-9.6-13c2.5-4.6 4.6-9.4 6-14.4l16.2-2.3c4-.6 7-4 7-8v-19.8c0-4.2-2.9-7.6-6.9-8.3zm-3.9 25.6-17.4 2.5c-2.2.3-4 1.9-4.5 4-1.6 6.4-4.1 12.4-7.5 17.9-1.2 1.9-1.1 4.3.2 6l10.3 14.1-10.8 10.8-14.1-10.5c-1.8-1.3-4.1-1.5-6-.3-5.6 3.3-11.6 5.8-18 7.3-2.2.5-3.8 2.3-4.1 4.5l-2.6 17.2h-15.3l-2.5-17.4c-.3-2.2-1.9-3.9-4.1-4.5-6.2-1.5-12.1-3.9-17.5-7.2-1.9-1.2-4.3-1.1-6 .3l-14.1 10.5-10.8-10.8 10.3-14.1c1.3-1.8 1.4-4.1.2-6-3.4-5.6-6-11.6-7.5-17.9-.5-2.2-2.3-3.8-4.5-4l-17.4-2.5v-15.3l17.3-2.6c2.2-.3 3.9-2 4.4-4.1 1.5-6.4 3.9-12.4 7.3-18 1.1-1.9 1-4.3-.3-6l-10.2-14 10.8-10.8 14.1 10.3c1.8 1.3 4.1 1.4 6 .2 5.6-3.4 11.6-6 17.9-7.5 2.2-.5 3.8-2.3 4.1-4.5l2.5-17.4h15.3l2.6 17.3c.4 2.2 2 3.9 4.1 4.4 6.5 1.5 12.7 4.1 18.5 7.7 1.9 1.2 4.3 1.1 6-.2l14.1-10.3 10.8 10.8-10.5 14.1c-1.3 1.8-1.4 4.1-.3 6 3.4 5.6 5.9 11.6 7.3 18 .5 2.2 2.3 3.8 4.4 4.1l17.4 2.6v15.3z" fill="#2D3436"/></g><g><path d="m210.1 403.3c-2.2-.3-3.9-2-4.4-4.1-1.5-6.4-3.9-12.4-7.3-18-1.1-1.9-1-4.3.3-6l10.5-14.1-10.8-10.8-14.1 10.3c-1.8 1.3-4.1 1.4-6 .2-5.8-3.6-12-6.1-18.5-7.7-2.2-.5-3.8-2.3-4.1-4.4l-2.6-17.3h-15.3l-2.5 17.4c-.3 2.2-1.9 4-4.1 4.5-6.4 1.6-12.4 4.1-17.9 7.5-1.9 1.2-4.3 1.1-6-.2l-14.3-10.4-10.8 10.8 10.5 14.1c1.3 1.8 1.4 4.1.3 6-3.4 5.6-5.9 11.6-7.3 18-.5 2.2-2.3 3.8-4.4 4.1l-17.3 2.6v15.3l17.4 2.5c2.2.3 4 1.9 4.5 4 1.6 6.4 4.1 12.4 7.5 17.9 1.2 1.9 1.1 4.3-.2 6l-10.3 14.1 10.8 10.8 14.1-10.5c1.8-1.3 4.1-1.5 6-.3 5.4 3.3 11.3 5.7 17.5 7.2 2.2.5 3.8 2.3 4.1 4.5l2.5 17.4h15.3l2.6-17.2c.4-2.2 2-3.9 4.1-4.5 6.4-1.5 12.4-4 18-7.3 1.9-1.2 4.3-1.1 6 .3l14.1 10.5 10.8-10.8-10.3-14.1c-1.3-1.8-1.4-4.1-.2-6 3.4-5.6 6-11.6 7.5-17.9.5-2.2 2.3-3.8 4.5-4l17.4-2.5v-15.3zm-64.4 55.5c-25.2 0-45.7-20.4-45.7-45.6 2.3-60.5 89.1-60.6 91.3 0 0 25.1-20.5 45.6-45.6 45.6z" fill="#73adc6"/></g><g><path d="m395.4 210.1v-131.2-25.3c0-14.9-12.1-27.1-27-27.1h-24.6v-6c.2-7.5-6.5-14.2-14.1-14.1-7.7 0-14 6.3-14 14.1v6h-39.9v-6c.2-7.5-6.6-14.3-14.1-14.1-7.8 0-14 6.3-14 14.1v6h-39.9v-6c.2-7.6-6.5-14.2-14.1-14.1-7.7 0-14 6.3-14 14.1v6h-39.9v-6c.2-7.5-6.5-14.2-14.1-14.1-7.7 0-14 6.3-14 14.1v6h-47.7c-14.7 0-27.9 10.8-30.1 24.6l-32.6 211.2c-2.6 14.4 9.5 26.6 23.9 26.2h36.5c3.7 11.7 13.8 19.9 25.5 19.9h158.3c-24.4 84.2 42.8 172.7 130.7 171.3 168.3-5.1 183.9-241.3 19.2-269.6zm-330.2-172.2c-3.1 4.3-5 10.1-5 15.6v224.3h-35c-8.1.2-14.6-5.7-13.2-13.8 0 0 32.7-211.2 32.7-211.2 1.4-9 11.3-16.2 21-15.5-.2.2-.3.4-.5.6zm261.3-17.5c0-4.2 6.4-4.4 6.5 0v22.5c0 4.3-6.5 4.3-6.5 0zm-67.9 0c0-4.3 6.5-4.3 6.5 0v22.5c0 4.3-6.5 4.3-6.5 0zm-68 0c0-4.3 6.5-4.3 6.5 0v22.5c0 4.3-6.5 4.3-6.5 0zm-68 0c0-4.2 6.4-4.4 6.5 0v22.5c0 4.3-6.5 4.3-6.5 0zm-51.6 33.1c0-9 7.3-16.3 16.3-16.3h24.6v5.7c0 7.8 6.3 14.1 14 14.1 7.8 0 14.1-6.3 14.1-14.1v-5.7h39.9v5.7c0 7.8 6.3 14.1 14 14.1 7.8 0 14.1-6.3 14.1-14.1v-5.7h39.9v5.7c0 7.8 6.3 14.1 14 14.1 7.8 0 14.1-6.3 14.1-14.1v-5.7h39.9v5.7c0 7.8 6.3 14.1 14 14.1 7.8 0 14.1-6.3 14.1-14.1v-5.7h24.6c8.9 0 16.2 7.3 16.2 16.3v19.9h-313.8zm177.9 244.2h-161.7c-7.9 0-14.6-6.4-16-15.4-.2-1.1-.3-2.2-.3-3.3v-194.8h313.6v124.8c-58.4-4.4-116 33.3-135.6 88.7zm127.3 171.3c-133.3-2-172.1-179.1-53-237.7 19-8.9 40.1-12.8 60.9-11.5 159.5 15.8 152.8 243.3-7.9 249.2z" fill="#2D3436"/></g><g><path d="m65.6 37.2c-3.2 4.6-5.5 10.4-5.4 16.3v224.3h-35c-8.1.2-14.6-5.7-13.2-13.8 0 0 32.7-211.2 32.7-211.2 1.3-9 11.3-16.3 20.9-15.6z" fill="#75adc5"/></g><g><path d="m333 20.4v22.5c0 4.3-6.5 4.3-6.5 0v-22.5c0-4.2 6.5-4.4 6.5 0z" fill="#5297c5"/></g><g><path d="m265.1 20.4v22.5c0 4.3-6.5 4.3-6.5 0v-22.5c0-4.3 6.4-4.3 6.5 0z" fill="#5297c5"/></g><g><path d="m197.1 20.4v22.5c0 4.3-6.5 4.3-6.5 0v-22.5c0-4.3 6.4-4.3 6.5 0z" fill="#5297c5"/></g><g><path d="m129.1 20.4v22.5c0 4.3-6.5 4.3-6.5 0v-22.5c0-4.2 6.4-4.4 6.5 0z" fill="#5297c5"/></g><g><path d="m384.2 219.8c-69.8-6-133.7 54.8-132.7 124.5 0 68.8 56 124.8 124.8 124.8 160.6-6 167.3-233.5 7.9-249.3zm-8 236.5c-61.8 0-112-50.3-112-112 6.1-148.6 218-148.6 224.1 0-.1 61.7-50.3 112-112.1 112z" fill="#5297c5"/></g><g><path d="m384.6 53.5v19.9h-313.6v-19.9c0-9 7.3-16.3 16.3-16.3h24.6v5.7c0 7.8 6.3 14.1 14 14.1 7.8 0 14.1-6.3 14.1-14.1v-5.7h39.9v5.7c0 7.8 6.3 14.1 14 14.1 7.8 0 14.1-6.3 14.1-14.1v-5.7h39.9v5.7c0 7.8 6.3 14.1 14 14.1 7.8 0 14.1-6.3 14.1-14.1v-5.7h39.9v5.7c0 7.8 6.3 14.1 14 14.1 7.8 0 14.1-6.3 14.1-14.1v-5.7h24.6c8.7 0 16 7.3 16 16.3z" fill="#75adc5"/></g><g><path d="m71 84.2v194.8c0 1.1.1 2.2.3 3.3 1.4 8.9 8.1 15.4 16 15.4h161.6c19.6-55.3 77.3-93.1 135.7-88.7v-124.8zm76 176.4c0 6.6-5.3 11.9-11.9 11.9h-18.5c-6.6 0-11.9-5.3-11.9-11.9v-18.5c0-6.6 5.3-11.9 11.9-11.9h18.5c6.6 0 11.9 5.3 11.9 11.9zm0-60.4c0 6.6-5.3 11.9-11.9 11.9h-18.5c-6.6 0-11.9-5.3-11.9-11.9v-18.5c0-6.6 5.3-11.9 11.9-11.9h18.5c6.6 0 11.9 5.3 11.9 11.9zm0-60.4c0 6.6-5.3 11.9-11.9 11.9h-18.5c-6.6 0-11.9-5.3-11.9-11.9v-18.5c0-6.5 5.3-11.9 11.9-11.9h18.5c6.6 0 11.9 5.3 11.9 11.9zm68 120.8c0 6.6-5.3 11.9-11.9 11.9h-18.5c-6.6 0-11.9-5.3-11.9-11.9v-18.5c0-6.6 5.3-11.9 11.9-11.9h18.5c6.6 0 11.9 5.3 11.9 11.9zm0-60.4c0 6.6-5.3 11.9-11.9 11.9h-18.5c-6.6 0-11.9-5.3-11.9-11.9v-18.5c0-6.6 5.3-11.9 11.9-11.9h18.5c6.6 0 11.9 5.3 11.9 11.9zm0-60.4c0 6.6-5.3 11.9-11.9 11.9h-18.5c-6.6 0-11.9-5.3-11.9-11.9v-18.5c0-6.5 5.3-11.9 11.9-11.9h18.5c6.6 0 11.9 5.3 11.9 11.9zm67.9 60.4c0 6.6-5.3 11.9-11.9 11.9h-18.5c-6.5 0-11.9-5.3-11.9-11.9v-18.5c0-6.6 5.3-11.9 11.9-11.9h18.5c6.5 0 11.9 5.3 11.9 11.9zm0-60.4c0 6.6-5.3 11.9-11.9 11.9h-18.5c-6.5 0-11.9-5.3-11.9-11.9v-18.5c0-6.5 5.3-11.9 11.9-11.9h18.5c6.5 0 11.9 5.3 11.9 11.9zm68 0c0 6.6-5.3 11.9-11.9 11.9h-18.5c-6.6 0-11.9-5.3-11.9-11.9v-18.5c0-6.5 5.3-11.9 11.9-11.9h18.5c6.6 0 11.9 5.3 11.9 11.9z" fill="#d6faff"/></g><g><path d="m135.1 109.4h-18.5c-6.6 0-11.9 5.3-11.9 11.9v18.5c0 6.6 5.3 11.9 11.9 11.9h18.5c6.6 0 11.9-5.3 11.9-11.9v-18.5c0-6.5-5.3-11.9-11.9-11.9zm1.1 30.4c0 .6-.5 1.1-1.1 1.1h-18.5c-.6 0-1.1-.5-1.1-1.1v-18.5c0-.6.5-1.1 1.1-1.1h18.5c.6 0 1.1.5 1.1 1.1z" fill="#2D3436"/></g><g><path d="m136.2 121.3v18.5c0 .6-.5 1.1-1.1 1.1h-18.5c-.6 0-1.1-.5-1.1-1.1v-18.5c0-.6.5-1.1 1.1-1.1h18.5c.6 0 1.1.5 1.1 1.1z" fill="#73adc6"/></g><g><path d="m203.1 109.4h-18.5c-6.6 0-11.9 5.3-11.9 11.9v18.5c0 6.6 5.3 11.9 11.9 11.9h18.5c6.6 0 11.9-5.3 11.9-11.9v-18.5c0-6.5-5.4-11.9-11.9-11.9zm1.1 30.4c0 .6-.5 1.1-1.1 1.1h-18.5c-.6 0-1.1-.5-1.1-1.1v-18.5c0-.6.5-1.1 1.1-1.1h18.5c.6 0 1.1.5 1.1 1.1z" fill="#2D3436"/></g><g><path d="m204.2 121.3v18.5c0 .6-.5 1.1-1.1 1.1h-18.5c-.6 0-1.1-.5-1.1-1.1v-18.5c0-.6.5-1.1 1.1-1.1h18.5c.6 0 1.1.5 1.1 1.1z" fill="#73adc6"/></g><g><path d="m271.1 109.4h-18.5c-6.5 0-11.9 5.3-11.9 11.9v18.5c0 6.6 5.3 11.9 11.9 11.9h18.5c6.5 0 11.9-5.3 11.9-11.9v-18.5c-.1-6.5-5.4-11.9-11.9-11.9zm1 30.4c0 .6-.5 1.1-1.1 1.1h-18.5c-.6 0-1.1-.5-1.1-1.1v-18.5c0-.6.5-1.1 1.1-1.1h18.5c.6 0 1.1.5 1.1 1.1z" fill="#2D3436"/></g><g><path d="m272.1 121.3v18.5c0 .6-.5 1.1-1.1 1.1h-18.5c-.6 0-1.1-.5-1.1-1.1v-18.5c0-.6.5-1.1 1.1-1.1h18.5c.7 0 1.1.5 1.1 1.1z" fill="#73adc6"/></g><g><path d="m339 109.4h-18.5c-6.6 0-11.9 5.3-11.9 11.9v18.5c0 6.6 5.3 11.9 11.9 11.9h18.5c6.6 0 11.9-5.3 11.9-11.9v-18.5c0-6.5-5.3-11.9-11.9-11.9zm1.1 30.4c0 .6-.5 1.1-1.1 1.1h-18.5c-.6 0-1.1-.5-1.1-1.1v-18.5c0-.6.5-1.1 1.1-1.1h18.5c.6 0 1.1.5 1.1 1.1z" fill="#2D3436"/></g><g><path d="m340.1 121.3v18.5c0 .6-.5 1.1-1.1 1.1h-18.5c-.6 0-1.1-.5-1.1-1.1v-18.5c0-.6.5-1.1 1.1-1.1h18.5c.6 0 1.1.5 1.1 1.1z" fill="#73adc6"/></g><g><path d="m135.1 169.8h-18.5c-6.6 0-11.9 5.3-11.9 11.9v18.5c0 6.6 5.3 11.9 11.9 11.9h18.5c6.6 0 11.9-5.3 11.9-11.9v-18.5c0-6.6-5.3-11.9-11.9-11.9zm1.1 30.4c0 .6-.5 1.1-1.1 1.1h-18.5c-.6 0-1.1-.5-1.1-1.1v-18.5c0-.6.5-1.1 1.1-1.1h18.5c.6 0 1.1.5 1.1 1.1z" fill="#2D3436"/></g><g><path d="m136.2 181.7v18.5c0 .6-.5 1.1-1.1 1.1h-18.5c-.6 0-1.1-.5-1.1-1.1v-18.5c0-.6.5-1.1 1.1-1.1h18.5c.6 0 1.1.5 1.1 1.1z" fill="#73adc6"/></g><g><path d="m203.1 169.8h-18.5c-6.6 0-11.9 5.3-11.9 11.9v18.5c0 6.6 5.3 11.9 11.9 11.9h18.5c6.6 0 11.9-5.3 11.9-11.9v-18.5c0-6.6-5.4-11.9-11.9-11.9zm1.1 30.4c0 .6-.5 1.1-1.1 1.1h-18.5c-.6 0-1.1-.5-1.1-1.1v-18.5c0-.6.5-1.1 1.1-1.1h18.5c.6 0 1.1.5 1.1 1.1z" fill="#2D3436"/></g><g><path d="m204.2 181.7v18.5c0 .6-.5 1.1-1.1 1.1h-18.5c-.6 0-1.1-.5-1.1-1.1v-18.5c0-.6.5-1.1 1.1-1.1h18.5c.6 0 1.1.5 1.1 1.1z" fill="#73adc6"/></g><g><path d="m271.1 169.8h-18.5c-6.5 0-11.9 5.3-11.9 11.9v18.5c0 6.6 5.3 11.9 11.9 11.9h18.5c6.5 0 11.9-5.3 11.9-11.9v-18.5c-.1-6.6-5.4-11.9-11.9-11.9zm1 30.4c0 .6-.5 1.1-1.1 1.1h-18.5c-.6 0-1.1-.5-1.1-1.1v-18.5c0-.6.5-1.1 1.1-1.1h18.5c.6 0 1.1.5 1.1 1.1z" fill="#2D3436"/></g><g><path d="m272.1 181.7v18.5c0 .6-.5 1.1-1.1 1.1h-18.5c-.6 0-1.1-.5-1.1-1.1v-18.5c0-.6.5-1.1 1.1-1.1h18.5c.7 0 1.1.5 1.1 1.1z" fill="#73adc6"/></g><g><path d="m135.1 230.2h-18.5c-6.6 0-11.9 5.3-11.9 11.9v18.5c0 6.6 5.3 11.9 11.9 11.9h18.5c6.6 0 11.9-5.3 11.9-11.9v-18.5c0-6.5-5.3-11.9-11.9-11.9zm1.1 30.4c0 .6-.5 1.1-1.1 1.1h-18.5c-.6 0-1.1-.5-1.1-1.1v-18.5c0-.6.5-1.1 1.1-1.1h18.5c.6 0 1.1.5 1.1 1.1z" fill="#2D3436"/></g><g><path d="m136.2 242.1v18.5c0 .6-.5 1.1-1.1 1.1h-18.5c-.6 0-1.1-.5-1.1-1.1v-18.5c0-.6.5-1.1 1.1-1.1h18.5c.6 0 1.1.5 1.1 1.1z" fill="#73adc6"/></g><g><path d="m203.1 230.2h-18.5c-6.6 0-11.9 5.3-11.9 11.9v18.5c0 6.6 5.3 11.9 11.9 11.9h18.5c6.6 0 11.9-5.3 11.9-11.9v-18.5c0-6.5-5.4-11.9-11.9-11.9zm1.1 30.4c0 .6-.5 1.1-1.1 1.1h-18.5c-.6 0-1.1-.5-1.1-1.1v-18.5c0-.6.5-1.1 1.1-1.1h18.5c.6 0 1.1.5 1.1 1.1z" fill="#2D3436"/></g><g><path d="m204.2 242.1v18.5c0 .6-.5 1.1-1.1 1.1h-18.5c-.6 0-1.1-.5-1.1-1.1v-18.5c0-.6.5-1.1 1.1-1.1h18.5c.6 0 1.1.5 1.1 1.1z" fill="#73adc6"/></g><g><path d="m376.2 232.2c-61.8 0-112 50.2-112 112 6.2 148.6 217.9 148.6 224.1 0-.1-61.8-50.3-112-112.1-112zm0 213.3c-55.8 0-101.3-45.4-101.3-101.3 5.6-134.3 197-134.3 202.5 0 .1 55.9-45.4 101.3-101.2 101.3z" fill="#2D3436"/></g><g><path d="m376.2 243c-55.8 0-101.3 45.4-101.3 101.3 5.6 134.3 197 134.3 202.5 0 .1-55.9-45.4-101.3-101.2-101.3zm-5.4 21.2c0-7.1 10.8-7.1 10.8 0v11.1c-.1 7.1-10.6 7.1-10.8 0zm-63.5 85.4h-11.1c-7.1-.1-7.1-10.7 0-10.8h11.1c7.1.2 7.1 10.7 0 10.8zm74.3 74.6c0 7.1-10.8 7.1-10.8 0v-11.1c.1-7.1 10.6-7.1 10.8 0zm42.7-146-35.8 56.6c9.7 11.8-3.4 29.8-17.6 24.1l-29.4 35c-1.9 2.3-5.3 2.6-7.6.6-2.3-1.9-2.6-5.3-.6-7.5l29.4-35c-6.9-11.1 4-26.2 16.8-23l35.8-56.5c3.7-6.1 12.8-.3 9 5.7zm31.9 71.4h-11.1c-7.1 0-7.1-10.8 0-10.8h11.1c7.1.2 7.1 10.7 0 10.8z" fill="#d6faff"/></g><g><path d="m381.6 413.1v11.1c0 7.1-10.8 7.1-10.8 0v-11.1c.1-7.1 10.7-7.1 10.8 0z" fill="#2D3436"/></g><g><path d="m381.6 264.2v11.1c-.1 7.1-10.6 7.1-10.8 0v-11.1c0-7 10.8-7 10.8 0z" fill="#2D3436"/></g><g><path d="m312.7 344.2c0 3-2.4 5.4-5.4 5.4h-11.1c-3 0-5.4-2.4-5.4-5.4s2.4-5.4 5.4-5.4h11.1c2.9.1 5.4 2.4 5.4 5.4z" fill="#2D3436"/></g><g><path d="m461.6 344.2c0 3-2.4 5.4-5.4 5.4h-11.1c-3 0-5.4-2.4-5.4-5.4s2.4-5.4 5.4-5.4h11.1c3 .1 5.4 2.4 5.4 5.4z" fill="#2D3436"/></g><g><path d="m422.7 270.7c-2.5-1.6-5.8-.9-7.4 1.7l-35.8 56.5c-12.7-3.2-23.7 11.9-16.8 23l-29.4 35c-1.9 2.3-1.6 5.7.6 7.5 2.3 1.9 5.7 1.7 7.6-.6l29.4-35c14.2 5.7 27.3-12.3 17.6-24.1l35.8-56.6c1.6-2.5.9-5.7-1.6-7.4zm-46.5 78.4c-1.2 0-2.3-.5-3.1-1.2-.1 0-.1 0-.1 0-.1-.1-.1-.1-.1-.1-3.3-2.8-1.1-8.6 3.2-8.5 6.3.1 6.4 9.7.1 9.8z" fill="#2D3436"/></g></g></svg>