<svg width="24" height="25" viewBox="0 0 24 25" fill="none" xmlns="http://www.w3.org/2000/svg">
<path d="M18.5236 11.3518C19.1963 17.5342 21.8421 19.4033 21.8421 19.4033H1C1 19.4033 4.47368 16.9499 4.47368 8.3613C4.47368 6.40941 5.20547 4.53688 6.50811 3.15663C7.81074 1.77639 9.58 1 11.4211 1C11.8124 1 12.1984 1.03451 12.5789 1.10352M13.4242 22.8539C13.2206 23.2025 12.9284 23.4918 12.5769 23.693C12.2253 23.8941 11.8268 24 11.4211 24C11.0154 24 10.6168 23.8941 10.2652 23.693C9.91366 23.4918 9.62147 23.2025 9.4179 22.8539M19.5263 7.90122C20.4476 7.90122 21.3311 7.53768 21.9826 6.89056C22.634 6.24345 23 5.36577 23 4.45061C23 3.53545 22.634 2.65778 21.9826 2.01066C21.3311 1.36355 20.4476 1 19.5263 1C18.605 1 17.7215 1.36355 17.07 2.01066C16.4186 2.65778 16.0526 3.53545 16.0526 4.45061C16.0526 5.36577 16.4186 6.24345 17.07 6.89056C17.7215 7.53768 18.605 7.90122 19.5263 7.90122Z" stroke="currentColor" stroke-width="1.5" stroke-linecap="round" stroke-linejoin="round"/>
</svg>
