<svg width="412" height="500" viewBox="0 0 412 500" fill="none" xmlns="http://www.w3.org/2000/svg">
<path d="M321.37 131.38C284.75 99.38 235.18 131.38 187.02 198.72C138.86 266.06 115.96 237.72 75.02 267.4C34.08 297.08 23.13 418.66 167.37 406.84C311.61 395.02 417.1 214.92 321.37 131.38Z" fill="#F0F0F0"/>
<path d="M365.84 453.13C365.84 453.27 296.4 453.39 210.77 453.39C125.14 453.39 55.6699 453.27 55.6699 453.13C55.6699 452.99 125.1 452.87 210.77 452.87C296.44 452.87 365.84 453 365.84 453.13Z" fill="#263238"/>
<path d="M298.18 330.71C282.73 319.92 279.23 299.89 279.84 281.88C279.94 278.88 279.61 275.7 281.04 273.07C282.47 270.44 285.81 268.63 288.5 269.89C290.73 270.94 291.7 273.54 292.95 275.69C294.618 278.554 297.062 280.887 300 282.42C301.91 283.42 304.28 284.02 306.17 282.98C308.77 281.55 309.07 277.98 309.05 274.98C309.05 269.4 309.017 263.827 308.95 258.26C308.77 255.271 309.074 252.272 309.85 249.38C310.78 246.54 312.85 243.91 315.68 243.11C318.51 242.31 322.04 243.96 322.68 246.88C322.79 248.117 322.82 249.359 322.77 250.6C322.85 251.85 323.43 253.22 324.6 253.6C325.77 253.98 326.99 253.11 327.89 252.23C330.97 249.23 333.07 245.32 335.02 241.46C336.97 237.6 338.88 233.63 341.68 230.34C344.48 227.05 348.35 224.44 352.68 224.19C357.01 223.94 361.52 226.6 362.6 230.8C363.68 235 361.23 239.29 358.6 242.7C354.631 247.762 349.953 252.224 344.71 255.95C343.686 256.509 342.87 257.382 342.38 258.44C341.73 260.44 343.62 262.44 345.59 263.07C347.82 263.81 350.24 263.58 352.59 263.86C354.94 264.14 357.44 265.16 358.33 267.36C359.55 270.42 356.99 273.62 354.48 275.72C349.44 279.92 343.717 283.225 337.56 285.49C335.36 286.29 333.05 287 331.27 288.54C329.49 290.08 328.43 292.77 329.5 294.88C330.57 296.99 333.32 297.66 335.63 297.23C337.94 296.8 339.99 295.56 342.19 294.73C346.3 293.18 351.6 293.46 354.19 297.01C354.992 298.233 355.5 299.625 355.674 301.077C355.847 302.53 355.682 304.003 355.19 305.38C354.189 308.121 352.649 310.634 350.66 312.77C344.11 320.595 335.6 326.541 326 330C316.47 333.3 307.64 334.2 298.17 330.73" fill="#FF725E"/>
<path d="M358.2 226.66C358.2 226.66 358.11 226.76 357.91 226.94L357.02 227.73C356.24 228.43 355.09 229.45 353.64 230.8C349.529 234.617 345.711 238.739 342.22 243.13C339.99 245.9 337.68 249.04 335.22 252.45C332.76 255.86 330.22 259.54 327.7 263.45C325.013 267.573 322.553 271.839 320.33 276.23C319.17 278.52 318.15 280.91 317.1 283.35L314 290.8C309.914 300.184 306.355 309.789 303.34 319.57C300.911 327.573 299.237 335.785 298.34 344.1C297.758 349.711 297.665 355.362 298.06 360.99C298.22 362.99 298.37 364.52 298.51 365.56C298.57 366.06 298.61 366.46 298.65 366.75V367.16C298.607 367.03 298.577 366.896 298.56 366.76C298.51 366.47 298.45 366.08 298.37 365.58C298.19 364.58 298 363 297.82 361C297.337 355.362 297.371 349.692 297.92 344.06C298.762 335.71 300.399 327.459 302.81 319.42C305.799 309.612 309.349 299.982 313.44 290.58L316.62 283.16C317.67 280.73 318.7 278.32 319.87 276.02C322.108 271.616 324.589 267.34 327.3 263.21C329.86 259.21 332.44 255.59 334.87 252.21C337.3 248.83 339.65 245.67 341.87 242.91C345.397 238.53 349.266 234.438 353.44 230.67C354.92 229.34 356.1 228.34 356.9 227.67L357.83 226.92C357.944 226.821 358.068 226.734 358.2 226.66Z" fill="#263238"/>
<path d="M320 276C319.859 275.588 319.762 275.162 319.71 274.73C319.55 273.9 319.37 272.73 319.16 271.21C318.73 268.21 318.29 264.1 317.82 259.55C317.35 255 316.82 250.88 316.38 247.91C316.15 246.43 315.95 245.24 315.81 244.41C315.701 243.985 315.644 243.549 315.64 243.11C315.812 243.511 315.937 243.93 316.01 244.36C316.23 245.18 316.48 246.36 316.76 247.85C317.33 250.85 317.89 254.93 318.36 259.49C318.83 264.05 319.23 268.05 319.54 271.16C319.69 272.56 319.82 273.75 319.92 274.7C319.998 275.129 320.025 275.565 320 276Z" fill="#263238"/>
<path d="M358.48 268.82C357.993 268.926 357.498 268.986 357 269C356 269.09 354.58 269.21 352.82 269.41C349.3 269.79 344.46 270.49 339.15 271.49C333.84 272.49 329.07 273.62 325.64 274.49C323.93 274.93 322.55 275.33 321.64 275.6C321.154 275.773 320.651 275.893 320.14 275.96C320.602 275.728 321.084 275.537 321.58 275.39C322.52 275.06 323.88 274.6 325.58 274.11C328.99 273.11 333.76 271.92 339.09 270.9C343.605 270.037 348.161 269.403 352.74 269C354.51 268.85 355.94 268.79 356.94 268.77C357.454 268.735 357.97 268.752 358.48 268.82Z" fill="#263238"/>
<path d="M303.3 318.72C303.193 318.575 303.106 318.417 303.04 318.25L302.38 316.86C301.81 315.65 301.04 313.86 300.12 311.67C298.26 307.27 295.89 301.11 293.37 294.27C290.85 287.43 288.53 281.27 286.77 276.82C285.91 274.66 285.2 272.89 284.67 271.57L284.11 270.14C284.032 269.975 283.978 269.8 283.95 269.62C284.056 269.765 284.144 269.923 284.21 270.09L284.87 271.48C285.43 272.69 286.21 274.48 287.13 276.67C288.99 281.07 291.36 287.23 293.88 294.07C296.4 300.91 298.72 307.07 300.48 311.52C301.34 313.68 302.05 315.45 302.57 316.77C302.8 317.34 302.99 317.77 303.14 318.2C303.217 318.365 303.271 318.54 303.3 318.72Z" fill="#263238"/>
<path d="M354.38 302.25C354.22 302.342 354.048 302.412 353.87 302.46L352.39 302.96L346.92 304.73C342.3 306.23 335.92 308.37 328.92 310.73C321.92 313.09 315.51 315.19 310.86 316.59C308.54 317.3 306.65 317.84 305.34 318.2L303.83 318.59C303.654 318.646 303.473 318.683 303.29 318.7C303.45 318.608 303.622 318.537 303.8 318.49L305.28 317.99L310.75 316.22C315.37 314.72 321.75 312.58 328.75 310.22C335.75 307.86 342.15 305.76 346.8 304.36C349.13 303.65 351.01 303.11 352.33 302.75L353.84 302.36C354.016 302.304 354.197 302.267 354.38 302.25Z" fill="#263238"/>
<path d="M333.54 59.68L328.39 61.52L326.18 54.79C322.12 42.38 309.18 35.79 297.29 39.98C285.4 44.17 279.07 57.78 283.13 70.19L285.34 76.92L280.17 78.77C278.198 79.5346 276.598 81.0296 275.7 82.9441C274.802 84.8586 274.677 87.0455 275.35 89.05L289.68 132.84C289.977 133.832 290.471 134.755 291.132 135.552C291.793 136.35 292.608 137.007 293.527 137.483C294.447 137.96 295.453 138.247 296.486 138.327C297.519 138.407 298.558 138.279 299.54 137.95L352.91 118.86C354.907 118.097 356.531 116.588 357.439 114.653C358.347 112.717 358.47 110.504 357.78 108.48L343.44 64.69C343.135 63.7005 342.633 62.7825 341.966 61.991C341.298 61.1995 340.478 60.5505 339.554 60.083C338.63 59.6154 337.621 59.3387 336.588 59.2695C335.555 59.2002 334.518 59.3399 333.54 59.68ZM292.86 66.68C291.765 63.4532 291.962 59.928 293.408 56.8429C294.855 53.7577 297.439 51.3521 300.62 50.13C302.19 49.5926 303.853 49.3771 305.509 49.4964C307.165 49.6156 308.779 50.0672 310.257 50.8241C311.734 51.581 313.044 52.6277 314.108 53.9018C315.172 55.1759 315.968 56.6513 316.45 58.24L318.65 64.97L295.06 73.41L292.86 66.68ZM322.86 105.54L326.52 116.72C326.587 116.944 326.565 117.186 326.459 117.394C326.353 117.603 326.171 117.762 325.95 117.84L320.82 119.67C320.616 119.727 320.398 119.702 320.211 119.601C320.025 119.501 319.884 119.332 319.82 119.13L316.13 108C314.095 107.889 312.143 107.159 310.534 105.908C308.926 104.657 307.738 102.945 307.13 101C306.26 98.4289 306.419 95.6211 307.573 93.1644C308.726 90.7076 310.786 88.7925 313.32 87.82C314.571 87.3925 315.895 87.2213 317.214 87.3166C318.533 87.4118 319.819 87.7716 320.996 88.3744C322.172 88.9772 323.216 89.8108 324.063 90.8254C324.911 91.84 325.546 93.0149 325.93 94.28C326.573 96.2555 326.626 98.3759 326.083 100.381C325.539 102.387 324.423 104.19 322.87 105.57L322.86 105.54Z" fill="#FF725E"/>
<path d="M328.16 61.4C328.16 61.54 318.61 65.13 306.73 69.4C294.85 73.67 285.16 77.1 285.11 77C285.06 76.9 294.66 73.28 306.55 69C318.44 64.72 328.11 61.27 328.16 61.4Z" fill="#263238"/>
<path d="M339.5 63.24C339.544 63.3268 339.581 63.4171 339.61 63.51C339.69 63.71 339.78 63.97 339.9 64.29C340.16 65.02 340.52 66.03 340.97 67.29L344.81 78.47C346.41 83.21 348.32 88.83 350.44 95.07C351.44 98.2 352.62 101.46 353.72 104.89C354.309 106.658 354.563 108.519 354.47 110.38C354.385 111.348 354.11 112.289 353.66 113.15C353.179 114.008 352.538 114.765 351.77 115.38C350.225 116.508 348.51 117.382 346.69 117.97L341.54 119.82L331.79 123.31L315.28 129.19L304.13 133.11L301.13 134.11L300.33 134.37C300.245 134.408 300.153 134.432 300.06 134.44C300.06 134.44 300.14 134.44 300.31 134.32L301.09 134.01L304.09 132.88L315.18 128.8L331.66 122.8L341.39 119.28L346.54 117.42C348.309 116.856 349.974 116.008 351.47 114.91C352.184 114.34 352.782 113.637 353.23 112.84C353.654 112.044 353.909 111.169 353.98 110.27C354.072 108.477 353.828 106.683 353.26 104.98C352.18 101.58 351.04 98.29 350.01 95.16C347.93 88.91 346.01 83.27 344.49 78.53C342.97 73.79 341.69 69.98 340.81 67.3C340.39 65.99 340.07 64.97 339.81 64.23L339.57 63.43C339.54 63.3694 339.516 63.3057 339.5 63.24Z" fill="#263238"/>
<path d="M311.34 49.45C311.34 49.45 310.81 49.19 309.83 48.79C308.433 48.2533 306.955 47.9558 305.46 47.91C303.243 47.834 301.036 48.2506 299 49.13C296.523 50.225 294.405 51.9961 292.89 54.24C291.364 56.4775 290.545 59.1217 290.54 61.83C290.561 64.0497 290.897 66.2552 291.54 68.38C292.06 70.2 292.6 71.65 292.96 72.66C293.172 73.173 293.346 73.7011 293.48 74.24C293.196 73.7603 292.958 73.2547 292.77 72.73C292.36 71.73 291.77 70.31 291.19 68.48C290.478 66.3329 290.09 64.0915 290.04 61.83C290.013 59.0194 290.851 56.2686 292.44 53.95C294.008 51.6241 296.212 49.7982 298.79 48.69C300.89 47.8058 303.165 47.4158 305.44 47.55C306.968 47.6279 308.469 47.9837 309.87 48.6C310.244 48.7728 310.605 48.9733 310.95 49.2C311.092 49.2625 311.223 49.3468 311.34 49.45Z" fill="#263238"/>
<path d="M311.8 88.58C311.959 88.4833 312.127 88.3997 312.3 88.33C312.8 88.1041 313.319 87.9202 313.85 87.78C314.693 87.5312 315.562 87.3835 316.44 87.34C317.634 87.2758 318.828 87.4562 319.95 87.87C322.51 88.77 324.86 91.38 326.02 94.87C326.576 96.7429 326.576 98.7371 326.02 100.61C325.403 102.643 324.297 104.493 322.8 106L322.86 105.73C324.19 109.38 325.64 113.34 327.14 117.47L327.23 117.72L326.98 117.81L324.69 118.57L319.69 120.24L319.44 120.32L319.36 120.07C317.99 115.93 316.49 112.07 315.36 108.28L315.58 108.45C313.625 108.288 311.761 107.554 310.22 106.34C308.826 105.266 307.682 103.901 306.87 102.34C306.137 100.956 305.772 99.4061 305.81 97.84C305.856 96.2394 306.256 94.6689 306.98 93.2409C307.705 91.8129 308.736 90.5628 310 89.58C310.52 89.1576 311.104 88.8201 311.73 88.58C311.165 88.9151 310.618 89.279 310.09 89.67C308.701 90.8449 307.637 92.3564 307 94.06C306.453 95.3446 306.197 96.7345 306.25 98.1297C306.304 99.525 306.666 100.891 307.31 102.13C308.109 103.632 309.225 104.942 310.58 105.97C312.05 107.124 313.827 107.819 315.69 107.97H315.86L315.91 108.12C317.01 111.84 318.52 115.73 319.91 119.89L319.58 119.73L324.58 118.06L326.86 117.29L326.7 117.63C325.21 113.5 323.77 109.53 322.45 105.88V105.73L322.57 105.61C324.024 104.166 325.108 102.392 325.73 100.44C326.26 98.6484 326.26 96.7416 325.73 94.95C324.64 91.59 322.39 89.04 319.95 88.14C318.87 87.7235 317.717 87.5296 316.56 87.57C315.696 87.5898 314.837 87.7072 314 87.92C312.51 88.29 311.81 88.63 311.8 88.58Z" fill="#263238"/>
<path d="M280.89 377.32L181 376.86C175.231 376.828 169.711 374.508 165.652 370.41C161.592 366.311 159.326 360.769 159.35 355L160.41 104.59C160.422 101.732 160.997 98.9044 162.102 96.2688C163.207 93.6332 164.821 91.2412 166.851 89.2296C168.881 87.2181 171.288 85.6263 173.933 84.5454C176.579 83.4644 179.412 82.9155 182.27 82.93L282.15 83.39C287.918 83.4191 293.44 85.7366 297.501 89.8334C301.562 93.9302 303.831 99.4714 303.81 105.24L302.75 355.64C302.738 358.499 302.163 361.327 301.058 363.964C299.953 366.601 298.34 368.994 296.31 371.007C294.28 373.021 291.873 374.614 289.228 375.697C286.582 376.78 283.749 377.332 280.89 377.32Z" fill="#455A64"/>
<path d="M282 92H262.64C262.008 92.0117 261.385 92.1478 260.806 92.4004C260.227 92.653 259.703 93.0172 259.265 93.4722C258.826 93.9272 258.482 94.4642 258.251 95.0523C258.02 95.6405 257.908 96.2683 257.92 96.9V100.41C257.932 101.041 257.819 101.669 257.588 102.256C257.357 102.844 257.013 103.38 256.574 103.834C256.136 104.288 255.612 104.652 255.033 104.903C254.454 105.155 253.831 105.29 253.2 105.3L215.46 105.13C214.183 105.096 212.972 104.557 212.093 103.63C211.213 102.704 210.737 101.467 210.77 100.19V96.68C210.802 95.4049 210.328 94.169 209.45 93.2431C208.573 92.3171 207.365 91.7766 206.09 91.74H199.28L182.33 91.66C178.298 91.636 174.421 93.2105 171.548 96.0387C168.675 98.867 167.039 102.719 167 106.75L166 351.17C165.99 353.17 166.375 355.152 167.132 357.004C167.889 358.855 169.003 360.539 170.411 361.96C171.819 363.381 173.492 364.51 175.337 365.284C177.181 366.058 179.16 366.461 181.16 366.47L280.84 366.93C282.841 366.939 284.825 366.554 286.677 365.797C288.53 365.039 290.215 363.925 291.637 362.516C293.058 361.107 294.188 359.432 294.963 357.587C295.737 355.741 296.141 353.761 296.15 351.76L297.15 107.34C297.174 103.297 295.591 99.4102 292.75 96.5337C289.909 93.6572 286.043 92.0264 282 92Z" fill="white"/>
<path d="M268.59 334.32L194.47 334C193.7 334 193.08 333.16 193.09 332.14L193.17 312.75C193.17 311.75 193.8 310.89 194.57 310.89L268.69 311.23C269.117 311.304 269.498 311.539 269.755 311.888C270.013 312.236 270.125 312.671 270.07 313.1L270 332.47C270 333.5 269.36 334.33 268.59 334.32Z" fill="#FF725E"/>
<path d="M217.086 324.7C216.663 324.7 216.257 324.632 215.866 324.497C215.482 324.356 215.183 324.177 214.972 323.96L215.208 323.496C215.408 323.692 215.677 323.857 216.013 323.992C216.354 324.122 216.712 324.188 217.086 324.188C217.444 324.188 217.734 324.144 217.956 324.057C218.184 323.965 218.349 323.843 218.452 323.692C218.561 323.54 218.615 323.372 218.615 323.187C218.615 322.965 218.55 322.786 218.42 322.651C218.295 322.515 218.13 322.41 217.924 322.334C217.718 322.252 217.49 322.182 217.241 322.122C216.991 322.063 216.742 322 216.493 321.935C216.243 321.865 216.013 321.773 215.801 321.659C215.595 321.545 215.427 321.396 215.297 321.211C215.173 321.022 215.11 320.775 215.11 320.472C215.11 320.19 215.183 319.932 215.33 319.699C215.482 319.461 215.712 319.271 216.021 319.13C216.33 318.984 216.726 318.91 217.208 318.91C217.528 318.91 217.845 318.956 218.159 319.049C218.474 319.135 218.745 319.257 218.973 319.414L218.769 319.894C218.525 319.732 218.265 319.612 217.989 319.536C217.718 319.461 217.455 319.423 217.2 319.423C216.858 319.423 216.577 319.469 216.354 319.561C216.132 319.653 215.967 319.778 215.858 319.935C215.755 320.087 215.704 320.26 215.704 320.455C215.704 320.678 215.766 320.856 215.891 320.992C216.021 321.127 216.189 321.233 216.395 321.309C216.606 321.385 216.837 321.453 217.086 321.512C217.336 321.572 217.582 321.637 217.826 321.708C218.075 321.778 218.303 321.87 218.509 321.984C218.721 322.092 218.889 322.239 219.013 322.423C219.143 322.607 219.208 322.849 219.208 323.147C219.208 323.423 219.133 323.681 218.981 323.919C218.829 324.152 218.596 324.342 218.281 324.488C217.972 324.629 217.574 324.7 217.086 324.7ZM220.519 324.651V318.959H221.121V324.651H220.519ZM222.973 324.651V318.959H223.469L227.397 323.903H227.136V318.959H227.73V324.651H227.234L223.315 319.707H223.575V324.651H222.973ZM232.084 324.7C231.65 324.7 231.249 324.629 230.881 324.488C230.517 324.342 230.2 324.139 229.929 323.879C229.664 323.618 229.455 323.312 229.303 322.96C229.157 322.607 229.084 322.222 229.084 321.805C229.084 321.388 229.157 321.003 229.303 320.65C229.455 320.298 229.666 319.992 229.937 319.732C230.208 319.471 230.526 319.271 230.889 319.13C231.257 318.984 231.659 318.91 232.092 318.91C232.526 318.91 232.922 318.978 233.279 319.114C233.643 319.249 233.952 319.455 234.206 319.732L233.832 320.114C233.594 319.875 233.331 319.704 233.044 319.602C232.756 319.499 232.447 319.447 232.117 319.447C231.764 319.447 231.439 319.507 231.141 319.626C230.848 319.74 230.591 319.905 230.368 320.122C230.152 320.333 229.981 320.583 229.856 320.87C229.737 321.152 229.677 321.464 229.677 321.805C229.677 322.141 229.737 322.453 229.856 322.74C229.981 323.027 230.152 323.28 230.368 323.496C230.591 323.708 230.848 323.873 231.141 323.992C231.439 324.106 231.762 324.163 232.108 324.163C232.434 324.163 232.74 324.114 233.027 324.017C233.32 323.919 233.588 323.754 233.832 323.521L234.174 323.976C233.903 324.215 233.586 324.396 233.222 324.521C232.859 324.64 232.48 324.7 232.084 324.7ZM233.596 323.903V321.805H234.174V323.976L233.596 323.903ZM240.298 324.7C239.572 324.7 239 324.491 238.582 324.074C238.165 323.656 237.956 323.038 237.956 322.22V318.959H238.558V322.195C238.558 322.868 238.71 323.364 239.013 323.683C239.317 324.003 239.745 324.163 240.298 324.163C240.856 324.163 241.287 324.003 241.591 323.683C241.894 323.364 242.046 322.868 242.046 322.195V318.959H242.632V322.22C242.632 323.038 242.423 323.656 242.005 324.074C241.594 324.491 241.024 324.7 240.298 324.7ZM244.445 324.651V318.959H246.575C247.058 318.959 247.472 319.038 247.819 319.195C248.166 319.347 248.432 319.569 248.616 319.862C248.806 320.149 248.901 320.499 248.901 320.911C248.901 321.312 248.806 321.659 248.616 321.951C248.432 322.239 248.166 322.461 247.819 322.618C247.472 322.775 247.058 322.854 246.575 322.854H244.778L245.047 322.569V324.651H244.445ZM245.047 322.618L244.778 322.325H246.559C247.128 322.325 247.559 322.204 247.852 321.96C248.15 321.71 248.299 321.361 248.299 320.911C248.299 320.455 248.15 320.103 247.852 319.854C247.559 319.604 247.128 319.48 246.559 319.48H244.778L245.047 319.195V322.618Z" fill="#E8E8E3"/>
<path d="M209.254 163.85L183.534 163.733L183.513 168.453L209.232 168.57L209.254 163.85Z" fill="#FF725E"/>
<path opacity="0.1" d="M209.254 163.85L183.534 163.733L183.513 168.453L209.232 168.57L209.254 163.85Z" fill="black"/>
<path d="M284.65 192.83C284.852 192.81 285.05 192.763 285.24 192.69C285.517 192.582 285.757 192.398 285.934 192.159C286.111 191.92 286.217 191.636 286.24 191.34C286.24 189.75 286.24 187.43 286.24 184.45C286.24 182.96 286.24 181.29 286.24 179.45C286.24 179 286.24 178.53 286.24 178.06C286.305 177.604 286.206 177.14 285.96 176.75C285.822 176.563 285.643 176.411 285.437 176.305C285.23 176.199 285.002 176.143 284.77 176.14H283.21H268.76L185.12 175.83C184.906 175.826 184.694 175.874 184.502 175.97C184.311 176.066 184.145 176.207 184.02 176.38C183.778 176.771 183.686 177.236 183.76 177.69C183.76 178.69 183.76 179.69 183.76 180.69C183.76 182.69 183.76 184.69 183.76 186.69C183.76 187.69 183.76 188.69 183.76 189.69C183.718 190.156 183.718 190.624 183.76 191.09C183.812 191.29 183.91 191.475 184.045 191.631C184.18 191.787 184.35 191.91 184.54 191.99C184.737 192.068 184.948 192.106 185.16 192.1H190.25L212.46 192.22L250.06 192.45L275.41 192.65L282.3 192.73H284.09C284.5 192.73 284.7 192.73 284.7 192.73H284.09H282.3H275.41H250.06L212.46 192.61L190.25 192.52H185.16C184.88 192.531 184.6 192.484 184.34 192.38C184.077 192.268 183.842 192.097 183.655 191.88C183.468 191.663 183.333 191.407 183.26 191.13C183.202 190.868 183.182 190.598 183.2 190.33V189.59C183.2 188.59 183.2 187.59 183.2 186.59C183.2 184.59 183.2 182.59 183.2 180.59C183.2 179.59 183.2 178.59 183.2 177.59C183.181 177.324 183.181 177.056 183.2 176.79C183.237 176.496 183.351 176.217 183.53 175.98C183.702 175.739 183.931 175.543 184.195 175.408C184.46 175.274 184.753 175.206 185.05 175.21L268.69 175.67L283.14 175.77H284.7C284.975 175.77 285.245 175.837 285.489 175.964C285.733 176.091 285.942 176.275 286.1 176.5C286.382 176.935 286.496 177.457 286.42 177.97C286.42 178.44 286.42 178.91 286.42 179.36C286.42 181.18 286.42 182.85 286.42 184.36C286.42 187.36 286.35 189.66 286.33 191.26C286.305 191.568 286.194 191.862 286.008 192.108C285.822 192.354 285.569 192.542 285.28 192.65C285.091 192.767 284.872 192.83 284.65 192.83Z" fill="#E0E0E0"/>
<path d="M238.3 180.85H191.26V185.26H238.3V180.85Z" fill="#FF725E"/>
<path opacity="0.2" d="M238.3 180.85H191.26V185.26H238.3V180.85Z" fill="white"/>
<path d="M209.079 206.909L183.359 206.792L183.337 211.512L209.057 211.629L209.079 206.909Z" fill="#FF725E"/>
<path opacity="0.1" d="M209.079 206.909L183.359 206.792L183.337 211.512L209.057 211.629L209.079 206.909Z" fill="black"/>
<path d="M284 235.89C284.202 235.865 284.402 235.828 284.6 235.78C284.879 235.691 285.136 235.543 285.354 235.347C285.571 235.15 285.744 234.909 285.86 234.64C286.017 234.236 286.079 233.802 286.04 233.37C286.04 232.89 286.04 232.37 286.04 231.79C286.04 230.63 286.04 229.31 286.04 227.79V221.44C286.088 220.98 285.986 220.517 285.75 220.12C285.503 219.712 285.115 219.41 284.66 219.27C284.162 219.181 283.655 219.154 283.15 219.19H268.76L185.41 218.88C184.962 218.881 184.529 219.045 184.192 219.341C183.856 219.637 183.638 220.045 183.58 220.49C183.58 221.44 183.58 222.49 183.58 223.49C183.58 225.49 183.58 227.49 183.58 229.49C183.58 230.49 183.58 231.49 183.58 232.49C183.543 232.957 183.563 233.428 183.64 233.89C183.765 234.295 184.022 234.648 184.37 234.89C184.739 235.124 185.173 235.236 185.61 235.21H187H189.89L212.02 235.32L249.49 235.55L274.75 235.75L281.62 235.83H274.75H249.49L212 235.79L189.87 235.71H185.52C184.979 235.742 184.442 235.598 183.99 235.3C183.535 234.985 183.203 234.522 183.05 233.99C182.96 233.482 182.933 232.965 182.97 232.45C182.97 231.45 182.97 230.45 182.97 229.45C182.97 227.45 182.97 225.45 182.97 223.45C182.97 222.45 182.97 221.45 182.97 220.45C183.043 219.878 183.322 219.353 183.754 218.972C184.187 218.591 184.743 218.38 185.32 218.38L268.67 218.84L283.06 218.95C283.596 218.917 284.134 218.954 284.66 219.06C285.179 219.23 285.618 219.586 285.89 220.06C286.149 220.5 286.261 221.012 286.21 221.52C286.21 221.99 286.21 222.45 286.21 222.91C286.21 224.72 286.21 226.38 286.21 227.91C286.21 229.44 286.21 230.73 286.21 231.91C286.21 232.48 286.21 233.01 286.21 233.5C286.246 233.947 286.174 234.397 286 234.81C285.87 235.086 285.682 235.331 285.449 235.527C285.216 235.724 284.944 235.868 284.65 235.95C284.431 235.968 284.211 235.948 284 235.89Z" fill="#E0E0E0"/>
<path d="M208.885 251.838L183.165 251.721L183.144 256.441L208.863 256.558L208.885 251.838Z" fill="#FF725E"/>
<path opacity="0.1" d="M208.885 251.838L183.165 251.721L183.144 256.441L208.863 256.558L208.885 251.838Z" fill="black"/>
<path d="M283.8 280.8C284.002 280.776 284.203 280.739 284.4 280.69C284.678 280.602 284.934 280.455 285.151 280.26C285.369 280.066 285.542 279.827 285.66 279.56C285.817 279.156 285.878 278.722 285.84 278.29C285.84 277.8 285.84 277.29 285.84 276.7C285.84 275.55 285.84 274.22 285.84 272.7V266.35C285.888 265.89 285.786 265.427 285.55 265.03C285.297 264.63 284.911 264.332 284.46 264.19C283.962 264.098 283.455 264.067 282.95 264.1H268.56L185.21 263.79C184.762 263.791 184.329 263.955 183.992 264.251C183.656 264.547 183.438 264.955 183.38 265.4C183.38 266.4 183.38 267.4 183.38 268.4C183.38 270.4 183.38 272.4 183.38 274.4C183.38 275.4 183.38 276.4 183.38 277.4C183.343 277.864 183.363 278.331 183.44 278.79C183.56 279.198 183.818 279.552 184.17 279.79C184.537 280.03 184.973 280.142 185.41 280.11H189.76L211.89 280.23L249.36 280.46L274.62 280.66L281.49 280.74H274.62H249.36L211.89 280.63L189.76 280.54H185.41C184.869 280.577 184.331 280.432 183.88 280.13C183.425 279.815 183.093 279.352 182.94 278.82C182.85 278.312 182.824 277.795 182.86 277.28C182.86 276.28 182.86 275.28 182.86 274.28C182.86 272.28 182.86 270.28 182.86 268.28C182.86 267.28 182.86 266.28 182.86 265.23C182.931 264.659 183.208 264.134 183.638 263.752C184.069 263.371 184.625 263.161 185.2 263.16L268.55 263.62L282.94 263.73C283.476 263.697 284.014 263.734 284.54 263.84C285.06 264.01 285.498 264.366 285.77 264.84C286.029 265.28 286.141 265.792 286.09 266.3C286.09 266.77 286.09 267.24 286.09 267.69C286.09 269.5 286.09 271.16 286.09 272.69C286.09 274.22 286.09 275.51 286.09 276.69C286.09 277.26 286.09 277.79 286.09 278.28C286.128 278.727 286.056 279.177 285.88 279.59C285.75 279.866 285.562 280.111 285.329 280.307C285.096 280.504 284.824 280.648 284.53 280.73C284.296 280.81 284.045 280.834 283.8 280.8Z" fill="#E0E0E0"/>
<path d="M237.295 225.157L190.256 224.943L190.236 229.353L237.275 229.567L237.295 225.157Z" fill="#FF725E"/>
<path opacity="0.2" d="M237.295 225.157L190.256 224.943L190.236 229.353L237.275 229.567L237.295 225.157Z" fill="white"/>
<path d="M194.51 272.64C194.48 273.042 194.334 273.427 194.087 273.746C193.841 274.066 193.507 274.306 193.125 274.437C192.744 274.568 192.332 274.585 191.942 274.484C191.551 274.384 191.199 274.171 190.928 273.872C190.657 273.572 190.481 273.201 190.419 272.802C190.358 272.403 190.415 271.995 190.584 271.629C190.752 271.262 191.025 270.954 191.367 270.74C191.709 270.527 192.107 270.419 192.51 270.43C193.067 270.461 193.59 270.71 193.964 271.124C194.338 271.538 194.535 272.083 194.51 272.64Z" fill="#FF725E"/>
<path d="M200.88 272.67C200.899 272.952 200.861 273.235 200.766 273.501C200.672 273.768 200.524 274.012 200.331 274.218C200.138 274.425 199.905 274.59 199.646 274.703C199.387 274.815 199.107 274.873 198.825 274.873C198.542 274.873 198.262 274.815 198.003 274.703C197.744 274.59 197.511 274.425 197.318 274.218C197.125 274.012 196.977 273.768 196.883 273.501C196.789 273.235 196.75 272.952 196.77 272.67C196.75 272.388 196.789 272.105 196.883 271.839C196.977 271.572 197.125 271.328 197.318 271.122C197.511 270.915 197.744 270.75 198.003 270.637C198.262 270.525 198.542 270.467 198.825 270.467C199.107 270.467 199.387 270.525 199.646 270.637C199.905 270.75 200.138 270.915 200.331 271.122C200.524 271.328 200.672 271.572 200.766 271.839C200.861 272.105 200.899 272.388 200.88 272.67Z" fill="#FF725E"/>
<path d="M207.26 272.7C207.23 273.102 207.084 273.487 206.837 273.806C206.591 274.126 206.257 274.366 205.875 274.497C205.494 274.628 205.082 274.645 204.692 274.544C204.301 274.444 203.949 274.231 203.678 273.932C203.407 273.632 203.231 273.261 203.169 272.862C203.108 272.463 203.165 272.055 203.334 271.689C203.502 271.322 203.775 271.014 204.117 270.8C204.459 270.587 204.857 270.479 205.26 270.49C205.816 270.524 206.337 270.774 206.711 271.187C207.085 271.6 207.282 272.143 207.26 272.7Z" fill="#FF725E"/>
<path d="M213.63 272.73C213.6 273.132 213.453 273.517 213.207 273.836C212.961 274.156 212.626 274.396 212.245 274.527C211.864 274.658 211.452 274.675 211.061 274.574C210.671 274.474 210.318 274.261 210.048 273.962C209.777 273.662 209.6 273.291 209.539 272.892C209.478 272.493 209.535 272.085 209.703 271.719C209.872 271.352 210.144 271.044 210.487 270.83C210.829 270.617 211.226 270.509 211.63 270.52C212.186 270.554 212.707 270.804 213.081 271.217C213.454 271.63 213.652 272.173 213.63 272.73Z" fill="#FF725E"/>
<path d="M220 272.75C219.972 273.153 219.827 273.539 219.582 273.86C219.337 274.18 219.003 274.422 218.621 274.555C218.24 274.688 217.828 274.705 217.437 274.606C217.046 274.506 216.692 274.294 216.42 273.995C216.149 273.696 215.971 273.324 215.909 272.925C215.847 272.526 215.904 272.118 216.072 271.751C216.24 271.384 216.513 271.074 216.856 270.861C217.198 270.647 217.596 270.539 218 270.55C218.554 270.584 219.074 270.832 219.447 271.243C219.821 271.654 220.019 272.195 220 272.75Z" fill="#FF725E"/>
<path d="M226.38 272.78C226.353 273.181 226.209 273.565 225.966 273.885C225.723 274.205 225.392 274.447 225.014 274.581C224.635 274.716 224.226 274.736 223.835 274.641C223.445 274.546 223.091 274.338 222.818 274.044C222.544 273.75 222.362 273.383 222.294 272.987C222.226 272.591 222.276 272.184 222.437 271.816C222.597 271.448 222.862 271.135 223.199 270.915C223.535 270.695 223.928 270.579 224.33 270.58C224.893 270.601 225.425 270.844 225.809 271.256C226.194 271.669 226.399 272.217 226.38 272.78Z" fill="#FF725E"/>
<path d="M232.75 272.81C232.769 273.092 232.731 273.375 232.637 273.641C232.542 273.908 232.394 274.152 232.201 274.358C232.009 274.565 231.775 274.73 231.516 274.843C231.257 274.955 230.977 275.013 230.695 275.013C230.412 275.013 230.133 274.955 229.873 274.843C229.614 274.73 229.381 274.565 229.188 274.358C228.996 274.152 228.847 273.908 228.753 273.641C228.659 273.375 228.62 273.092 228.64 272.81C228.62 272.528 228.659 272.245 228.753 271.979C228.847 271.712 228.996 271.468 229.188 271.262C229.381 271.055 229.614 270.89 229.873 270.777C230.133 270.665 230.412 270.607 230.695 270.607C230.977 270.607 231.257 270.665 231.516 270.777C231.775 270.89 232.009 271.055 232.201 271.262C232.394 271.468 232.542 271.712 232.637 271.979C232.731 272.245 232.769 272.528 232.75 272.81Z" fill="#FF725E"/>
<path d="M239.12 272.84C239.092 273.241 238.948 273.625 238.706 273.945C238.463 274.265 238.132 274.507 237.753 274.641C237.375 274.776 236.965 274.796 236.575 274.701C236.185 274.606 235.831 274.398 235.557 274.104C235.283 273.81 235.101 273.443 235.034 273.047C234.966 272.651 235.016 272.244 235.176 271.876C235.337 271.508 235.602 271.195 235.938 270.975C236.275 270.755 236.668 270.639 237.07 270.64C237.633 270.661 238.165 270.904 238.549 271.316C238.933 271.729 239.139 272.277 239.12 272.84Z" fill="#FF725E"/>
<path d="M245.49 272.87C245.462 273.273 245.317 273.659 245.072 273.98C244.827 274.3 244.493 274.542 244.111 274.675C243.73 274.808 243.318 274.825 242.927 274.726C242.535 274.626 242.182 274.414 241.91 274.115C241.639 273.816 241.461 273.444 241.399 273.045C241.337 272.646 241.394 272.238 241.562 271.871C241.73 271.504 242.003 271.194 242.345 270.981C242.688 270.767 243.086 270.659 243.49 270.67C244.044 270.704 244.563 270.952 244.937 271.363C245.311 271.774 245.509 272.315 245.49 272.87Z" fill="#FF725E"/>
<g opacity="0.2">
<path d="M194.51 272.64C194.48 273.042 194.334 273.427 194.087 273.746C193.841 274.066 193.507 274.306 193.125 274.437C192.744 274.568 192.332 274.585 191.942 274.484C191.551 274.384 191.199 274.171 190.928 273.872C190.657 273.572 190.481 273.201 190.419 272.802C190.358 272.403 190.415 271.995 190.584 271.629C190.752 271.262 191.025 270.954 191.367 270.74C191.709 270.527 192.107 270.419 192.51 270.43C193.067 270.461 193.59 270.71 193.964 271.124C194.338 271.538 194.535 272.083 194.51 272.64Z" fill="white"/>
<path d="M200.88 272.67C200.9 272.952 200.861 273.235 200.767 273.501C200.673 273.768 200.524 274.012 200.332 274.218C200.139 274.425 199.906 274.59 199.646 274.703C199.387 274.815 199.108 274.873 198.825 274.873C198.543 274.873 198.263 274.815 198.004 274.703C197.745 274.59 197.511 274.425 197.319 274.218C197.126 274.012 196.978 273.768 196.883 273.501C196.789 273.235 196.75 272.952 196.77 272.67C196.75 272.388 196.789 272.105 196.883 271.839C196.978 271.572 197.126 271.328 197.319 271.122C197.511 270.915 197.745 270.75 198.004 270.637C198.263 270.525 198.543 270.467 198.825 270.467C199.108 270.467 199.387 270.525 199.646 270.637C199.906 270.75 200.139 270.915 200.332 271.122C200.524 271.328 200.673 271.572 200.767 271.839C200.861 272.105 200.9 272.388 200.88 272.67Z" fill="white"/>
<path d="M207.26 272.7C207.23 273.102 207.084 273.487 206.837 273.806C206.591 274.126 206.257 274.366 205.875 274.497C205.494 274.628 205.082 274.645 204.692 274.544C204.301 274.444 203.949 274.231 203.678 273.932C203.407 273.632 203.231 273.261 203.169 272.862C203.108 272.463 203.165 272.055 203.334 271.689C203.502 271.322 203.775 271.014 204.117 270.8C204.459 270.587 204.857 270.479 205.26 270.49C205.816 270.524 206.337 270.774 206.711 271.187C207.085 271.6 207.282 272.143 207.26 272.7Z" fill="white"/>
<path d="M213.63 272.73C213.601 273.132 213.454 273.517 213.208 273.836C212.961 274.156 212.627 274.396 212.245 274.527C211.864 274.658 211.452 274.675 211.062 274.574C210.671 274.474 210.319 274.261 210.048 273.962C209.778 273.662 209.601 273.291 209.539 272.892C209.478 272.493 209.535 272.085 209.704 271.719C209.872 271.352 210.145 271.044 210.487 270.83C210.829 270.617 211.227 270.509 211.63 270.52C212.186 270.554 212.707 270.804 213.081 271.217C213.455 271.63 213.652 272.173 213.63 272.73Z" fill="white"/>
<path d="M220 272.75C219.972 273.153 219.827 273.539 219.582 273.86C219.337 274.18 219.003 274.422 218.621 274.555C218.24 274.688 217.828 274.705 217.437 274.606C217.046 274.506 216.692 274.294 216.42 273.995C216.149 273.696 215.971 273.324 215.909 272.925C215.847 272.526 215.904 272.118 216.072 271.751C216.24 271.384 216.513 271.074 216.856 270.861C217.198 270.647 217.596 270.539 218 270.55C218.554 270.584 219.074 270.832 219.447 271.243C219.821 271.654 220.019 272.195 220 272.75Z" fill="white"/>
<path d="M226.38 272.78C226.353 273.181 226.209 273.565 225.966 273.885C225.723 274.205 225.392 274.447 225.014 274.581C224.635 274.716 224.226 274.736 223.835 274.641C223.445 274.546 223.091 274.338 222.818 274.044C222.544 273.75 222.362 273.383 222.294 272.987C222.226 272.591 222.276 272.184 222.437 271.816C222.597 271.448 222.862 271.135 223.199 270.915C223.535 270.695 223.928 270.579 224.33 270.58C224.893 270.601 225.425 270.844 225.809 271.256C226.194 271.669 226.399 272.217 226.38 272.78Z" fill="white"/>
<path d="M232.75 272.81C232.769 273.092 232.731 273.375 232.637 273.641C232.542 273.908 232.394 274.152 232.201 274.358C232.009 274.565 231.775 274.73 231.516 274.843C231.257 274.955 230.977 275.013 230.695 275.013C230.412 275.013 230.133 274.955 229.873 274.843C229.614 274.73 229.381 274.565 229.188 274.358C228.996 274.152 228.847 273.908 228.753 273.641C228.659 273.375 228.62 273.092 228.64 272.81C228.62 272.528 228.659 272.245 228.753 271.979C228.847 271.712 228.996 271.468 229.188 271.262C229.381 271.055 229.614 270.89 229.873 270.777C230.133 270.665 230.412 270.607 230.695 270.607C230.977 270.607 231.257 270.665 231.516 270.777C231.775 270.89 232.009 271.055 232.201 271.262C232.394 271.468 232.542 271.712 232.637 271.979C232.731 272.245 232.769 272.528 232.75 272.81Z" fill="white"/>
<path d="M239.12 272.84C239.093 273.241 238.949 273.625 238.706 273.945C238.463 274.265 238.132 274.507 237.754 274.641C237.375 274.776 236.966 274.796 236.576 274.701C236.185 274.606 235.832 274.398 235.558 274.104C235.284 273.81 235.102 273.443 235.034 273.047C234.967 272.651 235.016 272.244 235.177 271.876C235.338 271.508 235.602 271.195 235.939 270.975C236.275 270.755 236.668 270.639 237.07 270.64C237.633 270.661 238.165 270.904 238.55 271.316C238.934 271.729 239.139 272.277 239.12 272.84Z" fill="white"/>
<path d="M245.49 272.87C245.463 273.273 245.317 273.659 245.072 273.98C244.827 274.3 244.493 274.542 244.112 274.675C243.73 274.808 243.318 274.825 242.927 274.726C242.536 274.626 242.182 274.414 241.911 274.115C241.639 273.816 241.461 273.444 241.399 273.045C241.337 272.646 241.394 272.238 241.562 271.871C241.731 271.504 242.003 271.194 242.346 270.981C242.689 270.767 243.087 270.659 243.49 270.67C244.045 270.704 244.564 270.952 244.938 271.363C245.311 271.774 245.509 272.315 245.49 272.87Z" fill="white"/>
</g>
<path d="M236.44 128.51C237.135 128.204 237.724 127.701 238.135 127.062C238.545 126.424 238.759 125.679 238.75 124.92C238.776 124.427 238.701 123.933 238.53 123.47C238.359 123.006 238.095 122.582 237.755 122.224C237.415 121.865 237.006 121.58 236.552 121.385C236.098 121.19 235.609 121.089 235.115 121.089C234.621 121.089 234.132 121.19 233.678 121.385C233.224 121.58 232.815 121.865 232.474 122.224C232.134 122.582 231.871 123.006 231.7 123.47C231.529 123.933 231.454 124.427 231.48 124.92C231.465 125.687 231.677 126.441 232.09 127.087C232.503 127.733 233.098 128.242 233.8 128.55C228.2 129.39 228.45 135.47 228.45 135.47L241.69 135.53C241.69 135.53 242 129.34 236.44 128.51Z" fill="#FF725E"/>
<path opacity="0.1" d="M236.44 128.51C237.135 128.204 237.724 127.701 238.135 127.062C238.545 126.424 238.759 125.679 238.75 124.92C238.776 124.427 238.701 123.933 238.53 123.47C238.359 123.006 238.095 122.582 237.755 122.224C237.415 121.865 237.006 121.58 236.552 121.385C236.098 121.19 235.609 121.089 235.115 121.089C234.621 121.089 234.132 121.19 233.678 121.385C233.224 121.58 232.815 121.865 232.474 122.224C232.134 122.582 231.871 123.006 231.7 123.47C231.529 123.933 231.454 124.427 231.48 124.92C231.465 125.687 231.677 126.441 232.09 127.087C232.503 127.733 233.098 128.242 233.8 128.55C228.2 129.39 228.45 135.47 228.45 135.47L241.69 135.53C241.69 135.53 242 129.34 236.44 128.51Z" fill="black"/>
<path d="M257.954 139.451L210.765 139.237L210.739 144.877L257.929 145.091L257.954 139.451Z" fill="#FF725E"/>
<path opacity="0.2" d="M257.954 139.451L210.765 139.237L210.739 144.877L257.929 145.091L257.954 139.451Z" fill="white"/>
<path d="M84.4702 168.68H84.0002L82.6402 168.78C81.9042 168.824 81.1724 168.921 80.4502 169.07C79.9825 169.136 79.5185 169.226 79.0602 169.34L77.5102 169.77C74.8721 170.579 72.3829 171.812 70.1402 173.42C67.1771 175.571 64.7029 178.324 62.8802 181.5C61.809 183.331 60.9564 185.281 60.3402 187.31C59.6927 189.516 59.3199 191.793 59.2302 194.09C59.1706 195.297 59.1907 196.506 59.2902 197.71C59.2902 198.32 59.4602 198.93 59.5402 199.55C59.6075 200.175 59.7246 200.794 59.8902 201.4C60.7894 205.413 62.614 209.16 65.2183 212.342C67.8227 215.525 71.1347 218.055 74.8902 219.73C77.6083 220.903 80.5217 221.557 83.4802 221.66C86.536 221.828 89.5947 221.39 92.4802 220.37L93.3602 220.04H93.4802L93.5802 220.1L106.19 226.5L105.82 226.82C104.47 222.64 103.17 218.59 101.91 214.7V214.55L102.02 214.44C105.079 211.359 107.35 207.586 108.64 203.44C109.809 199.65 110.15 195.653 109.64 191.72C109.187 188.225 108.063 184.849 106.33 181.78C104.837 179.143 102.91 176.777 100.63 174.78C98.7497 173.199 96.6683 171.875 94.4402 170.84C92.7544 170.113 90.9986 169.56 89.2002 169.19L87.2002 168.86L85.7502 168.75L84.8702 168.69H84.5702C84.6699 168.679 84.7705 168.679 84.8702 168.69H85.7602L87.2102 168.75L89.2102 169.04C91.0309 169.383 92.8107 169.916 94.5202 170.63C96.7866 171.652 98.9055 172.974 100.82 174.56C103.141 176.548 105.109 178.915 106.64 181.56C108.422 184.662 109.581 188.083 110.05 191.63C110.602 195.624 110.285 199.69 109.12 203.55C107.822 207.782 105.516 211.635 102.4 214.78L102.46 214.52C103.72 218.41 105.03 222.46 106.39 226.63L106.58 227.24L106.01 226.95L93.4002 220.56H93.6202L92.7202 220.89C89.7792 221.925 86.6638 222.373 83.5502 222.21C80.5279 222.095 77.5536 221.417 74.7802 220.21C69.4899 217.944 65.0884 214.007 62.2502 209C60.9441 206.688 59.9903 204.194 59.4202 201.6C59.2641 200.978 59.1472 200.347 59.0702 199.71C58.9902 199.08 58.8602 198.46 58.8302 197.84C58.5596 194.282 58.9357 190.704 59.9402 187.28C60.5718 185.223 61.4481 183.248 62.5502 181.4C64.4163 178.196 66.9421 175.424 69.9602 173.27C72.2399 171.658 74.7708 170.435 77.4502 169.65L79.0202 169.25C79.4823 169.143 79.9496 169.059 80.4202 169C81.1499 168.865 81.8886 168.785 82.6302 168.76L84.0002 168.71C84.156 168.689 84.3131 168.679 84.4702 168.68Z" fill="#FF725E"/>
<path d="M90.1702 192H88.3202L84.3202 186.38V182.69C84.3202 182.69 81.4602 182.51 81.8002 187.34C82.1402 192.17 81.8002 190.94 81.8002 190.94C81.8002 190.94 75.7302 190.94 75.2302 191.49C74.7302 192.04 74.7002 197.9 74.6302 201.17C74.5918 201.958 74.818 202.737 75.2728 203.382C75.7276 204.027 76.3848 204.501 77.1402 204.73C77.3519 204.789 77.5705 204.819 77.7902 204.82C79.3102 204.82 87.0402 203.59 87.0402 203.59H90.2302L90.1702 192Z" fill="#FF725E"/>
<path d="M95.4602 191.01L94.3202 203.65H91.1602V191.27L95.4602 191.01Z" fill="#FF725E"/>
<path d="M133.15 448.34V439.79L117.82 439.68L117.69 452.61L118.64 452.68C122.87 452.95 140.16 453.35 143 452.47C146.16 451.49 133.15 448.34 133.15 448.34Z" fill="#FF725E"/>
<path d="M143.36 451.67C143.36 451.81 137.62 451.93 130.55 451.93C123.48 451.93 117.74 451.81 117.74 451.67C117.74 451.53 123.48 451.41 130.55 451.41C137.62 451.41 143.36 451.53 143.36 451.67Z" fill="#263238"/>
<path d="M133.42 450.09C133.29 450.02 133.42 449.57 133.73 449.09C134.04 448.61 134.46 448.41 134.56 448.51C134.66 448.61 134.45 448.99 134.15 449.4C133.85 449.81 133.55 450.16 133.42 450.09Z" fill="#263238"/>
<path d="M134.4 450.65C134.26 450.65 134.33 450.09 134.63 449.56C134.93 449.03 135.33 448.71 135.44 448.79C135.55 448.87 135.37 449.32 135.09 449.79C134.81 450.26 134.53 450.7 134.4 450.65Z" fill="#263238"/>
<path d="M122.36 451.63C122.3 451.63 122.07 451.45 121.74 451.07C121.337 450.582 120.889 450.133 120.4 449.73C119.92 449.346 119.348 449.095 118.74 449C118.27 448.94 117.97 449 117.94 448.94C117.91 448.88 118.2 448.67 118.75 448.63C119.476 448.615 120.184 448.855 120.75 449.31C121.28 449.742 121.728 450.267 122.07 450.86C122.3 451.3 122.42 451.59 122.36 451.63Z" fill="#263238"/>
<path d="M133.47 448.48C133.54 448.6 133.28 448.9 132.84 449.06C132.4 449.22 132.01 449.16 131.99 449.06C131.97 448.96 132.28 448.75 132.66 448.61C133.04 448.47 133.39 448.36 133.47 448.48Z" fill="#263238"/>
<path d="M133.23 447.65C133.23 447.8 132.83 447.92 132.31 447.93C131.79 447.94 131.38 447.82 131.39 447.68C131.4 447.54 131.81 447.41 132.31 447.4C132.81 447.39 133.21 447.51 133.23 447.65Z" fill="#263238"/>
<path d="M170.9 448.34V439.79L155.57 439.68L155.44 452.48L156.39 452.55C160.62 452.82 177.92 453.35 180.75 452.47C183.91 451.49 170.9 448.34 170.9 448.34Z" fill="#FF725E"/>
<path d="M181.11 451.69C181.11 451.83 175.38 451.95 168.3 451.95C161.22 451.95 155.5 451.83 155.5 451.69C155.5 451.55 161.23 451.43 168.3 451.43C175.37 451.43 181.11 451.55 181.11 451.69Z" fill="#263238"/>
<path d="M171.17 450.09C171.05 450.02 171.17 449.57 171.48 449.09C171.79 448.61 172.21 448.41 172.31 448.51C172.41 448.61 172.2 448.99 171.9 449.4C171.6 449.81 171.3 450.16 171.17 450.09Z" fill="#263238"/>
<path d="M172.15 450.65C172.02 450.65 172.08 450.09 172.39 449.56C172.7 449.03 173.09 448.71 173.2 448.79C173.31 448.87 173.12 449.32 172.84 449.79C172.56 450.26 172.29 450.7 172.15 450.65Z" fill="#263238"/>
<path d="M160.11 451.63C160.05 451.63 159.83 451.45 159.49 451.07C159.087 450.582 158.639 450.133 158.15 449.73C157.67 449.346 157.098 449.095 156.49 449C156.03 448.94 155.72 449 155.69 448.94C155.66 448.88 155.95 448.67 156.5 448.63C157.226 448.615 157.934 448.855 158.5 449.31C159.033 449.739 159.481 450.265 159.82 450.86C160.05 451.3 160.17 451.59 160.11 451.63Z" fill="#263238"/>
<path d="M171.22 448.48C171.29 448.6 171.03 448.9 170.59 449.06C170.15 449.22 169.76 449.16 169.74 449.06C169.72 448.96 170.03 448.75 170.41 448.61C170.79 448.47 171.14 448.36 171.22 448.48Z" fill="#263238"/>
<path d="M171 447.65C171 447.8 170.6 447.92 170.08 447.93C169.56 447.94 169.16 447.82 169.17 447.68C169.18 447.54 169.58 447.41 170.08 447.4C170.58 447.39 171 447.51 171 447.65Z" fill="#263238"/>
<path d="M227.38 194.44C226.98 194.03 225.99 194.23 225.99 194.23C226.089 193.654 226.089 193.066 225.99 192.49C225.81 191.93 224.55 192.04 224.55 192.04C224.492 191.568 224.492 191.092 224.55 190.62C224.56 190.515 224.538 190.41 224.486 190.319C224.434 190.228 224.355 190.155 224.26 190.11C223.664 189.867 223.023 189.751 222.38 189.77C221.61 189.22 224.73 184.85 225.89 183.45C227.05 182.05 226.84 180.96 225.81 180.96C225.1 180.96 221.46 185.16 220.34 186.57C219.22 187.98 216.25 191.9 216.15 188.77C216.05 185.64 214.79 183.28 214 182.88C213.21 182.48 212.37 183.42 212.8 184.29C213.178 185.278 213.413 186.315 213.5 187.37C213.609 188.21 213.571 189.063 213.39 189.89C213.058 191.43 212.607 192.941 212.04 194.41H211.96C211.96 194.41 190.14 215.34 188.56 216.83C187.15 218.17 158.79 215.24 153.1 214.64C151.166 214.357 149.214 214.223 147.26 214.24C144.79 214.35 144.35 214.7 141.89 214.73C135.677 214.799 129.479 215.344 123.35 216.36C120.575 216.832 117.982 218.057 115.855 219.901C113.729 221.746 112.149 224.139 111.29 226.82C105.56 244.72 92.5799 287.09 90.2899 310.89C88.5595 314.028 86.9973 317.256 85.61 320.56C84 324.94 84.39 325.09 84.93 325.19C86.39 325.46 88.05 317.6 88.67 319.5C89.2899 321.4 85.52 328.87 87.05 329.09C89.05 329.37 90.64 321.09 90.83 320.43C91.02 319.77 92.01 319.98 91.83 320.6C91.54 321.48 88.73 330.81 90.69 331.11C91.77 331.27 91.89 329.3 91.89 329.3C91.89 329.3 93.89 320.37 94.8 320.55C95.71 320.73 94.74 326 94.28 327.76C93.82 329.52 94.4599 330.41 95.3999 329.98C96.0399 329.68 97.57 324.33 97.99 322.59C98.41 320.85 99.4599 316.03 100.87 318.82C102.28 321.61 104.42 323.23 105.3 323.27C105.498 323.247 105.685 323.165 105.837 323.035C105.988 322.905 106.097 322.733 106.15 322.541C106.203 322.348 106.197 322.144 106.132 321.955C106.068 321.766 105.949 321.601 105.79 321.48C105.033 320.741 104.383 319.899 103.86 318.98C103.393 318.264 103.055 317.472 102.86 316.64C102.457 314.981 102.222 313.286 102.16 311.58L102 310.58C104.24 299.49 110.69 266.94 120 246.15L123.82 254.01L125.48 259.83L115.3 284.96L158.72 284.39L152.24 259.45L160.11 233.45C168.62 233.64 190.47 233.96 194.11 232.31C198.69 230.31 222.38 200.39 222.38 200.39C223.924 199.19 225.403 197.908 226.81 196.55C226.81 196.55 228.25 195.34 227.38 194.44Z" fill="#FFBE9D"/>
<path d="M113.39 266.39C114.65 262.09 121.12 240.83 121.12 240.83C121.12 240.83 124.3 258.16 123.46 260.25C122.687 262.039 121.775 263.765 120.73 265.41C113.39 276.58 114.35 282.17 114.35 282.17L158.7 280.82C158.8 274.62 155.13 260.2 154.37 257.9C153.61 255.6 156.14 248.07 156.14 248.07C156.14 248.07 161.14 242.98 160.96 240.36C160.865 238.007 160.574 235.665 160.09 233.36L187.09 234.36L186.24 216.06L147.46 212.18C146.11 215.99 133.9 214.12 133.9 214.12C120.72 214.56 119.9 216.98 114.42 221.24C108.94 225.5 99.8701 262.06 99.8701 262.06L113.39 266.39Z" fill="#FF725E"/>
<path d="M139.61 262.06C138.841 262.197 138.058 262.238 137.28 262.18C135.83 262.18 133.84 262.08 131.65 261.86C129.46 261.64 127.48 261.33 126.07 261.05C125.292 260.95 124.53 260.755 123.8 260.47C124.582 260.47 125.362 260.544 126.13 260.69C127.55 260.87 129.52 261.12 131.7 261.34C133.88 261.56 135.86 261.71 137.29 261.81C138.069 261.82 138.846 261.904 139.61 262.06Z" fill="#263238"/>
<path d="M142.65 258.29C141.881 258.667 141.068 258.945 140.23 259.12C136.24 260.168 132.124 260.656 128 260.57C127.147 260.598 126.293 260.517 125.46 260.33C126.302 260.224 127.151 260.18 128 260.2C129.57 260.15 131.73 260.04 134.11 259.76C136.49 259.48 138.61 259.08 140.11 258.76C140.943 258.538 141.792 258.38 142.65 258.29Z" fill="#263238"/>
<path d="M157.57 241.47C157.55 242.232 157.446 242.99 157.26 243.73C157 245.12 156.6 247.02 156.09 249.1C155.58 251.18 155.09 253.1 154.65 254.4C154.473 255.144 154.211 255.866 153.87 256.55C153.926 255.79 154.067 255.039 154.29 254.31C154.67 252.75 155.1 250.95 155.58 248.98C156.06 247.01 156.52 245.21 156.9 243.65C157.035 242.899 157.26 242.167 157.57 241.47Z" fill="#263238"/>
<path d="M113.86 263.84C111.547 263.483 109.263 262.951 107.03 262.25C104.748 261.716 102.508 261.014 100.33 260.15C102.642 260.513 104.925 261.044 107.16 261.74C109.443 262.272 111.682 262.974 113.86 263.84Z" fill="#263238"/>
<path d="M160.57 233.14C160.193 233.205 159.807 233.205 159.43 233.14C158.385 233.033 157.36 232.787 156.38 232.41C154.744 231.795 153.255 230.845 152.008 229.621C150.761 228.396 149.784 226.924 149.14 225.3C148.428 223.513 148.124 221.59 148.25 219.67C148.295 218.087 148.768 216.545 149.62 215.21C150.219 214.31 151.114 213.649 152.15 213.34C152.427 213.264 152.713 213.227 153 213.23C153.2 213.23 153.3 213.23 153.3 213.23C153.3 213.23 152.88 213.23 152.21 213.5C151.26 213.851 150.454 214.509 149.92 215.37C148.56 217.51 148.18 221.42 149.63 225.07C150.305 226.791 151.361 228.336 152.72 229.59C153.833 230.616 155.115 231.441 156.51 232.03C157.819 232.547 159.18 232.919 160.57 233.14Z" fill="#263238"/>
<path d="M183.88 234C183.63 230.933 183.55 227.855 183.64 224.78C183.562 221.707 183.655 218.632 183.92 215.57C184.17 218.633 184.25 221.708 184.16 224.78C184.244 227.856 184.15 230.935 183.88 234Z" fill="#263238"/>
<path d="M147.2 213.3C147.31 211.07 147.54 208.55 147.54 208.55C147.54 208.55 153.06 207.94 153.39 202.24C153.72 196.54 153.39 183.39 153.39 183.39L143.39 178.27L132.29 187L134 215.5L144.18 216.15C144.958 216.172 145.713 215.884 146.279 215.349C146.845 214.815 147.177 214.078 147.2 213.3Z" fill="#FFBE9D"/>
<path d="M148.19 197.73C148.19 197.73 148.19 197.84 148.1 197.97C148.026 198.064 147.929 198.139 147.82 198.188C147.71 198.237 147.59 198.258 147.47 198.25C146.83 198.25 146.21 197.51 145.99 196.65C145.885 196.233 145.885 195.797 145.99 195.38C146.011 195.198 146.076 195.024 146.181 194.874C146.286 194.724 146.426 194.602 146.59 194.52C146.725 194.464 146.876 194.464 147.01 194.52C147.11 194.57 147.191 194.65 147.24 194.75C147.31 194.92 147.24 195.03 147.24 195.02C147.24 195.01 147.24 194.92 147.14 194.82C147.088 194.748 147.011 194.699 146.924 194.68C146.837 194.662 146.747 194.676 146.67 194.72C146.547 194.794 146.445 194.898 146.374 195.022C146.302 195.146 146.263 195.287 146.26 195.43C146.176 195.802 146.176 196.188 146.26 196.56C146.46 197.34 147 197.97 147.48 198.03C147.574 198.043 147.669 198.036 147.761 198.01C147.852 197.984 147.937 197.94 148.01 197.88C148.13 197.8 148.17 197.72 148.19 197.73Z" fill="#EB996E"/>
<path d="M156.82 180.31C156.05 177.69 153.26 176.39 150.72 175.67C146.85 174.57 142.67 174.09 138.89 175.48C135.11 176.87 130.57 179.31 130.57 183.48C128.34 183.3 127.06 185.25 126.18 187.67C125.618 189.144 125.28 190.695 125.18 192.27C124.9 197.73 123.37 205.27 119.83 209.27C117.83 211.5 115.06 213.04 113.92 215.82C112.92 218.23 113.44 221.09 112.51 223.53C111.68 225.68 109.85 227.21 108.51 229.08C107.145 231.201 106.342 233.635 106.175 236.152C106.009 238.669 106.486 241.188 107.56 243.47C108.642 245.694 110.166 247.674 112.038 249.29C113.91 250.906 116.092 252.124 118.45 252.87C123.121 254.291 128.102 254.34 132.8 253.01C136.326 252.167 139.615 250.536 142.42 248.24C145.291 245.896 147.262 242.632 148 239C148.71 234.92 147.57 230.77 146.72 226.71C144.06 213.88 144.82 213.21 148.18 201.3C148.26 201.09 148.3 200.87 148.36 200.66C148.42 200.45 148.45 200.35 148.49 200.19C148.586 199.719 148.636 199.24 148.64 198.76C148.149 198.943 147.617 198.981 147.105 198.871C146.593 198.761 146.123 198.508 145.75 198.14C145.377 197.748 145.116 197.262 144.996 196.734C144.877 196.206 144.902 195.655 145.07 195.14C145.306 194.577 145.658 194.07 146.102 193.651C146.547 193.232 147.074 192.912 147.65 192.71C148.76 192.25 149.95 192.01 151.04 191.5C153.35 190.4 154.95 188.12 156.04 185.73C156.936 184.074 157.213 182.152 156.82 180.31Z" fill="#263238"/>
<path d="M148.59 198C148.801 198.312 148.976 198.648 149.11 199C149.41 199.63 149.81 200.52 150.25 201.55L150.33 201.74H150.12L149.12 201.83C148.43 201.83 147.85 201.96 147.17 201.95C147.111 201.937 147.056 201.909 147.01 201.868C146.965 201.828 146.93 201.777 146.91 201.72C146.88 201.629 146.88 201.531 146.91 201.44C146.933 201.305 146.963 201.172 147 201.04L147.18 200.33C147.27 199.856 147.411 199.394 147.6 198.95C147.581 199.433 147.511 199.912 147.39 200.38L147.25 201.09C147.2 201.33 147.11 201.7 147.25 201.67C147.75 201.67 148.46 201.56 149.12 201.52L150.12 201.43L149.99 201.65C149.56 200.65 149.2 199.71 148.99 199.06C148.806 198.728 148.671 198.371 148.59 198Z" fill="#FF725E"/>
<path d="M114.35 282.17L158.7 280.82L178 356.16L174.45 442.58H151L153.87 358L136.72 305.55L139.36 445.93L115.66 446.28L113.17 314.33C113.06 310.66 111.86 302.39 112.31 298.75L114.35 282.17Z" fill="#263238"/>
<path d="M142.62 306.62C141.894 306.666 141.165 306.622 140.45 306.49C139.11 306.33 137.28 306.05 135.27 305.65C133.26 305.25 131.46 304.79 130.16 304.42C129.465 304.267 128.793 304.025 128.16 303.7C128.16 303.55 131.42 304.33 135.42 305.14C139.42 305.95 142.64 306.47 142.62 306.62Z" fill="#455A64"/>
<path d="M174.21 437.84C174.21 437.98 168.9 438.1 162.35 438.1C155.8 438.1 150.48 437.98 150.48 437.84C150.48 437.7 155.79 437.58 162.35 437.58C168.91 437.58 174.21 437.69 174.21 437.84Z" fill="#455A64"/>
<path d="M139.15 442.28C139.15 442.43 133.99 442.54 127.63 442.54C121.27 442.54 116.12 442.43 116.12 442.28C116.12 442.13 121.28 442.02 127.63 442.02C133.98 442.02 139.15 442.14 139.15 442.28Z" fill="#455A64"/>
<path d="M136.09 441.92C135.95 441.92 135.33 411.25 134.7 373.42C134.07 335.59 133.7 304.9 133.83 304.9C133.96 304.9 134.6 335.56 135.22 373.41C135.84 411.26 136.24 441.92 136.09 441.92Z" fill="#455A64"/>
<path d="M171.06 437.84C171.049 437.704 171.049 437.566 171.06 437.43V436.23C171.06 435.15 171.14 433.6 171.2 431.63C171.34 427.63 171.54 421.82 171.79 414.7C172.33 400.38 173.09 380.64 173.92 358.85C173.92 358.64 173.92 358.44 173.92 358.26V358.33C168.67 337.33 163.92 318.27 160.47 304.48L156.47 288.17C156.01 286.26 155.66 284.77 155.41 283.73C155.29 283.24 155.21 282.86 155.14 282.57C155.101 282.44 155.077 282.306 155.07 282.17C155.122 282.296 155.162 282.427 155.19 282.56C155.27 282.84 155.37 283.22 155.51 283.7C155.78 284.7 156.17 286.22 156.67 288.12C157.67 291.98 159.08 297.54 160.84 304.39C164.32 318.17 169.12 337.18 174.44 358.21V358.28C174.44 358.46 174.44 358.67 174.44 358.87C173.55 380.66 172.74 400.39 172.15 414.71C171.84 421.84 171.58 427.61 171.4 431.63C171.3 433.63 171.22 435.15 171.17 436.23C171.17 436.74 171.11 437.14 171.1 437.43C171.101 437.568 171.088 437.705 171.06 437.84Z" fill="#455A64"/>
<path d="M163.41 356.5C161.725 357.054 159.99 357.439 158.23 357.65C156.07 358.02 154.23 358.28 153.4 358.32V358.12C153.67 358.2 153.81 358.25 153.81 358.29C153.81 358.33 153.64 358.29 153.36 358.29H152.76L153.36 358.11C154.14 357.88 155.98 357.5 158.14 357.11C159.872 356.734 161.637 356.53 163.41 356.5Z" fill="#455A64"/>
<path d="M163 359.37C161.44 359.441 159.877 359.371 158.33 359.16C156.768 359.128 155.212 358.957 153.68 358.65C156.805 358.395 159.951 358.638 163 359.37Z" fill="#455A64"/>
<path opacity="0.2" d="M114.16 283.76C114.685 284.434 115.347 284.991 116.102 285.392C116.856 285.794 117.687 286.031 118.54 286.09C120.326 286.302 122.133 286.268 123.91 285.99C135.36 284.72 147.49 283.55 158.7 280.82C144.19 281.63 128.86 281.36 114.35 282.17L114.2 283.41" fill="black"/>
<g opacity="0.2">
<path d="M129.11 304.21L137.29 335.95L136.72 305.55L129.11 304.21Z" fill="black"/>
</g>
</svg>
