<svg width="30" height="28" viewBox="0 0 30 28" fill="none" xmlns="http://www.w3.org/2000/svg">
<path d="M27.9936 9.20291H17.9509V2.67287C17.9509 1.5665 17.0508 0.666443 15.9445 0.666443H2.00643C0.900059 0.666443 0 1.5665 0 2.67287V12.7709C0 13.8772 0.900059 14.7773 2.00643 14.7773H3.64447C3.5942 15.9182 3.3324 16.9626 2.84971 17.9548C2.74846 18.1628 2.77916 18.411 2.92805 18.5882C3.04113 18.7227 3.20631 18.797 3.37664 18.797C3.43055 18.797 3.4851 18.7896 3.53859 18.7742C5.98594 18.0701 7.46795 17.2764 9.06129 14.7773H12.0491V21.3073C12.0491 22.4137 12.9485 23.3137 14.0538 23.3137H20.9387C22.5321 25.8128 24.0141 26.6066 26.4614 27.3106C26.5149 27.326 26.5694 27.3335 26.6234 27.3335C26.7937 27.3335 26.9589 27.259 27.0719 27.1246C27.2208 26.9474 27.2515 26.6992 27.1503 26.4912C26.6677 25.4991 26.4059 24.4547 26.3556 23.3137H27.9936C29.0999 23.3137 30 22.4137 30 21.3073V11.2093C30 10.103 29.0999 9.20291 27.9936 9.20291ZM8.73621 13.6054C8.53201 13.6054 8.34252 13.7117 8.23611 13.8861C7.03863 15.8476 5.97486 16.6744 4.38322 17.2695C4.694 16.296 4.84189 15.262 4.82385 14.1816C4.81852 13.8619 4.55777 13.6055 4.23797 13.6055H2.00643C1.54623 13.6055 1.17188 13.2311 1.17188 12.7709V2.67287C1.17188 2.21267 1.54629 1.83832 2.00643 1.83832H15.9445C16.4047 1.83832 16.779 2.21273 16.779 2.67287V12.7709C16.779 13.2311 16.4046 13.6054 15.9445 13.6054H8.73621ZM28.8281 21.3073C28.8281 21.7675 28.4537 22.1419 27.9936 22.1419H25.7621C25.4423 22.1419 25.1816 22.3983 25.1762 22.718C25.1582 23.7985 25.3061 24.8324 25.6168 25.8059C24.0253 25.2109 22.9615 24.3841 21.7639 22.4225C21.6575 22.2482 21.468 22.1419 21.2638 22.1419H14.0539C13.5946 22.1419 13.221 21.7675 13.221 21.3073V14.7773H15.9445C17.0509 14.7773 17.951 13.8772 17.951 12.7709V10.3748H27.9936C28.4538 10.3748 28.8282 10.7492 28.8282 11.2093V21.3073H28.8281Z" fill="currentColor"/>
<path d="M12.6446 10.0747L12.0717 9.50173C12.5238 8.87325 12.7911 8.10345 12.7911 7.27189C12.7911 5.16099 11.0737 3.44366 8.9629 3.44366C6.85206 3.44366 5.13467 5.16105 5.13467 7.27189C5.13467 9.38273 6.85206 11.1001 8.9629 11.1001C9.8203 11.1001 10.6127 10.8168 11.2516 10.3389L11.8161 10.9034C11.9305 11.0178 12.0804 11.075 12.2304 11.075C12.3803 11.075 12.5303 11.0177 12.6447 10.9034C12.8735 10.6745 12.8735 10.3035 12.6446 10.0747ZM8.96284 9.92824C7.49811 9.92824 6.30649 8.73661 6.30649 7.27189C6.30649 5.80716 7.49811 4.61554 8.96284 4.61554C10.4276 4.61554 11.6192 5.80716 11.6192 7.27189C11.6192 7.77948 11.4759 8.25415 11.2278 8.65792L10.5692 7.99933C10.3404 7.77052 9.96942 7.77052 9.74061 7.99933C9.5118 8.22814 9.5118 8.59915 9.74061 8.82796L10.4102 9.49751C9.9935 9.76951 9.49651 9.92824 8.96284 9.92824Z" fill="currentColor"/>
<path d="M21.7197 12.9067C21.7173 12.9005 21.7149 12.8943 21.7124 12.8882C21.5982 12.6141 21.3326 12.4369 21.0356 12.4368H21.0354C20.7386 12.4368 20.4729 12.6139 20.3586 12.888C20.3563 12.8936 20.354 12.8992 20.3518 12.905L17.9222 19.2855C17.8071 19.5879 17.9589 19.9264 18.2613 20.0416C18.3299 20.0677 18.4004 20.0801 18.4697 20.0801C18.7059 20.0801 18.9284 19.9364 19.0175 19.7026L19.4792 18.4899H22.5728L23.0294 19.7008C23.1435 20.0036 23.4814 20.1566 23.7844 20.0424C24.0872 19.9282 24.24 19.5901 24.1258 19.2874L21.7197 12.9067ZM19.9254 17.3179L21.0334 14.408L22.1308 17.3179H19.9254Z" fill="currentColor"/>
</svg>
