<svg width="26" height="26" viewBox="0 0 26 26" fill="none" xmlns="http://www.w3.org/2000/svg">
<path d="M13 0.5C6.10385 0.5 0.5 6.10385 0.5 13C0.5 19.453 5.40135 24.7753 11.6865 25.4316C12.7463 25.5423 13.625 24.6542 13.625 23.625V18.625C13.625 18.2724 13.8974 18 14.25 18H22.375C23.5899 18 24.8085 17.2182 25.1216 15.9761C25.3661 15.0061 25.4933 14.0093 25.5 13.0049V13C25.5 6.10385 19.8962 0.5 13 0.5ZM13 1.75C19.2198 1.75 24.2487 6.77811 24.25 12.9976C24.2437 13.9007 24.1281 14.7987 23.9082 15.6709C23.7807 16.1768 22.9642 16.75 22.375 16.75H14.25C13.2219 16.75 12.375 17.5969 12.375 18.625V23.625C12.375 23.9765 12.1312 24.2216 11.8184 24.189C6.15972 23.5981 1.75 18.8209 1.75 13C1.75 6.7794 6.7794 1.75 13 1.75Z" fill="currentColor"/>
<path d="M6.125 10.5C5.09687 10.5 4.25 11.3469 4.25 12.375C4.25 13.4031 5.09687 14.25 6.125 14.25C7.15313 14.25 8 13.4031 8 12.375C8 11.3469 7.15313 10.5 6.125 10.5ZM6.125 11.75C6.47758 11.75 6.75 12.0224 6.75 12.375C6.75 12.7276 6.47758 13 6.125 13C5.77242 13 5.5 12.7276 5.5 12.375C5.5 12.0224 5.77242 11.75 6.125 11.75Z" fill="currentColor"/>
<path d="M19.875 10.5C18.8469 10.5 18 11.3469 18 12.375C18 13.4031 18.8469 14.25 19.875 14.25C20.9031 14.25 21.75 13.4031 21.75 12.375C21.75 11.3469 20.9031 10.5 19.875 10.5ZM19.875 11.75C20.2276 11.75 20.5 12.0224 20.5 12.375C20.5 12.7276 20.2276 13 19.875 13C19.5224 13 19.25 12.7276 19.25 12.375C19.25 12.0224 19.5224 11.75 19.875 11.75Z" fill="currentColor"/>
<path d="M9.25 5.5C8.22187 5.5 7.375 6.34687 7.375 7.375C7.375 8.40313 8.22187 9.25 9.25 9.25C10.2781 9.25 11.125 8.40313 11.125 7.375C11.125 6.34687 10.2781 5.5 9.25 5.5ZM9.25 6.75C9.60258 6.75 9.875 7.02242 9.875 7.375C9.875 7.72758 9.60258 8 9.25 8C8.89742 8 8.625 7.72758 8.625 7.375C8.625 7.02242 8.89742 6.75 9.25 6.75Z" fill="currentColor"/>
<path d="M16.75 5.5C15.7219 5.5 14.875 6.34687 14.875 7.375C14.875 8.40313 15.7219 9.25 16.75 9.25C17.7781 9.25 18.625 8.40313 18.625 7.375C18.625 6.34687 17.7781 5.5 16.75 5.5ZM16.75 6.75C17.1026 6.75 17.375 7.02242 17.375 7.375C17.375 7.72758 17.1026 8 16.75 8C16.3974 8 16.125 7.72758 16.125 7.375C16.125 7.02242 16.3974 6.75 16.75 6.75Z" fill="currentColor"/>
</svg>
