<svg width="19" height="19" viewBox="0 0 19 19" fill="none" xmlns="http://www.w3.org/2000/svg">
<path fill-rule="evenodd" clip-rule="evenodd" d="M17.8125 17.7891H14.0266C13.9683 17.7891 13.9134 17.7617 13.8784 17.7149C13.4294 17.1188 13.2893 16.7145 13.2056 16.4729C13.185 16.4133 13.162 16.3469 13.1459 16.3175C13.0704 16.3182 12.849 16.3913 12.5954 16.4748C12.4867 16.5107 12.3616 16.5521 12.2175 16.5981C9.30104 17.5332 6.51932 17.4149 3.95 16.2475C2.74885 15.7832 1.8662 15.2448 1.32649 14.646C1.31254 14.6305 1.30129 14.6127 1.2932 14.5934C0.960114 13.8002 0.912449 12.707 1.15165 11.3444C1.38691 10.0041 1.90688 8.35818 2.69704 6.45205C2.69771 6.45047 2.6984 6.44896 2.69914 6.44702C3.69206 4.23083 4.5716 2.93897 5.38806 2.49829C6.96202 1.62079 8.07623 1.21105 8.89029 1.21105C8.89413 1.21101 8.8979 1.21105 8.90173 1.21143C8.92347 1.2114 8.94503 1.2153 8.9654 1.22264C9.95128 1.5887 10.7331 2.20992 10.9571 2.806C11.0545 3.06534 11.0452 3.31471 10.93 3.52733C10.9281 3.53081 10.9262 3.53428 10.9241 3.53737C10.7171 3.86787 9.02652 5.35345 8.69171 5.5359C8.31251 5.74269 7.87596 5.71643 7.39434 5.45781C7.38986 5.45546 7.38546 5.45279 7.38116 5.45008C7.2916 5.39209 7.16481 5.32792 7.06931 5.35267C7.00918 5.36813 6.95327 5.42263 6.9031 5.51541C6.79544 5.74112 6.64043 6.31598 6.56339 6.94376C6.47033 7.70253 6.54878 8.07676 6.6443 8.16683C6.96987 8.47375 7.22685 9.13942 7.42999 10.2021C7.44924 10.3026 7.38321 10.4 7.28259 10.4193C7.18186 10.4382 7.08471 10.3725 7.06549 10.2717C6.8346 9.06402 6.57058 8.60712 6.38975 8.43665C5.87353 7.94993 6.31743 5.87492 6.57058 5.35035C6.57172 5.348 6.57286 5.34609 6.5741 5.34377C6.67574 5.15356 6.81121 5.03568 6.97673 4.99316C7.15631 4.94677 7.35793 4.99433 7.57626 5.13425C7.94281 5.32946 8.24961 5.35421 8.51409 5.21002C8.82698 5.03954 10.4346 3.6058 10.6066 3.34525C10.6671 3.22925 10.6681 3.09206 10.6097 2.93666C10.427 2.45033 9.72897 1.9088 8.86748 1.58253C8.12975 1.59061 7.04934 1.99692 5.56652 2.82378C4.83308 3.21959 3.98336 4.4887 3.03884 6.59662C1.49957 10.3103 1.02335 12.9424 1.62337 14.421C2.12673 14.9676 2.95593 15.4663 4.0887 15.9031C4.09211 15.9046 4.09542 15.9058 4.09875 15.9073C6.58292 17.038 9.27632 17.1513 12.1042 16.2448C12.2473 16.1988 12.3713 16.1582 12.4792 16.1226C12.8789 15.9908 13.0613 15.9305 13.2089 15.9506C13.4276 15.98 13.4901 16.1601 13.5562 16.3511C13.6293 16.5622 13.7494 16.9089 14.12 17.418L17.627 17.418V6.76244C16.6262 6.78793 15.0368 7.31601 14.5158 8.73353C14.4805 8.82974 14.3739 8.87926 14.2776 8.84369C14.1815 8.80852 14.1321 8.70183 14.1675 8.60558C14.4374 7.87109 14.9947 7.27001 15.7791 6.86721C16.4065 6.54519 17.1693 6.36778 17.8195 6.39252C17.9192 6.39637 17.9981 6.47833 17.9981 6.57806L17.9981 17.6036C17.9981 17.706 17.9149 17.7891 17.8125 17.7891Z" fill="black"/>
<path fill-rule="evenodd" clip-rule="evenodd" d="M10.3306 10.2434C10.2981 10.2434 10.2652 10.2349 10.2354 10.2171C10.1475 10.1641 10.1189 10.0505 10.1716 9.96236C10.7541 8.9905 11.7765 8.36044 12.9065 8.27656C14.0363 8.19307 15.1406 8.66543 15.8599 9.541C15.925 9.62022 15.9136 9.73737 15.8344 9.80232C15.7552 9.86722 15.6382 9.85604 15.5732 9.7768C14.9304 8.99438 13.944 8.5719 12.9339 8.64688C11.9241 8.72149 11.0105 9.28471 10.4899 10.1533C10.4552 10.2113 10.3937 10.2434 10.3306 10.2434Z" fill="black"/>
<path fill-rule="evenodd" clip-rule="evenodd" d="M13.7218 13.2354C13.6879 13.2354 13.6536 13.2261 13.6228 13.2068C12.8013 12.688 12.6633 12.4831 12.2537 11.8755C12.2069 11.8059 12.1563 11.7309 12.1004 11.6489C11.4004 10.6238 10.2411 10.0119 8.99945 10.0119C7.70757 10.0118 6.52268 10.6628 5.82993 11.7533C5.775 11.8395 5.6603 11.8654 5.57383 11.8101C5.48733 11.7552 5.46172 11.6408 5.51669 11.5542C6.27792 10.3559 7.57989 9.64075 8.99945 9.64075C10.3639 9.64071 11.6377 10.3134 12.4069 11.4398C12.4632 11.5221 12.5142 11.5979 12.5614 11.6679C12.9587 12.2574 13.0654 12.4159 13.821 12.8933C13.9077 12.9478 13.9335 13.0626 13.8788 13.1492C13.8435 13.2048 13.7833 13.2354 13.7218 13.2354Z" fill="black"/>
<path fill-rule="evenodd" clip-rule="evenodd" d="M10.413 4.01007C10.349 4.01007 10.2868 3.97684 10.2523 3.91769C10.122 3.69348 9.93926 3.49827 9.72383 3.35369C9.63876 3.29686 9.61605 3.18129 9.67315 3.09625C9.73025 3.01119 9.84551 2.9884 9.93063 3.04561C10.1926 3.2215 10.4147 3.45845 10.5732 3.73137C10.6247 3.8199 10.5946 3.93354 10.506 3.98495C10.4767 4.00193 10.4446 4.01009 10.413 4.01007Z" fill="black"/>
<path fill-rule="evenodd" clip-rule="evenodd" d="M9.78045 4.59725C9.72145 4.59725 9.66347 4.56905 9.62747 4.51687C9.48454 4.30926 9.29078 4.10672 9.06711 3.93083C8.98655 3.86782 8.97256 3.75109 9.03588 3.6703C9.09926 3.58989 9.21591 3.57597 9.29642 3.63937C9.54909 3.83764 9.76923 4.06845 9.93309 4.30657C9.99125 4.39081 9.96993 4.50643 9.88554 4.56442C9.85343 4.58682 9.81673 4.59727 9.78045 4.59725Z" fill="black"/>
<path fill-rule="evenodd" clip-rule="evenodd" d="M9.02695 5.24356C8.97164 5.24356 8.91699 5.21885 8.88038 5.17208C8.69919 4.93936 8.48555 4.7345 8.24541 4.56326C8.16201 4.50371 8.1426 4.38774 8.20209 4.30425C8.26162 4.22072 8.3775 4.20143 8.46088 4.26096C8.73029 4.45309 8.96994 4.68309 9.17321 4.94401C9.23619 5.02478 9.22164 5.14154 9.1408 5.20454C9.10692 5.23082 9.06679 5.2436 9.02695 5.24356Z" fill="black"/>
<path fill-rule="evenodd" clip-rule="evenodd" d="M9.75527 15.6336C9.66919 15.6336 9.592 15.5734 9.57379 15.4856C9.55299 15.3854 9.61743 15.2873 9.71778 15.2664C10.1896 15.1682 10.7043 14.842 11.2476 14.2965C11.32 14.2238 11.4374 14.2235 11.5101 14.2958C11.5827 14.368 11.5829 14.4856 11.5106 14.5582C10.9151 15.1562 10.3373 15.5169 9.79316 15.6298C9.78046 15.6321 9.76776 15.6337 9.75527 15.6336Z" fill="black"/>
<path fill-rule="evenodd" clip-rule="evenodd" d="M6.99379 15.5876C6.56723 15.5876 6.10753 15.2192 5.58965 14.4627C5.53175 14.3781 5.55339 14.2625 5.63793 14.2045C5.72256 14.1469 5.83798 14.1686 5.89588 14.2528C6.45205 15.0654 6.80898 15.2258 7.01018 15.2161C7.11183 15.2111 7.1993 15.2908 7.20386 15.3932C7.20846 15.4956 7.12916 15.5822 7.02681 15.5869C7.01585 15.5872 7.00477 15.5876 6.99379 15.5876Z" fill="black"/>
<path fill-rule="evenodd" clip-rule="evenodd" d="M5.89587 14.2528C6.45204 15.0653 6.80897 15.2257 7.01017 15.2161C7.11181 15.211 7.19929 15.2907 7.20385 15.3931C7.20845 15.4956 7.12915 15.5822 7.02679 15.5868C7.01584 15.5872 7.00476 15.5876 6.99378 15.5875C6.56721 15.5875 6.10751 15.2192 5.58964 14.4627C5.53174 14.378 5.55338 14.2624 5.63792 14.2044C5.72254 14.1468 5.83797 14.1685 5.89587 14.2528ZM13.7217 13.2353C13.6878 13.2353 13.6535 13.2261 13.6227 13.2067C12.8012 12.688 12.6632 12.4831 12.2536 11.8754C12.2068 11.8058 12.1562 11.7308 12.1003 11.6489C11.6494 10.9885 11.0079 10.4996 10.2766 10.2353C10.2709 10.2336 10.2651 10.2315 10.2595 10.2292C9.86045 10.0871 9.43499 10.0118 8.99938 10.0118C8.41811 10.0118 7.85852 10.1436 7.35566 10.3879C7.33974 10.3993 7.32181 10.4083 7.30232 10.4143C6.71023 10.7138 6.19985 11.1708 5.82985 11.7533C5.77492 11.8394 5.66023 11.8654 5.57375 11.8101C5.48725 11.7552 5.46164 11.6408 5.51662 11.5542C5.90298 10.946 6.42862 10.4622 7.03824 10.1333C6.81408 9.02863 6.5635 8.60036 6.38975 8.43657C5.87353 7.94984 6.31743 5.87483 6.57058 5.35026L6.5741 5.34369C6.67574 5.15347 6.8112 5.03559 6.97673 4.99308C7.15631 4.94668 7.35793 4.99424 7.57626 5.13417C7.94281 5.32938 8.24961 5.35413 8.51409 5.20994C8.56601 5.18165 8.65358 5.11858 8.76433 5.03185C8.61004 4.85637 8.43606 4.6992 8.24539 4.56323C8.16199 4.50368 8.14258 4.38771 8.20206 4.30422C8.2616 4.22069 8.37748 4.2014 8.46086 4.26093C8.67862 4.41622 8.87693 4.59625 9.0523 4.79736C9.20087 4.67288 9.36511 4.53103 9.52971 4.38545C9.40087 4.2244 9.24327 4.06934 9.0671 3.9308C8.98655 3.86779 8.97255 3.75106 9.03588 3.67027C9.09925 3.58986 9.2159 3.57594 9.29641 3.63934C9.48874 3.79025 9.66221 3.96003 9.80636 4.13752C9.9374 4.0185 10.0629 3.90215 10.1745 3.79595C10.053 3.62273 9.89927 3.47141 9.72383 3.35366C9.63876 3.29683 9.61605 3.18126 9.67315 3.09622C9.73025 3.01116 9.84552 2.98837 9.93063 3.04558C10.1268 3.17728 10.3006 3.3432 10.4421 3.53283C10.523 3.44944 10.5809 3.38417 10.6066 3.34517C10.6671 3.22916 10.6681 3.09197 10.6097 2.93657C10.427 2.45025 9.72897 1.90871 8.86748 1.58244C8.12974 1.59053 7.04933 1.99683 5.56652 2.8237C4.83308 3.21951 3.98336 4.48862 3.03884 6.59654C1.49957 10.3102 1.02335 12.9423 1.62337 14.4209C2.12673 14.9675 2.95592 15.4662 4.0887 15.903C4.09211 15.9045 4.09542 15.9057 4.09875 15.9073C6.58292 17.0379 9.27632 17.1512 12.1042 16.2447C12.2473 16.1987 12.3713 16.1581 12.4792 16.1226C12.8789 15.9907 13.0613 15.9304 13.2089 15.9505C13.4276 15.9799 13.4901 16.1601 13.5562 16.351C13.6293 16.5621 13.7494 16.9088 14.12 17.4179L17.627 17.4179V6.76236C16.6659 6.78683 15.1619 7.27484 14.5827 8.56899C15.0717 8.78654 15.5111 9.11634 15.86 9.54097C15.925 9.62019 15.9136 9.73734 15.8344 9.80229C15.7552 9.86719 15.6382 9.85601 15.5732 9.77677C14.9304 8.99435 13.944 8.57187 12.934 8.64685C11.9979 8.716 11.1446 9.20493 10.6103 9.96772C11.3275 10.2718 11.9544 10.7773 12.4068 11.4398C12.4631 11.5221 12.5141 11.5979 12.5613 11.6678C12.9586 12.2573 13.0653 12.4158 13.8209 12.8932C13.9076 12.9477 13.9334 13.0625 13.8787 13.1491C13.8434 13.2048 13.7832 13.2353 13.7217 13.2353ZM9.57377 15.4855C9.55297 15.3854 9.61741 15.2872 9.71776 15.2663C10.1895 15.1681 10.7043 14.8419 11.2476 14.2964C11.3199 14.2238 11.4374 14.2234 11.51 14.2957C11.5827 14.368 11.5829 14.4855 11.5106 14.5582C10.9151 15.1561 10.3373 15.5168 9.79314 15.6297C9.78044 15.632 9.76774 15.6336 9.75526 15.6336C9.66918 15.6336 9.59198 15.5733 9.57377 15.4855Z" fill="#FFD4A1"/>
</svg>
