<svg width="27" height="27" viewBox="0 0 27 27" fill="none" xmlns="http://www.w3.org/2000/svg">
<path d="M16.2163 21.5527H10.7837V7.73777C10.7837 7.01747 11.3676 6.43359 12.0879 6.43359H14.9121C15.6324 6.43359 16.2162 7.01752 16.2162 7.73777V21.5527H16.2163Z" fill="#FFA8A6"/>
<path d="M14.9125 6.43359H13.2827C14.0028 6.43359 14.5865 7.01768 14.5865 7.73814V21.5527H16.2163V7.73814C16.2163 7.01768 15.6326 6.43359 14.9125 6.43359Z" fill="#FF7675"/>
<path d="M9.26258 21.5527H3.82999V11.3797C3.82999 10.6594 4.41391 10.0755 5.13416 10.0755H7.95835C8.67865 10.0755 9.26252 10.6595 9.26252 11.3797L9.26258 21.5527Z" fill="#77E0D9"/>
<path d="M7.95877 10.0755H6.32901C7.0491 10.0755 7.63281 10.6596 7.63281 11.3801V21.5527H9.26257V11.3801C9.26257 10.6596 8.6788 10.0755 7.95877 10.0755Z" fill="#4ECDC4"/>
<path d="M23.17 21.5527H17.7374V4.20456C17.7374 3.48427 18.3214 2.90039 19.0416 2.90039H21.8658C22.5861 2.90039 23.17 3.48432 23.17 4.20456V21.5527H23.17Z" fill="#FFE8A3"/>
<path d="M21.8662 2.90039H20.2365C20.9565 2.90039 21.5403 3.48448 21.5403 4.20493V21.5527H23.17V4.20493C23.17 3.48448 22.5863 2.90039 21.8662 2.90039Z" fill="#FFB703"/>
<path d="M25.3698 24.0996H1.63023C0.729896 24.0996 0 23.3697 0 22.4694V22.4684C0 21.5681 0.729896 20.8382 1.63023 20.8382H25.3698C26.2701 20.8382 27 21.5681 27 22.4684V22.4694C27 23.3697 26.2701 24.0996 25.3698 24.0996Z" fill="#8C9EFF"/>
<path d="M25.3702 20.8382H23.7405C24.6406 20.8382 25.3702 21.5683 25.3702 22.4689C25.3702 23.3695 24.6405 24.0996 23.7405 24.0996H25.3702C26.2703 24.0996 27 23.3695 27 22.4689C27 21.5683 26.2703 20.8382 25.3702 20.8382Z" fill="#7488ED"/>
</svg>
