<svg width="19" height="19" viewBox="0 0 19 19" fill="none" xmlns="http://www.w3.org/2000/svg">
<path d="M2.80447 7.28359C3.12068 7.57363 3.49191 7.77002 3.86811 7.90183C4.29622 8.05186 4.73073 8.11829 5.09775 8.14401C5.37204 8.16323 5.62303 8.06845 5.80019 7.90595C5.97735 7.74345 6.08068 7.51322 6.05972 7.26162C6.03168 6.92496 5.95927 6.52641 5.7957 6.13372C5.652 5.78864 5.4379 5.44812 5.1217 5.15807C4.80549 4.86803 4.43426 4.67164 4.05806 4.53983C3.62995 4.3898 3.19544 4.32341 2.82842 4.29766C2.55413 4.27843 2.30314 4.37321 2.12598 4.53571C1.94882 4.69821 1.84549 4.9284 1.86645 5.18004C1.89449 5.5167 1.9669 5.91525 2.13047 6.30795C2.27421 6.65303 2.48827 6.99354 2.80447 7.28359Z" fill="#FFBDD7"/>
<path d="M5.17494 7.09581C3.65968 7.06312 2.80095 5.18439 3.18857 4.3354C3.06364 4.31825 2.94251 4.30567 2.82842 4.29769C2.55413 4.27847 2.30314 4.37325 2.12598 4.53575C1.94882 4.69825 1.84549 4.92848 1.86645 5.18008C1.89449 5.51674 1.9669 5.91529 2.13047 6.30798C2.27417 6.65303 2.48827 6.99358 2.80447 7.28363C3.12068 7.57367 3.49191 7.77002 3.86811 7.90187C4.29622 8.0519 4.73073 8.11833 5.09775 8.14404C5.32467 8.15996 5.53549 8.09766 5.70188 7.98373C5.88887 7.52187 5.85962 7.11058 5.17494 7.09581Z" fill="#FF96C0"/>
<path d="M6.03161 4.61758C4.83426 5.80552 5.70185 7.9837 7.69586 7.33254C7.99079 7.04067 8.17135 6.65017 8.17135 6.22085C8.17135 5.31735 7.37286 4.58488 6.38783 4.58488C6.26585 4.58488 6.14675 4.5962 6.03161 4.61758Z" fill="#FF6E80"/>
<path d="M7.69589 7.33253C6.04559 7.42259 5.5059 5.46901 6.03163 4.61757C5.21733 4.76898 4.60437 5.42923 4.60437 6.22081C4.60437 7.12431 5.4029 7.85677 6.38789 7.85677C6.9048 7.85681 7.37013 7.65486 7.69589 7.33253Z" fill="#F8475E"/>
<path d="M16.1954 7.28359C15.8792 7.57363 15.508 7.77002 15.1318 7.90183C14.7037 8.05186 14.2692 8.11829 13.9022 8.14401C13.6279 8.16323 13.3769 8.06845 13.1997 7.90595C13.0225 7.74345 12.9192 7.51322 12.9402 7.26162C12.9682 6.92496 13.0406 6.52641 13.2042 6.13372C13.3479 5.78864 13.562 5.44812 13.8782 5.15807C14.1944 4.86803 14.5656 4.67164 14.9418 4.53983C15.37 4.3898 15.8045 4.32341 16.1715 4.29766C16.4458 4.27843 16.6968 4.37321 16.8739 4.53571C17.0511 4.69821 17.1544 4.9284 17.1335 5.18004C17.1054 5.5167 17.033 5.91525 16.8694 6.30795C16.7257 6.65303 16.5116 6.99354 16.1954 7.28359Z" fill="#FFBDD7"/>
<path d="M14.8969 4.55613C14.5361 4.68768 14.1818 4.87965 13.8782 5.15812C13.562 5.44816 13.3479 5.78868 13.2042 6.13376C13.0406 6.52645 12.9683 6.92501 12.9402 7.26166C12.9192 7.51326 13.0225 7.74349 13.1997 7.90599C13.3769 8.0685 13.6279 8.16327 13.9022 8.14405C14.2692 8.11833 14.7037 8.05191 15.1318 7.90187C15.508 7.77006 15.8792 7.57368 16.1954 7.28363C16.2728 7.21268 16.3439 7.13868 16.4095 7.06235C15.2355 6.82656 14.7016 5.40742 14.8969 4.55613Z" fill="#FF96C0"/>
<path d="M14.2726 6.83349C14.64 5.99502 14.1968 5.04211 13.2827 4.70509C12.3686 4.36808 11.3298 4.77459 10.9624 5.61306C10.595 6.45152 11.0381 7.40444 11.9522 7.74145C12.8663 8.07846 13.9052 7.67195 14.2726 6.83349Z" fill="#FF6E80"/>
<path d="M13.9201 7.33253C12.2698 7.42259 11.7301 5.46901 12.2559 4.61757C11.4415 4.76898 10.8286 5.42923 10.8286 6.22081C10.8286 7.12431 11.627 7.85677 12.6121 7.85677C13.129 7.85681 13.5944 7.65486 13.9201 7.33253Z" fill="#F8475E"/>
<path d="M11.2557 2.67644C11.2298 2.08057 10.9872 1.75821 10.686 1.39038C10.4553 1.10872 10.1902 0.800339 9.96159 0.322036C9.78722 -0.0427866 9.25429 -0.112923 8.97283 0.190483C8.64364 0.545397 8.35656 0.979725 8.14266 1.41123C7.89212 1.91663 7.74194 2.41823 7.74194 2.78406C7.74194 3.16706 7.88751 3.51886 8.13065 3.79547C8.46425 4.17503 8.98161 4.41301 9.55872 4.39575C10.149 4.37809 10.6586 4.08311 10.9616 3.65483C11.1612 3.37276 11.2712 3.03291 11.2557 2.67644Z" fill="#F7E969"/>
<path d="M10.9616 3.65481C11.1348 3.41007 11.2404 3.12173 11.2552 2.81684C9.65454 3.26096 8.40237 1.67231 8.8319 0.350922C8.56173 0.672363 8.32534 1.0426 8.1426 1.41121C7.89206 1.9166 7.74188 2.41825 7.74188 2.78403C7.74188 3.16704 7.88744 3.51884 8.13059 3.79545C8.46419 4.17501 8.98155 4.41299 9.55866 4.39573C10.149 4.37807 10.6586 4.08305 10.9616 3.65481Z" fill="#F5C956"/>
<path d="M11.2675 4.27658C11.2374 3.91803 10.8947 3.6508 10.5042 3.68272C10.1938 3.70806 9.82575 3.7307 9.49991 3.7307C9.17407 3.7307 8.80604 3.7081 8.4957 3.68272C8.10517 3.6508 7.76247 3.91799 7.73241 4.27658C7.69126 4.76798 7.64563 5.47358 7.64563 6.18749C7.64563 7.48828 7.79706 8.76154 7.79706 8.76154H11.2028C11.2028 8.76154 11.3542 7.48828 11.3542 6.18749C11.3542 5.47358 11.3086 4.76798 11.2675 4.27658Z" fill="#4677D4"/>
<path d="M15.9058 10.0396L17.48 11.8532C17.5733 12.3324 17.6596 13.0155 17.6989 13.7751C17.7468 14.7034 17.7244 15.7457 17.558 16.6689C17.3783 17.6669 16.5268 18.4484 15.4401 18.6204C14.6659 18.743 13.7946 18.8279 12.9375 18.8859C11.6253 18.9746 10.3464 18.9999 9.49998 18.9999C8.65355 18.9999 7.37464 18.9746 6.06239 18.8858C5.20532 18.8279 4.33405 18.7429 3.5598 18.6204C2.4731 18.4483 1.62165 17.6669 1.44186 16.6689C1.27555 15.7456 1.25309 14.7033 1.30103 13.7751C1.34028 13.0155 1.42661 12.3323 1.5199 11.8532L3.09406 10.0396H15.9058V10.0396Z" fill="#DA9D81"/>
<path d="M17.6989 13.7751C17.6597 13.0155 17.5733 12.3323 17.48 11.8532L15.9058 10.0396H3.0941L1.5199 11.8532C1.42661 12.3323 1.34028 13.0155 1.30103 13.7751C1.25309 14.7033 1.27555 15.7456 1.44186 16.6689C1.62161 17.6669 2.4731 18.4483 3.5598 18.6204C4.33405 18.7429 5.20532 18.8279 6.06239 18.8858C7.27827 18.968 8.4653 18.9959 9.30643 18.9995C7.61454 18.1898 6.36674 15.7731 6.03868 13.0308C6.28361 13.0198 6.52101 12.9979 6.74975 12.9646C6.88103 13.3421 7.10394 13.6923 7.40579 13.9836C7.94867 14.5075 8.71196 14.8079 9.49993 14.8079C10.2879 14.8079 11.0512 14.5074 11.5941 13.9836C11.8958 13.6924 12.1186 13.3425 12.2499 12.9645C12.591 13.0142 12.9509 13.0392 13.3272 13.0392C13.6473 13.0392 13.9682 13.0207 14.2822 12.9866C14.3534 13.5544 14.6245 14.0941 15.0578 14.5123C15.6002 15.0357 16.3627 15.3359 17.1499 15.3359H17.15C17.3376 15.3359 17.5237 15.3184 17.7058 15.2853C17.7295 14.7729 17.7239 14.2585 17.6989 13.7751Z" fill="#C7856A"/>
<path d="M18.0936 8.14118C17.3465 7.71917 16.091 7.45692 14.1589 7.31535C12.8901 7.22235 11.4 7.18142 9.50002 7.18142C8.52506 7.18142 7.65828 7.19226 6.87367 7.2153C4.82706 8.411 4.60439 10.7262 5.95684 11.8861C6.41396 11.8668 6.86372 11.7996 7.26929 11.6698C7.57065 11.5734 7.88188 11.7923 7.86582 12.0848C7.86574 12.0862 7.86566 12.0876 7.86558 12.089C7.8182 12.9448 8.56588 13.661 9.50002 13.661C10.4342 13.661 11.1818 12.9448 11.1345 12.089C11.1344 12.0876 11.1343 12.0862 11.1342 12.0848C11.1182 11.7924 11.4294 11.5734 11.7307 11.6698C12.2528 11.8369 12.848 11.9007 13.438 11.8914C13.9749 11.883 14.507 11.8143 14.9748 11.7086C15.2596 11.6443 15.5351 11.8425 15.5348 12.1115C15.5347 12.2431 15.5274 12.4034 15.5159 12.6121C15.4685 13.4696 16.214 14.1889 17.15 14.1889C18.0851 14.1889 18.8316 13.4713 18.7844 12.6147C18.7734 12.4157 18.7665 12.2174 18.7665 12.0333C18.7665 11.127 18.7475 11.0717 18.9336 10.1835C19.1248 9.27149 18.9208 8.60842 18.0936 8.14118Z" fill="#EEECFF"/>
<path d="M0.233558 12.0333C0.233558 12.2174 0.22664 12.4157 0.215676 12.6148C0.168382 13.4713 0.914925 14.189 1.84999 14.189C2.78608 14.189 3.53153 13.4697 3.48415 12.6121C3.47262 12.4034 3.46534 12.2431 3.46522 12.1115C3.46502 11.8425 3.74044 11.6443 4.02522 11.7087C4.49297 11.8143 5.0251 11.883 5.56203 11.8915C5.69368 11.8935 5.82557 11.8918 5.95685 11.8862C5.91927 10.2997 6.19627 8.66565 6.87367 7.21534C6.12927 7.23723 5.45887 7.27011 4.8411 7.31539C2.90902 7.457 1.6535 7.71921 0.906389 8.14122C0.0792165 8.60846 -0.124724 9.27153 0.0664322 10.1836C0.252572 11.0717 0.233558 11.1271 0.233558 12.0333Z" fill="#D3D3FF"/>
<path d="M6.18426 17.4727C6.85995 17.4727 7.4077 17.0726 7.4077 16.579C7.4077 16.0855 6.85995 15.6854 6.18426 15.6854C5.50857 15.6854 4.96082 16.0855 4.96082 16.579C4.96082 17.0726 5.50857 17.4727 6.18426 17.4727Z" fill="white"/>
<path d="M12.8157 17.4727C13.4914 17.4727 14.0392 17.0726 14.0392 16.579C14.0392 16.0855 13.4914 15.6854 12.8157 15.6854C12.14 15.6854 11.5923 16.0855 11.5923 16.579C11.5923 17.0726 12.14 17.4727 12.8157 17.4727Z" fill="white"/>
<path d="M6.8973 15.9971C6.72972 15.9971 6.59387 15.8725 6.59387 15.7188V15.26C6.59387 15.1063 6.72972 14.9817 6.8973 14.9817C7.06487 14.9817 7.20072 15.1063 7.20072 15.26V15.7188C7.20072 15.8725 7.06487 15.9971 6.8973 15.9971Z" fill="#425460"/>
<path d="M12.1027 15.9971C11.9351 15.9971 11.7993 15.8725 11.7993 15.7188V15.26C11.7993 15.1063 11.9351 14.9817 12.1027 14.9817C12.2702 14.9817 12.4061 15.1063 12.4061 15.26V15.7188C12.4061 15.8725 12.2703 15.9971 12.1027 15.9971Z" fill="#425460"/>
<path d="M9.50007 16.2702C9.14935 16.2702 8.81591 16.1309 8.58511 15.888C8.47503 15.7721 8.48817 15.5963 8.61452 15.4953C8.74087 15.3943 8.93255 15.4064 9.04263 15.5222C9.15813 15.6438 9.32485 15.7135 9.50007 15.7135C9.67529 15.7135 9.84201 15.6438 9.95751 15.5222C10.0676 15.4064 10.2592 15.3943 10.3856 15.4953C10.512 15.5963 10.5251 15.7721 10.415 15.888C10.1842 16.1309 9.85075 16.2702 9.50007 16.2702Z" fill="#425460"/>
</svg>
