<svg width="30" height="27" viewBox="0 0 30 27" fill="none" xmlns="http://www.w3.org/2000/svg">
<path fill-rule="evenodd" clip-rule="evenodd" d="M26.5097 20.0286C26.5976 20.1166 26.6469 20.2358 26.6468 20.3602C26.6467 20.4845 26.5973 20.6037 26.5093 20.6916C26.4213 20.7795 26.302 20.8288 26.1777 20.8287C26.0533 20.8287 25.9341 20.7792 25.8462 20.6912L24.6562 19.5012V23.2677C24.6562 23.392 24.6069 23.5112 24.519 23.5991C24.431 23.6871 24.3118 23.7364 24.1875 23.7364C24.0632 23.7364 23.944 23.6871 23.856 23.5991C23.7681 23.5112 23.7188 23.392 23.7188 23.2677V19.5012L22.5287 20.691C22.4399 20.774 22.3223 20.8192 22.2008 20.8171C22.0793 20.815 21.9633 20.7658 21.8774 20.6799C21.7915 20.594 21.7423 20.478 21.7402 20.3565C21.7381 20.235 21.7832 20.1174 21.8661 20.0286L23.8559 18.0383C23.9439 17.9504 24.0633 17.901 24.1876 17.901C24.312 17.901 24.4313 17.9504 24.5194 18.0383L26.5097 20.0286ZM29.0263 21.4061C29.1035 20.7706 29.0547 20.1262 28.8828 19.5096C28.7109 18.8931 28.4192 18.3164 28.0244 17.8126C27.6296 17.3087 27.1394 16.8876 26.5818 16.5732C26.0243 16.2588 25.4102 16.0573 24.7748 15.9803C24.5767 15.9562 24.3773 15.944 24.1777 15.9438C23.2392 15.9457 22.3212 16.2185 21.5339 16.7295C20.7467 17.2405 20.1237 17.9679 19.7398 18.8243C19.356 19.6807 19.2275 20.6298 19.3699 21.5574C19.5122 22.4851 19.9194 23.3519 20.5425 24.0538C21.1655 24.7557 21.978 25.2628 22.8822 25.5142C23.7865 25.7655 24.744 25.7505 25.6399 25.4709C26.5359 25.1912 27.332 24.6589 27.9327 23.9378C28.5334 23.2167 28.9132 22.3375 29.0263 21.4058V21.4061ZM3.68742 23.3338H18.9471C18.474 22.3483 18.2885 21.2493 18.412 20.1631C18.5354 19.0769 18.9628 18.0476 19.645 17.1934C20.3273 16.3392 21.2366 15.6949 22.2686 15.3343C23.3006 14.9737 24.4134 14.9117 25.4791 15.1552V11.4609L22.3922 8.37346L15.9887 12.9896L17.8977 14.3278C17.9494 14.3626 17.9937 14.4073 18.028 14.4594C18.0622 14.5115 18.0857 14.5699 18.0971 14.6312C18.1085 14.6924 18.1076 14.7554 18.0944 14.8163C18.0812 14.8772 18.0559 14.9349 18.0201 14.9859C17.9844 15.037 17.9388 15.0804 17.886 15.1136C17.8333 15.1468 17.7744 15.1691 17.7129 15.1793C17.6514 15.1895 17.5885 15.1874 17.5279 15.1729C17.4672 15.1585 17.4101 15.1322 17.3597 15.0954L7.73865 8.35125L0.9375 14.1028V20.5833C0.938275 21.3124 1.22821 22.0114 1.74369 22.5269C2.25917 23.0425 2.95811 23.3326 3.68719 23.3335L3.68742 23.3338ZM3.68742 0.9375H22.7292C23.4583 0.93826 24.1573 1.22822 24.6728 1.74375C25.1884 2.25928 25.4784 2.95828 25.4791 3.68736V10.1349L22.7732 7.42916C22.6944 7.35037 22.5902 7.30215 22.4792 7.29313C22.3682 7.28411 22.2576 7.31489 22.1672 7.37994L15.1758 12.4202L7.98106 7.37637C7.89619 7.31702 7.79407 7.28742 7.69062 7.29217C7.58717 7.29691 7.4882 7.33575 7.40912 7.40262L0.9375 12.8754V3.68736C0.938245 2.95827 1.22821 2.25925 1.74376 1.7437C2.25931 1.22815 2.95833 0.938244 3.68742 0.9375ZM28.7621 17.2348C28.1474 16.4482 27.3392 15.8345 26.4165 15.4535V3.68736C26.4155 2.70975 26.0266 1.77249 25.3354 1.08121C24.6441 0.389925 23.7068 0.00108565 22.7292 0H3.68742C2.70979 0.00105464 1.7725 0.38988 1.08121 1.08116C0.389911 1.77245 0.00107017 2.70973 0 3.68736V20.5835C0.00110083 21.5612 0.389926 22.4985 1.08119 23.1898C1.77245 23.8812 2.7097 24.2702 3.68736 24.2714H19.5135C19.5459 24.3153 19.5793 24.3593 19.6131 24.4024C20.0838 25.0031 20.6681 25.5053 21.3328 25.8802C21.9975 26.2551 22.7296 26.4954 23.4871 26.5874C24.2447 26.6794 25.013 26.6212 25.7481 26.4163C26.4832 26.2114 27.1707 25.8637 27.7714 25.3931C28.3722 24.9224 28.8743 24.3381 29.2492 23.6734C29.6241 23.0087 29.8644 22.2767 29.9564 21.5191C30.0484 20.7615 29.9903 19.9932 29.7854 19.2581C29.5804 18.523 29.2327 17.8355 28.7621 17.2348ZM14.7798 4.26844C15.2048 4.26843 15.6202 4.39444 15.9736 4.63053C16.327 4.86663 16.6024 5.20221 16.765 5.59484C16.9277 5.98747 16.9702 6.41951 16.8873 6.83633C16.8044 7.25315 16.5998 7.63603 16.2993 7.93654C15.9988 8.23706 15.6159 8.44172 15.1991 8.52464C14.7823 8.60756 14.3503 8.56502 13.9576 8.40239C13.565 8.23977 13.2294 7.96437 12.9933 7.61102C12.7572 7.25766 12.6311 6.84223 12.6311 6.41725C12.6319 5.84762 12.8585 5.30155 13.2613 4.89876C13.6641 4.49598 14.2102 4.26934 14.7798 4.26855V4.26844ZM14.7798 9.50326C14.1694 9.50327 13.5727 9.32228 13.0652 8.98318C12.5577 8.64408 12.1621 8.1621 11.9285 7.59818C11.695 7.03427 11.6338 6.41374 11.7529 5.81509C11.872 5.21643 12.1659 4.66653 12.5975 4.23492C13.0291 3.80331 13.579 3.50938 14.1776 3.3903C14.7763 3.27122 15.3968 3.33233 15.9607 3.56591C16.5247 3.79949 17.0067 4.19505 17.3458 4.70256C17.6849 5.21007 17.8659 5.80675 17.8659 6.41713C17.8649 7.23532 17.5395 8.01973 16.9609 8.59829C16.3824 9.17684 15.598 9.5023 14.7798 9.50326Z" fill="currentColor"/>
</svg>
