<svg width="25" height="25" viewBox="0 0 25 25" fill="none" xmlns="http://www.w3.org/2000/svg">
<path fill-rule="evenodd" clip-rule="evenodd" d="M12.8 14C13.8609 14 14.8783 13.5786 15.6285 12.8284C16.3786 12.0783 16.8 11.0609 16.8 10C16.8 8.93913 16.3786 7.92172 15.6285 7.17157C14.8783 6.42143 13.8609 6 12.8 6C11.7392 6 10.7218 6.42143 9.97162 7.17157C9.22148 7.92172 8.80005 8.93913 8.80005 10C8.80005 11.0609 9.22148 12.0783 9.97162 12.8284C10.7218 13.5786 11.7392 14 12.8 14ZM12.8 13C13.194 13 13.5841 12.9224 13.9481 12.7716C14.3121 12.6209 14.6428 12.3999 14.9214 12.1213C15.1999 11.8427 15.4209 11.512 15.5717 11.1481C15.7225 10.7841 15.8 10.394 15.8 10C15.8 9.60603 15.7225 9.21593 15.5717 8.85195C15.4209 8.48797 15.1999 8.15726 14.9214 7.87868C14.6428 7.6001 14.3121 7.37913 13.9481 7.22836C13.5841 7.0776 13.194 7 12.8 7C12.0044 7 11.2413 7.31607 10.6787 7.87868C10.1161 8.44129 9.80005 9.20435 9.80005 10C9.80005 10.7956 10.1161 11.5587 10.6787 12.1213C11.2413 12.6839 12.0044 13 12.8 13Z" fill="currentColor"/>
<path fill-rule="evenodd" clip-rule="evenodd" d="M22.8 12.5C22.8 18.023 18.323 22.5 12.8 22.5C7.27705 22.5 2.80005 18.023 2.80005 12.5C2.80005 6.977 7.27705 2.5 12.8 2.5C18.323 2.5 22.8 6.977 22.8 12.5ZM17.615 20.105C16.1757 21.0192 14.5052 21.5032 12.8 21.5C11.0542 21.5032 9.34558 20.9957 7.88455 20.04C7.76455 19.89 7.64288 19.735 7.51955 19.575C7.3765 19.3876 7.29934 19.1582 7.30005 18.9225C7.30005 18.384 7.68705 17.9325 8.20455 17.857C11.627 17.357 13.9835 17.4 17.4105 17.8745C17.6586 17.9108 17.8852 18.0354 18.0486 18.2255C18.2121 18.4156 18.3014 18.6583 18.3 18.909C18.3 19.149 18.2175 19.382 18.0685 19.564C17.9149 19.751 17.7637 19.9313 17.615 20.105ZM19.2925 18.733C19.2125 17.797 18.502 17.016 17.5475 16.884C14.0395 16.3985 11.5875 16.352 8.06005 16.8675C7.10005 17.0075 6.39255 17.7955 6.30855 18.734C4.69621 17.0595 3.79687 14.8245 3.80005 12.5C3.80005 7.5295 7.82955 3.5 12.8 3.5C17.7705 3.5 21.8 7.5295 21.8 12.5C21.8032 14.8241 20.9043 17.0586 19.2925 18.733Z" fill="currentColor"/>
</svg>
