<svg width="19" height="19" viewBox="0 0 19 19" fill="none" xmlns="http://www.w3.org/2000/svg">
<g clip-path="url(#clip0_54_534)">
<path d="M6.87018 3.81807C4.75669 1.70458 2.17117 1.0853 0.958511 2.29796C-0.254149 3.51062 0.365132 6.09607 2.4787 8.2096C3.51631 9.24721 5.10519 9.39617 6.30208 8.65814L14.2214 17.5805C14.2469 17.6105 14.2736 17.6398 14.302 17.6681C14.8617 18.2278 15.7691 18.2278 16.3288 17.6681C16.8885 17.1084 16.8885 16.201 16.3288 15.6413C16.3005 15.613 16.2711 15.5863 16.2411 15.5608L7.31861 7.64145C8.05672 6.4446 7.90776 4.85572 6.87018 3.81807Z" fill="#F09EA0"/>
<path d="M7.48323 7.33627C7.48712 7.32799 7.49128 7.31979 7.4951 7.31148C7.50041 7.30027 7.50523 7.28877 7.51046 7.27749C8.01845 6.13708 7.80571 4.7536 6.87018 3.81808C6.83207 3.78 6.79377 3.74252 6.75536 3.70534C7.01954 4.17336 7.17088 4.71345 7.17088 5.2892C7.17088 7.07231 5.72539 8.51779 3.94229 8.51779C3.37971 8.51779 2.85116 8.37325 2.39059 8.1202C2.41965 8.15004 2.44897 8.17987 2.47866 8.20956C3.47627 9.20717 4.98332 9.38285 6.16176 8.73904C6.73239 8.41726 7.19548 7.92753 7.48323 7.33627Z" fill="#EF8990"/>
<path d="M12.1111 4.28665L11.2284 5.1693C10.5666 5.83114 10.4269 6.81692 10.8085 7.61596L1.85755 15.5608C1.82753 15.5863 1.79817 15.613 1.76986 15.6413C1.21014 16.201 1.21014 17.1085 1.76986 17.6682C2.32958 18.2279 3.23701 18.2279 3.7967 17.6682C3.82505 17.6398 3.85173 17.6105 3.87723 17.5805L11.822 8.62941C12.621 9.01105 13.6069 8.87133 14.2687 8.20952L15.0983 7.37994L12.1111 4.28665Z" fill="#F9DE8F"/>
<path d="M12.8637 5.6178C12.9304 5.68441 13.0176 5.7177 13.105 5.7177C13.1923 5.7177 13.2796 5.68441 13.3463 5.6178L16.8839 2.08032C17.0171 1.94702 17.0171 1.73104 16.8839 1.59778C16.7506 1.46463 16.5346 1.46452 16.4013 1.59778L12.8637 5.13527C12.7305 5.26853 12.7305 5.48451 12.8637 5.6178Z" fill="black"/>
<path d="M13.8258 6.56469C13.8924 6.6313 13.9798 6.66459 14.0671 6.66459C14.1543 6.66459 14.2417 6.6313 14.3084 6.56469L17.8459 3.02712C17.9791 2.89383 17.9791 2.67785 17.8459 2.54459C17.7126 2.41141 17.4966 2.41141 17.3633 2.54459L13.8258 6.08215C13.6926 6.21545 13.6926 6.43143 13.8258 6.56469Z" fill="black"/>
<path d="M14.5086 8.51838L18.9001 4.12693C19.0333 3.99363 19.0333 3.77766 18.9001 3.6444C18.7668 3.51125 18.5508 3.51114 18.4175 3.6444L14.0262 8.03585C13.4851 8.57683 12.6579 8.71877 11.9677 8.38916C11.8304 8.32363 11.6664 8.35677 11.5655 8.47055L10.0733 10.1517C10.0728 10.1523 10.0721 10.1529 10.0715 10.1536C10.0709 10.1542 10.0704 10.1549 10.0699 10.1556L3.62066 17.4215C3.61902 17.4234 3.61739 17.4253 3.61579 17.4272C3.59457 17.4521 3.57445 17.4741 3.55412 17.4944C3.12829 17.9202 2.43546 17.9202 2.00981 17.4944C1.80356 17.2882 1.68997 17.0139 1.68997 16.7223C1.68997 16.4306 1.80356 16.1563 2.01018 15.9497C2.03 15.9298 2.05189 15.9098 2.07709 15.8883C2.07898 15.8867 2.08088 15.8851 2.08273 15.8835L6.11459 12.3049C6.25553 12.1798 6.26834 11.9641 6.14331 11.8232C6.01822 11.6823 5.80254 11.6694 5.66167 11.7945L1.63245 15.3708C1.59393 15.4036 1.55945 15.4354 1.52732 15.4676C1.19218 15.8027 1.0076 16.2483 1.0076 16.7223C1.0076 17.1962 1.19214 17.6418 1.52728 17.9769C1.87325 18.3228 2.32762 18.4958 2.78202 18.4958C3.23628 18.4958 3.69068 18.3229 4.03643 17.9771C4.0692 17.9444 4.10092 17.9099 4.13351 17.8718L9.04798 12.3348L13.9625 17.8718C13.995 17.91 14.0268 17.9445 14.0593 17.977C14.4052 18.3229 14.8596 18.4958 15.314 18.4958C15.7684 18.4958 16.2228 18.3229 16.5687 17.977C17.2604 17.2851 17.2604 16.1595 16.5689 15.4679C16.5362 15.4351 16.5017 15.4034 16.4636 15.3708L10.8084 10.3514L11.9149 9.10486C12.8113 9.42248 13.8257 9.20123 14.5086 8.51838ZM16.0132 15.8835C16.0151 15.8851 16.017 15.8868 16.0189 15.8884C16.0438 15.9096 16.0658 15.9297 16.0861 15.9501C16.5119 16.3758 16.5119 17.0686 16.0862 17.4944C15.6603 17.9201 14.9676 17.9201 14.5416 17.4942C14.5215 17.474 14.5013 17.4521 14.48 17.4271C14.4785 17.4252 14.4768 17.4233 14.4752 17.4214L9.50412 11.8208L10.3554 10.8617L16.0132 15.8835Z" fill="black"/>
<path d="M6.22782 9.15749L7.46493 10.5513C7.47332 10.5607 7.48204 10.5695 7.49117 10.5778C7.49822 10.5877 7.50575 10.5973 7.51395 10.6066C7.58138 10.6825 7.67508 10.7212 7.76927 10.7212C7.84983 10.7212 7.93065 10.6929 7.99563 10.6352L11.0336 7.9387C11.1474 7.83773 11.1805 7.6737 11.115 7.53647C10.7853 6.8462 10.9273 6.01903 11.4683 5.47809L15.8598 1.0866C15.993 0.953306 15.993 0.73733 15.8598 0.60407C15.7265 0.470885 15.5105 0.470885 15.3772 0.60407L10.9859 4.99556C10.3028 5.67852 10.0817 6.69279 10.3993 7.58939L9.04794 8.78884L7.74919 7.63607C8.42083 6.31454 8.17565 4.70996 7.11009 3.64433C6.05181 2.58604 4.82601 1.8413 3.65851 1.54735C2.43973 1.24057 1.3948 1.44538 0.715924 2.12422C0.0370454 2.80306 -0.167761 3.84813 0.139059 5.06684C0.433002 6.23427 1.17775 7.46006 2.23611 8.51831C3.30167 9.58395 4.90617 9.82916 6.22782 9.15749ZM1.19842 2.60675C1.70073 2.1044 2.51528 1.96324 3.49185 2.20912C4.54157 2.47342 5.65518 3.15449 6.62752 4.12686C7.53729 5.0366 7.70147 6.43599 7.02689 7.5299C6.93991 7.67096 6.96689 7.85413 7.0908 7.96416L8.53391 9.24503L7.7978 9.89841L6.55583 8.49916C6.44583 8.37526 6.26259 8.34817 6.12157 8.43526C5.02766 9.1098 3.62827 8.94566 2.71849 8.03585C1.74608 7.06348 1.06501 5.94994 0.800682 4.90022C0.55487 3.92362 0.696071 3.10906 1.19842 2.60675Z" fill="black"/>
</g>
<defs>
<clipPath id="clip0_54_534">
<rect width="19" height="19" fill="white"/>
</clipPath>
</defs>
</svg>
