<svg width="14" height="14" viewBox="0 0 14 14" fill="none" xmlns="http://www.w3.org/2000/svg">
<path fill-rule="evenodd" clip-rule="evenodd" d="M4.08335 2.33333C3.11686 2.33333 2.33335 3.11683 2.33335 4.08333V9.91666C2.33335 10.8832 3.11686 11.6667 4.08335 11.6667H9.91669C10.8832 11.6667 11.6667 10.8832 11.6667 9.91666V6.41666C11.6667 6.09449 11.9278 5.83333 12.25 5.83333C12.5722 5.83333 12.8334 6.09449 12.8334 6.41666V9.91666C12.8334 11.5275 11.5275 12.8333 9.91669 12.8333H4.08335C2.47253 12.8333 1.16669 11.5275 1.16669 9.91666V4.08333C1.16669 2.4725 2.47253 1.16666 4.08335 1.16666H7.58335C7.90553 1.16666 8.16669 1.42783 8.16669 1.75C8.16669 2.07216 7.90553 2.33333 7.58335 2.33333H4.08335Z" fill="currentColor"/>
<path fill-rule="evenodd" clip-rule="evenodd" d="M8.40759 3.28039C8.71419 2.97379 9.13005 2.80154 9.56364 2.80154C9.99723 2.80154 10.413 2.97379 10.7196 3.28039C11.0262 3.58699 11.1985 4.00283 11.1985 4.43642C11.1985 4.87002 11.0262 5.28586 10.7196 5.59246L10.2628 6.04929C10.035 6.2771 9.66567 6.2771 9.43788 6.04929L7.95073 4.56219C7.72293 4.33438 7.72293 3.96503 7.95073 3.73722L8.40759 3.28039ZM7.12578 5.38714C6.89798 5.15933 6.52862 5.15933 6.30083 5.38714L3.69839 7.9896C3.62363 8.06432 3.5706 8.158 3.54496 8.26055L3.04926 10.2434C2.99956 10.4422 3.0578 10.6525 3.20269 10.7974C3.34758 10.9423 3.55786 11.0005 3.75665 10.9508L5.73948 10.4551C5.84203 10.4294 5.93572 10.3764 6.01044 10.3016L8.61293 7.69921C8.84072 7.47142 8.84072 7.10206 8.61293 6.87426L7.12578 5.38714Z" fill="currentColor"/>
</svg>
