<svg width="30" height="30" viewBox="0 0 30 30" fill="none" xmlns="http://www.w3.org/2000/svg">
<g clip-path="url(#clip0_50_287)">
<path d="M27.3205 23.6719H2.67949C1.96902 23.6711 1.28788 23.3885 0.785537 22.8861C0.283193 22.3837 0.000682421 21.7025 0 20.992L0 5.67046C0.000806425 4.96006 0.283368 4.27899 0.785696 3.77666C1.28802 3.27433 1.96909 2.99177 2.67949 2.99097H15.4861C15.6415 2.99097 15.7905 3.0527 15.9004 3.16258C16.0103 3.27247 16.072 3.4215 16.072 3.5769C16.072 3.7323 16.0103 3.88134 15.9004 3.99122C15.7905 4.10111 15.6415 4.16284 15.4861 4.16284H2.67949C2.27978 4.16328 1.89656 4.32225 1.61393 4.60489C1.33129 4.88753 1.17231 5.27075 1.17188 5.67046V20.992C1.17222 21.3918 1.33115 21.7751 1.6138 22.0578C1.89645 22.3405 2.27972 22.4996 2.67949 22.5H27.3205C27.7203 22.4996 28.1035 22.3405 28.3862 22.0578C28.6688 21.7751 28.8278 21.3918 28.8281 20.992V9.18749C28.8281 9.03209 28.8899 8.88305 28.9997 8.77317C29.1096 8.66328 29.2587 8.60155 29.4141 8.60155C29.5695 8.60155 29.7185 8.66328 29.8284 8.77317C29.9383 8.88305 30 9.03209 30 9.18749V20.992C29.9993 21.7025 29.7168 22.3837 29.2145 22.8861C28.7121 23.3885 28.031 23.6711 27.3205 23.6719Z" fill="currentColor"/>
<path d="M19.6355 28.9416C19.5371 28.9417 19.4403 28.9171 19.3539 28.87C19.2676 28.8229 19.1945 28.7548 19.1414 28.672L15.7664 23.4019C15.6826 23.271 15.6542 23.1122 15.6875 22.9604C15.7208 22.8086 15.8131 22.6763 15.9439 22.5925C16.0748 22.5087 16.2336 22.4803 16.3854 22.5136C16.5372 22.5469 16.6696 22.6391 16.7533 22.77L20.1278 28.0401C20.1845 28.1286 20.2165 28.2307 20.2202 28.3358C20.2239 28.4409 20.1992 28.5451 20.1488 28.6373C20.0984 28.7296 20.0241 28.8067 19.9337 28.8603C19.8432 28.914 19.74 28.9423 19.6349 28.9424L19.6355 28.9416Z" fill="currentColor"/>
<path d="M10.3645 28.9415C10.2594 28.9415 10.1562 28.9131 10.0657 28.8595C9.97531 28.8058 9.90099 28.7288 9.85058 28.6365C9.80017 28.5442 9.77553 28.4401 9.77923 28.335C9.78294 28.2299 9.81486 28.1277 9.87164 28.0392L13.2466 22.7692C13.3304 22.6383 13.4628 22.546 13.6146 22.5128C13.7664 22.4795 13.9252 22.5078 14.0561 22.5916C14.1869 22.6754 14.2792 22.8078 14.3125 22.9596C14.3458 23.1114 14.3174 23.2702 14.2336 23.401L10.8586 28.6715C10.8055 28.7544 10.7325 28.8226 10.6461 28.8698C10.5598 28.917 10.4629 28.9416 10.3645 28.9415Z" fill="currentColor"/>
<path d="M22.1998 29.003H7.80035C7.64495 29.003 7.49592 28.9413 7.38603 28.8314C7.27615 28.7215 7.21442 28.5725 7.21442 28.4171C7.21442 28.2617 7.27615 28.1126 7.38603 28.0027C7.49592 27.8928 7.64495 27.8311 7.80035 27.8311H22.1998C22.3552 27.8311 22.5042 27.8928 22.6141 28.0027C22.724 28.1126 22.7857 28.2617 22.7857 28.4171C22.7857 28.5725 22.724 28.7215 22.6141 28.8314C22.5042 28.9413 22.3552 29.003 22.1998 29.003Z" fill="currentColor"/>
<path d="M14.9331 13.7834C14.2879 13.7834 13.6571 13.5921 13.1207 13.2336C12.5842 12.8751 12.166 12.3656 11.9191 11.7695C11.6722 11.1734 11.6076 10.5175 11.7335 9.88468C11.8594 9.25186 12.1701 8.67058 12.6263 8.21435C13.0825 7.75811 13.6638 7.44741 14.2966 7.32154C14.9295 7.19566 15.5854 7.26026 16.1815 7.50718C16.7776 7.75409 17.2871 8.17222 17.6455 8.7087C18.004 9.24518 18.1953 9.8759 18.1953 10.5211C18.1944 11.386 17.8504 12.2152 17.2388 12.8268C16.6272 13.4384 15.798 13.7824 14.9331 13.7834ZM14.9331 8.43073C14.5196 8.43073 14.1155 8.55333 13.7717 8.78302C13.428 9.01272 13.16 9.33919 13.0018 9.72116C12.8436 10.1031 12.8022 10.5234 12.8828 10.9289C12.9635 11.3344 13.1626 11.7069 13.4549 11.9992C13.7473 12.2916 14.1198 12.4907 14.5253 12.5713C14.9308 12.652 15.3511 12.6106 15.733 12.4524C16.115 12.2942 16.4415 12.0262 16.6712 11.6825C16.9009 11.3387 17.0235 10.9346 17.0235 10.5211C17.0228 9.9669 16.8024 9.43556 16.4105 9.04367C16.0186 8.65178 15.4873 8.43135 14.9331 8.43073Z" fill="currentColor"/>
<path d="M18.9476 19.4036H10.9187C10.7633 19.4036 10.6143 19.3418 10.5044 19.2319C10.3945 19.1221 10.3328 18.973 10.3328 18.8176V17.2122C10.3389 15.9961 10.8263 14.8319 11.6884 13.9742C12.5504 13.1165 13.717 12.6349 14.9331 12.6349C16.1492 12.6349 17.3158 13.1165 18.1779 13.9742C19.04 14.8319 19.5274 15.9961 19.5335 17.2122V18.8176C19.5335 18.973 19.4718 19.1221 19.3619 19.2319C19.252 19.3418 19.103 19.4036 18.9476 19.4036ZM11.5046 18.2317H18.3616V17.2122C18.3563 16.3063 17.9928 15.4394 17.3504 14.8008C16.708 14.1621 15.839 13.8036 14.9331 13.8036C14.0273 13.8036 13.1583 14.1621 12.5159 14.8008C11.8735 15.4394 11.5099 16.3063 11.5046 17.2122V18.2317Z" fill="currentColor"/>
<path d="M26.0179 8.42575H18.7253C18.3835 8.42538 18.0559 8.28945 17.8142 8.04779C17.5725 7.80612 17.4366 7.47846 17.4362 7.13669V2.28595C17.4366 1.94418 17.5725 1.61652 17.8142 1.37486C18.0559 1.13319 18.3835 0.997259 18.7253 0.996887H26.0179C26.3596 0.997259 26.6873 1.13319 26.929 1.37486C27.1706 1.61652 27.3065 1.94418 27.3069 2.28595V7.13669C27.3065 7.47846 27.1706 7.80612 26.929 8.04779C26.6873 8.28945 26.3596 8.42538 26.0179 8.42575ZM18.7253 2.16876C18.6942 2.16876 18.6644 2.18111 18.6424 2.20309C18.6204 2.22506 18.6081 2.25487 18.6081 2.28595V7.13669C18.6081 7.16777 18.6204 7.19758 18.6424 7.21956C18.6644 7.24153 18.6942 7.25388 18.7253 7.25388H26.0179C26.0489 7.25388 26.0787 7.24153 26.1007 7.21956C26.1227 7.19758 26.135 7.16777 26.135 7.13669V2.28595C26.135 2.25487 26.1227 2.22506 26.1007 2.20309C26.0787 2.18111 26.0489 2.16876 26.0179 2.16876H18.7253Z" fill="currentColor"/>
<path d="M29.4141 7.27348C29.321 7.2735 29.2293 7.25133 29.1465 7.20879L26.4533 5.82598C26.3575 5.77676 26.2771 5.70206 26.2209 5.6101C26.1647 5.51814 26.135 5.41248 26.135 5.30473V4.04836C26.135 3.93855 26.1659 3.83095 26.2241 3.73784C26.2823 3.64472 26.3655 3.56984 26.4642 3.52172L29.1574 2.20922C29.2468 2.16567 29.3458 2.14559 29.4451 2.15084C29.5443 2.1561 29.6406 2.18654 29.7249 2.23928C29.8092 2.29203 29.8787 2.36535 29.9268 2.45234C29.9749 2.53934 30.0001 2.63714 30 2.73656V6.68754C30 6.84294 29.9383 6.99198 29.8284 7.10186C29.7185 7.21174 29.5695 7.27348 29.4141 7.27348ZM27.3069 4.94719L28.8281 5.72813V3.67348L27.3069 4.41469V4.94719Z" fill="currentColor"/>
</g>
<defs>
<clipPath id="clip0_50_287">
<rect width="30" height="30" fill="white"/>
</clipPath>
</defs>
</svg>
