<svg width="23" height="23" viewBox="0 0 21 21" fill="none" xmlns="http://www.w3.org/2000/svg">
<path d="M10.165 0C8.15456 0 6.18926 0.596167 4.51763 1.71311C2.84601 2.83005 1.54313 4.41761 0.773769 6.27502C0.00440432 8.13243 -0.196896 10.1763 0.195322 12.1481C0.587541 14.1199 1.55566 15.9311 2.97726 17.3527C4.39886 18.7743 6.21009 19.7425 8.18191 20.1347C10.1537 20.5269 12.1976 20.3256 14.055 19.5562C15.9124 18.7869 17.4999 17.484 18.6169 15.8124C19.7338 14.1407 20.33 12.1754 20.33 10.165C20.33 7.46907 19.259 4.88357 17.3527 2.97726C15.4464 1.07095 12.8609 0 10.165 0ZM15.2475 14.0404C15.416 14.2089 15.5107 14.4374 15.5107 14.6757C15.5107 14.914 15.416 15.1425 15.2475 15.311C15.079 15.4795 14.8505 15.5742 14.6122 15.5742C14.3739 15.5742 14.1454 15.4795 13.9769 15.311L10.165 11.4992L6.35313 15.3237C6.2697 15.4072 6.17065 15.4733 6.06164 15.5185C5.95264 15.5636 5.8358 15.5869 5.71782 15.5869C5.59983 15.5869 5.48299 15.5636 5.37399 15.5185C5.26498 15.4733 5.16593 15.4072 5.0825 15.3237C4.99907 15.2403 4.93289 15.1413 4.88774 15.0322C4.84259 14.9232 4.81935 14.8064 4.81935 14.6884C4.81935 14.5704 4.84259 14.4536 4.88774 14.3446C4.93289 14.2356 4.99907 14.1365 5.0825 14.0531L8.89438 10.2158L4.9745 6.26418C4.80601 6.09568 4.71135 5.86716 4.71135 5.62887C4.71135 5.39058 4.80601 5.16205 4.9745 4.99355C5.143 4.82506 5.37152 4.7304 5.60981 4.7304C5.8481 4.7304 6.07663 4.82506 6.24512 4.99355L10.165 8.9579L14.0849 5.03803C14.1683 4.9546 14.2674 4.88842 14.3764 4.84326C14.4854 4.79811 14.6022 4.77487 14.7202 4.77487C14.8382 4.77487 14.955 4.79811 15.064 4.84326C15.173 4.88842 15.2721 4.9546 15.3555 5.03803C15.4389 5.12146 15.5051 5.2205 15.5503 5.32951C15.5954 5.43852 15.6187 5.55535 15.6187 5.67334C15.6187 5.79133 15.5954 5.90816 15.5503 6.01717C15.5051 6.12617 15.4389 6.22522 15.3555 6.30865L11.4356 10.2158L15.2475 14.0404Z" fill="#B3B3B3"/>
</svg>
