<svg width="390" height="122" viewBox="0 0 390 122" fill="none" xmlns="http://www.w3.org/2000/svg">
<g clip-path="url(#clip0_179_677)">
<path d="M380.378 122V50" stroke="black" stroke-opacity="0.5" stroke-miterlimit="10"/>
<path d="M371.86 38.2C370.913 38.2 370.087 38.0267 369.38 37.68C368.687 37.3333 368.147 36.8467 367.76 36.22C367.373 35.5933 367.18 34.8533 367.18 34H369.7C369.7 34.6533 369.887 35.1667 370.26 35.54C370.647 35.9 371.187 36.08 371.88 36.08C372.573 36.08 373.107 35.8933 373.48 35.52C373.853 35.1467 374.04 34.64 374.04 34V32.86C374.04 32.2067 373.853 31.7 373.48 31.34C373.107 30.9667 372.573 30.78 371.88 30.78H370.24V28.52L373.46 25.54H367.84V23.4H376V25.66L371.88 29.44V28.64C373.32 28.64 374.46 29.02 375.3 29.78C376.14 30.54 376.56 31.5667 376.56 32.86V34C376.56 34.8533 376.367 35.5933 375.98 36.22C375.593 36.8467 375.047 37.3333 374.34 37.68C373.633 38.0267 372.807 38.2 371.86 38.2ZM383.992 38.2C383.046 38.2 382.226 38.02 381.532 37.66C380.839 37.3 380.299 36.7933 379.912 36.14C379.539 35.4867 379.352 34.72 379.352 33.84V27.56C379.352 26.68 379.539 25.9133 379.912 25.26C380.299 24.6067 380.839 24.1 381.532 23.74C382.226 23.38 383.046 23.2 383.992 23.2C384.952 23.2 385.772 23.38 386.452 23.74C387.146 24.1 387.679 24.6067 388.052 25.26C388.439 25.9133 388.632 26.68 388.632 27.56V33.84C388.632 34.72 388.439 35.4867 388.052 36.14C387.679 36.7933 387.146 37.3 386.452 37.66C385.759 38.02 384.939 38.2 383.992 38.2ZM383.992 36.04C384.686 36.04 385.239 35.84 385.652 35.44C386.066 35.04 386.272 34.5067 386.272 33.84V27.56C386.272 26.8933 386.066 26.36 385.652 25.96C385.239 25.56 384.686 25.36 383.992 25.36C383.299 25.36 382.746 25.56 382.332 25.96C381.919 26.36 381.712 26.8933 381.712 27.56V33.84C381.712 34.5067 381.919 35.04 382.332 35.44C382.746 35.84 383.299 36.04 383.992 36.04ZM383.992 32C383.606 32 383.286 31.8733 383.032 31.62C382.792 31.3667 382.672 31.04 382.672 30.64C382.672 30.24 382.792 29.92 383.032 29.68C383.272 29.44 383.592 29.32 383.992 29.32C384.392 29.32 384.712 29.44 384.952 29.68C385.192 29.92 385.312 30.24 385.312 30.64C385.312 31.04 385.192 31.3667 384.952 31.62C384.712 31.8733 384.392 32 383.992 32Z" fill="black" fill-opacity="0.5"/>
<path d="M302.98 38.2C301.633 38.2 300.553 37.8667 299.74 37.2C298.927 36.52 298.48 35.6 298.4 34.44H300.9C300.953 34.9467 301.153 35.34 301.5 35.62C301.86 35.8867 302.353 36.02 302.98 36.02C303.673 36.02 304.2 35.84 304.56 35.48C304.92 35.1067 305.1 34.5933 305.1 33.94V32.52C305.1 31.8533 304.92 31.3467 304.56 31C304.2 30.64 303.673 30.46 302.98 30.46C302.553 30.46 302.187 30.5467 301.88 30.72C301.573 30.8933 301.34 31.1333 301.18 31.44H298.74L298.84 23.4H307.06V25.66H301.2L301.16 29.9H301.74L301.14 30.4C301.14 29.7867 301.38 29.3067 301.86 28.96C302.353 28.6 303.013 28.42 303.84 28.42C305.027 28.4067 305.947 28.7667 306.6 29.5C307.267 30.22 307.6 31.2267 307.6 32.52V33.94C307.6 35.26 307.187 36.3 306.36 37.06C305.547 37.82 304.42 38.2 302.98 38.2ZM314.992 38.2C314.046 38.2 313.226 38.02 312.532 37.66C311.839 37.3 311.299 36.7933 310.912 36.14C310.539 35.4867 310.352 34.72 310.352 33.84V27.56C310.352 26.68 310.539 25.9133 310.912 25.26C311.299 24.6067 311.839 24.1 312.532 23.74C313.226 23.38 314.046 23.2 314.992 23.2C315.952 23.2 316.772 23.38 317.452 23.74C318.146 24.1 318.679 24.6067 319.052 25.26C319.439 25.9133 319.632 26.68 319.632 27.56V33.84C319.632 34.72 319.439 35.4867 319.052 36.14C318.679 36.7933 318.146 37.3 317.452 37.66C316.759 38.02 315.939 38.2 314.992 38.2ZM314.992 36.04C315.686 36.04 316.239 35.84 316.652 35.44C317.066 35.04 317.272 34.5067 317.272 33.84V27.56C317.272 26.8933 317.066 26.36 316.652 25.96C316.239 25.56 315.686 25.36 314.992 25.36C314.299 25.36 313.746 25.56 313.332 25.96C312.919 26.36 312.712 26.8933 312.712 27.56V33.84C312.712 34.5067 312.919 35.04 313.332 35.44C313.746 35.84 314.299 36.04 314.992 36.04ZM314.992 32C314.606 32 314.286 31.8733 314.032 31.62C313.792 31.3667 313.672 31.04 313.672 30.64C313.672 30.24 313.792 29.92 314.032 29.68C314.272 29.44 314.592 29.32 314.992 29.32C315.392 29.32 315.712 29.44 315.952 29.68C316.192 29.92 316.312 30.24 316.312 30.64C316.312 31.04 316.192 31.3667 315.952 31.62C315.712 31.8733 315.392 32 314.992 32Z" fill="black" fill-opacity="0.5"/>
<path d="M231.1 38L236.38 25.72H231.7V27.84H229.2V23.4H238.88V25.76L233.78 38H231.1ZM245.992 38.2C245.046 38.2 244.226 38.02 243.532 37.66C242.839 37.3 242.299 36.7933 241.912 36.14C241.539 35.4867 241.352 34.72 241.352 33.84V27.56C241.352 26.68 241.539 25.9133 241.912 25.26C242.299 24.6067 242.839 24.1 243.532 23.74C244.226 23.38 245.046 23.2 245.992 23.2C246.952 23.2 247.772 23.38 248.452 23.74C249.146 24.1 249.679 24.6067 250.052 25.26C250.439 25.9133 250.632 26.68 250.632 27.56V33.84C250.632 34.72 250.439 35.4867 250.052 36.14C249.679 36.7933 249.146 37.3 248.452 37.66C247.759 38.02 246.939 38.2 245.992 38.2ZM245.992 36.04C246.686 36.04 247.239 35.84 247.652 35.44C248.066 35.04 248.272 34.5067 248.272 33.84V27.56C248.272 26.8933 248.066 26.36 247.652 25.96C247.239 25.56 246.686 25.36 245.992 25.36C245.299 25.36 244.746 25.56 244.332 25.96C243.919 26.36 243.712 26.8933 243.712 27.56V33.84C243.712 34.5067 243.919 35.04 244.332 35.44C244.746 35.84 245.299 36.04 245.992 36.04ZM245.992 32C245.606 32 245.286 31.8733 245.032 31.62C244.792 31.3667 244.672 31.04 244.672 30.64C244.672 30.24 244.792 29.92 245.032 29.68C245.272 29.44 245.592 29.32 245.992 29.32C246.392 29.32 246.712 29.44 246.952 29.68C247.192 29.92 247.312 30.24 247.312 30.64C247.312 31.04 247.192 31.3667 246.952 31.62C246.712 31.8733 246.392 32 245.992 32Z" fill="black" fill-opacity="0.5"/>
<path d="M162.36 38L166.68 31.2L166.56 31.12C166.293 31.5333 165.933 31.8467 165.48 32.06C165.027 32.2733 164.52 32.38 163.96 32.38C163.187 32.38 162.507 32.1933 161.92 31.82C161.347 31.4467 160.9 30.9267 160.58 30.26C160.26 29.5933 160.1 28.8133 160.1 27.92C160.1 26.96 160.3 26.1333 160.7 25.44C161.113 24.7333 161.687 24.1867 162.42 23.8C163.153 23.4 164.007 23.2 164.98 23.2C165.98 23.2 166.847 23.4067 167.58 23.82C168.313 24.22 168.88 24.7867 169.28 25.52C169.693 26.2533 169.9 27.1133 169.9 28.1C169.9 28.78 169.787 29.5067 169.56 30.28C169.333 31.04 169.007 31.7533 168.58 32.42L165.14 38H162.36ZM165 30.48C165.733 30.48 166.327 30.2467 166.78 29.78C167.233 29.3 167.46 28.6667 167.46 27.88C167.46 27.12 167.233 26.5067 166.78 26.04C166.327 25.56 165.733 25.32 165 25.32C164.267 25.32 163.673 25.56 163.22 26.04C162.767 26.5067 162.54 27.12 162.54 27.88C162.54 28.6667 162.767 29.3 163.22 29.78C163.673 30.2467 164.267 30.48 165 30.48ZM176.992 38.2C176.046 38.2 175.226 38.02 174.532 37.66C173.839 37.3 173.299 36.7933 172.912 36.14C172.539 35.4867 172.352 34.72 172.352 33.84V27.56C172.352 26.68 172.539 25.9133 172.912 25.26C173.299 24.6067 173.839 24.1 174.532 23.74C175.226 23.38 176.046 23.2 176.992 23.2C177.952 23.2 178.772 23.38 179.452 23.74C180.146 24.1 180.679 24.6067 181.052 25.26C181.439 25.9133 181.632 26.68 181.632 27.56V33.84C181.632 34.72 181.439 35.4867 181.052 36.14C180.679 36.7933 180.146 37.3 179.452 37.66C178.759 38.02 177.939 38.2 176.992 38.2ZM176.992 36.04C177.686 36.04 178.239 35.84 178.652 35.44C179.066 35.04 179.272 34.5067 179.272 33.84V27.56C179.272 26.8933 179.066 26.36 178.652 25.96C178.239 25.56 177.686 25.36 176.992 25.36C176.299 25.36 175.746 25.56 175.332 25.96C174.919 26.36 174.712 26.8933 174.712 27.56V33.84C174.712 34.5067 174.919 35.04 175.332 35.44C175.746 35.84 176.299 36.04 176.992 36.04ZM176.992 32C176.606 32 176.286 31.8733 176.032 31.62C175.792 31.3667 175.672 31.04 175.672 30.64C175.672 30.24 175.792 29.92 176.032 29.68C176.272 29.44 176.592 29.32 176.992 29.32C177.392 29.32 177.712 29.44 177.952 29.68C178.192 29.92 178.312 30.24 178.312 30.64C178.312 31.04 178.192 31.3667 177.952 31.62C177.712 31.8733 177.392 32 176.992 32Z" fill="black" fill-opacity="0.5"/>
<path d="M87.68 38V35.8H91.48V25.62L87.66 28.46V25.82L91.02 23.4H93.98V35.8H97.04V38H87.68ZM99.6722 38V35.8H103.472V25.62L99.6522 28.46V25.82L103.012 23.4H105.972V35.8H109.032V38H99.6722ZM115.984 38.2C115.038 38.2 114.218 38.02 113.524 37.66C112.831 37.3 112.291 36.7933 111.904 36.14C111.531 35.4867 111.344 34.72 111.344 33.84V27.56C111.344 26.68 111.531 25.9133 111.904 25.26C112.291 24.6067 112.831 24.1 113.524 23.74C114.218 23.38 115.038 23.2 115.984 23.2C116.944 23.2 117.764 23.38 118.444 23.74C119.138 24.1 119.671 24.6067 120.044 25.26C120.431 25.9133 120.624 26.68 120.624 27.56V33.84C120.624 34.72 120.431 35.4867 120.044 36.14C119.671 36.7933 119.138 37.3 118.444 37.66C117.751 38.02 116.931 38.2 115.984 38.2ZM115.984 36.04C116.678 36.04 117.231 35.84 117.644 35.44C118.058 35.04 118.264 34.5067 118.264 33.84V27.56C118.264 26.8933 118.058 26.36 117.644 25.96C117.231 25.56 116.678 25.36 115.984 25.36C115.291 25.36 114.738 25.56 114.324 25.96C113.911 26.36 113.704 26.8933 113.704 27.56V33.84C113.704 34.5067 113.911 35.04 114.324 35.44C114.738 35.84 115.291 36.04 115.984 36.04ZM115.984 32C115.598 32 115.278 31.8733 115.024 31.62C114.784 31.3667 114.664 31.04 114.664 30.64C114.664 30.24 114.784 29.92 115.024 29.68C115.264 29.44 115.584 29.32 115.984 29.32C116.384 29.32 116.704 29.44 116.944 29.68C117.184 29.92 117.304 30.24 117.304 30.64C117.304 31.04 117.184 31.3667 116.944 31.62C116.704 31.8733 116.384 32 115.984 32Z" fill="black" fill-opacity="0.5"/>
<path d="M18.68 38V35.8H22.48V25.62L18.66 28.46V25.82L22.02 23.4H24.98V35.8H28.04V38H18.68ZM34.8522 38.2C33.9055 38.2 33.0789 38.0267 32.3722 37.68C31.6789 37.3333 31.1389 36.8467 30.7522 36.22C30.3655 35.5933 30.1722 34.8533 30.1722 34H32.6922C32.6922 34.6533 32.8789 35.1667 33.2522 35.54C33.6389 35.9 34.1789 36.08 34.8722 36.08C35.5655 36.08 36.0989 35.8933 36.4722 35.52C36.8455 35.1467 37.0322 34.64 37.0322 34V32.86C37.0322 32.2067 36.8455 31.7 36.4722 31.34C36.0989 30.9667 35.5655 30.78 34.8722 30.78H33.2322V28.52L36.4522 25.54H30.8322V23.4H38.9922V25.66L34.8722 29.44V28.64C36.3122 28.64 37.4522 29.02 38.2922 29.78C39.1322 30.54 39.5522 31.5667 39.5522 32.86V34C39.5522 34.8533 39.3589 35.5933 38.9722 36.22C38.5855 36.8467 38.0389 37.3333 37.3322 37.68C36.6255 38.0267 35.7989 38.2 34.8522 38.2ZM46.9844 38.2C46.0377 38.2 45.2177 38.02 44.5244 37.66C43.831 37.3 43.291 36.7933 42.9044 36.14C42.531 35.4867 42.3444 34.72 42.3444 33.84V27.56C42.3444 26.68 42.531 25.9133 42.9044 25.26C43.291 24.6067 43.831 24.1 44.5244 23.74C45.2177 23.38 46.0377 23.2 46.9844 23.2C47.9444 23.2 48.7644 23.38 49.4444 23.74C50.1377 24.1 50.671 24.6067 51.0444 25.26C51.431 25.9133 51.6244 26.68 51.6244 27.56V33.84C51.6244 34.72 51.431 35.4867 51.0444 36.14C50.671 36.7933 50.1377 37.3 49.4444 37.66C48.751 38.02 47.931 38.2 46.9844 38.2ZM46.9844 36.04C47.6777 36.04 48.231 35.84 48.6444 35.44C49.0577 35.04 49.2644 34.5067 49.2644 33.84V27.56C49.2644 26.8933 49.0577 26.36 48.6444 25.96C48.231 25.56 47.6777 25.36 46.9844 25.36C46.291 25.36 45.7377 25.56 45.3244 25.96C44.911 26.36 44.7044 26.8933 44.7044 27.56V33.84C44.7044 34.5067 44.911 35.04 45.3244 35.44C45.7377 35.84 46.291 36.04 46.9844 36.04ZM46.9844 32C46.5977 32 46.2777 31.8733 46.0244 31.62C45.7844 31.3667 45.6644 31.04 45.6644 30.64C45.6644 30.24 45.7844 29.92 46.0244 29.68C46.2644 29.44 46.5844 29.32 46.9844 29.32C47.3844 29.32 47.7044 29.44 47.9444 29.68C48.1844 29.92 48.3044 30.24 48.3044 30.64C48.3044 31.04 48.1844 31.3667 47.9444 31.62C47.7044 31.8733 47.3844 32 46.9844 32Z" fill="black" fill-opacity="0.5"/>
<path d="M311.103 122V50" stroke="black" stroke-opacity="0.5" stroke-miterlimit="10"/>
<path d="M241.827 122V50" stroke="black" stroke-opacity="0.5" stroke-miterlimit="10"/>
<path d="M172.551 122V50" stroke="black" stroke-opacity="0.5" stroke-miterlimit="10"/>
<path d="M103.276 122V50" stroke="black" stroke-opacity="0.5" stroke-miterlimit="10"/>
<path d="M34 122V50" stroke="black" stroke-opacity="0.5" stroke-miterlimit="10"/>
<path d="M345.74 122V71.6" stroke="black" stroke-opacity="0.5" stroke-miterlimit="10"/>
<path d="M276.465 122V71.6" stroke="black" stroke-opacity="0.5" stroke-miterlimit="10"/>
<path d="M207.189 122V71.6" stroke="black" stroke-opacity="0.5" stroke-miterlimit="10"/>
<path d="M137.914 122V71.6" stroke="black" stroke-opacity="0.5" stroke-miterlimit="10"/>
<path d="M68.6377 122V71.6" stroke="black" stroke-opacity="0.5" stroke-miterlimit="10"/>
<path d="M363.06 122V86.72" stroke="black" stroke-opacity="0.5" stroke-miterlimit="10"/>
<path d="M328.422 122V86.72" stroke="black" stroke-opacity="0.5" stroke-miterlimit="10"/>
<path d="M293.784 122V86.72" stroke="black" stroke-opacity="0.5" stroke-miterlimit="10"/>
<path d="M259.146 122V86.72" stroke="black" stroke-opacity="0.5" stroke-miterlimit="10"/>
<path d="M224.508 122V86.72" stroke="black" stroke-opacity="0.5" stroke-miterlimit="10"/>
<path d="M189.87 122V86.72" stroke="black" stroke-opacity="0.5" stroke-miterlimit="10"/>
<path d="M155.232 122V86.72" stroke="black" stroke-opacity="0.5" stroke-miterlimit="10"/>
<path d="M120.595 122V86.72" stroke="black" stroke-opacity="0.5" stroke-miterlimit="10"/>
<path d="M85.9568 122V86.72" stroke="black" stroke-opacity="0.5" stroke-miterlimit="10"/>
<path d="M51.3191 122V86.72" stroke="black" stroke-opacity="0.5" stroke-miterlimit="10"/>
<path d="M16.6812 122V86.72" stroke="black" stroke-opacity="0.5" stroke-miterlimit="10"/>
<path d="M371.719 122V97.304" stroke="black" stroke-opacity="0.5" stroke-miterlimit="10"/>
<path d="M354.4 122V97.304" stroke="black" stroke-opacity="0.5" stroke-miterlimit="10"/>
<path d="M337.081 122V97.304" stroke="black" stroke-opacity="0.5" stroke-miterlimit="10"/>
<path d="M319.762 122V97.304" stroke="black" stroke-opacity="0.5" stroke-miterlimit="10"/>
<path d="M302.443 122V97.304" stroke="black" stroke-opacity="0.5" stroke-miterlimit="10"/>
<path d="M285.125 122V97.304" stroke="black" stroke-opacity="0.5" stroke-miterlimit="10"/>
<path d="M267.805 122V97.304" stroke="black" stroke-opacity="0.5" stroke-miterlimit="10"/>
<path d="M250.487 122V97.304" stroke="black" stroke-opacity="0.5" stroke-miterlimit="10"/>
<path d="M233.168 122V97.304" stroke="black" stroke-opacity="0.5" stroke-miterlimit="10"/>
<path d="M215.849 122V97.304" stroke="black" stroke-opacity="0.5" stroke-miterlimit="10"/>
<path d="M198.53 122V97.304" stroke="black" stroke-opacity="0.5" stroke-miterlimit="10"/>
<path d="M181.211 122V97.304" stroke="black" stroke-opacity="0.5" stroke-miterlimit="10"/>
<path d="M163.892 122V97.304" stroke="black" stroke-opacity="0.5" stroke-miterlimit="10"/>
<path d="M146.573 122V97.304" stroke="black" stroke-opacity="0.5" stroke-miterlimit="10"/>
<path d="M129.254 122V97.304" stroke="black" stroke-opacity="0.5" stroke-miterlimit="10"/>
<path d="M111.935 122V97.304" stroke="black" stroke-opacity="0.5" stroke-miterlimit="10"/>
<path d="M94.6162 122V97.304" stroke="black" stroke-opacity="0.5" stroke-miterlimit="10"/>
<path d="M77.2974 122V97.304" stroke="black" stroke-opacity="0.5" stroke-miterlimit="10"/>
<path d="M59.9785 122V97.304" stroke="black" stroke-opacity="0.5" stroke-miterlimit="10"/>
<path d="M42.6597 122V97.304" stroke="black" stroke-opacity="0.5" stroke-miterlimit="10"/>
<path d="M25.3406 122V97.304" stroke="black" stroke-opacity="0.5" stroke-miterlimit="10"/>
<path d="M8.02173 122V97.304" stroke="black" stroke-opacity="0.5" stroke-miterlimit="10"/>
<path d="M190 111.4V60.9999" stroke="#FF752C" stroke-width="3" stroke-miterlimit="10"/>
<path d="M190 104L205.155 122.75H174.845L190 104Z" fill="#FF752C"/>
</g>
<defs>
<clipPath id="clip0_179_677">
<rect width="712" height="122" fill="white" transform="matrix(-1 0 0 -1 390 122)"/>
</clipPath>
</defs>
</svg>
