<svg width="120" height="72" viewBox="0 0 120 72" fill="none" xmlns="http://www.w3.org/2000/svg">
<rect width="105" height="54" rx="10" fill="transparent"/>
<rect x="0.5" y="0.5" width="104" height="53" rx="9.5" stroke="#FF7675" stroke-opacity="0.8"/>
<path d="M65.0139 20V12.7273H67.9259C68.4609 12.7273 68.9072 12.8066 69.2646 12.9652C69.6221 13.1238 69.8908 13.344 70.0708 13.6257C70.2507 13.9051 70.3406 14.227 70.3406 14.5916C70.3406 14.8757 70.2838 15.1255 70.1702 15.3409C70.0566 15.554 69.9003 15.7292 69.7014 15.8665C69.5049 16.0014 69.28 16.0973 69.0267 16.1541V16.2251C69.3037 16.237 69.5629 16.3151 69.8044 16.4595C70.0483 16.6039 70.2459 16.8063 70.3975 17.0668C70.549 17.3248 70.6247 17.6326 70.6247 17.9901C70.6247 18.3759 70.5289 18.7204 70.3371 19.0234C70.1477 19.3241 69.8672 19.562 69.4955 19.7372C69.1238 19.9124 68.6657 20 68.1212 20H65.0139ZM66.5516 18.7429H67.8051C68.2336 18.7429 68.5461 18.6612 68.7426 18.4979C68.9391 18.3321 69.0374 18.112 69.0374 17.8374C69.0374 17.6361 68.9888 17.4586 68.8918 17.3047C68.7947 17.1508 68.6562 17.0301 68.4763 16.9425C68.2987 16.8549 68.0869 16.8111 67.8406 16.8111H66.5516V18.7429ZM66.5516 15.7706H67.6915C67.9022 15.7706 68.0892 15.7339 68.2526 15.6605C68.4183 15.5848 68.5485 15.4782 68.6432 15.3409C68.7403 15.2036 68.7888 15.0391 68.7888 14.8473C68.7888 14.5845 68.6953 14.3726 68.5083 14.2116C68.3236 14.0507 68.0608 13.9702 67.7199 13.9702H66.5516V15.7706ZM71.6253 20V12.7273H74.4946C75.0462 12.7273 75.5161 12.8326 75.9044 13.0433C76.2926 13.2517 76.5886 13.5417 76.7922 13.9134C76.9981 14.2827 77.1011 14.7088 77.1011 15.1918C77.1011 15.6747 76.997 16.1009 76.7886 16.4702C76.5803 16.8395 76.2784 17.1271 75.8831 17.3331C75.4901 17.5391 75.0142 17.642 74.4555 17.642H72.6267V16.4098H74.2069C74.5029 16.4098 74.7467 16.3589 74.9385 16.2571C75.1326 16.1529 75.277 16.0097 75.3717 15.8274C75.4688 15.6428 75.5173 15.4309 75.5173 15.1918C75.5173 14.9503 75.4688 14.7396 75.3717 14.5597C75.277 14.3774 75.1326 14.2365 74.9385 14.1371C74.7443 14.0353 74.4981 13.9844 74.1998 13.9844H73.1629V20H71.6253ZM78.0999 12.7273H79.9962L81.999 17.6136H82.0843L84.0871 12.7273H85.9834V20H84.4919V15.2663H84.4316L82.5494 19.9645H81.5338L79.6517 15.2486H79.5914V20H78.0999V12.7273ZM62.3852 43L69.9225 28.0852V27.9609H61.1423V24.8182H73.8998V28.0053L66.3536 43H62.3852ZM76.5343 43V40.2301L83.0062 34.2376C83.5566 33.7049 84.0183 33.2255 84.3912 32.7994C84.7699 32.3732 85.057 31.956 85.2523 31.5476C85.4476 31.1333 85.5453 30.6864 85.5453 30.207C85.5453 29.6744 85.4239 29.2157 85.1813 28.831C84.9386 28.4403 84.6072 28.1415 84.187 27.9343C83.7667 27.7212 83.2903 27.6147 82.7576 27.6147C82.2013 27.6147 81.716 27.7272 81.3017 27.9521C80.8874 28.177 80.5678 28.4995 80.3429 28.9197C80.118 29.34 80.0055 29.8401 80.0055 30.4201H76.3567C76.3567 29.2305 76.626 28.1977 77.1646 27.3217C77.7032 26.4458 78.4578 25.7681 79.4284 25.2887C80.3991 24.8093 81.5177 24.5696 82.7843 24.5696C84.0864 24.5696 85.2198 24.8004 86.1845 25.2621C87.1551 25.7178 87.9097 26.3511 88.4483 27.1619C88.9869 27.9728 89.2562 28.902 89.2562 29.9496C89.2562 30.6361 89.1201 31.3138 88.8478 31.9826C88.5815 32.6514 88.1051 33.3942 87.4185 34.2109C86.7319 35.0218 85.7643 35.9954 84.5154 37.1317L81.861 39.733V39.8572H89.4959V43H76.5343Z" fill="#FF7675" fill-opacity="0.8"/>
<path opacity="0.8" d="M116 67.5L102.5 51.5" stroke="#0E7F85"/>
<path d="M42.2517 28.4174H38.1546C37.9358 28.4167 37.7193 28.3722 37.5178 28.2866C37.3164 28.201 37.1341 28.076 36.9817 27.9189L34.4682 25.4054C34.4289 25.3665 34.3977 25.3201 34.3765 25.2691C34.3552 25.218 34.3442 25.1633 34.3442 25.108C34.3442 25.0527 34.3552 24.9979 34.3765 24.9469C34.3977 24.8958 34.4289 24.8495 34.4682 24.8106C34.5466 24.7325 34.6528 24.6887 34.7635 24.6887C34.8742 24.6887 34.9803 24.7325 35.0588 24.8106L37.5933 27.345C37.6685 27.4222 37.7584 27.4834 37.8577 27.5252C37.957 27.5669 38.0637 27.5883 38.1714 27.588H42.2684C42.3873 27.5871 42.5048 27.5626 42.6142 27.5158C42.7235 27.4691 42.8224 27.401 42.9052 27.3157C43.0348 27.1899 43.1239 27.0281 43.1608 26.8512C43.1977 26.6744 43.1808 26.4905 43.1123 26.3233C43.0438 26.1561 42.9268 26.0132 42.7764 25.9131C42.626 25.813 42.4491 25.7602 42.2684 25.7615H39.1265C39.0147 25.7611 38.904 25.7382 38.8012 25.6943C38.6983 25.6504 38.6052 25.5864 38.5275 25.506L36.0349 23.0553C35.9775 22.9744 35.9507 22.8758 35.9593 22.7769C35.9678 22.6781 36.0111 22.5856 36.0815 22.5157C36.1519 22.4458 36.2447 22.4032 36.3436 22.3953C36.4425 22.3875 36.5409 22.415 36.6214 22.473L39.1014 24.9279H42.2517C42.715 24.9279 43.1593 25.1119 43.4869 25.4395C43.8145 25.7671 43.9986 26.2114 43.9986 26.6747C43.9986 27.138 43.8145 27.5824 43.4869 27.91C43.1593 28.2376 42.715 28.4216 42.2517 28.4216V28.4174Z" fill="#FF7675" fill-opacity="0.8"/>
<path d="M34.2964 42.1622C33.8027 42.16 33.3298 41.9629 32.9807 41.6138C32.6316 41.2646 32.4345 40.7918 32.4323 40.298V34.1525C32.4318 34.0876 32.4178 34.0235 32.3911 33.9643C32.3644 33.9052 32.3256 33.8522 32.2773 33.809L28.3268 30.2984C27.7074 29.7451 27.3137 28.9828 27.221 28.1574C27.1282 27.332 27.343 26.5014 27.8241 25.8244L30.3377 22.2342L27.1874 21.9619C27.1553 21.9595 27.1231 21.9639 27.0928 21.9747C27.0625 21.9855 27.0348 22.0026 27.0114 22.0248L24.2256 24.8357C24.0797 24.9854 23.905 25.1041 23.7121 25.1848C23.5192 25.2654 23.312 25.3062 23.1029 25.3049C22.7887 25.3053 22.4815 25.2122 22.2204 25.0374C21.9592 24.8626 21.756 24.6141 21.6365 24.3235C21.517 24.0329 21.4867 23.7133 21.5494 23.4054C21.6121 23.0975 21.765 22.8153 21.9886 22.5945L25.7296 18.9248C25.859 18.7926 26.0134 18.6875 26.1839 18.6156C26.3543 18.5437 26.5374 18.5064 26.7224 18.5059H32.7632C33.1767 18.5055 33.5824 18.6185 33.9362 18.8326L35.9386 20.0349C36.19 20.184 36.4082 20.383 36.5799 20.6195C36.7517 20.856 36.8732 21.1251 36.9372 21.4103C37.0011 21.6956 37.0061 21.9908 36.9518 22.278C36.8975 22.5652 36.7851 22.8383 36.6214 23.0805L32.8512 28.6898L35.7291 31.4002C35.858 31.5154 35.9618 31.656 36.0338 31.8131C36.1059 31.9703 36.1448 32.1406 36.1481 32.3134L36.1941 40.2729C36.2009 40.7659 36.012 41.2415 35.6689 41.5956C35.3258 41.9496 34.8564 42.1534 34.3635 42.1622H34.2964ZM27.1748 21.1241H27.267L31.1504 21.455C31.2243 21.4611 31.2952 21.4867 31.356 21.5292C31.4167 21.5717 31.4651 21.6295 31.4962 21.6968C31.5273 21.7641 31.54 21.8385 31.533 21.9123C31.5259 21.9861 31.4994 22.0567 31.4562 22.1169L28.4902 26.3061C28.1241 26.8169 27.9603 27.4453 28.0308 28.0698C28.1012 28.6943 28.4007 29.2704 28.8714 29.6868L32.8218 33.1973C32.9555 33.3204 33.0618 33.4701 33.1339 33.6368C33.2061 33.8035 33.2425 33.9834 33.2408 34.165V40.3106C33.2439 40.4496 33.275 40.5866 33.3321 40.7134C33.3891 40.8401 33.4711 40.9542 33.573 41.0487C33.675 41.1433 33.7949 41.2164 33.9256 41.2637C34.0564 41.3111 34.1953 41.3317 34.3341 41.3244C34.6034 41.3167 34.8589 41.2035 35.0454 41.0091C35.2319 40.8147 35.3346 40.5548 35.3312 40.2855L35.2851 32.326C35.2848 32.2673 35.2728 32.2093 35.2498 32.1554C35.2268 32.1014 35.1932 32.0526 35.151 32.0118L32.0133 29.0794C31.9413 29.0118 31.8955 28.9209 31.884 28.8227C31.8725 28.7246 31.8961 28.6256 31.9505 28.5432L35.9219 22.6406C36.0202 22.4928 36.0874 22.3266 36.1196 22.152C36.1518 21.9775 36.1482 21.7982 36.109 21.6251C36.0698 21.4519 35.9959 21.2886 35.8917 21.1448C35.7876 21.0011 35.6553 20.8801 35.5029 20.789L33.5005 19.5867C33.2776 19.4492 33.0208 19.3767 32.759 19.3772H26.7182C26.6406 19.3749 26.5634 19.3886 26.4913 19.4174C26.4192 19.4462 26.3539 19.4896 26.2993 19.5448L22.5709 23.2187C22.4317 23.3591 22.3537 23.5488 22.3537 23.7465C22.3537 23.9442 22.4317 24.1339 22.5709 24.2744C22.6408 24.3441 22.7238 24.3992 22.8151 24.4366C22.9064 24.474 23.0042 24.4929 23.1029 24.4922C23.2035 24.4899 23.3025 24.4672 23.3939 24.4254C23.4854 24.3836 23.5674 24.3237 23.635 24.2492L26.4208 21.4383C26.5181 21.338 26.6347 21.2585 26.7635 21.2045C26.8924 21.1505 27.0309 21.1231 27.1706 21.1241H27.1748Z" fill="#FF7675" fill-opacity="0.8"/>
<path d="M26.7479 35.5683H20.1499C19.9063 35.5801 19.6629 35.5423 19.4344 35.4571C19.2058 35.372 18.997 35.2414 18.8204 35.0732C18.6439 34.9049 18.5033 34.7026 18.4073 34.4784C18.3112 34.2543 18.2617 34.0129 18.2617 33.7691C18.2617 33.5252 18.3112 33.2839 18.4073 33.0597C18.5033 32.8356 18.6439 32.6332 18.8204 32.465C18.997 32.2968 19.2058 32.1661 19.4344 32.081C19.6629 31.9959 19.9063 31.9581 20.1499 31.9698H24.8921L27.5396 28.7023C27.6096 28.6156 27.7112 28.5603 27.822 28.5485C27.9327 28.5367 28.0437 28.5694 28.1303 28.6394C28.217 28.7094 28.2723 28.811 28.2841 28.9217C28.2959 29.0325 28.2632 29.1434 28.1932 29.2301L25.3948 32.6527C25.3554 32.7013 25.3055 32.7404 25.249 32.7672C25.1924 32.7941 25.1306 32.8079 25.068 32.8077H20.1499C20.0183 32.799 19.8863 32.8174 19.7622 32.8618C19.638 32.9061 19.5242 32.9756 19.4279 33.0657C19.3317 33.1558 19.2549 33.2647 19.2024 33.3857C19.15 33.5067 19.1229 33.6372 19.1229 33.7691C19.1229 33.901 19.15 34.0314 19.2024 34.1524C19.2549 34.2734 19.3317 34.3823 19.4279 34.4725C19.5242 34.5626 19.638 34.632 19.7622 34.6764C19.8863 34.7208 20.0183 34.7392 20.1499 34.7305H26.5678L29.6342 30.9225C29.7049 30.8398 29.805 30.7877 29.9134 30.7775C30.0217 30.7673 30.1298 30.7996 30.2148 30.8676C30.2997 30.9357 30.3548 31.0341 30.3684 31.1421C30.3821 31.2501 30.3531 31.3592 30.2878 31.4462L27.0956 35.4133C27.054 35.4648 27.0008 35.5057 26.9404 35.5326C26.8799 35.5596 26.814 35.5718 26.7479 35.5683Z" fill="#FF7675" fill-opacity="0.8"/>
<path d="M37.5854 19.084C36.9669 19.0848 36.3621 18.9022 35.8476 18.5591C35.333 18.216 34.9318 17.728 34.6947 17.1567C34.4577 16.5855 34.3955 15.9568 34.5159 15.3502C34.6364 14.7436 34.9341 14.1864 35.3714 13.7491C35.8087 13.3118 36.3659 13.014 36.9725 12.8936C37.5791 12.7731 38.2078 12.8354 38.7791 13.0724C39.3503 13.3095 39.8383 13.7107 40.1814 14.2253C40.5245 14.7398 40.7072 15.3446 40.7063 15.9631C40.7052 16.7904 40.376 17.5836 39.791 18.1687C39.2059 18.7537 38.4128 19.0829 37.5854 19.084ZM37.5854 13.6758C37.1328 13.6749 36.6902 13.8084 36.3135 14.0592C35.9368 14.31 35.643 14.667 35.4692 15.0848C35.2954 15.5027 35.2495 15.9628 35.3373 16.4067C35.4251 16.8507 35.6426 17.2586 35.9623 17.5789C36.2821 17.8992 36.6896 18.1175 37.1334 18.2061C37.5772 18.2947 38.0373 18.2496 38.4555 18.0766C38.8737 17.9037 39.2312 17.6105 39.4827 17.2343C39.7342 16.858 39.8685 16.4156 39.8685 15.9631C39.8674 15.3575 39.6266 14.777 39.1988 14.3484C38.771 13.9198 38.1909 13.678 37.5854 13.6758Z" fill="#FF7675" fill-opacity="0.8"/>
<path d="M24.1922 17.27H19.8647C19.7536 17.27 19.6471 17.2258 19.5685 17.1473C19.4899 17.0687 19.4458 16.9622 19.4458 16.851C19.4458 16.7399 19.4899 16.6334 19.5685 16.5548C19.6471 16.4763 19.7536 16.4321 19.8647 16.4321H24.1922C24.3033 16.4321 24.4098 16.4763 24.4884 16.5548C24.5669 16.6334 24.6111 16.7399 24.6111 16.851C24.6111 16.9622 24.5669 17.0687 24.4884 17.1473C24.4098 17.2258 24.3033 17.27 24.1922 17.27Z" fill="#FF7675" fill-opacity="0.8"/>
<path d="M18.4365 17.27H18.0176C17.9064 17.27 17.7999 17.2258 17.7213 17.1473C17.6428 17.0687 17.5986 16.9622 17.5986 16.851C17.5986 16.7399 17.6428 16.6334 17.7213 16.5548C17.7999 16.4763 17.9064 16.4321 18.0176 16.4321H18.4365C18.5476 16.4321 18.6541 16.4763 18.7327 16.5548C18.8113 16.6334 18.8554 16.7399 18.8554 16.851C18.8554 16.9622 18.8113 17.0687 18.7327 17.1473C18.6541 17.2258 18.5476 17.27 18.4365 17.27Z" fill="#FF7675" fill-opacity="0.8"/>
<path d="M19.5842 19.8757H15.2568C15.1457 19.8757 15.0392 19.8315 14.9606 19.753C14.882 19.6744 14.8379 19.5679 14.8379 19.4568C14.8379 19.3457 14.882 19.2391 14.9606 19.1605C15.0392 19.082 15.1457 19.0378 15.2568 19.0378H19.5842C19.6953 19.0378 19.8019 19.082 19.8805 19.1605C19.959 19.2391 20.0032 19.3457 20.0032 19.4568C20.0032 19.5679 19.959 19.6744 19.8805 19.753C19.8019 19.8315 19.6953 19.8757 19.5842 19.8757Z" fill="#FF7675" fill-opacity="0.8"/>
<path d="M21.4316 19.8757H21.0127C20.9016 19.8757 20.795 19.8315 20.7164 19.753C20.6379 19.6744 20.5938 19.5679 20.5938 19.4568C20.5938 19.3457 20.6379 19.2391 20.7164 19.1605C20.795 19.082 20.9016 19.0378 21.0127 19.0378H21.4316C21.5427 19.0378 21.6492 19.082 21.7278 19.1605C21.8064 19.2391 21.8505 19.3457 21.8505 19.4568C21.8505 19.5679 21.8064 19.6744 21.7278 19.753C21.6492 19.8315 21.5427 19.8757 21.4316 19.8757Z" fill="#FF7675" fill-opacity="0.8"/>
<path d="M22.7973 27.1733H18.4531C18.342 27.1733 18.2354 27.1291 18.1569 27.0506C18.0783 26.972 18.0342 26.8655 18.0342 26.7544C18.0342 26.6433 18.0783 26.5367 18.1569 26.4581C18.2354 26.3796 18.342 26.3354 18.4531 26.3354H22.7973C22.9084 26.3354 23.0149 26.3796 23.0935 26.4581C23.1721 26.5367 23.2162 26.6433 23.2162 26.7544C23.2162 26.8655 23.1721 26.972 23.0935 27.0506C23.0149 27.1291 22.9084 27.1733 22.7973 27.1733Z" fill="#FF7675" fill-opacity="0.8"/>
<path d="M24.6279 27.1733H24.209C24.0979 27.1733 23.9913 27.1291 23.9127 27.0506C23.8342 26.972 23.79 26.8655 23.79 26.7544C23.79 26.6433 23.8342 26.5367 23.9127 26.4581C23.9913 26.3796 24.0979 26.3354 24.209 26.3354H24.6279C24.739 26.3354 24.8455 26.3796 24.9241 26.4581C25.0027 26.5367 25.0468 26.6433 25.0468 26.7544C25.0468 26.8655 25.0027 26.972 24.9241 27.0506C24.8455 27.1291 24.739 27.1733 24.6279 27.1733Z" fill="#FF7675" fill-opacity="0.8"/>
<path d="M21.5405 30.0136H17.1963C17.0852 30.0136 16.9786 29.9695 16.9 29.8909C16.8215 29.8124 16.7773 29.7058 16.7773 29.5947C16.7773 29.4836 16.8215 29.377 16.9 29.2985C16.9786 29.2199 17.0852 29.1758 17.1963 29.1758H21.5405C21.6516 29.1758 21.7581 29.2199 21.8367 29.2985C21.9152 29.377 21.9594 29.4836 21.9594 29.5947C21.9594 29.7058 21.9152 29.8124 21.8367 29.8909C21.7581 29.9695 21.6516 30.0136 21.5405 30.0136Z" fill="#FF7675" fill-opacity="0.8"/>
<path d="M15.768 30.0136H15.3491C15.238 30.0136 15.1314 29.9695 15.0529 29.8909C14.9743 29.8124 14.9302 29.7058 14.9302 29.5947C14.9302 29.4836 14.9743 29.377 15.0529 29.2985C15.1314 29.2199 15.238 29.1758 15.3491 29.1758H15.768C15.8791 29.1758 15.9857 29.2199 16.0642 29.2985C16.1428 29.377 16.1869 29.4836 16.1869 29.5947C16.1869 29.7058 16.1428 29.8124 16.0642 29.8909C15.9857 29.9695 15.8791 30.0136 15.768 30.0136Z" fill="#FF7675" fill-opacity="0.8"/>
<circle opacity="0.8" cx="117.5" cy="69.5" r="2.5" fill="#1F2937"/>
</svg>
