<svg width="400" height="400" viewBox="0 0 400 400" fill="none" xmlns="http://www.w3.org/2000/svg">
<path d="M324.528 72.456L322.888 69.76C309.064 46.968 284.064 33.232 257.704 34.904C254.312 35.1175 250.94 35.5801 247.616 36.288C223.616 41.416 202.816 59.536 194.152 82.752C189.072 96.4 187.648 112.112 178.008 122.952C165.448 137.048 144.136 137.496 125.4 136.912C106.664 136.328 85.328 136.824 72.84 150.984C65.016 159.848 62.528 172.456 63.16 184.328C64.824 215.76 86.728 243.872 114.592 257.84C142.456 271.808 175.248 273.04 205.728 266.92C248.44 258.312 289.056 234.664 313.472 198.12C337.888 161.576 344.064 111.872 324.528 72.456Z" fill="#F5F5F5"/>
<path d="M94.7841 109.432C111.591 109.432 125.216 95.8071 125.216 79C125.216 62.1929 111.591 48.568 94.7841 48.568C77.9769 48.568 64.3521 62.1929 64.3521 79C64.3521 95.8071 77.9769 109.432 94.7841 109.432Z" fill="#F5F5F5"/>
<path d="M370.72 372.552C370.72 372.672 292.128 372.76 195.208 372.76C98.2879 372.76 19.6799 372.672 19.6799 372.552C19.6799 372.432 98.2559 372.344 195.208 372.344C292.16 372.344 370.72 372.44 370.72 372.552Z" fill="#263238"/>
<path d="M237.904 208.8H175.712L163.832 226.4L152.24 208.8H91.1518C90.2231 208.8 89.3035 208.617 88.4455 208.262C87.5875 207.906 86.8079 207.385 86.1512 206.729C85.4945 206.072 84.9736 205.292 84.6182 204.434C84.2628 203.576 84.0798 202.657 84.0798 201.728V80.6C84.0788 79.6706 84.2609 78.7501 84.6159 77.8912C84.9708 77.0323 85.4915 76.2517 86.1484 75.5942C86.8052 74.9366 87.5851 74.415 88.4437 74.0591C89.3022 73.7032 90.2225 73.52 91.1518 73.52H237.904C238.833 73.52 239.753 73.7032 240.612 74.0591C241.471 74.415 242.251 74.9366 242.907 75.5942C243.564 76.2517 244.085 77.0323 244.44 77.8912C244.795 78.7501 244.977 79.6706 244.976 80.6V201.76C244.967 203.63 244.219 205.421 242.893 206.74C241.568 208.059 239.774 208.8 237.904 208.8Z" fill="#FAFAFA"/>
<path d="M237.904 208.8H238.288C238.673 208.775 239.056 208.719 239.432 208.632C240.715 208.342 241.891 207.698 242.825 206.773C243.76 205.849 244.417 204.68 244.72 203.4C244.793 203.097 244.85 202.79 244.888 202.48C244.888 202.16 244.928 201.832 244.888 201.496C244.888 200.824 244.888 200.12 244.888 199.392C244.888 196.469 244.888 193.112 244.888 189.32C244.888 174.12 244.848 152.216 244.824 125.12C244.824 111.56 244.824 96.72 244.824 80.784C244.858 79.2916 244.409 77.8282 243.544 76.6115C242.679 75.3949 241.445 74.4901 240.024 74.032C239.058 73.7384 238.047 73.6245 237.04 73.696H198.32H142.088H91.3839C91.0559 73.696 90.7519 73.696 90.4399 73.696C90.13 73.7326 89.8227 73.7887 89.5199 73.864C88.2966 74.1583 87.1788 74.7858 86.2905 75.6769C85.4022 76.5679 84.7783 77.6878 84.4879 78.912C84.2836 80.0438 84.2164 81.1961 84.2879 82.344V133.544C84.2879 151.264 84.2879 168.432 84.2879 184.888V200.088C84.2414 201.071 84.2842 202.057 84.4159 203.032C84.6013 203.974 84.9818 204.868 85.5329 205.654C86.084 206.441 86.7935 207.104 87.6159 207.6C88.4333 208.095 89.3471 208.408 90.2959 208.52C91.2319 208.616 92.2319 208.56 93.1919 208.576H110.32H152.24H152.328L152.376 208.648L163.952 226.248H163.712L175.608 208.648L175.648 208.592H175.712L221.6 208.8L175.752 208.856L175.856 208.8C172.176 214.283 168.221 220.163 163.992 226.44L163.872 226.624L163.752 226.44L152.152 208.84L152.28 208.912H110.36H93.2159C92.2399 208.912 91.2879 208.952 90.2799 208.856C88.7747 208.684 87.3608 208.046 86.2351 207.033C85.1094 206.019 84.328 204.679 83.9999 203.2C83.8569 202.201 83.8087 201.192 83.8559 200.184V184.984C83.8559 168.528 83.8559 151.384 83.8559 133.64V80.664C83.8371 79.0218 84.3761 77.4218 85.3846 76.1255C86.3931 74.8293 87.8115 73.9136 89.4079 73.528C89.7293 73.4493 90.0553 73.3905 90.3839 73.352C90.7119 73.352 91.0479 73.352 91.3679 73.352H237.048C238.093 73.2842 239.142 73.4062 240.144 73.712C241.139 74.0482 242.05 74.5938 242.816 75.312C243.579 76.0124 244.182 76.8692 244.584 77.824C244.974 78.7753 245.167 79.7959 245.152 80.824C245.152 96.76 245.152 111.6 245.152 125.16C245.152 152.256 245.104 174.192 245.088 189.36C245.088 193.152 245.088 196.509 245.088 199.432C245.088 200.16 245.088 200.864 245.088 201.536C245.088 201.872 245.088 202.208 245.048 202.528C245.013 202.843 244.957 203.156 244.88 203.464C244.566 204.757 243.895 205.936 242.943 206.865C241.991 207.795 240.796 208.438 239.496 208.72C239.119 208.799 238.736 208.845 238.352 208.856L237.904 208.8Z" fill="#263238"/>
<path d="M146.592 148C146.592 149.6 145.416 150.544 143.528 150.544H142.112V152.488H140.512V145.44H143.56C145.416 145.472 146.592 146.448 146.592 148ZM144.936 148C144.936 147.2 144.44 146.768 143.44 146.768H142.112V149.216H143.44C144.44 149.248 144.936 148.8 144.936 148Z" fill="#263238"/>
<path d="M152.376 149.432V152.52H150.904V151.848C150.721 152.109 150.472 152.316 150.182 152.449C149.893 152.581 149.573 152.633 149.256 152.6C147.992 152.6 147.232 151.896 147.232 150.96C147.232 150.024 147.912 149.36 149.56 149.36H150.808C150.808 148.688 150.408 148.296 149.56 148.296C148.999 148.291 148.452 148.468 148 148.8L147.432 147.704C148.129 147.259 148.942 147.031 149.768 147.048C151.424 147.024 152.376 147.792 152.376 149.432ZM150.776 150.808V150.256H149.696C148.96 150.256 148.728 150.528 148.728 150.888C148.728 151.248 149.064 151.544 149.616 151.544C149.868 151.568 150.12 151.509 150.336 151.376C150.551 151.243 150.717 151.044 150.808 150.808H150.776Z" fill="#263238"/>
<path d="M153.272 152L153.792 150.872C154.364 151.21 155.016 151.39 155.68 151.392C156.4 151.392 156.672 151.208 156.672 150.904C156.672 150.016 153.4 150.904 153.4 148.76C153.4 147.736 154.328 147.008 155.912 147.008C156.633 146.997 157.346 147.159 157.992 147.48L157.472 148.6C156.984 148.325 156.432 148.187 155.872 148.2C155.168 148.2 154.864 148.416 154.864 148.696C154.864 149.624 158.136 148.696 158.136 150.864C158.136 151.872 157.2 152.584 155.576 152.584C154.771 152.59 153.977 152.389 153.272 152Z" fill="#263238"/>
<path d="M158.616 152L159.136 150.872C159.706 151.209 160.354 151.388 161.016 151.392C161.744 151.392 162.016 151.208 162.016 150.904C162.016 150.016 158.744 150.904 158.744 148.76C158.744 147.736 159.672 147.008 161.248 147.008C161.972 146.996 162.688 147.158 163.336 147.48L162.808 148.6C162.333 148.33 161.794 148.192 161.248 148.2C160.544 148.2 160.248 148.416 160.248 148.696C160.248 149.624 163.512 148.696 163.512 150.864C163.512 151.872 162.576 152.584 160.96 152.584C160.141 152.598 159.333 152.396 158.616 152Z" fill="#263238"/>
<path d="M173.072 147.104L171.112 152.52H169.6L168.384 149.16L167.128 152.52H165.6L163.648 147.104H165.128L166.408 150.768L167.736 147.104H169.064L170.352 150.768L171.672 147.104H173.072Z" fill="#263238"/>
<path d="M173.256 149.816C173.217 149.221 173.359 148.628 173.661 148.114C173.964 147.6 174.414 147.189 174.954 146.934C175.493 146.679 176.096 146.592 176.686 146.684C177.275 146.776 177.823 147.043 178.259 147.451C178.694 147.858 178.998 148.387 179.129 148.969C179.26 149.551 179.213 150.159 178.995 150.714C178.776 151.269 178.396 151.746 177.904 152.082C177.411 152.418 176.828 152.599 176.232 152.6C175.851 152.626 175.468 152.574 175.108 152.446C174.747 152.318 174.417 152.117 174.138 151.856C173.859 151.595 173.636 151.279 173.485 150.928C173.333 150.577 173.255 150.198 173.256 149.816ZM177.616 149.816C177.596 149.546 177.497 149.287 177.332 149.072C177.167 148.857 176.943 148.695 176.687 148.606C176.431 148.516 176.154 148.504 175.891 148.569C175.628 148.635 175.39 148.776 175.206 148.975C175.022 149.174 174.9 149.422 174.855 149.689C174.81 149.957 174.844 150.231 174.953 150.479C175.062 150.728 175.241 150.939 175.468 151.087C175.696 151.234 175.961 151.313 176.232 151.312C176.423 151.312 176.611 151.272 176.785 151.195C176.96 151.118 177.116 151.005 177.245 150.865C177.373 150.724 177.471 150.558 177.532 150.378C177.594 150.197 177.617 150.006 177.6 149.816H177.616Z" fill="#263238"/>
<path d="M183.608 147.024V148.472H183.256C183.056 148.453 182.855 148.48 182.668 148.55C182.48 148.62 182.311 148.731 182.172 148.876C182.034 149.02 181.93 149.195 181.868 149.385C181.806 149.576 181.788 149.778 181.816 149.976V152.536H180.216V147.12H181.72V147.832C181.944 147.552 182.233 147.332 182.562 147.191C182.892 147.05 183.251 146.993 183.608 147.024Z" fill="#263238"/>
<path d="M190.008 145.056V152.52H188.512V151.896C188.302 152.134 188.042 152.321 187.749 152.443C187.457 152.565 187.14 152.618 186.824 152.6C186.081 152.6 185.369 152.305 184.844 151.78C184.319 151.255 184.024 150.543 184.024 149.8C184.024 149.057 184.319 148.345 184.844 147.82C185.369 147.295 186.081 147 186.824 147C187.122 146.988 187.419 147.041 187.695 147.154C187.971 147.267 188.22 147.438 188.424 147.656V145.032L190.008 145.056ZM188.472 149.856C188.452 149.586 188.353 149.327 188.188 149.112C188.023 148.897 187.799 148.735 187.543 148.646C187.287 148.556 187.01 148.544 186.747 148.609C186.484 148.675 186.246 148.816 186.062 149.015C185.878 149.214 185.756 149.462 185.711 149.729C185.666 149.997 185.7 150.271 185.809 150.519C185.918 150.768 186.097 150.979 186.324 151.127C186.551 151.274 186.817 151.353 187.088 151.352C187.284 151.354 187.478 151.315 187.657 151.237C187.836 151.158 187.997 151.043 188.128 150.897C188.258 150.752 188.357 150.58 188.416 150.394C188.476 150.207 188.495 150.01 188.472 149.816V149.856Z" fill="#263238"/>
<path d="M125.08 164.672H114.888C112.467 164.672 110.504 166.635 110.504 169.056V186.52C110.504 188.941 112.467 190.904 114.888 190.904H125.08C127.501 190.904 129.464 188.941 129.464 186.52V169.056C129.464 166.635 127.501 164.672 125.08 164.672Z" fill="#EBEBEB"/>
<path d="M169.824 164.672H160.144C157.723 164.672 155.76 166.635 155.76 169.056V186.52C155.76 188.941 157.723 190.904 160.144 190.904H169.824C172.245 190.904 174.208 188.941 174.208 186.52V169.056C174.208 166.635 172.245 164.672 169.824 164.672Z" fill="#EBEBEB"/>
<path d="M147.648 164.672H137.968C135.547 164.672 133.584 166.635 133.584 169.056V186.52C133.584 188.941 135.547 190.904 137.968 190.904H147.648C150.069 190.904 152.032 188.941 152.032 186.52V169.056C152.032 166.635 150.069 164.672 147.648 164.672Z" fill="#EBEBEB"/>
<path d="M192.416 164.672H182.216C179.795 164.672 177.832 166.635 177.832 169.056V186.52C177.832 188.941 179.795 190.904 182.216 190.904H192.416C194.837 190.904 196.8 188.941 196.8 186.52V169.056C196.8 166.635 194.837 164.672 192.416 164.672Z" fill="#EBEBEB"/>
<path d="M214.168 164.672H203.968C201.547 164.672 199.584 166.635 199.584 169.056V186.52C199.584 188.941 201.547 190.904 203.968 190.904H214.168C216.589 190.904 218.552 188.941 218.552 186.52V169.056C218.552 166.635 216.589 164.672 214.168 164.672Z" fill="#EBEBEB"/>
<path d="M122.4 177.096L124.424 178.192L123.512 179.72L121.472 178.504V180.76H119.728V178.488L117.68 179.72L116.784 178.192L118.816 177.096L116.784 175.976L117.68 174.448L119.728 175.68V173.408H121.472V175.68L123.512 174.448L124.424 175.976L122.4 177.096Z" fill="#4ECDC4"/>
<path d="M144.528 176.976L146.56 178.072L145.648 179.6L143.6 178.4L143.64 180.656H141.888V178.384L139.84 179.616L138.952 178.088L140.976 176.992L138.952 175.872L139.84 174.344L141.888 175.576V173.304H143.64L143.6 175.576L145.648 174.344L146.56 175.872L144.528 176.976Z" fill="#4ECDC4"/>
<path d="M167.2 176.976L169.232 178.072L168.32 179.6L166.232 178.4L166.272 180.656H164.52V178.384L162.472 179.616L161.6 178.072L163.624 176.976L161.6 175.856L162.488 174.328L164.536 175.56V173.288H166.288L166.248 175.56L168.296 174.328L169.208 175.856L167.2 176.976Z" fill="#4ECDC4"/>
<path d="M189.088 176.976L191.112 178.072L190.2 179.6L188.152 178.4L188.192 180.656H186.44V178.384L184.392 179.616L183.496 178.088L185.528 176.992L183.496 175.872L184.392 174.344L186.44 175.576V173.304H188.192L188.152 175.576L190.2 174.344L191.112 175.872L189.088 176.976Z" fill="#4ECDC4"/>
<path d="M124.888 191.072H115.08C113.867 191.07 112.704 190.587 111.847 189.729C110.989 188.872 110.506 187.709 110.504 186.496V169.088C110.506 167.875 110.989 166.712 111.847 165.855C112.704 164.997 113.867 164.514 115.08 164.512H124.888C126.102 164.512 127.265 164.994 128.124 165.852C128.982 166.71 129.464 167.874 129.464 169.088V186.496C129.462 187.709 128.979 188.872 128.121 189.729C127.264 190.587 126.101 191.07 124.888 191.072ZM115.08 164.8C113.953 164.802 112.872 165.251 112.076 166.049C111.279 166.847 110.832 167.929 110.832 169.056V186.464C110.832 187.591 111.279 188.671 112.076 189.468C112.873 190.264 113.953 190.712 115.08 190.712H124.888C126.015 190.712 127.097 190.265 127.895 189.468C128.692 188.672 129.142 187.591 129.144 186.464V169.088C129.142 167.96 128.693 166.879 127.895 166.081C127.097 165.283 126.016 164.834 124.888 164.832L115.08 164.8Z" fill="#263238"/>
<path d="M147.672 191.072H137.856C136.643 191.07 135.48 190.587 134.622 189.729C133.765 188.872 133.282 187.709 133.28 186.496V169.088C133.282 167.875 133.765 166.712 134.622 165.855C135.48 164.997 136.643 164.514 137.856 164.512H147.672C148.884 164.514 150.046 164.997 150.902 165.855C151.759 166.713 152.24 167.876 152.24 169.088V186.496C152.24 187.708 151.759 188.871 150.902 189.729C150.046 190.587 148.884 191.07 147.672 191.072ZM137.856 164.8C136.728 164.802 135.648 165.251 134.852 166.049C134.055 166.847 133.608 167.929 133.608 169.056V186.464C133.608 187.591 134.055 188.671 134.852 189.468C135.649 190.264 136.729 190.712 137.856 190.712H147.672C148.798 190.712 149.879 190.264 150.676 189.468C151.472 188.671 151.92 187.591 151.92 186.464V169.088C151.92 167.961 151.472 166.879 150.676 166.081C149.88 165.283 148.799 164.834 147.672 164.832L137.856 164.8Z" fill="#263238"/>
<path d="M169.824 191.072H160C158.787 191.07 157.624 190.587 156.766 189.729C155.909 188.872 155.426 187.709 155.424 186.496V169.088C155.426 167.875 155.909 166.712 156.766 165.855C157.624 164.997 158.787 164.514 160 164.512H169.816C171.028 164.514 172.19 164.997 173.046 165.855C173.903 166.713 174.384 167.876 174.384 169.088V186.496C174.384 187.707 173.904 188.868 173.049 189.726C172.194 190.584 171.035 191.068 169.824 191.072ZM160 164.8C158.872 164.802 157.792 165.251 156.996 166.049C156.199 166.847 155.752 167.929 155.752 169.056V186.464C155.752 187.591 156.199 188.671 156.996 189.468C157.793 190.264 158.873 190.712 160 190.712H169.816C170.374 190.712 170.926 190.602 171.441 190.389C171.957 190.175 172.425 189.862 172.82 189.468C173.214 189.073 173.527 188.605 173.74 188.09C173.954 187.574 174.064 187.022 174.064 186.464V169.088C174.064 167.961 173.617 166.879 172.82 166.081C172.024 165.283 170.943 164.834 169.816 164.832L160 164.8Z" fill="#263238"/>
<path d="M192.224 191.072H182.4C181.187 191.07 180.024 190.587 179.167 189.729C178.309 188.872 177.826 187.709 177.824 186.496V169.088C177.824 167.874 178.306 166.71 179.164 165.852C180.022 164.994 181.186 164.512 182.4 164.512H192.208C193.421 164.514 194.584 164.997 195.441 165.855C196.299 166.712 196.782 167.875 196.784 169.088V186.496C196.782 187.706 196.301 188.866 195.447 189.724C194.593 190.581 193.434 191.066 192.224 191.072ZM182.4 164.8C181.272 164.802 180.191 165.251 179.393 166.049C178.595 166.847 178.146 167.928 178.144 169.056V186.464C178.146 187.591 178.595 188.672 179.393 189.468C180.191 190.265 181.273 190.712 182.4 190.712H192.208C193.335 190.712 194.415 190.264 195.212 189.468C196.008 188.671 196.456 187.591 196.456 186.464V169.088C196.456 167.961 196.009 166.879 195.212 166.081C194.416 165.283 193.335 164.834 192.208 164.832L182.4 164.8Z" fill="#263238"/>
<path d="M213.976 191.072H204.168C202.955 191.07 201.792 190.587 200.934 189.729C200.077 188.872 199.594 187.709 199.592 186.496V169.088C199.592 167.874 200.074 166.71 200.932 165.852C201.79 164.994 202.954 164.512 204.168 164.512H213.976C215.189 164.514 216.351 164.997 217.209 165.855C218.067 166.712 218.55 167.875 218.552 169.088V186.496C218.55 187.709 218.067 188.872 217.209 189.729C216.351 190.587 215.189 191.07 213.976 191.072ZM204.168 164.8C203.04 164.802 201.958 165.251 201.161 166.049C200.363 166.847 199.914 167.928 199.912 169.056V186.464C199.914 187.591 200.363 188.672 201.161 189.468C201.959 190.265 203.04 190.712 204.168 190.712H213.976C215.102 190.712 216.183 190.264 216.98 189.468C217.776 188.671 218.224 187.591 218.224 186.464V169.088C218.224 167.961 217.776 166.879 216.98 166.081C216.184 165.283 215.103 164.834 213.976 164.832L204.168 164.8Z" fill="#263238"/>
<path d="M214.328 184.104C212.584 184.315 210.827 184.384 209.072 184.312C207.317 184.384 205.559 184.315 203.816 184.104C205.56 183.898 207.317 183.829 209.072 183.896C210.827 183.829 212.584 183.898 214.328 184.104Z" fill="#4ECDC4"/>
<path d="M165.392 137.472C177.096 137.472 186.584 127.984 186.584 116.28C186.584 104.576 177.096 95.088 165.392 95.088C153.688 95.088 144.2 104.576 144.2 116.28C144.2 127.984 153.688 137.472 165.392 137.472Z" fill="#4ECDC4"/>
<path d="M161.664 112.424H161.312V110.448C161.287 109.89 161.376 109.333 161.573 108.81C161.769 108.288 162.07 107.81 162.456 107.407C162.842 107.003 163.306 106.682 163.819 106.463C164.333 106.243 164.885 106.13 165.444 106.13C166.002 106.13 166.555 106.243 167.069 106.463C167.582 106.682 168.046 107.003 168.432 107.407C168.818 107.81 169.119 108.288 169.315 108.81C169.512 109.333 169.6 109.89 169.576 110.448V112.048H169.224V110.448C169.247 109.937 169.167 109.426 168.988 108.947C168.808 108.468 168.534 108.031 168.18 107.661C167.827 107.291 167.402 106.996 166.932 106.795C166.462 106.594 165.955 106.49 165.444 106.49C164.932 106.49 164.426 106.594 163.956 106.795C163.485 106.996 163.061 107.291 162.707 107.661C162.354 108.031 162.079 108.468 161.9 108.947C161.721 109.426 161.64 109.937 161.664 110.448V112.424Z" fill="white"/>
<path d="M170.648 126.24H160.144C159.915 126.241 159.687 126.197 159.475 126.109C159.263 126.022 159.071 125.894 158.908 125.732C158.746 125.569 158.618 125.377 158.531 125.165C158.443 124.953 158.399 124.725 158.4 124.496V113.992C158.4 113.529 158.584 113.086 158.911 112.759C159.238 112.432 159.681 112.248 160.144 112.248H170.648C171.11 112.25 171.552 112.435 171.879 112.761C172.205 113.088 172.39 113.53 172.392 113.992V124.496C172.392 124.959 172.208 125.402 171.881 125.729C171.554 126.056 171.11 126.24 170.648 126.24ZM160.144 112.6C159.775 112.6 159.421 112.747 159.16 113.008C158.899 113.269 158.752 113.623 158.752 113.992V124.496C158.752 124.679 158.788 124.86 158.858 125.029C158.928 125.198 159.03 125.351 159.16 125.48C159.289 125.61 159.442 125.712 159.611 125.782C159.78 125.852 159.961 125.888 160.144 125.888H170.648C170.831 125.888 171.012 125.852 171.181 125.782C171.35 125.712 171.503 125.61 171.632 125.48C171.761 125.351 171.864 125.198 171.934 125.029C172.004 124.86 172.04 124.679 172.04 124.496V113.992C172.04 113.623 171.893 113.269 171.632 113.008C171.371 112.747 171.017 112.6 170.648 112.6H160.144Z" fill="white"/>
<path d="M165.448 119.592C165.12 119.594 164.798 119.498 164.525 119.316C164.251 119.135 164.038 118.876 163.912 118.573C163.785 118.271 163.752 117.937 163.815 117.615C163.879 117.293 164.037 116.997 164.269 116.765C164.501 116.533 164.797 116.375 165.119 116.311C165.441 116.248 165.774 116.281 166.077 116.408C166.38 116.534 166.639 116.747 166.82 117.021C167.002 117.295 167.097 117.616 167.096 117.944C167.094 118.38 166.92 118.798 166.611 119.107C166.302 119.416 165.884 119.59 165.448 119.592ZM165.448 116.648C165.192 116.648 164.941 116.724 164.728 116.866C164.515 117.009 164.349 117.211 164.251 117.448C164.152 117.685 164.127 117.945 164.177 118.197C164.227 118.448 164.35 118.679 164.532 118.86C164.713 119.042 164.944 119.165 165.195 119.215C165.446 119.265 165.707 119.239 165.944 119.141C166.181 119.043 166.383 118.877 166.526 118.664C166.668 118.451 166.744 118.2 166.744 117.944C166.745 117.774 166.712 117.605 166.647 117.447C166.583 117.289 166.487 117.146 166.367 117.025C166.246 116.905 166.103 116.809 165.945 116.744C165.787 116.68 165.618 116.647 165.448 116.648Z" fill="white"/>
<path d="M165.568 119.336H165.216V122.312H165.568V119.336Z" fill="white"/>
<path d="M237.144 86.942C237.921 83.4123 235.689 79.9213 232.159 79.1446C228.629 78.3678 225.138 80.5996 224.362 84.1293C223.585 87.659 225.817 91.1501 229.346 91.9268C232.876 92.7035 236.367 90.4717 237.144 86.942Z" fill="#E0E0E0"/>
<path d="M228.648 87.864C228.621 87.8636 228.594 87.8578 228.569 87.8468C228.545 87.8358 228.522 87.8199 228.504 87.8C228.485 87.782 228.47 87.7604 228.459 87.7363C228.449 87.7122 228.443 87.6862 228.443 87.66C228.443 87.6338 228.449 87.6078 228.459 87.5837C228.47 87.5596 228.485 87.538 228.504 87.52L232.744 83.28C232.762 83.2609 232.784 83.2456 232.808 83.2352C232.832 83.2248 232.858 83.2194 232.884 83.2194C232.91 83.2194 232.936 83.2248 232.96 83.2352C232.984 83.2456 233.006 83.2609 233.024 83.28C233.043 83.2987 233.059 83.321 233.069 83.3458C233.08 83.3705 233.085 83.3971 233.085 83.424C233.085 83.4509 233.08 83.4775 233.069 83.5022C233.059 83.527 233.043 83.5493 233.024 83.568L228.784 87.8C228.749 87.8382 228.7 87.8612 228.648 87.864Z" fill="white"/>
<path d="M232.88 87.864C232.828 87.8612 232.779 87.8382 232.744 87.8L228.504 83.568C228.484 83.5493 228.469 83.527 228.459 83.5022C228.448 83.4775 228.443 83.4509 228.443 83.424C228.443 83.3971 228.448 83.3705 228.459 83.3458C228.469 83.321 228.484 83.2987 228.504 83.28C228.522 83.2609 228.543 83.2456 228.568 83.2352C228.592 83.2248 228.618 83.2194 228.644 83.2194C228.67 83.2194 228.696 83.2248 228.72 83.2352C228.744 83.2456 228.766 83.2609 228.784 83.28L233.024 87.52C233.043 87.538 233.058 87.5596 233.069 87.5837C233.079 87.6078 233.084 87.6338 233.084 87.66C233.084 87.6862 233.079 87.7122 233.069 87.7363C233.058 87.7604 233.043 87.782 233.024 87.8C233.005 87.8199 232.983 87.8358 232.958 87.8468C232.934 87.8578 232.907 87.8636 232.88 87.864Z" fill="white"/>
<path d="M62.4481 332.44C62.4481 332.44 41.3121 308.112 33.3361 283.784C25.3601 259.456 29.1441 262.248 29.1441 262.248C29.1441 262.248 39.9121 285.88 48.0881 297.296C56.2641 308.712 70.8241 325.456 70.8241 325.456L62.4481 332.44Z" fill="#455A64"/>
<path d="M66.6561 266.032C66.5136 265.781 66.2877 265.589 66.0177 265.488C65.7477 265.386 65.4508 265.383 65.1786 265.478C64.9065 265.573 64.6763 265.761 64.5282 266.008C64.3801 266.256 64.3235 266.547 64.3681 266.832C65.6561 275.384 68.4401 295.432 68.3681 308.432C68.2321 325.328 68.3681 331.856 68.3681 331.856H77.1681C77.1681 331.856 75.5681 296.928 73.6161 286.256C72.1921 278.808 69.2321 270.52 66.6561 266.032Z" fill="#455A64"/>
<path d="M71.4561 329.008C75.1434 320.655 77.5828 311.806 78.6961 302.744C79.4161 296.528 78.1281 288.12 76.2081 276.904C75.4625 272.802 75.0903 268.641 75.0961 264.472C75.1004 264.008 75.2586 263.558 75.5459 263.194C75.8332 262.83 76.2334 262.571 76.6836 262.458C77.1338 262.346 77.6087 262.386 78.0337 262.572C78.4587 262.758 78.8098 263.081 79.0321 263.488C80.0961 265.384 83.1681 271.856 83.9521 275.912C86.0801 286.984 88.4881 292.52 86.6481 303.032C84.8081 313.544 77.9841 329.72 77.9841 329.72L71.4561 329.008Z" fill="#455A64"/>
<path d="M79.376 329.72C79.376 329.72 102.576 279.848 104.176 272.448C105.776 265.048 111.256 248 111.896 248.968C112.536 249.936 113.496 258.936 109.328 269.232C105.16 279.528 87.288 331.24 87.288 331.24H79.376" fill="#455A64"/>
<path d="M68.9121 327.488C68.6823 327.36 68.4653 327.21 68.2641 327.04C67.8481 326.728 67.2241 326.288 66.4641 325.672C64.9201 324.456 62.7521 322.608 60.2241 320.168C53.7041 313.733 48.056 306.471 43.4241 298.568C38.7965 290.66 34.9465 282.323 31.9281 273.672C30.7601 270.36 29.9121 267.648 29.3601 265.768C29.0721 264.824 28.8801 264.088 28.7441 263.592C28.6594 263.331 28.5978 263.064 28.5601 262.792C28.6744 263.029 28.768 263.275 28.8401 263.528C29.0161 264.064 29.2481 264.784 29.5441 265.68C30.1521 267.544 31.0561 270.232 32.2561 273.528C35.3647 282.114 39.2445 290.402 43.8481 298.288C48.479 306.153 54.0743 313.41 60.5041 319.888C62.9921 322.36 65.1121 324.24 66.6161 325.488C67.3601 326.128 67.9681 326.592 68.3521 326.928C68.5536 327.099 68.7409 327.286 68.9121 327.488Z" fill="#263238"/>
<path d="M71.4562 303.56C71.3354 303.081 71.2657 302.59 71.2482 302.096C71.1362 301.064 70.9921 299.696 70.8161 298.096C70.4481 294.72 69.8722 290.096 69.0562 284.952C68.2402 279.808 67.3202 275.24 66.6082 271.928C66.2642 270.328 65.9842 269.008 65.7602 267.992C65.6308 267.515 65.5451 267.028 65.5042 266.536C65.6937 266.992 65.8436 267.463 65.9522 267.944C66.2082 268.864 66.5522 270.192 66.9522 271.848C67.7522 275.152 68.7202 279.752 69.5442 284.88C70.3682 290.008 70.8882 294.672 71.1442 298.064C71.2802 299.752 71.3761 301.128 71.4161 302.064C71.471 302.561 71.4843 303.061 71.4562 303.56Z" fill="#263238"/>
<path d="M76.8879 263.096C77.0018 263.296 77.093 263.508 77.1599 263.728L77.8559 265.584C78.1679 266.384 78.5199 267.376 78.8559 268.552C79.1919 269.728 79.6559 271.04 79.9839 272.552L80.5599 274.896C80.7519 275.696 80.8879 276.576 81.0639 277.464C81.4479 279.232 81.6799 281.152 81.9599 283.168C82.4599 287.554 82.6471 291.971 82.5199 296.384C82.3318 300.798 81.8292 305.193 81.0159 309.536C80.5919 311.52 80.2159 313.424 79.7199 315.136C79.4719 316.008 79.2719 316.864 79.0239 317.664L78.2799 320C77.8399 321.472 77.2959 322.76 76.8719 323.904C76.4479 325.048 76.0719 326.016 75.6639 326.792L74.8639 328.592C74.7798 328.806 74.6724 329.01 74.5439 329.2C74.5981 328.977 74.6731 328.76 74.7679 328.552C74.9599 328.088 75.2079 327.48 75.5119 326.72C75.8159 325.96 76.2399 324.96 76.6319 323.8C77.0239 322.64 77.5519 321.4 77.9759 319.888C78.1999 319.16 78.4319 318.392 78.6799 317.592C78.9279 316.792 79.1119 315.944 79.3439 315.072C79.8239 313.336 80.1439 311.448 80.5919 309.472C81.3717 305.15 81.8582 300.78 82.0479 296.392C82.174 292.004 82.003 287.613 81.5359 283.248C81.2639 281.24 81.0479 279.328 80.6879 277.56C80.5199 276.68 80.3919 275.816 80.2079 275C80.0239 274.184 79.8399 273.4 79.6639 272.656C79.3519 271.16 78.9279 269.84 78.6159 268.656C78.3039 267.472 77.9759 266.48 77.6959 265.664L77.0959 263.784C77.004 263.562 76.9344 263.332 76.8879 263.096Z" fill="#263238"/>
<path d="M111.648 249.968C111.657 250.042 111.657 250.118 111.648 250.192C111.648 250.368 111.584 250.576 111.544 250.84C111.44 251.408 111.312 252.248 111.088 253.32C110.64 255.464 109.888 258.552 108.688 262.296C107.488 266.04 105.952 270.44 104.072 275.264C102.192 280.088 100.024 285.352 97.96 290.952C95.896 296.552 94.256 302 92.744 306.952C91.232 311.904 89.816 316.352 88.44 320.024C87.3869 322.935 86.1717 325.785 84.8 328.56C84.328 329.544 83.896 330.28 83.624 330.792L83.296 331.36C83.224 331.488 83.184 331.552 83.176 331.544C83.1909 331.471 83.218 331.4 83.256 331.336L83.536 330.744C83.784 330.224 84.184 329.472 84.632 328.472C85.56 326.496 86.824 323.592 88.136 319.904C89.448 316.216 90.856 311.784 92.328 306.824C93.8 301.864 95.424 296.424 97.52 290.824C99.616 285.224 101.776 279.952 103.672 275.136C105.568 270.32 107.184 265.96 108.384 262.232C109.584 258.504 110.376 255.448 110.88 253.32C111.136 252.256 111.296 251.424 111.432 250.856C111.488 250.6 111.544 250.392 111.584 250.224C111.59 250.135 111.611 250.049 111.648 249.968Z" fill="#263238"/>
<path d="M40.088 238.952C39.7698 238.642 39.357 238.447 38.9154 238.399C38.4737 238.35 38.0285 238.451 37.6506 238.684C37.2726 238.918 36.9836 239.271 36.8295 239.688C36.6754 240.104 36.665 240.561 36.8 240.984C37.5924 243.551 38.5655 246.059 39.712 248.488C42.912 255.264 52.272 279.592 56.664 292.952C61.056 306.312 67.2 331.24 67.2 331.24L76.568 329.72C76.568 329.72 68 288.8 59.656 274.008C52.928 262.152 46.192 245.016 40.088 238.952Z" fill="#455A64"/>
<path d="M59.2 301.312C59.4057 301.665 59.5695 302.041 59.688 302.432C59.96 303.168 60.344 304.24 60.768 305.576C61.632 308.248 62.688 311.976 63.744 316.128C64.8 320.28 65.696 324.056 66.312 326.792C66.592 328.08 66.8239 329.192 67.0159 330.032C67.1197 330.427 67.184 330.832 67.208 331.24C67.0408 330.867 66.9121 330.479 66.8239 330.08C66.5999 329.224 66.312 328.152 65.9679 326.88C65.248 324.064 64.312 320.36 63.264 316.264C62.216 312.168 61.208 308.376 60.432 305.688C60.064 304.416 59.7519 303.352 59.5039 302.488C59.3638 302.107 59.2619 301.713 59.2 301.312Z" fill="#263238"/>
<path d="M71.9362 330.48C71.9097 330.4 71.8935 330.316 71.8882 330.232C71.8882 330.032 71.8242 329.792 71.7762 329.496C71.6802 328.848 71.5922 327.896 71.3922 326.656C71.0482 324.192 70.4402 320.648 69.4322 316.32C68.2326 311.26 66.7693 306.267 65.0482 301.36C63.1202 295.808 60.7122 289.808 57.9842 283.6C52.4722 271.208 46.9682 260.208 43.3442 252.08C41.5202 248.016 40.1442 244.712 39.1682 242.4C38.6962 241.248 38.3682 240.344 38.1202 239.736C38.0082 239.456 37.9282 239.224 37.8562 239.04C37.8204 238.961 37.7962 238.878 37.7842 238.792C37.8329 238.862 37.8731 238.937 37.9042 239.016L38.2082 239.696C38.4882 240.336 38.8642 241.216 39.3522 242.328C40.3362 244.608 41.8002 247.928 43.6642 251.928C47.3602 260 52.9202 270.984 58.4402 283.4C61.1682 289.616 63.5762 295.632 65.4802 301.208C67.1882 306.138 68.6224 311.159 69.7762 316.248C70.5542 319.682 71.1577 323.153 71.5842 326.648C71.7522 327.88 71.8082 328.848 71.8802 329.496L71.9362 330.24C71.9454 330.32 71.9454 330.4 71.9362 330.48Z" fill="#263238"/>
<path d="M76.6 329.72C76.4511 329.196 76.3441 328.661 76.28 328.12C76.096 327.024 75.848 325.568 75.552 323.816C74.912 320.184 73.952 315.184 72.504 309.744C71.056 304.304 69.52 299.48 68.304 296C67.712 294.32 67.216 292.936 66.84 291.888C66.6337 291.393 66.4678 290.882 66.344 290.36C66.611 290.825 66.8384 291.313 67.024 291.816C67.424 292.768 67.992 294.152 68.624 295.88C70.3174 300.389 71.7702 304.985 72.976 309.648C74.1871 314.308 75.1617 319.026 75.896 323.784C76.16 325.608 76.36 327.088 76.464 328.12C76.5494 328.649 76.5949 329.184 76.6 329.72Z" fill="#263238"/>
<path d="M95.8322 328.376H59.2642V372.928H95.8322V328.376Z" fill="#4ECDC4"/>
<g opacity="0.3">
<path d="M95.8322 328.376H59.2642V372.928H95.8322V328.376Z" fill="black"/>
</g>
<path d="M84.16 328.376H51.72V372.928H84.16V328.376Z" fill="#4ECDC4"/>
<path d="M309.528 229.256L290.304 226.472L251.848 232.16L241.056 235.976L242.968 259.576L279.944 266.384L304.888 258.992L314.32 245.112L309.528 229.256Z" fill="#FFBE9D"/>
<path d="M321.648 231.512L305.552 227.72C305.552 227.72 294.184 262.92 266.112 261.376C243.232 260.136 242.968 234.6 242.968 234.6L226.48 239.88C226.48 239.88 220.168 282.176 227.152 312.144C228.752 319.144 230.968 328.576 230.968 328.576L228.736 372.36L350.688 372.552L321.648 231.512Z" fill="#4ECDC4"/>
<g opacity="0.3">
<path d="M273.84 363.864C279.776 363.712 285.248 364.216 291.184 364.072C298.304 363.896 305.48 363.72 312.512 364.872C317.776 365.744 322.912 367.344 328.176 368.176C335.376 369.312 343.048 368.912 349.448 365.448L348.416 359.472L324.112 353.6L273.84 363.864Z" fill="black"/>
</g>
<path d="M212.712 249.736C218.312 242.536 227.56 239.536 227.56 239.536L233.8 293.848L221.984 372.936L183.28 372.752C183.28 372.752 204.624 260.176 212.712 249.736Z" fill="#4ECDC4"/>
<path d="M319.768 231.112C319.768 231.112 345.816 233.2 355.16 275.912C359.384 295.216 364.76 317.832 366.272 333.04C367.384 344.064 361.392 361.328 350.4 362.744L336.576 364.6C333.866 364.99 331.107 364.89 328.432 364.304C319.704 362.296 318.832 356.304 317.232 349.904L313.232 337.168C311.024 325.056 322.312 322.768 328.544 322.936L323.896 267.648L319.768 231.112Z" fill="#4ECDC4"/>
<path d="M224.336 269.736C224.275 269.929 224.235 270.127 224.216 270.328C224.152 270.76 224.064 271.336 223.952 272.048C223.904 272.424 223.84 272.848 223.776 273.296C223.712 273.744 223.68 274.248 223.624 274.784C223.512 275.848 223.384 277.064 223.328 278.416C223.143 281.578 223.121 284.748 223.264 287.912C223.454 291.782 223.839 295.64 224.416 299.472C225.016 303.56 225.768 307.416 226.536 310.904C227.304 314.392 228.048 317.52 228.704 320.144C229.36 322.768 229.912 324.872 230.304 326.328C230.496 327.024 230.648 327.584 230.768 328C230.811 328.198 230.875 328.391 230.96 328.576C230.943 328.375 230.905 328.177 230.848 327.984C230.752 327.552 230.624 326.992 230.464 326.288C230.104 324.776 229.6 322.664 228.976 320.072C228.352 317.48 227.632 314.312 226.904 310.824C226.176 307.336 225.416 303.488 224.824 299.416C224.232 295.344 223.816 291.416 223.64 287.888C223.464 284.36 223.456 281.12 223.64 278.432C223.68 277.08 223.784 275.872 223.872 274.8C223.909 274.267 223.949 273.771 223.992 273.312C224.04 272.864 224.088 272.448 224.128 272.064C224.208 271.352 224.272 270.776 224.312 270.336C224.339 270.137 224.347 269.936 224.336 269.736Z" fill="#263238"/>
<path d="M348.984 337.896C348.966 337.525 348.904 337.157 348.8 336.8C348.545 335.837 348.207 334.898 347.792 333.992C346.425 330.972 344.298 328.359 341.618 326.409C338.938 324.458 335.797 323.237 332.504 322.864C331.514 322.744 330.515 322.711 329.52 322.768C329.153 322.772 328.788 322.818 328.432 322.904C329.769 322.912 331.104 322.995 332.432 323.152C335.651 323.599 338.709 324.833 341.337 326.745C343.965 328.656 346.08 331.187 347.496 334.112C348.058 335.346 348.554 336.61 348.984 337.896Z" fill="#263238"/>
<path d="M342.968 316.632C342.761 316.58 342.548 316.561 342.336 316.576C341.761 316.565 341.187 316.592 340.616 316.656C338.727 316.848 336.876 317.311 335.12 318.032C333.365 318.76 331.723 319.733 330.24 320.92C329.792 321.277 329.368 321.662 328.968 322.072C328.688 322.368 328.544 322.536 328.56 322.56C328.576 322.584 329.264 322 330.424 321.152C333.441 318.937 336.953 317.492 340.656 316.944C342.072 316.736 342.968 316.704 342.968 316.632Z" fill="#263238"/>
<path d="M316 261.376C316.058 260.998 316.08 260.615 316.064 260.232C316.064 259.496 316.112 258.44 316.2 257.136C316.666 250.316 318.535 243.665 321.688 237.6C322.288 236.44 322.808 235.512 323.184 234.888C323.395 234.57 323.574 234.233 323.72 233.88C323.464 234.164 323.237 234.472 323.04 234.8C322.624 235.408 322.064 236.312 321.44 237.464C318.119 243.51 316.23 250.237 315.92 257.128C315.872 258.44 315.872 259.528 315.92 260.24C315.907 260.62 315.934 261.001 316 261.376Z" fill="#263238"/>
<path d="M266.112 300.12C266.129 300.274 266.167 300.424 266.224 300.568C266.32 300.856 266.44 301.296 266.656 301.824C267.239 303.353 267.965 304.823 268.824 306.216C271.663 310.86 275.784 314.584 280.691 316.94C285.597 319.297 291.08 320.184 296.48 319.496C298.108 319.294 299.715 318.943 301.28 318.448C301.832 318.28 302.248 318.096 302.528 317.992C302.675 317.944 302.817 317.883 302.952 317.808C302.952 317.768 302.336 317.976 301.232 318.288C299.661 318.729 298.055 319.034 296.432 319.2C291.094 319.828 285.688 318.926 280.843 316.601C275.998 314.275 271.913 310.621 269.064 306.064C268.193 304.695 267.433 303.258 266.792 301.768C266.4 300.712 266.144 300.104 266.112 300.12Z" fill="#263238"/>
<path d="M321.008 360.16C321.048 360.12 321.456 360.704 322.432 361.504C323.86 362.582 325.493 363.355 327.232 363.776C329.793 364.417 332.438 364.652 335.072 364.472C338.048 364.256 341.336 363.904 344.744 363.4C347.954 362.984 351.116 362.256 354.184 361.224C355.464 360.661 356.637 359.879 357.648 358.912C358.539 358.076 359.344 357.151 360.048 356.152C361.091 354.708 361.984 353.162 362.712 351.536C362.96 350.952 363.152 350.504 363.272 350.192C363.319 350.028 363.389 349.872 363.48 349.728C363.45 349.894 363.407 350.057 363.352 350.216C363.256 350.544 363.088 351.016 362.856 351.6C362.185 353.27 361.323 354.856 360.288 356.328C359.588 357.353 358.784 358.302 357.888 359.16C356.856 360.165 355.653 360.978 354.336 361.56C351.249 362.633 348.058 363.381 344.816 363.792C341.384 364.304 338.104 364.64 335.104 364.84C332.43 364.997 329.748 364.727 327.16 364.04C325.408 363.588 323.772 362.77 322.36 361.64C321.988 361.319 321.648 360.962 321.344 360.576C321.214 360.452 321.102 360.312 321.008 360.16Z" fill="#263238"/>
<path d="M316.712 274.976C316.816 274.976 319.568 285.608 322.84 298.792C326.112 311.976 328.68 322.68 328.568 322.712C328.456 322.744 325.712 312.072 322.44 298.888C319.168 285.704 316.6 275 316.712 274.976Z" fill="#263238"/>
<path d="M313.392 335.2C313.307 334.914 313.261 334.618 313.256 334.32C313.176 333.523 313.157 332.72 313.2 331.92C313.291 330.699 313.697 329.522 314.376 328.504C314.761 327.898 315.209 327.335 315.712 326.824C316.269 326.291 316.89 325.829 317.56 325.448C319.93 324.205 322.495 323.377 325.144 323C325.939 322.885 326.741 322.816 327.544 322.792C327.838 322.748 328.138 322.748 328.432 322.792C328.432 322.856 327.176 322.904 325.184 323.264C322.594 323.71 320.089 324.558 317.76 325.776C317.118 326.141 316.522 326.582 315.984 327.088C315.498 327.576 315.064 328.112 314.688 328.688C314.026 329.637 313.613 330.737 313.488 331.888C313.417 332.686 313.393 333.487 313.416 334.288C313.443 334.592 313.435 334.898 313.392 335.2Z" fill="#263238"/>
<g opacity="0.3">
<path d="M225.536 305.6C218.888 294.344 218.744 279.72 224.544 268C222.687 280.487 223.088 293.207 225.728 305.552" fill="black"/>
</g>
<path d="M236.136 356.088C238.232 352.136 254.576 341.688 254.576 341.688L250.152 340.664L245.264 342.728C244.894 344.385 244.177 345.945 243.16 347.304C241.368 349.864 238.32 347.216 238.32 347.216L240.384 337.32L250.048 331.504C250.048 331.504 259.136 332.896 260.608 333.6L264.48 337.144C266.184 338.48 271.096 343.736 272.44 343.896C273.784 344.056 316 334.576 316 334.576C321.784 339.16 324.8 348.256 325.744 354.824C325.744 354.824 326.776 358.024 325.656 359.8L273.872 363.864L262.896 366.896C259.957 368.112 256.946 369.145 253.88 369.992C250.232 370.792 247.776 369.584 247.672 367.592C247.568 365.6 250.408 365.352 250.408 365.352C252.829 364.483 255.187 363.446 257.464 362.248C259.131 361.137 260.504 359.638 261.464 357.88L257.552 358.344C257.552 358.344 249.232 364.12 246.104 365.816C242.976 367.512 242.36 364.4 242.104 363.416C241.848 362.432 251.448 353.088 251.448 353.088C251.448 353.088 242.32 358.688 240.68 360.128C239.04 361.568 236.608 361.976 236.088 361.024C235.568 360.072 234.048 360.04 236.136 356.088Z" fill="#FFBE9D"/>
<path d="M281.144 357C281.19 356.79 281.207 356.575 281.192 356.36C281.201 356.108 281.185 355.856 281.144 355.608C281.112 355.275 281.05 354.946 280.96 354.624C280.44 352.755 279.538 351.015 278.312 349.512C277.116 348.004 275.777 346.616 274.312 345.368C273.737 344.819 273.107 344.331 272.432 343.912C272.964 344.497 273.531 345.05 274.128 345.568C275.521 346.864 276.815 348.263 278 349.752C279.199 351.216 280.111 352.894 280.688 354.696C281.104 356.088 281.064 357.008 281.144 357Z" fill="#EB996E"/>
<path d="M254.952 341.392C255.888 341.53 256.843 341.445 257.74 341.143C258.637 340.841 259.45 340.332 260.112 339.656C260.048 339.568 259.048 340.312 257.616 340.776C256.184 341.24 254.952 341.28 254.952 341.392Z" fill="#EB996E"/>
<path d="M252.232 352.224C255.049 351.341 257.784 350.216 260.408 348.864C258.98 349.241 257.587 349.745 256.248 350.368C254.859 350.872 253.516 351.493 252.232 352.224Z" fill="#EB996E"/>
<path d="M261 357.76C261.737 357.591 262.451 357.336 263.128 357C263.855 356.789 264.553 356.491 265.208 356.112C263.681 356.267 262.226 356.837 261 357.76Z" fill="#EB996E"/>
<path d="M253.6 352.944C254.187 353.349 254.724 353.821 255.2 354.352C255.586 354.957 255.898 355.607 256.128 356.288C256.176 356.288 256.224 356.024 256.128 355.608C256.03 355.067 255.805 354.557 255.472 354.12C255.141 353.683 254.71 353.332 254.216 353.096C253.856 352.92 253.6 352.904 253.6 352.944Z" fill="#EB996E"/>
<path d="M249.744 346.904C249.688 347 250.408 347.392 250.88 348.216C251.12 348.745 251.315 349.294 251.464 349.856C251.58 349.549 251.616 349.219 251.57 348.894C251.524 348.57 251.397 348.262 251.2 348C250.664 347.072 249.76 346.8 249.744 346.904Z" fill="#EB996E"/>
<path d="M251.04 336.104C251.088 336.104 251.232 335.944 251.352 335.584C251.476 335.112 251.476 334.616 251.352 334.144C251.237 333.67 251 333.234 250.664 332.88C250.4 332.616 250.184 332.52 250.152 332.56C250.487 333.085 250.755 333.649 250.952 334.24C251.066 334.854 251.095 335.482 251.04 336.104Z" fill="#EB996E"/>
<path d="M326.08 361.28C326.027 360.885 326.005 360.486 326.016 360.088C326.016 359.704 326.016 359.24 325.96 358.696C325.904 358.152 325.912 357.536 325.832 356.864C325.532 353.314 324.771 349.818 323.568 346.464C322.892 344.632 322.074 342.856 321.12 341.152C320.64 340.352 320.224 339.64 319.744 338.992C319.52 338.664 319.296 338.352 319.08 338.048C318.864 337.744 318.632 337.472 318.416 337.248C316.696 335.128 315.376 334.048 315.44 333.984C315.775 334.198 316.087 334.447 316.368 334.728C316.728 335.03 317.07 335.353 317.392 335.696C317.768 336.088 318.192 336.496 318.648 337.056C318.864 337.328 319.096 337.6 319.336 337.856C319.576 338.112 319.792 338.472 320.032 338.8C320.528 339.448 320.96 340.2 321.448 340.968C322.436 342.68 323.277 344.473 323.96 346.328C325.174 349.707 325.904 353.241 326.128 356.824C326.184 357.504 326.176 358.128 326.192 358.672C326.208 359.216 326.192 359.688 326.192 360.072C326.196 360.477 326.158 360.882 326.08 361.28Z" fill="#263238"/>
<g opacity="0.3">
<path d="M343.848 324.28C338.992 322.275 333.643 321.787 328.504 322.88C332.921 322.676 337.292 323.858 341.005 326.259C344.718 328.66 347.589 332.16 349.216 336.272C349.584 337.264 350.32 338.44 351.376 338.288C352.432 338.136 352.72 336.912 352.72 335.928C352.728 330.752 348.624 326.272 343.848 324.28Z" fill="black"/>
</g>
<path d="M224 266.072C223.761 266.028 223.529 265.95 223.312 265.84C222.872 265.672 222.256 265.392 221.504 265.04C219.541 264.06 217.668 262.912 215.904 261.608C214.147 260.31 212.503 258.865 210.992 257.288C210.416 256.68 209.96 256.168 209.672 255.808C209.384 255.448 209.224 255.232 209.248 255.208C209.272 255.184 210 255.928 211.2 257.08C212.759 258.584 214.413 259.987 216.152 261.28C217.896 262.563 219.721 263.73 221.616 264.776C223.12 265.6 224.048 266.016 224 266.072Z" fill="white"/>
<path d="M316.376 269.088C316.316 269.142 316.248 269.188 316.176 269.224L315.56 269.592C315.024 269.92 314.208 270.392 313.16 270.92C310.156 272.462 307.041 273.775 303.84 274.848C299.085 276.421 294.206 277.593 289.256 278.352C283.194 279.254 277.08 279.762 270.952 279.872C264.432 280.024 258.224 279.872 252.552 279.776C247.547 279.706 242.551 279.329 237.592 278.648C234.246 278.174 230.948 277.408 227.736 276.36C226.608 275.976 225.736 275.656 225.16 275.408L224.504 275.128C224.426 275.101 224.351 275.066 224.28 275.024L224.52 275.088L225.192 275.328C225.776 275.552 226.656 275.848 227.792 276.208C231.009 277.186 234.3 277.905 237.632 278.36C242.584 278.993 247.568 279.338 252.56 279.392C258.16 279.496 264.4 279.608 270.904 279.456C277.015 279.349 283.112 278.852 289.16 277.968C294.095 277.234 298.962 276.097 303.712 274.568C306.911 273.523 310.033 272.256 313.056 270.776C314.12 270.248 314.944 269.824 315.456 269.52L316.088 269.192C316.296 269.112 316.368 269.08 316.376 269.088Z" fill="white"/>
<path d="M224.304 297.6C223.966 297.569 223.633 297.499 223.312 297.392L220.648 296.664C218.408 296.032 215.32 295.128 211.912 294.112C208.504 293.096 205.432 292.144 203.208 291.44L200.584 290.592C200.259 290.499 199.943 290.375 199.64 290.224C199.977 290.255 200.31 290.325 200.632 290.432L203.296 291.16C205.536 291.792 208.624 292.696 212.032 293.712C215.44 294.728 218.512 295.672 220.736 296.376L223.36 297.232C223.687 297.321 224.003 297.444 224.304 297.6Z" fill="white"/>
<path d="M226.632 341.816C226.632 341.92 218.632 339.632 208.792 336.696C198.952 333.76 191.04 331.288 191.072 331.176C191.104 331.064 199.072 333.352 208.912 336.296C218.752 339.24 226.664 341.704 226.632 341.816Z" fill="white"/>
<path d="M342.256 246.152C341.987 246.413 341.692 246.646 341.376 246.848C340.8 247.272 339.936 247.864 338.856 248.568C333.206 252.223 327.145 255.2 320.8 257.44C319.584 257.864 318.592 258.184 317.896 258.384C317.544 258.512 317.179 258.603 316.808 258.656C317.141 258.483 317.489 258.342 317.848 258.232L320.704 257.168C323.104 256.248 326.392 254.888 329.912 253.168C333.432 251.448 336.52 249.672 338.712 248.328L341.304 246.728C341.602 246.505 341.92 246.312 342.256 246.152Z" fill="white"/>
<path d="M358.192 291.608C357.775 291.844 357.342 292.05 356.896 292.224C356.056 292.6 354.808 293.096 353.256 293.664C345.143 296.619 336.626 298.313 328 298.688C326.344 298.76 325.008 298.776 324.08 298.744C323.602 298.755 323.123 298.733 322.648 298.68C323.122 298.608 323.601 298.576 324.08 298.584C325 298.584 326.336 298.504 327.984 298.392C332.269 298.12 336.531 297.567 340.744 296.736C344.953 295.89 349.103 294.773 353.168 293.392C354.728 292.856 355.984 292.4 356.848 292.072C357.282 291.879 357.732 291.724 358.192 291.608Z" fill="white"/>
<path d="M335.2 364.312C335.194 364.162 335.207 364.011 335.24 363.864C335.288 363.536 335.36 363.12 335.44 362.608C335.52 362.096 335.64 361.392 335.72 360.608C335.8 359.824 335.936 358.944 335.968 357.952C335.968 357.464 336.032 356.944 336.064 356.408C336.096 355.872 336.064 355.304 336.064 354.728C336.064 353.568 336.016 352.328 335.952 351.024C335.742 348.2 335.311 345.397 334.664 342.64C333.985 339.89 333.094 337.197 332 334.584C331.456 333.4 330.968 332.256 330.4 331.24C330.128 330.728 329.88 330.224 329.6 329.752L328.8 328.424C328.312 327.56 327.784 326.824 327.36 326.176C326.936 325.528 326.56 324.968 326.2 324.528L325.448 323.496C325.351 323.382 325.271 323.256 325.208 323.12C325.319 323.217 325.421 323.324 325.512 323.44L326.312 324.432C326.748 324.944 327.156 325.478 327.536 326.032C327.984 326.68 328.528 327.4 329.032 328.256L329.832 329.584C330.112 330.048 330.368 330.56 330.632 331.072C331.208 332.088 331.72 333.232 332.232 334.424C334.537 339.666 335.891 345.276 336.232 350.992C336.28 352.304 336.352 353.552 336.304 354.72C336.304 355.304 336.304 355.872 336.256 356.416C336.208 356.96 336.176 357.472 336.136 357.968C336.08 358.968 335.92 359.848 335.816 360.632C335.712 361.416 335.592 362.088 335.472 362.624C335.352 363.16 335.264 363.544 335.192 363.88C335.21 364.023 335.213 364.168 335.2 364.312Z" fill="white"/>
<path d="M366.064 339.792C366.024 339.792 366 339.136 365.816 337.984C365.533 336.357 364.993 334.785 364.216 333.328C363.077 331.164 361.544 329.232 359.696 327.632C357.444 325.656 354.834 324.13 352.008 323.136C349.165 322.186 346.196 321.669 343.2 321.6C340.748 321.532 338.295 321.625 335.856 321.88C333.768 322.072 332.08 322.288 330.912 322.416L329.568 322.56C329.411 322.581 329.253 322.581 329.096 322.56C329.243 322.506 329.396 322.471 329.552 322.456L330.888 322.232C332.048 322.048 333.736 321.8 335.824 321.56C338.277 321.268 340.746 321.145 343.216 321.192C346.253 321.252 349.263 321.773 352.144 322.736C355.019 323.754 357.671 325.319 359.952 327.344C361.821 328.986 363.359 330.971 364.48 333.192C365.239 334.696 365.734 336.32 365.944 337.992C366.007 338.443 366.039 338.897 366.04 339.352C366.064 339.497 366.072 339.645 366.064 339.792Z" fill="white"/>
<path d="M280 316.632C279.852 316.677 279.699 316.704 279.544 316.712L278.24 316.848L273.44 317.248C269.384 317.56 263.776 317.944 257.584 318.264C251.392 318.584 245.768 318.784 241.696 318.832C239.664 318.832 238.016 318.832 236.896 318.832H235.592C235.438 318.837 235.285 318.821 235.136 318.784C235.286 318.753 235.439 318.74 235.592 318.744H236.896L241.696 318.624C245.752 318.504 251.368 318.264 257.56 317.936L273.416 317.04L278.216 316.768L279.528 316.712C279.681 316.665 279.84 316.638 280 316.632Z" fill="white"/>
<g opacity="0.3">
<path d="M284.648 318.296C289.688 319.776 296.648 320.136 301.584 318.296C297.744 323.76 290.328 325.736 283.888 323.96C277.448 322.184 271.52 315.744 271.024 309.08C274.144 313.28 279.608 316.8 284.648 318.296Z" fill="black"/>
</g>
<path d="M325.52 313.024C325.387 313.073 325.251 313.11 325.112 313.136L323.952 313.384C322.936 313.592 321.472 313.864 319.648 314.184C316.008 314.824 310.96 315.608 305.368 316.296C299.776 316.984 294.68 317.432 290.968 317.688C289.128 317.816 287.632 317.904 286.6 317.944L285.416 317.984C285.278 318.007 285.138 318.007 285 317.984C285.134 317.95 285.27 317.928 285.408 317.92L286.592 317.8L290.944 317.408C294.624 317.08 299.696 316.608 305.296 315.896C310.896 315.184 315.928 314.472 319.576 313.912L323.896 313.24L325.08 313.072C325.223 313.03 325.372 313.014 325.52 313.024Z" fill="white"/>
<g opacity="0.3">
<path d="M317.136 277.408C315.872 291.888 319.816 306.256 323.728 320.256C323.902 321.126 324.268 321.946 324.8 322.656C325.075 323.011 325.457 323.267 325.89 323.387C326.322 323.507 326.782 323.483 327.2 323.32C328.424 322.696 328.256 320.92 327.912 319.608L317.04 278.008" fill="black"/>
</g>
<path d="M114.576 291.832L131.016 372.552H273.736C274.491 372.552 275.216 372.252 275.75 371.718C276.284 371.184 276.584 370.459 276.584 369.704C276.584 368.949 276.284 368.224 275.75 367.69C275.216 367.156 274.491 366.856 273.736 366.856H245L229.76 291.784C229.617 291.085 229.239 290.456 228.689 290.002C228.139 289.547 227.449 289.296 226.736 289.288L117.664 288.096C117.199 288.09 116.739 288.189 116.317 288.384C115.895 288.579 115.522 288.867 115.226 289.225C114.93 289.584 114.718 290.004 114.605 290.455C114.493 290.906 114.483 291.377 114.576 291.832Z" fill="#E0E0E0"/>
<path d="M114.576 291.832C114.555 291.753 114.539 291.673 114.528 291.592C114.497 291.348 114.497 291.1 114.528 290.856C114.584 290.374 114.75 289.911 115.012 289.502C115.274 289.093 115.625 288.749 116.04 288.496C116.332 288.322 116.651 288.198 116.984 288.128C117.353 288.059 117.729 288.035 118.104 288.056H120.672L127.072 288.112L168.312 288.504L197.064 288.792L213.176 288.96L221.624 289.048L225.936 289.088C226.304 289.088 226.648 289.088 227.04 289.088C227.424 289.126 227.799 289.234 228.144 289.408C228.858 289.743 229.426 290.326 229.744 291.048C229.883 291.401 229.983 291.769 230.04 292.144L230.264 293.232C230.408 293.952 230.56 294.68 230.704 295.408C231.008 296.872 231.304 298.344 231.608 299.816L233.432 308.8C234.664 314.853 235.923 321.048 237.208 327.384C239.784 340.04 242.464 353.2 245.208 366.768L245.016 366.608H273.272C273.644 366.59 274.017 366.612 274.384 366.672C275.149 366.861 275.814 367.337 276.24 368C276.483 368.353 276.648 368.752 276.727 369.173C276.805 369.594 276.794 370.027 276.694 370.443C276.595 370.859 276.409 371.25 276.149 371.59C275.889 371.93 275.56 372.211 275.184 372.416C274.77 372.639 274.31 372.763 273.84 372.776H236.664H198.024H131.016H130.896V372.656C125.864 347.856 121.776 327.664 118.944 313.68C117.544 306.688 116.448 301.248 115.704 297.552C115.336 295.704 115.056 294.296 114.904 293.344C114.752 292.392 114.64 291.904 114.64 291.904C114.64 291.904 114.752 292.392 114.952 293.336L115.832 297.528C116.592 301.224 117.712 306.664 119.152 313.64L131.232 372.6L131.08 372.472H198.088H273.896C274.304 372.456 274.703 372.35 275.064 372.16C275.391 371.981 275.676 371.735 275.902 371.438C276.128 371.142 276.289 370.801 276.375 370.439C276.461 370.076 276.47 369.699 276.401 369.333C276.332 368.967 276.187 368.619 275.976 368.312C275.6 367.761 275.028 367.374 274.376 367.232C274.035 367.178 273.689 367.156 273.344 367.168H244.84V367.016C242.088 353.416 239.424 340.28 236.84 327.624C235.555 321.299 234.299 315.104 233.072 309.04L231.2 299.936C230.904 298.456 230.608 296.992 230.312 295.528C230.16 294.8 230.016 294.072 229.864 293.344L229.648 292.264C229.596 291.91 229.502 291.564 229.368 291.232C229.1 290.595 228.616 290.073 228 289.76C227.691 289.608 227.358 289.51 227.016 289.472C226.68 289.472 226.296 289.472 225.944 289.472L221.624 289.424L213.176 289.328L197.072 289.136L168.32 288.8L127.08 288.296L120.68 288.208L118.112 288.168C117.743 288.145 117.373 288.164 117.008 288.224C116.685 288.296 116.374 288.418 116.088 288.584C115.676 288.826 115.325 289.16 115.063 289.56C114.801 289.959 114.634 290.414 114.576 290.888C114.536 291.201 114.536 291.519 114.576 291.832Z" fill="#263238"/>
<path d="M180.336 328.8C180.336 329.732 180.06 330.643 179.542 331.418C179.024 332.193 178.288 332.797 177.427 333.153C176.566 333.51 175.619 333.603 174.705 333.421C173.791 333.24 172.951 332.791 172.292 332.132C171.633 331.473 171.184 330.633 171.002 329.719C170.821 328.805 170.914 327.858 171.271 326.997C171.627 326.136 172.231 325.4 173.006 324.882C173.781 324.364 174.692 324.088 175.624 324.088C176.874 324.088 178.072 324.584 178.956 325.468C179.839 326.352 180.336 327.55 180.336 328.8Z" fill="white"/>
<path d="M114.704 292.488C114.704 292.488 114.872 292.488 115.2 292.488H122.192L142.6 292.584L209.92 293.056L219.656 293.136H222.056C222.465 293.117 222.876 293.141 223.28 293.208C223.69 293.288 224.081 293.446 224.432 293.672C225.145 294.122 225.662 294.825 225.88 295.64C226.064 296.44 226.192 297.176 226.352 297.944C227.56 304.024 228.752 309.888 229.832 315.472C232.04 326.672 234.032 336.712 235.696 345.168L239.624 365.168C240.072 367.528 240.424 369.36 240.672 370.616C240.784 371.232 240.872 371.704 240.936 372.04C241 372.376 241.008 372.52 241.008 372.52C241.008 372.52 240.96 372.36 240.896 372.048C240.832 371.736 240.72 371.248 240.592 370.632C240.336 369.376 239.96 367.552 239.472 365.2C238.512 360.464 237.136 353.632 235.424 345.2L229.472 315.52C228.36 309.92 227.184 304.072 225.976 297.992C225.816 297.24 225.672 296.456 225.512 295.72C225.313 295.001 224.854 294.383 224.224 293.984C223.909 293.793 223.562 293.663 223.2 293.6C222.822 293.538 222.438 293.516 222.056 293.536H219.656L209.92 293.464L142.592 292.872L122.192 292.648L116.64 292.568H115.2L114.704 292.488Z" fill="#263238"/>
<path d="M305.304 169.896C305.469 177.36 304.051 184.773 301.144 191.65C298.238 198.526 293.908 204.709 288.44 209.792C285.917 202.512 283.403 195.232 280.896 187.952" fill="#263238"/>
<path d="M248.472 126.456C254.944 122.92 262.76 122.408 269.992 123.856C277.224 125.304 283.96 128.576 290.344 132.272C293.928 134.344 297.496 136.624 300.072 139.856C304.768 145.768 309.416 155.48 309.864 163.056C310.232 169.152 307.896 184.408 305.32 189.944C302.96 195.024 291.896 198.896 286.432 200.152L236.32 141.832C237.226 138.592 238.766 135.564 240.853 132.924C242.939 130.285 245.529 128.086 248.472 126.456Z" fill="#263238"/>
<path d="M239.832 134.312L251.832 132.168C245.264 147.808 243.48 183.568 239.728 200.112C235.296 193.712 225.016 174.112 225.568 166.328C226.12 158.544 225.6 132.992 239.832 134.312Z" fill="#263238"/>
<path d="M296.8 160.344C296.152 151.208 290.232 143.72 281.36 141.456L253.688 134.4C241.736 133.112 233.752 147.816 232.968 159.816C232.096 173.152 231.56 187.216 233.12 197.168C236.248 217.168 251.576 219.76 251.576 219.76C251.576 219.76 251.576 229.28 251.576 235.12L260.832 273.448L290.664 232.232L296.84 160.6C296.864 160.248 296.8 160.8 296.8 160.344Z" fill="#FFBE9D"/>
<path d="M238.976 174.928C238.969 175.597 239.224 176.242 239.685 176.726C240.147 177.21 240.779 177.495 241.448 177.52C241.774 177.546 242.103 177.507 242.414 177.404C242.725 177.301 243.012 177.137 243.259 176.922C243.506 176.706 243.707 176.444 243.851 176.15C243.994 175.855 244.078 175.535 244.096 175.208C244.103 174.54 243.849 173.896 243.389 173.413C242.929 172.929 242.299 172.643 241.632 172.616C241.305 172.589 240.976 172.627 240.664 172.73C240.352 172.832 240.063 172.996 239.816 173.211C239.568 173.427 239.366 173.69 239.222 173.985C239.078 174.279 238.994 174.6 238.976 174.928Z" fill="#263238"/>
<path d="M236 167.648C236.32 167.984 238.264 166.552 241.024 166.56C243.784 166.568 245.824 167.96 246.104 167.624C246.256 167.472 245.928 166.872 245.048 166.224C243.856 165.394 242.436 164.953 240.984 164.96C239.549 164.955 238.149 165.403 236.984 166.24C236.104 166.896 235.816 167.496 236 167.648Z" fill="#263238"/>
<path d="M263.04 174.928C263.033 175.597 263.288 176.242 263.749 176.726C264.211 177.21 264.843 177.495 265.512 177.52C265.839 177.547 266.169 177.508 266.481 177.405C266.793 177.303 267.081 177.138 267.328 176.922C267.575 176.705 267.776 176.441 267.919 176.145C268.062 175.85 268.144 175.528 268.16 175.2C268.167 174.532 267.913 173.888 267.453 173.405C266.993 172.921 266.363 172.635 265.696 172.608C265.368 172.581 265.038 172.62 264.726 172.722C264.413 172.825 264.125 172.989 263.877 173.206C263.629 173.422 263.427 173.686 263.284 173.982C263.14 174.278 263.057 174.6 263.04 174.928Z" fill="#263238"/>
<path d="M262.184 167.648C262.504 167.984 264.456 166.552 267.216 166.56C269.976 166.568 272.016 167.96 272.296 167.624C272.44 167.472 272.12 166.872 271.24 166.224C270.053 165.402 268.644 164.961 267.2 164.96C265.765 164.958 264.366 165.405 263.2 166.24C262.32 166.896 262.032 167.496 262.184 167.648Z" fill="#263238"/>
<path d="M253.6 189.328C253.6 189.176 251.896 188.872 249.112 188.528C248.408 188.456 247.744 188.312 247.624 187.832C247.566 187.103 247.733 186.374 248.104 185.744C248.77 184.043 249.469 182.253 250.2 180.376C253.112 172.744 255.216 166.464 254.912 166.352C254.608 166.24 251.992 172.328 249.08 179.952C248.376 181.829 247.706 183.627 247.072 185.344C246.626 186.194 246.493 187.174 246.696 188.112C246.797 188.361 246.955 188.584 247.156 188.763C247.357 188.942 247.596 189.072 247.856 189.144C248.243 189.256 248.645 189.312 249.048 189.312C251.808 189.472 253.544 189.488 253.6 189.328Z" fill="#263238"/>
<path d="M278.112 212.632C278.112 212.632 271.6 226.4 251.584 224.456V219.752C260.915 219.88 270.099 217.416 278.112 212.632Z" fill="#EB996E"/>
<path d="M263.056 157.672C263.328 158.424 266.08 158.072 269.32 158.472C272.56 158.872 275.176 159.76 275.608 159.088C275.8 158.76 275.344 158.056 274.288 157.328C272.886 156.43 271.29 155.881 269.632 155.728C267.976 155.526 266.296 155.717 264.728 156.288C263.536 156.728 262.936 157.312 263.056 157.672Z" fill="#263238"/>
<path d="M236.872 159.2C237.352 159.832 239.272 159.2 241.544 159.16C243.816 159.12 245.768 159.592 246.216 158.936C246.408 158.616 246.104 157.992 245.264 157.392C244.128 156.68 242.807 156.321 241.467 156.359C240.127 156.398 238.829 156.832 237.736 157.608C236.92 158.248 236.656 158.896 236.872 159.2Z" fill="#263238"/>
<path d="M238.4 141.536C239.624 138.528 242.928 136.736 246.168 136.56C249.408 136.384 252.568 137.624 255.4 139.248C267.312 146.136 273.44 162.768 285.208 169.896C288.104 171.648 291.872 170.04 294.336 172.36C296.8 174.68 298.392 178.392 297.032 181.488C298.718 179.394 300.095 177.069 301.12 174.584C302.016 172.048 302.128 169.112 300.784 166.784C299.768 165.016 297.968 163.672 297.48 161.696C297.04 159.952 297.728 158.136 297.656 156.344C297.452 154.523 296.825 152.775 295.824 151.24C291.208 143.088 284.864 135.712 276.696 131.12C271.363 128.041 265.293 126.473 259.136 126.584C252.944 126.723 247.006 129.076 242.4 133.216C239.768 135.672 237 138.208 238.4 141.536Z" fill="#263238"/>
<path d="M294.048 174.84C294.256 174.264 304.696 170.504 304.832 181.592C304.968 192.368 294.096 190.248 294.072 189.936C294.048 189.624 294.048 174.84 294.048 174.84Z" fill="#FFBE9D"/>
<path d="M297.36 185.824C297.408 185.824 297.544 185.952 297.864 186.096C298.316 186.276 298.82 186.276 299.272 186.096C300.4 185.672 301.344 183.848 301.376 181.912C301.398 180.987 301.212 180.068 300.832 179.224C300.725 178.889 300.54 178.584 300.29 178.337C300.041 178.089 299.735 177.905 299.4 177.8C299.185 177.744 298.958 177.766 298.757 177.861C298.557 177.956 298.396 178.118 298.304 178.32C298.16 178.624 298.232 178.84 298.168 178.856C298.104 178.872 297.936 178.68 298.024 178.232C298.083 177.967 298.229 177.731 298.44 177.56C298.584 177.446 298.75 177.362 298.927 177.313C299.104 177.263 299.289 177.249 299.472 177.272C299.916 177.355 300.331 177.55 300.677 177.841C301.023 178.131 301.289 178.505 301.448 178.928C301.919 179.854 302.152 180.882 302.128 181.92C302.08 184.096 300.992 186.136 299.432 186.6C299.145 186.687 298.842 186.709 298.546 186.663C298.249 186.617 297.967 186.506 297.72 186.336C297.376 186.088 297.32 185.848 297.36 185.824Z" fill="#EB996E"/>
<path d="M298.336 169.304C298.11 169.203 297.893 169.083 297.688 168.944C297.272 168.68 296.632 168.328 295.88 167.792C293.755 166.24 291.803 164.464 290.056 162.496C287.515 159.551 285.14 156.466 282.944 153.256C280.298 149.322 277.324 145.618 274.056 142.184C272.311 140.468 270.385 138.947 268.312 137.648C266.369 136.463 264.29 135.518 262.12 134.832C258.437 133.65 254.563 133.175 250.704 133.432C248.1 133.591 245.528 134.094 243.056 134.928C242.168 135.2 241.512 135.496 241.056 135.672C240.829 135.776 240.594 135.859 240.352 135.92C240.565 135.792 240.787 135.68 241.016 135.584C241.657 135.277 242.317 135.01 242.992 134.784C245.462 133.865 248.051 133.304 250.68 133.12C254.585 132.8 258.515 133.235 262.256 134.4C264.468 135.082 266.588 136.033 268.568 137.232C270.672 138.55 272.628 140.093 274.4 141.832C277.689 145.3 280.671 149.048 283.312 153.032C285.485 156.242 287.824 159.337 290.32 162.304C292.032 164.276 293.931 166.076 295.992 167.68C296.728 168.232 297.344 168.608 297.736 168.896C297.947 169.015 298.147 169.152 298.336 169.304Z" fill="#455A64"/>
<path d="M298.584 187.728C299.114 187.63 299.662 187.738 300.116 188.03C300.569 188.322 300.894 188.776 301.025 189.299C301.156 189.822 301.082 190.376 300.819 190.846C300.556 191.317 300.124 191.67 299.61 191.833C299.096 191.997 298.539 191.958 298.052 191.725C297.566 191.492 297.187 191.082 296.992 190.579C296.797 190.076 296.801 189.518 297.003 189.018C297.205 188.518 297.59 188.114 298.08 187.888" fill="white"/>
<path d="M298.08 187.888C297.618 188.261 297.28 188.766 297.112 189.336C297.035 189.63 297.033 189.938 297.106 190.233C297.179 190.528 297.324 190.799 297.528 191.024C297.768 191.308 298.087 191.514 298.445 191.617C298.802 191.72 299.182 191.715 299.536 191.603C299.891 191.491 300.205 191.277 300.438 190.988C300.671 190.698 300.814 190.346 300.848 189.976C300.881 189.677 300.839 189.375 300.728 189.096C300.616 188.817 300.438 188.57 300.208 188.376C299.751 188.01 299.192 187.792 298.608 187.752C298.608 187.752 298.768 187.64 299.112 187.632C299.6 187.636 300.073 187.802 300.456 188.104C300.756 188.326 300.992 188.622 301.144 188.962C301.295 189.303 301.356 189.677 301.32 190.048C301.29 190.512 301.12 190.956 300.833 191.322C300.547 191.689 300.156 191.96 299.713 192.101C299.27 192.241 298.794 192.245 298.349 192.112C297.903 191.978 297.509 191.713 297.216 191.352C296.974 191.07 296.808 190.731 296.735 190.367C296.662 190.002 296.685 189.625 296.8 189.272C296.927 188.806 297.209 188.397 297.6 188.112C297.88 187.896 298.072 187.864 298.08 187.888Z" fill="#263238"/>
<path d="M295.624 172.352C295.792 175.296 295.928 178.4 294.568 181.016C293.208 183.632 289.768 185.416 287.224 183.952C285.136 182.76 284.512 180.08 284.152 177.704C283.136 170.84 282.664 163.904 281.584 157.048L295.624 172.352Z" fill="#263238"/>
<path d="M241.056 136.416C241.056 136.472 242.008 136.232 243.728 136.176C246.169 136.139 248.594 136.582 250.864 137.48C252.43 138.086 253.926 138.859 255.328 139.784C256.934 140.862 258.473 142.038 259.936 143.304C263.325 146.171 266.355 149.437 268.96 153.032C270.328 154.952 271.544 156.928 272.856 158.76C274.102 160.541 275.552 162.171 277.176 163.616C279.97 165.984 283.024 168.026 286.28 169.704C289.04 171.16 291.344 172.184 292.936 172.904L294.776 173.704C294.988 173.808 295.211 173.888 295.44 173.944C295.251 173.807 295.047 173.691 294.832 173.6L293.032 172.712C291.432 171.912 289.2 170.856 286.488 169.36C283.291 167.639 280.292 165.573 277.544 163.2C275.958 161.77 274.546 160.159 273.336 158.4C272.048 156.592 270.84 154.616 269.456 152.672C266.823 149.039 263.749 145.747 260.304 142.872C258.81 141.602 257.239 140.427 255.6 139.352C254.16 138.427 252.622 137.663 251.016 137.072C248.689 136.19 246.204 135.803 243.72 135.936C243.049 135.975 242.383 136.069 241.728 136.216C241.496 136.252 241.27 136.319 241.056 136.416Z" fill="#455A64"/>
<path d="M295.92 165.696C296.211 165.946 296.531 166.161 296.872 166.336L299.608 167.936L300.52 168.456C300.88 168.674 301.285 168.808 301.704 168.848C301.959 168.876 302.215 168.816 302.432 168.68C302.548 168.599 302.644 168.493 302.713 168.369C302.782 168.246 302.823 168.109 302.832 167.968C302.808 167.474 302.632 166.998 302.328 166.608L299.128 161.536L298.696 161.928C300.808 163.484 303.396 164.256 306.016 164.112C306.351 164.109 306.683 164.053 307 163.944C307.177 163.886 307.34 163.791 307.478 163.666C307.616 163.54 307.726 163.387 307.8 163.216C307.861 163.034 307.877 162.839 307.845 162.649C307.812 162.459 307.734 162.28 307.616 162.128C307.438 161.883 307.234 161.658 307.008 161.456C305.585 160.081 304.35 158.523 303.336 156.824C302.441 155.228 301.661 153.57 301 151.864C301.05 152.36 301.166 152.847 301.344 153.312C301.747 154.607 302.283 155.856 302.944 157.04C303.927 158.804 305.155 160.42 306.592 161.84C306.992 162.224 307.392 162.64 307.24 163C307.088 163.36 306.496 163.512 305.928 163.512C304.696 163.574 303.462 163.425 302.28 163.072C301.102 162.726 299.991 162.185 298.992 161.472L297.712 160.528L298.568 161.864L301.768 166.896C302.018 167.197 302.176 167.564 302.224 167.952C302.224 168.256 301.952 168.432 301.608 168.408C300.916 168.272 300.258 168 299.672 167.608L296.856 166.168C296.561 165.978 296.248 165.82 295.92 165.696Z" fill="#455A64"/>
<path d="M264.056 194.4C263.855 193.58 263.372 192.857 262.693 192.357C262.013 191.857 261.178 191.612 260.336 191.664C259.721 191.739 259.134 191.967 258.628 192.326C258.123 192.685 257.714 193.164 257.44 193.72C257.172 194.279 257.019 194.887 256.99 195.507C256.961 196.127 257.057 196.746 257.272 197.328L257.336 197.584C257.911 198.203 258.662 198.63 259.488 198.806C260.315 198.982 261.175 198.899 261.952 198.568C262.713 198.202 263.332 197.595 263.712 196.841C264.093 196.088 264.213 195.229 264.056 194.4Z" fill="#EB996E"/>
<path d="M255.328 197.664C255.328 197.248 258.12 197.376 260.224 195.088C262.328 192.8 262.16 189.808 262.552 189.808C262.728 189.808 263.064 190.496 263.032 191.76C262.975 193.393 262.343 194.954 261.248 196.168C260.192 197.335 258.723 198.047 257.152 198.152C256 198.2 255.304 197.856 255.328 197.664Z" fill="#263238"/>
<path d="M349.376 367.2C349.315 367.208 349.253 367.208 349.192 367.2L348.632 367.256L346.496 367.432C344.64 367.584 341.952 367.76 338.624 367.96C331.976 368.352 322.784 368.76 312.624 368.928C302.464 369.096 293.248 369 286.592 368.824C283.264 368.744 280.568 368.648 278.712 368.568L276.568 368.456H278.712L286.6 368.592C293.256 368.688 302.456 368.736 312.616 368.592C322.776 368.448 331.96 368.064 338.608 367.744L346.488 367.352L348.632 367.256H349.184L349.376 367.2Z" fill="white"/>
</svg>
