<svg height="21" viewBox="0 0 450 450" width="21" xmlns="http://www.w3.org/2000/svg">
<g id="_x32_813_-_Workout"><g><g id="XMLID_1_"><g><g>
<path d="m162 329.4h116.1v66.4h-116.1z" fill="#ff7cb9"/></g><g>
<path d="m291.5 265.8v50.1c0 7.4-6 13.4-13.4 13.4h-116.1c-7.4 0-13.4-6-13.4-13.4v-50.1c0-7.4 6-13.4 13.4-13.4h7.1 103 6c7.4 0 13.4 6 13.4 13.4z" fill="#fc5197"/></g><g>
<path d="m297.2 126.2v2.9c0 8.3-6.8 15.1-15.1 15.1s-15.1-6.8-15.1-15.2v-2.9-21.2c0-4.2 1.7-7.9 4.4-10.7 2.7-2.7 6.5-4.4 10.7-4.4 8.3 0 15.1 6.8 15.1 15.1z" fill="#fb9"/></g><g>
<path d="m230.9 126.2v-2.8-26.1c0-5 2-9.5 5.3-12.8s7.8-5.3 12.8-5.3c10 0 18 8.1 18 18v7.6 21.2c0 10-8.1 18-18 18-10 .1-18.1-7.9-18.1-17.8z" fill="#fb9"/></g><g>
<path d="m183.7 173.2h113c2.7 23-5.7 46.8-24.6 63.1v16.1h-103v-16.1l-8.7-7.5c-11.1-9.6-17.5-23.6-17.5-38.3v-17.3-3.1c0-11.3 9.1-20.4 20.4-20.4 5.6 0 10.7 2.3 14.4 6s6 8.8 6 14.4z" fill="#ffd9b3"/></g><g>
<path d="m230.9 97.3v26.2c0 .9-.1 1.9-.2 2.8-1.3 10.1-10 18-20.5 18s-19.2-7.8-20.5-18c-.1-.9-.2-1.8-.2-2.8v-27-6.2c0-5.7 2.3-10.9 6.1-14.7s8.9-6.1 14.6-6.1c11.4 0 20.7 9.3 20.7 20.7z" fill="#fb9"/></g><g>
<path d="m189.5 123.4v2.4.4c-.2 10-8.3 18-18.3 18s-18.1-8-18.3-18c0-.1 0-.2 0-.4v-29.3c0-5.1 2.1-9.6 5.4-13 3.3-3.3 7.9-5.4 13-5.4 10.1 0 18.3 8.2 18.3 18.3z" fill="#fb9"/></g><g>
<path d="m73.8 89.3v120.9c0 9.6-7.8 17.5-17.5 17.5h-3.7c-9.7 0-17.5-7.8-17.5-17.5v-31.5-57.8-31.6c0-9.7 7.8-17.5 17.5-17.5h3.7c9.7 0 17.5 7.8 17.5 17.5z" fill="#007485"/></g><g>
<path d="m414.9 178.6v31.5c0 9.6-7.8 17.5-17.5 17.5h-3.7c-9.6 0-17.5-7.8-17.5-17.5v-120.8c0-9.7 7.8-17.5 17.5-17.5h3.7c9.6 0 17.5 7.8 17.5 17.5v31.5z" fill="#007485"/></g><g>
<path d="m376.2 210.1v15.7c0 10.7-8.7 19.4-19.3 19.4-5.3 0-10.2-2.2-13.7-5.7s-5.7-8.3-5.7-13.7v-52.7-47-52.6c0-10.7 8.6-19.3 19.3-19.3 5.3 0 10.2 2.2 13.7 5.7s5.7 8.3 5.7 13.7v15.7z" fill="#008093"/></g><g>
<path d="m112.5 173.2v52.7c0 10.7-8.6 19.4-19.3 19.4-5.3 0-10.2-2.2-13.7-5.7s-5.7-8.3-5.7-13.7v-15.7-120.9-15.8c0-10.7 8.7-19.3 19.3-19.3 5.3 0 10.2 2.2 13.7 5.7s5.7 8.3 5.7 13.7v52.7z" fill="#008093"/></g><g>
<path d="m35.1 120.8v57.8h-16.2c-4.9 0-8.9-4-8.9-8.9v-40c0-4.9 4-8.9 8.9-8.9z" fill="#008093"/></g><g>
<path d="m440 129.7v40c0 4.9-4 8.9-8.9 8.9h-16.2v-57.8h16.2c4.9 0 8.9 4 8.9 8.9z" fill="#008093"/></g><g>
<path d="m230.7 126.2h.2c0 9.9 8.1 18 18 18 10 0 18-8.1 18-18v2.9c0 8.3 6.8 15.1 15.1 15.1s15.1-6.8 15.1-15.1v-2.9h10.6 29.7v47h-18.9-12-9.9-113v-3.1c0-5.6-2.3-10.7-6-14.4s-8.8-6-14.4-6c-11.3 0-20.4 9.1-20.4 20.4v3.1h-12.1-18.4v-47h40.4c.2 10 8.3 18 18.3 18s18.1-8 18.3-18h.2c1.3 10.1 10 18 20.5 18s19.4-7.9 20.7-18z" fill="#f4f6fa"/></g></g><g><g>
<path d="m183.7 195.5c-2.8 0-5-2.2-5-5v-20.4c0-4.1-1.6-8-4.5-10.9s-6.8-4.5-10.9-4.5c-8.5 0-15.4 6.9-15.4 15.4v20.4c0 2.8-2.2 5-5 5s-5-2.2-5-5v-20.4c0-14 11.4-25.4 25.4-25.4 6.8 0 13.2 2.6 18 7.4s7.4 11.2 7.4 17.9v20.4c0 2.8-2.2 5.1-5 5.1z"/></g><g>
<path d="m169.1 257.4c-2.8 0-5-2.2-5-5v-13.8l-6.9-6c-12.2-10.6-19.2-25.9-19.2-42.1 0-2.8 2.2-5 5-5s5 2.2 5 5c0 13.3 5.8 25.8 15.8 34.5l8.7 7.5c1.1.9 1.7 2.3 1.7 3.8v16.1c-.1 2.7-2.3 5-5.1 5z"/></g><g>
<path d="m272.1 257.4c-2.8 0-5-2.2-5-5v-16.1c0-1.5.6-2.8 1.7-3.8 16.9-14.6 25.5-36.5 22.9-58.7-.3-2.7 1.6-5.2 4.4-5.6 2.8-.3 5.2 1.6 5.6 4.4 2.9 24.7-6.2 49.2-24.5 65.9v13.9c-.1 2.7-2.3 5-5.1 5z"/></g><g>
<path d="m93.1 250.2c-6.5 0-12.6-2.5-17.2-7.1s-7.1-10.7-7.1-17.2v-152.4c0-13.4 10.9-24.3 24.3-24.3 6.5 0 12.6 2.5 17.2 7.1s7.1 10.7 7.1 17.2v152.3c.1 13.5-10.9 24.4-24.3 24.4zm0-191c-7.9 0-14.3 6.4-14.3 14.3v152.3c0 3.8 1.5 7.4 4.2 10.1s6.3 4.2 10.1 4.2c7.9 0 14.3-6.4 14.3-14.4v-152.2c0-3.8-1.5-7.4-4.2-10.1-2.6-2.7-6.2-4.2-10.1-4.2z"/></g><g>
<path d="m56.3 232.6h-3.7c-12.4 0-22.5-10.1-22.5-22.5v-120.8c0-12.4 10.1-22.5 22.5-22.5h3.7c12.4 0 22.5 10.1 22.5 22.5 0 2.8-2.2 5-5 5s-5-2.2-5-5c0-6.9-5.6-12.5-12.5-12.5h-3.7c-6.9 0-12.5 5.6-12.5 12.5v120.9c0 6.9 5.6 12.5 12.5 12.5h3.7c6.9 0 12.5-5.6 12.5-12.5 0-2.8 2.2-5 5-5s5 2.2 5 5c0 12.3-10.1 22.4-22.5 22.4z"/></g><g>
<path d="m356.9 250.2c-6.5 0-12.6-2.5-17.2-7.1s-7.1-10.7-7.1-17.2v-152.4c0-13.4 10.9-24.3 24.3-24.3 6.5 0 12.6 2.5 17.2 7.1s7.1 10.7 7.1 17.2v152.3c0 13.5-10.9 24.4-24.3 24.4zm0-191c-7.9 0-14.3 6.4-14.3 14.3v152.3c0 3.8 1.5 7.4 4.2 10.1s6.3 4.2 10.1 4.2c7.9 0 14.3-6.4 14.3-14.4v-152.2c0-3.8-1.5-7.4-4.2-10.1s-6.3-4.2-10.1-4.2z"/></g><g><path d="m397.4 232.6h-3.7c-12.4 0-22.5-10.1-22.5-22.5 0-2.8 2.2-5 5-5s5 2.2 5 5c0 6.9 5.6 12.5 12.5 12.5h3.7c6.9 0 12.5-5.6 12.5-12.5v-120.8c0-6.9-5.6-12.5-12.5-12.5h-3.7c-6.9 0-12.5 5.6-12.5 12.5 0 2.8-2.2 5-5 5s-5-2.2-5-5c0-12.4 10.1-22.5 22.5-22.5h3.7c12.4 0 22.5 10.1 22.5 22.5v120.9c0 12.3-10.1 22.4-22.5 22.4z"/></g><g><path d="m278.1 334.4h-116.1c-10.2 0-18.4-8.3-18.4-18.4v-50.1c0-10.2 8.3-18.4 18.4-18.4h116.1c10.2 0 18.4 8.3 18.4 18.4v50.1c0 10.1-8.2 18.4-18.4 18.4zm-116.1-77c-4.6 0-8.4 3.8-8.4 8.4v50.1c0 4.7 3.8 8.4 8.4 8.4h116.1c4.6 0 8.4-3.8 8.4-8.4v-50.1c0-4.6-3.8-8.4-8.4-8.4z"/></g><g><path d="m278.1 400.8h-116.1c-2.8 0-5-2.2-5-5v-66.4c0-2.8 2.2-5 5-5s5 2.2 5 5v61.4h106.1v-61.4c0-2.8 2.2-5 5-5s5 2.2 5 5v66.4c0 2.8-2.2 5-5 5z"/></g><g><path d="m189.5 131.2c-2.8 0-5-2.2-5-5s2.2-5 5-5 5 2.2 5 5-2.3 5-5 5z"/></g><g><path d="m189.7 131.2h-.2c-2.8 0-5-2.2-5-5s2.2-5 5-5h.2c2.8 0 5 2.2 5 5s-2.3 5-5 5z"/></g><g><path d="m337.5 131.2h-40.4c-2.8 0-5-2.2-5-5s2.2-5 5-5h40.4c2.8 0 5 2.2 5 5s-2.2 5-5 5z"/></g><g><path d="m230.7 131.2c-2.8 0-5-2.2-5-5s2.2-5 5-5 5 2.2 5 5-2.2 5-5 5z"/></g><g><path d="m230.9 131.2c-2.8 0-5-2.2-5-5s2.2-5 5-5 5 2.2 5 5-2.2 5-5 5z"/></g><g><path d="m152.8 131.2h-40.4c-2.8 0-5-2.2-5-5s2.2-5 5-5h40.4c2.8 0 5 2.2 5 5s-2.2 5-5 5z"/></g><g><path d="m337.5 178.2h-153.8c-2.8 0-5-2.2-5-5s2.2-5 5-5h153.8c2.8 0 5 2.2 5 5s-2.2 5-5 5z"/></g><g><path d="m107.5 168.2h40.5v10h-40.5z"/></g><g><path d="m230.9 131.2h-.2c-2.8 0-5-2.2-5-5s2.2-5 5-5h.2c2.8 0 5 2.2 5 5s-2.2 5-5 5z"/></g><g><path d="m282.1 149.1c-11.1 0-20.1-9-20.1-20.1v-2.9c0-2.8 2.2-5 5-5s5 2.2 5 5v2.9c0 5.6 4.5 10.1 10.1 10.1s10.1-4.5 10.1-10.1v-24.2c0-5.6-4.5-10.1-10.1-10.1-2.7 0-5.2 1.1-7.1 3s-2.9 4.4-2.9 7.1c0 2.8-2.2 5-5 5s-5-2.2-5-5c0-5.4 2.1-10.4 5.9-14.2s8.9-5.9 14.2-5.9c11.1 0 20.1 9 20.1 20.1v24.2c-.1 11.1-9.1 20.1-20.2 20.1z"/></g><g><path d="m249 149.1c-12.7 0-23-10.3-23-23v-2.8c0-2.8 2.2-5 5-5s5 2.2 5 5v2.7c0 7.2 5.9 13 13 13 7.2 0 13-5.8 13-13v-28.7c0-7.2-5.8-13-13-13-3.5 0-6.8 1.4-9.2 3.8-2.5 2.5-3.8 5.7-3.8 9.2 0 2.8-2.2 5-5 5s-5-2.2-5-5c0-6.2 2.4-11.9 6.8-16.3 4.3-4.3 10.1-6.7 16.3-6.7 12.7 0 23 10.3 23 23v28.9c-.1 12.6-10.5 22.9-23.1 22.9z"/></g><g><path d="m171.1 149.1c-12.6 0-23-10.2-23.3-22.8 0-.2 0-.4 0-.6v-29.2c0-6.2 2.4-12.1 6.8-16.5s10.3-6.8 16.5-6.8c12.9 0 23.3 10.5 23.3 23.3 0 2.8-2.2 5-5 5s-5-2.2-5-5c0-7.3-6-13.3-13.3-13.3-3.6 0-6.9 1.4-9.4 3.9s-3.9 5.9-3.9 9.4v29.3-.1.4c.1 7.2 6.1 13.1 13.3 13.1s13.2-5.9 13.3-13.1c0-.1 0-.2 0-.2v-2.4c0-2.8 2.2-5 5-5s5 2.2 5 5v2.4.6c-.2 12.5-10.7 22.6-23.3 22.6z"/></g><g><path d="m210.2 149.1c-12.8 0-23.8-9.6-25.5-22.3-.2-1.1-.2-2.3-.2-3.4v-33.1c0-6.9 2.7-13.3 7.5-18.2 4.9-4.9 11.3-7.5 18.2-7.5 14.2 0 25.7 11.5 25.7 25.7v33.1c0 1.2-.1 2.4-.2 3.5-1.7 12.7-12.7 22.2-25.5 22.2zm0-74.5c-4.2 0-8.1 1.6-11.1 4.6s-4.6 6.9-4.6 11.1v33.2c0 .7 0 1.4.1 2v.1c1 7.8 7.7 13.6 15.6 13.6s14.5-5.9 15.6-13.6c.1-.7.1-1.4.1-2.1v-33.2c0-8.7-7-15.7-15.7-15.7z"/></g><g><path d="m35.1 183.6h-16.2c-7.7 0-13.9-6.2-13.9-13.9v-40c0-7.7 6.2-13.9 13.9-13.9h16.2c2.8 0 5 2.2 5 5s-2.2 5-5 5h-16.2c-2.2 0-3.9 1.8-3.9 3.9v40c0 2.2 1.8 3.9 3.9 3.9h16.2c2.8 0 5 2.2 5 5s-2.2 5-5 5z"/></g><g><path d="m431.1 183.6h-16.2c-2.8 0-5-2.2-5-5s2.2-5 5-5h16.2c2.2 0 3.9-1.8 3.9-3.9v-40c0-2.2-1.8-3.9-3.9-3.9h-16.2c-2.8 0-5-2.2-5-5s2.2-5 5-5h16.2c7.7 0 13.9 6.2 13.9 13.9v40c0 7.7-6.2 13.9-13.9 13.9z"/></g></g></g></g></g>
</svg>