<svg width="60" height="60" viewBox="0 0 60 60" fill="none" xmlns="http://www.w3.org/2000/svg">
<path d="M48.5899 23.7052C47.7687 15.1491 40.6451 8.43607 31.8751 8.43607C25.089 8.43607 19.2781 12.4637 16.6003 18.2429C15.794 17.986 14.9539 17.8117 14.0632 17.8117C9.4035 17.8117 5.62524 21.5918 5.62524 26.2496C5.62524 27.1759 5.81088 28.0517 6.08651 28.8824C2.462 30.9957 0 34.8753 0 39.3718C0 46.1036 5.45659 51.5602 12.1883 51.5602V51.5639H45.9385V51.5602C53.709 51.5602 60 45.2653 60 37.4967C60 30.6412 55.0871 24.9466 48.5899 23.7052ZM37.0879 34.5003H33.7502V42.0232C33.7502 43.0601 32.9138 43.9021 31.8751 43.9021H28.1249C27.0899 43.9021 26.2498 43.0601 26.2498 42.0232V34.5003H22.9102C20.8738 34.5003 20.0431 33.1408 21.0594 31.4832L28.1493 24.4947C29.5387 23.1072 30.4181 23.0604 31.8507 24.4947L38.9406 31.4832C39.9606 33.1427 39.1243 34.5003 37.0879 34.5003Z" fill="#FF7675"/>
</svg>
