<svg width="30" height="30" viewBox="0 0 30 30" fill="none" xmlns="http://www.w3.org/2000/svg">
<g clip-path="url(#clip0_94_1192)">
<path d="M26.1894 28.846H3.81059C1.94877 28.846 0.439453 27.3367 0.439453 25.4749V4.52512C0.439453 2.66331 1.94877 1.15399 3.81059 1.15399H26.1894C28.0512 1.15399 29.5605 2.66331 29.5605 4.52512V25.4749C29.5605 27.3367 28.0512 28.846 26.1894 28.846Z" fill="#76B7EB"/>
<path d="M0.439453 16.7336V25.4749C0.439453 27.3367 1.94877 28.846 3.81059 28.846H26.1894C28.0512 28.846 29.5605 27.3367 29.5605 25.4749V16.7336H0.439453Z" fill="#B3E7FF"/>
<path d="M19.1018 8.51531H10.8983C10.4302 8.51531 10.0508 8.13585 10.0508 7.66781V4.44064C10.0508 3.97259 10.4302 3.59314 10.8983 3.59314H19.1018C19.5698 3.59314 19.9493 3.97259 19.9493 4.44064V7.66781C19.9493 8.13585 19.5698 8.51531 19.1018 8.51531Z" fill="white"/>
<path d="M18.1646 8.5153C18.1646 6.76756 16.7478 5.35071 15 5.35071C13.2523 5.35071 11.8354 6.76756 11.8354 8.5153H18.1646Z" fill="#7FDBD5"/>
<path d="M7.87921 25.3259C5.93214 23.3254 3.93615 19.8275 4.63523 14.5905C4.87517 12.7929 6.18345 11.1324 8.09326 11.1324C10.0031 11.1324 11.303 12.5334 11.5513 14.5905C11.7479 16.2202 11.3325 17.3126 10.9965 18.7247C10.5323 20.675 11.7243 21.9888 11.7243 23.7333C11.7243 24.9772 10.7159 25.9856 9.47197 25.9856C8.84994 25.9856 8.28685 25.7335 7.87921 25.3259Z" fill="#38648C"/>
<path opacity="0.1" d="M9.47187 25.1325C9.09986 25.1325 8.75005 24.9883 8.4862 24.7263C7.41447 23.6239 6.59995 22.3288 6.06558 20.8771C5.37951 19.0136 5.18281 16.9365 5.48093 14.7034C5.66122 13.3529 6.61642 11.9857 8.09327 11.9857C9.52366 11.9857 10.4998 12.9976 10.7043 14.6927C10.8468 15.8736 10.6288 16.7172 10.3529 17.7853C10.2915 18.023 10.228 18.2687 10.1665 18.5271C9.84101 19.8946 10.189 20.9902 10.496 21.9568C10.6889 22.5644 10.8711 23.1382 10.8711 23.7333C10.871 24.5049 10.2434 25.1325 9.47187 25.1325Z" fill="black"/>
<path d="M22.1208 25.3259C24.0679 23.3254 26.0639 19.8275 25.3648 14.5905C25.1248 12.7929 23.8166 11.1324 21.9068 11.1324C19.997 11.1324 18.697 12.5334 18.4488 14.5905C18.2521 16.2202 18.6676 17.3126 19.0036 18.7247C19.4678 20.675 18.2758 21.9888 18.2758 23.7333C18.2758 24.9772 19.2842 25.9856 20.5281 25.9856C21.1501 25.9856 21.7132 25.7335 22.1208 25.3259Z" fill="#38648C"/>
<path opacity="0.1" d="M20.5282 25.1325C19.7567 25.1325 19.129 24.5048 19.129 23.7333C19.129 23.1382 19.3113 22.5643 19.5042 21.9568C19.8112 20.9902 20.1592 19.8945 19.8337 18.5272C19.7722 18.2687 19.7087 18.023 19.6473 17.7853C19.3714 16.7172 19.1534 15.8735 19.2959 14.6927C19.5004 12.9976 20.4765 11.9857 21.9069 11.9857C23.3838 11.9857 24.339 13.3529 24.5192 14.7034C24.8174 16.9364 24.6206 19.0136 23.9346 20.8771C23.4002 22.3288 22.5857 23.6239 21.514 24.7263C21.25 24.9883 20.9002 25.1325 20.5282 25.1325Z" fill="black"/>
<path d="M0.439453 24.0392V25.4748C0.439453 27.3367 1.94877 28.846 3.81059 28.846H5.24625C5.24625 26.1912 3.09416 24.0392 0.439453 24.0392Z" fill="#38648C"/>
<path d="M29.5606 24.0392V25.4748C29.5606 27.3367 28.0513 28.846 26.1894 28.846H24.7538C24.7538 26.1912 26.9059 24.0392 29.5606 24.0392Z" fill="#38648C"/>
<path d="M6.94104 5.44911C7.42477 5.44911 7.8169 5.05697 7.8169 4.57325C7.8169 4.08952 7.42477 3.69739 6.94104 3.69739C6.45732 3.69739 6.06519 4.08952 6.06519 4.57325C6.06519 5.05697 6.45732 5.44911 6.94104 5.44911Z" fill="#B3E7FF"/>
<path d="M3.67322 5.44911C4.15695 5.44911 4.54908 5.05697 4.54908 4.57325C4.54908 4.08952 4.15695 3.69739 3.67322 3.69739C3.1895 3.69739 2.79736 4.08952 2.79736 4.57325C2.79736 5.05697 3.1895 5.44911 3.67322 5.44911Z" fill="#B3E7FF"/>
<path d="M6.94104 8.44386C7.42477 8.44386 7.8169 8.05172 7.8169 7.568C7.8169 7.08427 7.42477 6.69214 6.94104 6.69214C6.45732 6.69214 6.06519 7.08427 6.06519 7.568C6.06519 8.05172 6.45732 8.44386 6.94104 8.44386Z" fill="#B3E7FF"/>
<path d="M3.67322 8.44386C4.15695 8.44386 4.54908 8.05172 4.54908 7.568C4.54908 7.08427 4.15695 6.69214 3.67322 6.69214C3.1895 6.69214 2.79736 7.08427 2.79736 7.568C2.79736 8.05172 3.1895 8.44386 3.67322 8.44386Z" fill="#B3E7FF"/>
<path d="M23.059 5.44911C23.5427 5.44911 23.9348 5.05697 23.9348 4.57325C23.9348 4.08952 23.5427 3.69739 23.059 3.69739C22.5752 3.69739 22.1831 4.08952 22.1831 4.57325C22.1831 5.05697 22.5752 5.44911 23.059 5.44911Z" fill="#B3E7FF"/>
<path d="M26.3268 5.44911C26.8105 5.44911 27.2026 5.05697 27.2026 4.57325C27.2026 4.08952 26.8105 3.69739 26.3268 3.69739C25.8431 3.69739 25.4509 4.08952 25.4509 4.57325C25.4509 5.05697 25.8431 5.44911 26.3268 5.44911Z" fill="#B3E7FF"/>
<path d="M23.059 8.44386C23.5427 8.44386 23.9348 8.05172 23.9348 7.568C23.9348 7.08427 23.5427 6.69214 23.059 6.69214C22.5752 6.69214 22.1831 7.08427 22.1831 7.568C22.1831 8.05172 22.5752 8.44386 23.059 8.44386Z" fill="#B3E7FF"/>
<path d="M26.3268 8.44386C26.8105 8.44386 27.2026 8.05172 27.2026 7.568C27.2026 7.08427 26.8105 6.69214 26.3268 6.69214C25.8431 6.69214 25.4509 7.08427 25.4509 7.568C25.4509 8.05172 25.8431 8.44386 26.3268 8.44386Z" fill="#B3E7FF"/>
<path opacity="0.1" d="M17.823 28.846C7.49432 23.0613 4.66764 6.836 7.70789 1.15393H3.81059C1.94877 1.15393 0.439453 2.66319 0.439453 4.52512V25.4749C0.439453 27.3367 1.94877 28.846 3.81059 28.846H17.823Z" fill="black"/>
<path d="M10.8983 3.15368C10.1886 3.15368 9.61131 3.731 9.61131 4.44063V7.6678C9.61131 8.37743 10.1886 8.95475 10.8983 8.95475H14.9987C14.999 8.95475 14.9993 8.95481 14.9996 8.95481C14.9999 8.95481 15.0002 8.95475 15.0005 8.95475H19.1017C19.8114 8.95475 20.3887 8.37748 20.3887 7.6678V4.44063C20.3887 3.731 19.8114 3.15368 19.1017 3.15368H10.8983ZM19.5098 4.44063V7.6678C19.5098 7.8928 19.3267 8.07584 19.1017 8.07584H15.7729L17.1845 5.70356C17.3087 5.49502 17.2402 5.22532 17.0316 5.10122C16.823 4.97706 16.5533 5.04561 16.4292 5.25415L14.7501 8.07584H10.8982C10.6732 8.07584 10.4902 7.8928 10.4902 7.6678V4.44063C10.4902 4.21563 10.6732 4.03258 10.8982 4.03258H19.1017C19.3267 4.03258 19.5098 4.21563 19.5098 4.44063ZM29.5605 9.36139C29.8032 9.36139 30 9.16469 30 8.92194V4.52506C30 2.42389 28.2906 0.714478 26.1894 0.714478H3.81059C1.70941 0.714478 0 2.42389 0 4.52512V25.4749C0 27.5761 1.70941 29.2855 3.81059 29.2855H26.1894C28.2906 29.2855 30 27.5761 30 25.4749V10.9833C30 10.7406 29.8032 10.5439 29.5605 10.5439C29.3179 10.5439 29.1211 10.7406 29.1211 10.9833V16.294H25.9413C25.9267 15.7168 25.8802 15.1294 25.8004 14.5323C25.5457 12.6244 24.1265 10.6929 21.9068 10.6929C19.8229 10.6929 18.2943 12.2021 18.0125 14.5377C17.934 15.1887 17.9484 15.7598 18.0138 16.294H11.9862C12.0516 15.7598 12.066 15.1887 11.9875 14.5377C11.7056 12.2021 10.1771 10.6929 8.0932 10.6929C5.8735 10.6929 4.4543 12.6244 4.19959 14.5323C4.1199 15.1294 4.07332 15.7168 4.05867 16.294H0.878906V4.52512C0.878906 2.90858 2.19404 1.59344 3.81059 1.59344H26.1894C27.806 1.59338 29.1211 2.90852 29.1211 4.52512V8.922C29.1211 9.16463 29.3179 9.36139 29.5605 9.36139ZM29.1211 25.4749C29.1211 27.0914 27.806 28.4066 26.1894 28.4066H25.2153C25.4219 26.3485 27.0631 24.7074 29.1211 24.5008V25.4749ZM19.4312 18.623C19.3706 18.3684 19.3076 18.1245 19.2466 17.8887C18.9711 16.8224 18.7332 15.9014 18.8851 14.6431C19.1136 12.7487 20.2715 11.5719 21.9068 11.5719C23.6214 11.5719 24.7251 13.1197 24.9292 14.6486C25.2363 16.9491 25.0322 19.0928 24.3227 21.02C23.7677 22.5276 22.9217 23.8724 21.808 25.0172C21.4658 25.3584 21.0114 25.5462 20.5281 25.5462C19.5285 25.5462 18.7153 24.7329 18.7153 23.7333C18.7153 23.0741 18.907 22.4706 19.1099 21.8317C19.4148 20.8715 19.7301 19.8787 19.4312 18.623ZM5.07076 14.6486C5.27484 13.1197 6.37857 11.5719 8.0932 11.5719C9.7285 11.5719 10.8864 12.7487 11.1149 14.6431C11.2668 15.9014 11.0289 16.8224 10.7534 17.8887C10.6924 18.1245 10.6294 18.3684 10.5688 18.623C10.27 19.8787 10.5853 20.8715 10.8902 21.8317C11.0931 22.4706 11.2847 23.0741 11.2847 23.7333C11.2847 24.7329 10.4715 25.5462 9.47191 25.5462C8.98869 25.5462 8.53424 25.3584 8.19205 25.0172C7.07836 23.8724 6.23232 22.5276 5.67732 21.02C4.96775 19.0928 4.76367 16.9491 5.07076 14.6486ZM4.06178 17.173C4.10994 18.6342 4.37367 20.0232 4.8525 21.3237C5.45068 22.9485 6.36305 24.3982 7.56428 25.6325C7.56563 25.6338 7.56703 25.6353 7.56844 25.6367C8.07686 26.1451 8.75279 26.4251 9.4718 26.4251C10.956 26.4251 12.1635 25.2176 12.1635 23.7333C12.1635 22.9379 11.942 22.2403 11.7277 21.5656C11.4467 20.6808 11.1813 19.8451 11.4237 18.8264C11.4824 18.5801 11.5443 18.3404 11.6042 18.1086C11.6852 17.7952 11.7645 17.4866 11.8331 17.173H18.1666C18.2353 17.4866 18.3146 17.7952 18.3956 18.1086C18.4554 18.3404 18.5174 18.5801 18.576 18.8264C18.8185 19.8451 18.5531 20.6808 18.2721 21.5656C18.0578 22.2403 17.8362 22.9379 17.8362 23.7333C17.8362 25.2176 19.0437 26.4251 20.528 26.4251C21.247 26.4251 21.923 26.1451 22.4313 25.6367C22.4327 25.6353 22.4341 25.6338 22.4355 25.6325C23.6367 24.3982 24.5491 22.9485 25.1473 21.3237C25.626 20.0232 25.8898 18.6342 25.938 17.173H29.1211V23.6183C26.5781 23.8302 24.5447 25.8636 24.3328 28.4065H5.66689C5.63602 28.0347 5.56652 27.6682 5.45795 27.3125C5.38711 27.0803 5.14148 26.9497 4.90934 27.0205C4.67719 27.0913 4.54646 27.3369 4.6173 27.569C4.70051 27.8416 4.75594 28.122 4.78436 28.4065H3.81059C2.19404 28.4066 0.878906 27.0913 0.878906 25.4749V24.5015C1.95311 24.6106 2.95846 25.116 3.68742 25.9263C3.7742 26.0228 3.89397 26.0718 4.01426 26.0718C4.11897 26.0718 4.22402 26.0346 4.30805 25.9591C4.48852 25.7967 4.50316 25.5189 4.34086 25.3384C3.44531 24.343 2.20248 23.7303 0.878906 23.6185V17.173H4.06178Z" fill="black"/>
</g>
<defs>
<clipPath id="clip0_94_1192">
<rect width="30" height="30" fill="white"/>
</clipPath>
</defs>
</svg>
