<svg width="25" height="25" viewBox="0 0 1000 1000" fill="currentColor" xmlns="http://www.w3.org/2000/svg">
  <g transform="matrix(38.48 0 0 38.48 499.4995 499.4997)">
    <path
      d="M 23.25 11.9375 H 22.3125 V 8.75 C 22.3125 8.4019 22.1742 8.06806 21.9281 7.82192 C 21.6819 7.57578 21.3481 7.4375 21 7.4375 H 19.3125 V 6.5 C 19.3125 6.1519 19.1742 5.81806 18.9281 5.57192 C 18.6819 5.32578 18.3481 5.1875 18 5.1875 H 15.75 C 15.4019 5.1875 15.0681 5.32578 14.8219 5.57192 C 14.5758 5.81806 14.4375 6.1519 14.4375 6.5 V 11.9375 H 9.5625 V 6.5 C 9.5625 6.1519 9.42422 5.81806 9.17808 5.57192 C 8.93194 5.32578 8.5981 5.1875 8.25 5.1875 H 6 C 5.6519 5.1875 5.31806 5.32578 5.07192 5.57192 C 4.82578 5.81806 4.6875 6.1519 4.6875 6.5 V 7.4375 H 3 C 2.6519 7.4375 2.31806 7.57578 2.07192 7.82192 C 1.82578 8.06806 1.6875 8.4019 1.6875 8.75 V 11.9375 H 0.75 C 0.600816 11.9375 0.457742 11.9968 0.352252 12.1023 C 0.246763 12.2077 0.1875 12.3508 0.1875 12.5 C 0.1875 12.6492 0.246763 12.7923 0.352252 12.8977 C 0.457742 13.0032 0.600816 13.0625 0.75 13.0625 H 1.6875 V 16.25 C 1.6875 16.5981 1.82578 16.9319 2.07192 17.1781 C 2.31806 17.4242 2.6519 17.5625 3 17.5625 H 4.6875 V 18.5 C 4.6875 18.8481 4.82578 19.1819 5.07192 19.4281 C 5.31806 19.6742 5.6519 19.8125 6 19.8125 H 8.25 C 8.5981 19.8125 8.93194 19.6742 9.17808 19.4281 C 9.42422 19.1819 9.5625 18.8481 9.5625 18.5 V 13.0625 H 14.4375 V 18.5 C 14.4375 18.8481 14.5758 19.1819 14.8219 19.4281 C 15.0681 19.6742 15.4019 19.8125 15.75 19.8125 H 18 C 18.3481 19.8125 18.6819 19.6742 18.9281 19.4281 C 19.1742 19.1819 19.3125 18.8481 19.3125 18.5 V 17.5625 H 21 C 21.3481 17.5625 21.6819 17.4242 21.9281 17.1781 C 22.1742 16.9319 22.3125 16.5981 22.3125 16.25 V 13.0625 H 23.25 C 23.3992 13.0625 23.5423 13.0032 23.6477 12.8977 C 23.7532 12.7923 23.8125 12.6492 23.8125 12.5 C 23.8125 12.3508 23.7532 12.2077 23.6477 12.1023 C 23.5423 11.9968 23.3992 11.9375 23.25 11.9375 Z M 3 16.4375 C 2.95027 16.4375 2.90258 16.4177 2.86742 16.3826 C 2.83225 16.3474 2.8125 16.2997 2.8125 16.25 V 8.75 C 2.8125 8.70027 2.83225 8.65258 2.86742 8.61742 C 2.90258 8.58225 2.95027 8.5625 3 8.5625 H 4.6875 V 16.4375 H 3 Z M 8.4375 18.5 C 8.4375 18.5497 8.41775 18.5974 8.38258 18.6326 C 8.34742 18.6677 8.29973 18.6875 8.25 18.6875 H 6 C 5.95027 18.6875 5.90258 18.6677 5.86742 18.6326 C 5.83225 18.5974 5.8125 18.5497 5.8125 18.5 V 6.5 C 5.8125 6.45027 5.83225 6.40258 5.86742 6.36742 C 5.90258 6.33225 5.95027 6.3125 6 6.3125 H 8.25 C 8.29973 6.3125 8.34742 6.33225 8.38258 6.36742 C 8.41775 6.40258 8.4375 6.45027 8.4375 6.5 V 18.5 Z M 18.1875 18.5 C 18.1875 18.5497 18.1677 18.5974 18.1326 18.6326 C 18.0974 18.6677 18.0497 18.6875 18 18.6875 H 15.75 C 15.7003 18.6875 15.6526 18.6677 15.6174 18.6326 C 15.5823 18.5974 15.5625 18.5497 15.5625 18.5 V 6.5 C 15.5625 6.45027 15.5823 6.40258 15.6174 6.36742 C 15.6526 6.33225 15.7003 6.3125 15.75 6.3125 H 18 C 18.0497 6.3125 18.0974 6.33225 18.1326 6.36742 C 18.1677 6.40258 18.1875 6.45027 18.1875 6.5 V 18.5 Z M 21.1875 16.25 C 21.1875 16.2997 21.1677 16.3474 21.1326 16.3826 C 21.0974 16.4177 21.0497 16.4375 21 16.4375 H 19.3125 V 8.5625 H 21 C 21.0497 8.5625 21.0974 8.58225 21.1326 8.61742 C 21.1677 8.65258 21.1875 8.70027 21.1875 8.75 V 16.25 Z"
      fill="currentColor"/>
  </g>
  <g transform="matrix(5.5917 0 0 21.3259 687.3967 499.4997)">
    <path d="m 0 0 h 24 v 24 h -24 z" fill="currentColor"/>
  </g>
  <g transform="matrix(5.5917 0 0 21.3259 312.7824 499.5)">
    <path d="m 0 0 h 24 v 24 h -24 z" fill="currentColor"/>
  </g>
  <g transform="matrix(4.4442 0 0 13.5049 819.7137 499.4995)">
    <path d="m 0 0 h 24 v 24 h -24 z" fill="currentColor"/>
  </g>
  <g transform="matrix(4.4442 0 0 13.5049 185.6382 499.5)">
    <path d="m 0 0 h 24 v 24 h -24 z" fill="currentColor"/>
  </g>
</svg>
