<svg width="24" height="25" viewBox="0 0 24 25" fill="none" xmlns="http://www.w3.org/2000/svg">
<path d="M23.25 11.9375H22.3125V8.75C22.3125 8.4019 22.1742 8.06806 21.9281 7.82192C21.6819 7.57578 21.3481 7.4375 21 7.4375H19.3125V6.5C19.3125 6.1519 19.1742 5.81806 18.9281 5.57192C18.6819 5.32578 18.3481 5.1875 18 5.1875H15.75C15.4019 5.1875 15.0681 5.32578 14.8219 5.57192C14.5758 5.81806 14.4375 6.1519 14.4375 6.5V11.9375H9.5625V6.5C9.5625 6.1519 9.42422 5.81806 9.17808 5.57192C8.93194 5.32578 8.5981 5.1875 8.25 5.1875H6C5.6519 5.1875 5.31806 5.32578 5.07192 5.57192C4.82578 5.81806 4.6875 6.1519 4.6875 6.5V7.4375H3C2.6519 7.4375 2.31806 7.57578 2.07192 7.82192C1.82578 8.06806 1.6875 8.4019 1.6875 8.75V11.9375H0.75C0.600816 11.9375 0.457742 11.9968 0.352252 12.1023C0.246763 12.2077 0.1875 12.3508 0.1875 12.5C0.1875 12.6492 0.246763 12.7923 0.352252 12.8977C0.457742 13.0032 0.600816 13.0625 0.75 13.0625H1.6875V16.25C1.6875 16.5981 1.82578 16.9319 2.07192 17.1781C2.31806 17.4242 2.6519 17.5625 3 17.5625H4.6875V18.5C4.6875 18.8481 4.82578 19.1819 5.07192 19.4281C5.31806 19.6742 5.6519 19.8125 6 19.8125H8.25C8.5981 19.8125 8.93194 19.6742 9.17808 19.4281C9.42422 19.1819 9.5625 18.8481 9.5625 18.5V13.0625H14.4375V18.5C14.4375 18.8481 14.5758 19.1819 14.8219 19.4281C15.0681 19.6742 15.4019 19.8125 15.75 19.8125H18C18.3481 19.8125 18.6819 19.6742 18.9281 19.4281C19.1742 19.1819 19.3125 18.8481 19.3125 18.5V17.5625H21C21.3481 17.5625 21.6819 17.4242 21.9281 17.1781C22.1742 16.9319 22.3125 16.5981 22.3125 16.25V13.0625H23.25C23.3992 13.0625 23.5423 13.0032 23.6477 12.8977C23.7532 12.7923 23.8125 12.6492 23.8125 12.5C23.8125 12.3508 23.7532 12.2077 23.6477 12.1023C23.5423 11.9968 23.3992 11.9375 23.25 11.9375ZM3 16.4375C2.95027 16.4375 2.90258 16.4177 2.86742 16.3826C2.83225 16.3474 2.8125 16.2997 2.8125 16.25V8.75C2.8125 8.70027 2.83225 8.65258 2.86742 8.61742C2.90258 8.58225 2.95027 8.5625 3 8.5625H4.6875V16.4375H3ZM8.4375 18.5C8.4375 18.5497 8.41775 18.5974 8.38258 18.6326C8.34742 18.6677 8.29973 18.6875 8.25 18.6875H6C5.95027 18.6875 5.90258 18.6677 5.86742 18.6326C5.83225 18.5974 5.8125 18.5497 5.8125 18.5V6.5C5.8125 6.45027 5.83225 6.40258 5.86742 6.36742C5.90258 6.33225 5.95027 6.3125 6 6.3125H8.25C8.29973 6.3125 8.34742 6.33225 8.38258 6.36742C8.41775 6.40258 8.4375 6.45027 8.4375 6.5V18.5ZM18.1875 18.5C18.1875 18.5497 18.1677 18.5974 18.1326 18.6326C18.0974 18.6677 18.0497 18.6875 18 18.6875H15.75C15.7003 18.6875 15.6526 18.6677 15.6174 18.6326C15.5823 18.5974 15.5625 18.5497 15.5625 18.5V6.5C15.5625 6.45027 15.5823 6.40258 15.6174 6.36742C15.6526 6.33225 15.7003 6.3125 15.75 6.3125H18C18.0497 6.3125 18.0974 6.33225 18.1326 6.36742C18.1677 6.40258 18.1875 6.45027 18.1875 6.5V18.5ZM21.1875 16.25C21.1875 16.2997 21.1677 16.3474 21.1326 16.3826C21.0974 16.4177 21.0497 16.4375 21 16.4375H19.3125V8.5625H21C21.0497 8.5625 21.0974 8.58225 21.1326 8.61742C21.1677 8.65258 21.1875 8.70027 21.1875 8.75V16.25Z" fill="currentColor"/>
</svg>
