<svg width="25" height="25" viewBox="0 0 464 464" fill="currentColor" xmlns="http://www.w3.org/2000/svg">
  <path d="M414.02 136.53c-.82.09-1.63.31-2.42.67-28.35 12.886-52.077 8.579-54.68 8.99-8.05-47.81-49.7-91-124.92-91s-116.86 43.18-124.92 90.99c-2.961-.415-26.278 3.93-54.68-8.98-.79-.36-1.6-.58-2.42-.67 9.83-71.15 70.51-136.53 182.02-136.53s172.19 65.38 182.02 136.53z"/>
  <path d="M111.97 199.28c-15.37 10.19-29.11 22.56-41.07 36.98-15.68-25.35-23.1-54.39-22.29-83.25 17.748 7.533 37.35 10.766 57.04 9.15-.17 12.57 1.94 25.17 6.32 37.12z"/>
  <path d="M232 181.39c-149.71 0-212.65 131.17-188.81 241.46 5.2 24.1 26.76 41.15 51.41 41.15h274.8c24.65 0 46.21-17.05 51.41-41.15 23.84-110.29-39.1-241.46-188.81-241.46zm-94.29 96.98c-22.54 22.48-36.08 54-38.13 88.75-.25 4.25-3.78 7.53-7.98 7.53-4.595 0-8.262-3.864-7.99-8.47 2.28-38.67 17.48-73.88 42.8-99.14 3.12-3.12 8.19-3.11 11.31.01 3.12 3.13 3.12 8.2-.01 11.32zm36.25-24.67c-4.293 1.875-5.197 2.74-7.67 2.74-2.98 0-5.83-1.67-7.21-4.52-1.93-3.98-.26-8.76 3.72-10.69 1.55-.75 3.14-1.48 4.74-2.18 4.05-1.78 8.76.07 10.54 4.12 1.77 4.04-.07 8.76-4.12 10.53z"/>
  <path d="M393.1 236.26c-11.96-14.41-25.7-26.78-41.07-36.98 4.38-11.95 6.49-24.55 6.32-37.12 19.681 1.615 39.284-1.614 57.04-9.15.81 28.86-6.61 57.9-22.29 83.25z"/>
</svg>
